<?xml version="1.0" encoding="UTF-8"?>
<svg width="302px" height="593px" viewBox="0 0 302 593" version="1.1" xmlns="http://www.w3.org/2000/svg" xmlns:xlink="http://www.w3.org/1999/xlink">
    <!-- Generator: Sketch 60 (88103) - https://sketch.com -->
    <title>import scheme</title>
    <desc>Created with Sketch.</desc>
    <g id="Page-1" stroke="none" stroke-width="1" fill="none" fill-rule="evenodd">
        <g id="Group-2-Copy" transform="translate(0.000000, 1.000000)">
            <g id="import-scheme">
                <g id="Mialgun" transform="translate(1.000000, 0.000000)">
                    <rect id="Rectangle-Copy-13" stroke="#E0EAEC" x="0" y="0" width="300" height="86" rx="8"></rect>
                    <text id="External-API" font-family="OpenSans-Bold, Open Sans" font-size="12" font-weight="bold" fill="#547580">
                        <tspan x="113.446289" y="48">External API</tspan>
                    </text>
                    <text id="Plain-sensitive-data" font-family="OpenSans-Light, Open Sans" font-size="12" font-weight="300" fill="#547580">
                        <tspan x="160.3125" y="127">Plain sensitive data</tspan>
                    </text>
                </g>
                <g id="internal-network" transform="translate(0.000000, 157.000000)" stroke="#E0EAEC">
                    <rect id="Rectangle-Copy-11" x="0.5" y="0" width="300" height="232" rx="8"></rect>
                </g>
                <g id="backend" transform="translate(61.000000, 187.000000)">
                    <rect id="Rectangle-Copy-12" stroke="#E0EAEC" x="0" y="0" width="180" height="86" rx="8"></rect>
                    <rect id="Rectangle-Copy-13" stroke="#E0EAEC" x="0" y="0" width="180" height="86" rx="8"></rect>
                    <path d="M68.6572266,48 C69.6259766,48 70.3925781,47.78125 70.9570312,47.34375 C71.5214844,46.90625 71.8037109,46.296875 71.8037109,45.515625 C71.8037109,44.9648438 71.6835938,44.5234375 71.4433594,44.1914062 C71.203125,43.859375 70.8115234,43.6328125 70.2685547,43.5117188 L70.2685547,43.5117188 L70.2685547,43.453125 C70.6669922,43.3867188 70.9863281,43.1894531 71.2265625,42.8613281 C71.4667969,42.5332031 71.5869141,42.1132812 71.5869141,41.6015625 C71.5869141,40.8476562 71.3125,40.2978516 70.7636719,39.9521484 C70.2148438,39.6064453 69.3330078,39.4335938 68.1181641,39.4335938 L68.1181641,39.4335938 L65.4521484,39.4335938 L65.4521484,48 L68.6572266,48 Z M68.3232422,42.8261719 L67.2685547,42.8261719 L67.2685547,40.921875 L68.2236328,40.921875 C68.7431641,40.921875 69.1230469,40.9931641 69.3632812,41.1357422 C69.6035156,41.2783203 69.7236328,41.5136719 69.7236328,41.8417969 C69.7236328,42.1933594 69.6132812,42.4453125 69.3925781,42.5976562 C69.171875,42.75 68.8154297,42.8261719 68.3232422,42.8261719 L68.3232422,42.8261719 Z M68.4521484,46.5 L67.2685547,46.5 L67.2685547,44.2675781 L68.3935547,44.2675781 C69.4091797,44.2675781 69.9169922,44.6230469 69.9169922,45.3339844 C69.9169922,45.7285156 69.7978516,46.0214844 69.5595703,46.2128906 C69.3212891,46.4042969 68.9521484,46.5 68.4521484,46.5 L68.4521484,46.5 Z M74.9677734,48.1171875 C75.4794922,48.1171875 75.8945312,48.0439453 76.2128906,47.8974609 C76.53125,47.7509766 76.8408203,47.4882812 77.1416016,47.109375 L77.1416016,47.109375 L77.1884766,47.109375 L77.5341797,48 L78.7822266,48 L78.7822266,43.6347656 C78.7822266,42.8535156 78.5478516,42.2714844 78.0791016,41.8886719 C77.6103516,41.5058594 76.9365234,41.3144531 76.0576172,41.3144531 C75.1396484,41.3144531 74.3037109,41.5117188 73.5498047,41.90625 L73.5498047,41.90625 L74.1416016,43.1132812 C74.8486328,42.796875 75.4638672,42.6386719 75.9873047,42.6386719 C76.6669922,42.6386719 77.0068359,42.9707031 77.0068359,43.6347656 L77.0068359,43.6347656 L77.0068359,43.921875 L75.8701172,43.9570312 C74.8896484,43.9921875 74.15625,44.1748047 73.6699219,44.5048828 C73.1835938,44.8349609 72.9404297,45.3476562 72.9404297,46.0429688 C72.9404297,46.7070312 73.1210938,47.21875 73.4824219,47.578125 C73.84375,47.9375 74.3388672,48.1171875 74.9677734,48.1171875 Z M75.6416016,46.8105469 C75.0634766,46.8105469 74.7744141,46.5585938 74.7744141,46.0546875 C74.7744141,45.703125 74.9013672,45.4414062 75.1552734,45.2695312 C75.4091797,45.0976562 75.7958984,45.0039062 76.3154297,44.9882812 L76.3154297,44.9882812 L77.0068359,44.9648438 L77.0068359,45.5039062 C77.0068359,45.8984375 76.8828125,46.2148438 76.6347656,46.453125 C76.3867188,46.6914062 76.0556641,46.8105469 75.6416016,46.8105469 Z M83.2822266,48.1171875 C83.7314453,48.1171875 84.1035156,48.0820312 84.3984375,48.0117188 C84.6933594,47.9414062 84.9853516,47.8144531 85.2744141,47.6308594 L85.2744141,47.6308594 L85.2744141,46.1015625 C84.9814453,46.296875 84.6884766,46.4404297 84.3955078,46.5322266 C84.1025391,46.6240234 83.7841797,46.6699219 83.4404297,46.6699219 C82.5107422,46.6699219 82.0458984,46.0292969 82.0458984,44.7480469 C82.0458984,43.4277344 82.5107422,42.7675781 83.4404297,42.7675781 C83.6826172,42.7675781 83.9248047,42.8037109 84.1669922,42.8759766 C84.4091797,42.9482422 84.6708984,43.0410156 84.9521484,43.1542969 L84.9521484,43.1542969 L85.4794922,41.7714844 C84.8779297,41.4746094 84.1982422,41.3261719 83.4404297,41.3261719 C82.4052734,41.3261719 81.6103516,41.6201172 81.0556641,42.2080078 C80.5009766,42.7958984 80.2236328,43.6464844 80.2236328,44.7597656 C80.2236328,46.9980469 81.2431641,48.1171875 83.2822266,48.1171875 Z M88.5791016,48 L88.5791016,45.9609375 L89.3466797,45.3457031 L91.2333984,48 L93.2958984,48 L90.5361328,44.2910156 L93.1376953,41.4492188 L91.1220703,41.4492188 L89.2880859,43.4414062 L88.5087891,44.4375 L88.4853516,44.4375 L88.5791016,42.9492188 L88.5791016,38.8828125 L86.7919922,38.8828125 L86.7919922,48 L88.5791016,48 Z M96.9580078,48.1171875 C97.4697266,48.1171875 97.9033203,48.0791016 98.2587891,48.0029297 C98.6142578,47.9267578 98.9482422,47.8105469 99.2607422,47.6542969 L99.2607422,47.6542969 L99.2607422,46.2714844 C98.8779297,46.4511719 98.5107422,46.5820312 98.1591797,46.6640625 C97.8076172,46.7460938 97.4345703,46.7871094 97.0400391,46.7871094 C96.5322266,46.7871094 96.1376953,46.6445312 95.8564453,46.359375 C95.5751953,46.0742188 95.4248047,45.6777344 95.4052734,45.1699219 L95.4052734,45.1699219 L99.6298828,45.1699219 L99.6298828,44.3027344 C99.6298828,43.3730469 99.3720703,42.6445312 98.8564453,42.1171875 C98.3408203,41.5898438 97.6201172,41.3261719 96.6943359,41.3261719 C95.7255859,41.3261719 94.9667969,41.6259766 94.4179688,42.2255859 C93.8691406,42.8251953 93.5947266,43.6738281 93.5947266,44.7714844 C93.5947266,45.8378906 93.8916016,46.6621094 94.4853516,47.2441406 C95.0791016,47.8261719 95.9033203,48.1171875 96.9580078,48.1171875 Z M97.9541016,43.9804688 L95.4462891,43.9804688 C95.4775391,43.5390625 95.6005859,43.1982422 95.8154297,42.9580078 C96.0302734,42.7177734 96.3271484,42.5976562 96.7060547,42.5976562 C97.0849609,42.5976562 97.3857422,42.7177734 97.6083984,42.9580078 C97.8310547,43.1982422 97.9462891,43.5390625 97.9541016,43.9804688 L97.9541016,43.9804688 Z M102.870117,48 L102.870117,44.9179688 C102.870117,44.1445312 102.981445,43.5908203 103.204102,43.2568359 C103.426758,42.9228516 103.788086,42.7558594 104.288086,42.7558594 C104.655273,42.7558594 104.922852,42.8740234 105.09082,43.1103516 C105.258789,43.3466797 105.342773,43.7011719 105.342773,44.1738281 L105.342773,44.1738281 L105.342773,48 L107.129883,48 L107.129883,43.7285156 C107.129883,42.9511719 106.932617,42.3564453 106.538086,41.9443359 C106.143555,41.5322266 105.56543,41.3261719 104.803711,41.3261719 C104.358398,41.3261719 103.960938,41.4072266 103.611328,41.5693359 C103.261719,41.7314453 102.987305,41.9707031 102.788086,42.2871094 L102.788086,42.2871094 L102.688477,42.2871094 L102.448242,41.4492188 L101.083008,41.4492188 L101.083008,48 L102.870117,48 Z M111.043945,48.1171875 C111.875977,48.1171875 112.495117,47.7949219 112.901367,47.1503906 L112.901367,47.1503906 L112.977539,47.1503906 L113.323242,48 L114.694336,48 L114.694336,38.8828125 L112.901367,38.8828125 L112.901367,40.9804688 C112.901367,41.3632812 112.946289,41.7988281 113.036133,42.2871094 L113.036133,42.2871094 L112.977539,42.2871094 C112.543945,41.6464844 111.915039,41.3261719 111.09082,41.3261719 C110.305664,41.3261719 109.689453,41.6259766 109.242188,42.2255859 C108.794922,42.8251953 108.571289,43.6621094 108.571289,44.7363281 C108.571289,45.7949219 108.791016,46.6230469 109.230469,47.2207031 C109.669922,47.8183594 110.274414,48.1171875 111.043945,48.1171875 Z M111.670898,46.6933594 C111.256836,46.6933594 110.938477,46.5322266 110.71582,46.2099609 C110.493164,45.8876953 110.381836,45.4042969 110.381836,44.7597656 C110.381836,44.1152344 110.492188,43.6240234 110.712891,43.2861328 C110.933594,42.9482422 111.243164,42.7792969 111.641602,42.7792969 C112.129883,42.7792969 112.482422,42.9316406 112.699219,43.2363281 C112.916016,43.5410156 113.024414,44.0449219 113.024414,44.7480469 L113.024414,44.7480469 L113.024414,44.9414062 C113.004883,45.578125 112.888672,46.0292969 112.675781,46.2949219 C112.462891,46.5605469 112.12793,46.6933594 111.670898,46.6933594 Z" id="Backend" fill="#547580" fill-rule="nonzero"></path>
                </g>
                <g id="DB" transform="translate(8.000000, 302.000000)">
                    <path d="M79.53125,36 C81.046875,36 82.2060547,35.625 83.0087891,34.875 C83.8115234,34.125 84.2128906,33.0449219 84.2128906,31.6347656 C84.2128906,30.3105469 83.8261719,29.2792969 83.0527344,28.5410156 C82.2792969,27.8027344 81.1933594,27.4335938 79.7949219,27.4335938 L79.7949219,27.4335938 L77.1054688,27.4335938 L77.1054688,36 L79.53125,36 Z M79.7011719,34.5 L78.921875,34.5 L78.921875,28.921875 L79.8886719,28.921875 C81.5136719,28.921875 82.3261719,29.8417969 82.3261719,31.6816406 C82.3261719,33.5605469 81.4511719,34.5 79.7011719,34.5 L79.7011719,34.5 Z M89.1933594,36 C90.1621094,36 90.9287109,35.78125 91.4931641,35.34375 C92.0576172,34.90625 92.3398438,34.296875 92.3398438,33.515625 C92.3398438,32.9648438 92.2197266,32.5234375 91.9794922,32.1914062 C91.7392578,31.859375 91.3476562,31.6328125 90.8046875,31.5117188 L90.8046875,31.5117188 L90.8046875,31.453125 C91.203125,31.3867188 91.5224609,31.1894531 91.7626953,30.8613281 C92.0029297,30.5332031 92.1230469,30.1132812 92.1230469,29.6015625 C92.1230469,28.8476562 91.8486328,28.2978516 91.2998047,27.9521484 C90.7509766,27.6064453 89.8691406,27.4335938 88.6542969,27.4335938 L88.6542969,27.4335938 L85.9882812,27.4335938 L85.9882812,36 L89.1933594,36 Z M88.859375,30.8261719 L87.8046875,30.8261719 L87.8046875,28.921875 L88.7597656,28.921875 C89.2792969,28.921875 89.6591797,28.9931641 89.8994141,29.1357422 C90.1396484,29.2783203 90.2597656,29.5136719 90.2597656,29.8417969 C90.2597656,30.1933594 90.1494141,30.4453125 89.9287109,30.5976562 C89.7080078,30.75 89.3515625,30.8261719 88.859375,30.8261719 L88.859375,30.8261719 Z M88.9882812,34.5 L87.8046875,34.5 L87.8046875,32.2675781 L88.9296875,32.2675781 C89.9453125,32.2675781 90.453125,32.6230469 90.453125,33.3339844 C90.453125,33.7285156 90.3339844,34.0214844 90.0957031,34.2128906 C89.8574219,34.4042969 89.4882812,34.5 88.9882812,34.5 L88.9882812,34.5 Z" fill="#547580" fill-rule="nonzero"></path>
                    <line x1="53.5" y1="5.46078431" x2="53.5" y2="51.5392157" id="Line-2" stroke="#E0EAEC" stroke-linecap="square"></line>
                    <line x1="115.5" y1="5.46078431" x2="115.5" y2="51.5392157" id="Line-2-Copy" stroke="#E0EAEC" stroke-linecap="square"></line>
                    <path d="M53.5,5 C74.1666667,11.6666667 94.8333333,11.6666667 115.5,5" id="Path" stroke="#E0EAEC"></path>
                    <path d="M53.5,52 C74.1666667,58.6666667 94.8333333,58.6666667 115.5,52" id="Path-Copy-2" stroke="#E0EAEC" stroke-linecap="round"></path>
                    <path d="M53.5,0 C74.1666667,6.66666667 94.8333333,6.66666667 115.5,0" id="Path-Copy" stroke="#E0EAEC" stroke-linecap="round" transform="translate(84.500000, 2.500000) scale(1, -1) translate(-84.500000, -2.500000) "></path>
                    <text id="Plain-sensitive-data" font-family="OpenSans-Light, Open Sans" font-size="12" font-weight="300" fill="#547580">
                        <tspan x="21.1191406" y="15">Plain</tspan>
                        <tspan x="0.6171875" y="32">sensitive</tspan>
                        <tspan x="23.1230469" y="49">data</tspan>
                    </text>
                </g>
                <g id="arrows" transform="translate(91.125000, 97.000000)" fill="#E0EAEC" fill-rule="nonzero">
                    <path id="Line-Copy-10" d="M59.8718455,-0.00313470334 L59.8749901,0.496855408 L60.321,71.496 L64.3214529,71.4718668 L59.8781446,80.4999901 L55.3216309,71.5284694 L59.321,71.503 L58.8750099,0.503144592 L58.8718653,0.00315448045 L59.8718455,-0.00313470334 Z"></path>
                    <path id="Line-Copy-11" d="M59.125939,185.749063 L60.1259372,185.750939 L60.1249991,186.250938 L59.891,311 L63.8909395,311.008458 L59.3740619,319.999999 L54.8909554,310.991572 L58.891,310.999 L59.1250009,186.249062 L59.125939,185.749063 Z"></path>
                    <path id="Line-Copy-12" d="M1.24729734,178.875007 L5.79587953,187.850552 L1.796,187.872 L1.828,193.997 L5.82898899,193.9758 L1.37770266,202.999993 L-3.17087953,194.024448 L0.828,194.002 L0.796,187.877 L-3.20398899,187.8992 L1.24729734,178.875007 Z"></path>
                </g>
                <g id="browser" transform="translate(1.000000, 430.000000)">
                    <g id="table" transform="translate(14.000000, 33.000000)">
                        <rect id="Rectangle" stroke="#E0EAEC" fill="#FFFFFF" x="1" y="0" width="270" height="109" rx="8"></rect>
                        <path d="M9,0 L263,0 C267.418278,-8.11624501e-16 271,3.581722 271,8 L271,30 L271,30 L1,30 L1,8 C1,3.581722 4.581722,8.11624501e-16 9,0 Z" id="Rectangle-Copy" stroke="#E0EAEC" fill="#547580"></path>
                        <line x1="0.576595745" y1="54.5" x2="270.423404" y2="54.5" id="Line-4-Copy" stroke="#E0EAEC" stroke-linecap="square"></line>
                        <line x1="0.576595745" y1="79.5" x2="270.423404" y2="79.5" id="Line-4-Copy-2" stroke="#E0EAEC" stroke-linecap="square"></line>
                        <line x1="41.5" y1="0.5" x2="41.5" y2="109.5" id="Line-5" stroke="#E0EAEC" stroke-linecap="square"></line>
                        <line x1="132.5" y1="0.5" x2="132.5" y2="109.5" id="Line-5-Copy" stroke="#E0EAEC" stroke-linecap="square"></line>
                        <line x1="241.5" y1="0.5" x2="241.5" y2="109.5" id="Line-5-Copy-2" stroke="#E0EAEC" stroke-linecap="square"></line>
                        <text id="SSN" font-family="OpenSans-SemiBold, Open Sans" font-size="14" font-weight="500" fill="#FFFFFF">
                            <tspan x="51" y="21">SSN</tspan>
                        </text>
                        <text id="Card-Number" font-family="OpenSans-SemiBold, Open Sans" font-size="14" font-weight="500" fill="#FFFFFF">
                            <tspan x="141" y="21">Card Number</tspan>
                        </text>
                    </g>
                    <rect id="Rectangle" fill="#547580" x="0" y="0" width="300" height="16" rx="8"></rect>
                    <rect id="Rectangle-Copy-2" fill="#FFFFFF" x="56" y="3" width="189" height="10" rx="5"></rect>
                    <circle id="Oval" fill="#FF6159" cx="9.5" cy="8.5" r="4.5"></circle>
                    <circle id="Oval-Copy-4" fill="#FFBF2F" cx="20.5" cy="8.5" r="4.5"></circle>
                    <circle id="v" fill="#28CA42" cx="32.5" cy="8.5" r="4.5"></circle>
                    <rect id="Rectangle" stroke="#E0EAEC" x="0" y="0" width="300" height="161" rx="8"></rect>
                </g>
            </g>
        </g>
    </g>
</svg>