<?xml version="1.0" encoding="UTF-8"?>
<svg width="302px" height="593px" viewBox="0 0 302 593" version="1.1" xmlns="http://www.w3.org/2000/svg" xmlns:xlink="http://www.w3.org/1999/xlink">
    <!-- Generator: Sketch 60 (88103) - https://sketch.com -->
    <title>import scheme</title>
    <desc>Created with Sketch.</desc>
    <g id="Page-1" stroke="none" stroke-width="1" fill="none" fill-rule="evenodd">
        <g id="Group-2-Copy" transform="translate(0.000000, 1.000000)">
            <g id="import-scheme">
                <g id="Mialgun" transform="translate(1.000000, 0.000000)">
                    <rect id="Rectangle-Copy-13" stroke="#E0EAEC" x="0" y="0" width="300" height="86" rx="8"></rect>
                    <path d="M119.458008,48 L119.458008,46.5 L116.34082,46.5 L116.34082,44.2910156 L119.241211,44.2910156 L119.241211,42.8027344 L116.34082,42.8027344 L116.34082,40.921875 L119.458008,40.921875 L119.458008,39.4335938 L114.524414,39.4335938 L114.524414,48 L119.458008,48 Z M122.25293,48 L123.635742,45.7558594 L125.012695,48 L127.045898,48 L124.813477,44.6542969 L126.946289,41.4492188 L124.918945,41.4492188 L123.635742,43.5351562 L122.364258,41.4492188 L120.336914,41.4492188 L122.446289,44.6542969 L120.225586,48 L122.25293,48 Z M130.286133,48.1171875 C130.93457,48.1171875 131.481445,48.0175781 131.926758,47.8183594 L131.926758,47.8183594 L131.926758,46.4882812 C131.489258,46.625 131.114258,46.6933594 130.801758,46.6933594 C130.567383,46.6933594 130.378906,46.6328125 130.236328,46.5117188 C130.09375,46.390625 130.022461,46.203125 130.022461,45.9492188 L130.022461,45.9492188 L130.022461,42.7910156 L131.856445,42.7910156 L131.856445,41.4492188 L130.022461,41.4492188 L130.022461,40.0546875 L128.879883,40.0546875 L128.364258,41.4375 L127.379883,42.0351562 L127.379883,42.7910156 L128.235352,42.7910156 L128.235352,45.9492188 C128.235352,46.671875 128.398438,47.2138672 128.724609,47.5751953 C129.050781,47.9365234 129.571289,48.1171875 130.286133,48.1171875 Z M136.21582,48.1171875 C136.727539,48.1171875 137.161133,48.0791016 137.516602,48.0029297 C137.87207,47.9267578 138.206055,47.8105469 138.518555,47.6542969 L138.518555,47.6542969 L138.518555,46.2714844 C138.135742,46.4511719 137.768555,46.5820312 137.416992,46.6640625 C137.06543,46.7460938 136.692383,46.7871094 136.297852,46.7871094 C135.790039,46.7871094 135.395508,46.6445312 135.114258,46.359375 C134.833008,46.0742188 134.682617,45.6777344 134.663086,45.1699219 L134.663086,45.1699219 L138.887695,45.1699219 L138.887695,44.3027344 C138.887695,43.3730469 138.629883,42.6445312 138.114258,42.1171875 C137.598633,41.5898438 136.87793,41.3261719 135.952148,41.3261719 C134.983398,41.3261719 134.224609,41.6259766 133.675781,42.2255859 C133.126953,42.8251953 132.852539,43.6738281 132.852539,44.7714844 C132.852539,45.8378906 133.149414,46.6621094 133.743164,47.2441406 C134.336914,47.8261719 135.161133,48.1171875 136.21582,48.1171875 Z M137.211914,43.9804688 L134.704102,43.9804688 C134.735352,43.5390625 134.858398,43.1982422 135.073242,42.9580078 C135.288086,42.7177734 135.584961,42.5976562 135.963867,42.5976562 C136.342773,42.5976562 136.643555,42.7177734 136.866211,42.9580078 C137.088867,43.1982422 137.204102,43.5390625 137.211914,43.9804688 L137.211914,43.9804688 Z M142.12793,48 L142.12793,44.6660156 C142.12793,44.1386719 142.287109,43.7285156 142.605469,43.4355469 C142.923828,43.1425781 143.368164,42.9960938 143.938477,42.9960938 C144.145508,42.9960938 144.321289,43.015625 144.46582,43.0546875 L144.46582,43.0546875 L144.600586,41.3789062 C144.44043,41.34375 144.239258,41.3261719 143.99707,41.3261719 C143.59082,41.3261719 143.214844,41.4384766 142.869141,41.6630859 C142.523438,41.8876953 142.249023,42.1835938 142.045898,42.5507812 L142.045898,42.5507812 L141.958008,42.5507812 L141.694336,41.4492188 L140.34082,41.4492188 L140.34082,48 L142.12793,48 Z M147.577148,48 L147.577148,44.9179688 C147.577148,44.1445312 147.688477,43.5908203 147.911133,43.2568359 C148.133789,42.9228516 148.495117,42.7558594 148.995117,42.7558594 C149.362305,42.7558594 149.629883,42.8740234 149.797852,43.1103516 C149.96582,43.3466797 150.049805,43.7011719 150.049805,44.1738281 L150.049805,44.1738281 L150.049805,48 L151.836914,48 L151.836914,43.7285156 C151.836914,42.9511719 151.639648,42.3564453 151.245117,41.9443359 C150.850586,41.5322266 150.272461,41.3261719 149.510742,41.3261719 C149.06543,41.3261719 148.667969,41.4072266 148.318359,41.5693359 C147.96875,41.7314453 147.694336,41.9707031 147.495117,42.2871094 L147.495117,42.2871094 L147.395508,42.2871094 L147.155273,41.4492188 L145.790039,41.4492188 L145.790039,48 L147.577148,48 Z M155.270508,48.1171875 C155.782227,48.1171875 156.197266,48.0439453 156.515625,47.8974609 C156.833984,47.7509766 157.143555,47.4882812 157.444336,47.109375 L157.444336,47.109375 L157.491211,47.109375 L157.836914,48 L159.084961,48 L159.084961,43.6347656 C159.084961,42.8535156 158.850586,42.2714844 158.381836,41.8886719 C157.913086,41.5058594 157.239258,41.3144531 156.360352,41.3144531 C155.442383,41.3144531 154.606445,41.5117188 153.852539,41.90625 L153.852539,41.90625 L154.444336,43.1132812 C155.151367,42.796875 155.766602,42.6386719 156.290039,42.6386719 C156.969727,42.6386719 157.30957,42.9707031 157.30957,43.6347656 L157.30957,43.6347656 L157.30957,43.921875 L156.172852,43.9570312 C155.192383,43.9921875 154.458984,44.1748047 153.972656,44.5048828 C153.486328,44.8349609 153.243164,45.3476562 153.243164,46.0429688 C153.243164,46.7070312 153.423828,47.21875 153.785156,47.578125 C154.146484,47.9375 154.641602,48.1171875 155.270508,48.1171875 Z M155.944336,46.8105469 C155.366211,46.8105469 155.077148,46.5585938 155.077148,46.0546875 C155.077148,45.703125 155.204102,45.4414062 155.458008,45.2695312 C155.711914,45.0976562 156.098633,45.0039062 156.618164,44.9882812 L156.618164,44.9882812 L157.30957,44.9648438 L157.30957,45.5039062 C157.30957,45.8984375 157.185547,46.2148438 156.9375,46.453125 C156.689453,46.6914062 156.358398,46.8105469 155.944336,46.8105469 Z M162.711914,48 L162.711914,38.8828125 L160.924805,38.8828125 L160.924805,48 L162.711914,48 Z M168.723633,48 L169.344727,45.9609375 L172.467773,45.9609375 L173.088867,48 L175.045898,48 L172.010742,39.3984375 L169.790039,39.3984375 L166.766602,48 L168.723633,48 Z M172.03418,44.4375 L169.801758,44.4375 C170.411133,42.4648438 170.780273,41.2285156 170.90918,40.7285156 C170.94043,40.8691406 170.992188,41.0605469 171.064453,41.3027344 C171.136719,41.5449219 171.459961,42.5898438 172.03418,44.4375 L172.03418,44.4375 Z M177.94043,48 L177.94043,44.953125 L178.719727,44.953125 C179.782227,44.953125 180.601562,44.7089844 181.177734,44.2207031 C181.753906,43.7324219 182.041992,43.0273438 182.041992,42.1054688 C182.041992,41.21875 181.771484,40.5517578 181.230469,40.1044922 C180.689453,39.6572266 179.899414,39.4335938 178.860352,39.4335938 L178.860352,39.4335938 L176.124023,39.4335938 L176.124023,48 L177.94043,48 Z M178.538086,43.4648438 L177.94043,43.4648438 L177.94043,40.921875 L178.766602,40.921875 C179.262695,40.921875 179.626953,41.0234375 179.859375,41.2265625 C180.091797,41.4296875 180.208008,41.7441406 180.208008,42.1699219 C180.208008,42.5917969 180.069336,42.9130859 179.791992,43.1337891 C179.514648,43.3544922 179.09668,43.4648438 178.538086,43.4648438 L178.538086,43.4648438 Z M185.475586,48 L185.475586,39.4335938 L183.65918,39.4335938 L183.65918,48 L185.475586,48 Z" id="ExternalAPI" fill="#547580" fill-rule="nonzero"></path>
                    <path d="M162.123047,127 L162.123047,123.460938 L163.447266,123.460938 C164.478516,123.460938 165.275391,123.240234 165.837891,122.798828 C166.400391,122.357422 166.681641,121.722656 166.681641,120.894531 C166.681641,119.253906 165.662109,118.433594 163.623047,118.433594 L163.623047,118.433594 L161.525391,118.433594 L161.525391,127 L162.123047,127 Z M163.300781,122.945312 L162.123047,122.945312 L162.123047,118.972656 L163.541016,118.972656 C164.392578,118.972656 165.021484,119.131836 165.427734,119.450195 C165.833984,119.768555 166.037109,120.257812 166.037109,120.917969 C166.037109,121.632812 165.822266,122.149414 165.392578,122.467773 C164.962891,122.786133 164.265625,122.945312 163.300781,122.945312 L163.300781,122.945312 Z M168.978516,127 L168.978516,117.882812 L168.398438,117.882812 L168.398438,127 L168.978516,127 Z M172.599609,127.117188 C173.060547,127.117188 173.459961,127.032227 173.797852,126.862305 C174.135742,126.692383 174.464844,126.402344 174.785156,125.992188 L174.785156,125.992188 L174.832031,125.992188 L174.978516,127 L175.40625,127 L175.40625,122.763672 C175.40625,121.994141 175.233398,121.427734 174.887695,121.064453 C174.541992,120.701172 174.019531,120.519531 173.320312,120.519531 C172.636719,120.519531 171.945312,120.683594 171.246094,121.011719 L171.246094,121.011719 L171.462891,121.515625 C172.095703,121.1875 172.707031,121.023438 173.296875,121.023438 C173.84375,121.023438 174.240234,121.177734 174.486328,121.486328 C174.732422,121.794922 174.855469,122.251953 174.855469,122.857422 L174.855469,122.857422 L174.855469,123.279297 L173.642578,123.314453 C172.662109,123.333984 171.913086,123.515625 171.395508,123.859375 C170.87793,124.203125 170.619141,124.685547 170.619141,125.306641 C170.619141,125.873047 170.792969,126.316406 171.140625,126.636719 C171.488281,126.957031 171.974609,127.117188 172.599609,127.117188 Z M172.634766,126.589844 C172.189453,126.589844 171.844727,126.479492 171.600586,126.258789 C171.356445,126.038086 171.234375,125.728516 171.234375,125.330078 C171.234375,124.830078 171.424805,124.461914 171.805664,124.225586 C172.186523,123.989258 172.824219,123.849609 173.71875,123.806641 L173.71875,123.806641 L174.832031,123.759766 L174.832031,124.386719 C174.832031,125.078125 174.635742,125.618164 174.243164,126.006836 C173.850586,126.395508 173.314453,126.589844 172.634766,126.589844 Z M177.755859,119.429688 C177.876953,119.429688 177.97168,119.378906 178.040039,119.277344 C178.108398,119.175781 178.142578,119.037109 178.142578,118.861328 C178.142578,118.681641 178.108398,118.542969 178.040039,118.445312 C177.97168,118.347656 177.876953,118.298828 177.755859,118.298828 C177.509766,118.298828 177.386719,118.486328 177.386719,118.861328 C177.386719,119.240234 177.509766,119.429688 177.755859,119.429688 Z M178.048828,127 L178.048828,120.630859 L177.46875,120.630859 L177.46875,127 L178.048828,127 Z M180.761719,127 L180.761719,123.484375 C180.761719,122.621094 180.938477,121.99707 181.291992,121.612305 C181.645508,121.227539 182.203125,121.035156 182.964844,121.035156 C183.53125,121.035156 183.949219,121.180664 184.21875,121.47168 C184.488281,121.762695 184.623047,122.228516 184.623047,122.869141 L184.623047,122.869141 L184.623047,127 L185.197266,127 L185.197266,122.833984 C185.197266,121.283203 184.474609,120.507812 183.029297,120.507812 C181.970703,120.507812 181.234375,120.839844 180.820312,121.503906 L180.820312,121.503906 L180.785156,121.503906 L180.673828,120.630859 L180.181641,120.630859 L180.181641,127 L180.761719,127 Z M191.830078,127.117188 C192.626953,127.117188 193.242188,126.963867 193.675781,126.657227 C194.109375,126.350586 194.326172,125.912109 194.326172,125.341797 C194.326172,125.056641 194.260742,124.808594 194.129883,124.597656 C193.999023,124.386719 193.802734,124.198242 193.541016,124.032227 C193.279297,123.866211 192.861328,123.679688 192.287109,123.472656 C191.599609,123.226562 191.137695,123.003906 190.901367,122.804688 C190.665039,122.605469 190.546875,122.339844 190.546875,122.007812 C190.546875,121.703125 190.699219,121.464844 191.003906,121.292969 C191.308594,121.121094 191.720703,121.035156 192.240234,121.035156 C192.775391,121.035156 193.355469,121.164062 193.980469,121.421875 L193.980469,121.421875 L194.197266,120.894531 C193.580078,120.636719 192.927734,120.507812 192.240234,120.507812 C191.521484,120.507812 190.961914,120.646484 190.561523,120.923828 C190.161133,121.201172 189.960938,121.578125 189.960938,122.054688 C189.960938,122.355469 190.026367,122.610352 190.157227,122.819336 C190.288086,123.02832 190.482422,123.21582 190.740234,123.381836 C190.998047,123.547852 191.445312,123.746094 192.082031,123.976562 C192.675781,124.1875 193.102539,124.402344 193.362305,124.621094 C193.62207,124.839844 193.751953,125.109375 193.751953,125.429688 C193.751953,125.777344 193.588867,126.055664 193.262695,126.264648 C192.936523,126.473633 192.458984,126.578125 191.830078,126.578125 C191.119141,126.578125 190.443359,126.417969 189.802734,126.097656 L189.802734,126.097656 L189.802734,126.724609 C190.302734,126.986328 190.978516,127.117188 191.830078,127.117188 Z M198.539062,127.117188 C198.90625,127.117188 199.242188,127.088867 199.546875,127.032227 C199.851562,126.975586 200.183594,126.869141 200.542969,126.712891 L200.542969,126.712891 L200.542969,126.185547 C200.121094,126.353516 199.772461,126.462891 199.49707,126.513672 C199.22168,126.564453 198.902344,126.589844 198.539062,126.589844 C197.792969,126.589844 197.219727,126.359375 196.819336,125.898438 C196.418945,125.4375 196.214844,124.769531 196.207031,123.894531 L196.207031,123.894531 L200.794922,123.894531 L200.794922,123.425781 C200.794922,122.527344 200.578125,121.816406 200.144531,121.292969 C199.710938,120.769531 199.119141,120.507812 198.369141,120.507812 C197.521484,120.507812 196.847656,120.813477 196.347656,121.424805 C195.847656,122.036133 195.597656,122.849609 195.597656,123.865234 C195.597656,124.892578 195.856445,125.691406 196.374023,126.261719 C196.891602,126.832031 197.613281,127.117188 198.539062,127.117188 Z M200.179688,123.378906 L196.242188,123.378906 C196.304688,122.617188 196.521484,122.03418 196.892578,121.629883 C197.263672,121.225586 197.755859,121.023438 198.369141,121.023438 C198.935547,121.023438 199.378906,121.231445 199.699219,121.647461 C200.019531,122.063477 200.179688,122.640625 200.179688,123.378906 L200.179688,123.378906 Z M203.132812,127 L203.132812,123.484375 C203.132812,122.621094 203.30957,121.99707 203.663086,121.612305 C204.016602,121.227539 204.574219,121.035156 205.335938,121.035156 C205.902344,121.035156 206.320312,121.180664 206.589844,121.47168 C206.859375,121.762695 206.994141,122.228516 206.994141,122.869141 L206.994141,122.869141 L206.994141,127 L207.568359,127 L207.568359,122.833984 C207.568359,121.283203 206.845703,120.507812 205.400391,120.507812 C204.341797,120.507812 203.605469,120.839844 203.191406,121.503906 L203.191406,121.503906 L203.15625,121.503906 L203.044922,120.630859 L202.552734,120.630859 L202.552734,127 L203.132812,127 Z M211.083984,127.117188 C211.880859,127.117188 212.496094,126.963867 212.929688,126.657227 C213.363281,126.350586 213.580078,125.912109 213.580078,125.341797 C213.580078,125.056641 213.514648,124.808594 213.383789,124.597656 C213.25293,124.386719 213.056641,124.198242 212.794922,124.032227 C212.533203,123.866211 212.115234,123.679688 211.541016,123.472656 C210.853516,123.226562 210.391602,123.003906 210.155273,122.804688 C209.918945,122.605469 209.800781,122.339844 209.800781,122.007812 C209.800781,121.703125 209.953125,121.464844 210.257812,121.292969 C210.5625,121.121094 210.974609,121.035156 211.494141,121.035156 C212.029297,121.035156 212.609375,121.164062 213.234375,121.421875 L213.234375,121.421875 L213.451172,120.894531 C212.833984,120.636719 212.181641,120.507812 211.494141,120.507812 C210.775391,120.507812 210.21582,120.646484 209.81543,120.923828 C209.415039,121.201172 209.214844,121.578125 209.214844,122.054688 C209.214844,122.355469 209.280273,122.610352 209.411133,122.819336 C209.541992,123.02832 209.736328,123.21582 209.994141,123.381836 C210.251953,123.547852 210.699219,123.746094 211.335938,123.976562 C211.929688,124.1875 212.356445,124.402344 212.616211,124.621094 C212.875977,124.839844 213.005859,125.109375 213.005859,125.429688 C213.005859,125.777344 212.842773,126.055664 212.516602,126.264648 C212.19043,126.473633 211.712891,126.578125 211.083984,126.578125 C210.373047,126.578125 209.697266,126.417969 209.056641,126.097656 L209.056641,126.097656 L209.056641,126.724609 C209.556641,126.986328 210.232422,127.117188 211.083984,127.117188 Z M215.507812,119.429688 C215.628906,119.429688 215.723633,119.378906 215.791992,119.277344 C215.860352,119.175781 215.894531,119.037109 215.894531,118.861328 C215.894531,118.681641 215.860352,118.542969 215.791992,118.445312 C215.723633,118.347656 215.628906,118.298828 215.507812,118.298828 C215.261719,118.298828 215.138672,118.486328 215.138672,118.861328 C215.138672,119.240234 215.261719,119.429688 215.507812,119.429688 Z M215.800781,127 L215.800781,120.630859 L215.220703,120.630859 L215.220703,127 L215.800781,127 Z M219.603516,127.117188 C219.970703,127.117188 220.294922,127.070312 220.576172,126.976562 L220.576172,126.976562 L220.576172,126.507812 C220.302734,126.570312 219.982422,126.601562 219.615234,126.601562 C219.248047,126.601562 218.978516,126.484375 218.806641,126.25 C218.634766,126.015625 218.548828,125.654297 218.548828,125.166016 L218.548828,125.166016 L218.548828,121.134766 L220.417969,121.134766 L220.417969,120.630859 L218.548828,120.630859 L218.548828,119.089844 L218.25,119.089844 L217.957031,120.53125 L217.013672,120.794922 L217.013672,121.134766 L217.957031,121.134766 L217.957031,125.248047 C217.957031,125.892578 218.09082,126.365234 218.358398,126.666016 C218.625977,126.966797 219.041016,127.117188 219.603516,127.117188 Z M222.240234,119.429688 C222.361328,119.429688 222.456055,119.378906 222.524414,119.277344 C222.592773,119.175781 222.626953,119.037109 222.626953,118.861328 C222.626953,118.681641 222.592773,118.542969 222.524414,118.445312 C222.456055,118.347656 222.361328,118.298828 222.240234,118.298828 C221.994141,118.298828 221.871094,118.486328 221.871094,118.861328 C221.871094,119.240234 221.994141,119.429688 222.240234,119.429688 Z M222.533203,127 L222.533203,120.630859 L221.953125,120.630859 L221.953125,127 L222.533203,127 Z M226.646484,127 L229.107422,120.630859 L228.509766,120.630859 L226.863281,124.949219 C226.695312,125.394531 226.53125,125.882812 226.371094,126.414062 L226.371094,126.414062 L226.335938,126.414062 C226.226562,126 226.0625,125.515625 225.84375,124.960938 L225.84375,124.960938 L224.197266,120.630859 L223.599609,120.630859 L226.060547,127 L226.646484,127 Z M232.746094,127.117188 C233.113281,127.117188 233.449219,127.088867 233.753906,127.032227 C234.058594,126.975586 234.390625,126.869141 234.75,126.712891 L234.75,126.712891 L234.75,126.185547 C234.328125,126.353516 233.979492,126.462891 233.704102,126.513672 C233.428711,126.564453 233.109375,126.589844 232.746094,126.589844 C232,126.589844 231.426758,126.359375 231.026367,125.898438 C230.625977,125.4375 230.421875,124.769531 230.414062,123.894531 L230.414062,123.894531 L235.001953,123.894531 L235.001953,123.425781 C235.001953,122.527344 234.785156,121.816406 234.351562,121.292969 C233.917969,120.769531 233.326172,120.507812 232.576172,120.507812 C231.728516,120.507812 231.054688,120.813477 230.554688,121.424805 C230.054688,122.036133 229.804688,122.849609 229.804688,123.865234 C229.804688,124.892578 230.063477,125.691406 230.581055,126.261719 C231.098633,126.832031 231.820312,127.117188 232.746094,127.117188 Z M234.386719,123.378906 L230.449219,123.378906 C230.511719,122.617188 230.728516,122.03418 231.099609,121.629883 C231.470703,121.225586 231.962891,121.023438 232.576172,121.023438 C233.142578,121.023438 233.585938,121.231445 233.90625,121.647461 C234.226562,122.063477 234.386719,122.640625 234.386719,123.378906 L234.386719,123.378906 Z M242.220703,127.117188 C243.126953,127.117188 243.822266,126.753906 244.306641,126.027344 L244.306641,126.027344 L244.353516,126.027344 L244.5,127 L244.880859,127 L244.880859,117.882812 L244.306641,117.882812 L244.306641,120.173828 C244.306641,120.646484 244.318359,121.128906 244.341797,121.621094 L244.341797,121.621094 L244.306641,121.621094 C244.041016,121.214844 243.740234,120.927734 243.404297,120.759766 C243.068359,120.591797 242.669922,120.507812 242.208984,120.507812 C241.330078,120.507812 240.660156,120.798828 240.199219,121.380859 C239.738281,121.962891 239.507812,122.804688 239.507812,123.90625 C239.507812,124.953125 239.740234,125.75 240.205078,126.296875 C240.669922,126.84375 241.341797,127.117188 242.220703,127.117188 Z M242.220703,126.601562 C240.818359,126.601562 240.117188,125.699219 240.117188,123.894531 C240.117188,122.964844 240.291992,122.255859 240.641602,121.767578 C240.991211,121.279297 241.513672,121.035156 242.208984,121.035156 C242.947266,121.035156 243.481445,121.250977 243.811523,121.682617 C244.141602,122.114258 244.306641,122.822266 244.306641,123.806641 L244.306641,123.806641 L244.306641,123.90625 C244.306641,124.867188 244.138672,125.556641 243.802734,125.974609 C243.466797,126.392578 242.939453,126.601562 242.220703,126.601562 Z M248.507812,127.117188 C248.96875,127.117188 249.368164,127.032227 249.706055,126.862305 C250.043945,126.692383 250.373047,126.402344 250.693359,125.992188 L250.693359,125.992188 L250.740234,125.992188 L250.886719,127 L251.314453,127 L251.314453,122.763672 C251.314453,121.994141 251.141602,121.427734 250.795898,121.064453 C250.450195,120.701172 249.927734,120.519531 249.228516,120.519531 C248.544922,120.519531 247.853516,120.683594 247.154297,121.011719 L247.154297,121.011719 L247.371094,121.515625 C248.003906,121.1875 248.615234,121.023438 249.205078,121.023438 C249.751953,121.023438 250.148438,121.177734 250.394531,121.486328 C250.640625,121.794922 250.763672,122.251953 250.763672,122.857422 L250.763672,122.857422 L250.763672,123.279297 L249.550781,123.314453 C248.570312,123.333984 247.821289,123.515625 247.303711,123.859375 C246.786133,124.203125 246.527344,124.685547 246.527344,125.306641 C246.527344,125.873047 246.701172,126.316406 247.048828,126.636719 C247.396484,126.957031 247.882812,127.117188 248.507812,127.117188 Z M248.542969,126.589844 C248.097656,126.589844 247.75293,126.479492 247.508789,126.258789 C247.264648,126.038086 247.142578,125.728516 247.142578,125.330078 C247.142578,124.830078 247.333008,124.461914 247.713867,124.225586 C248.094727,123.989258 248.732422,123.849609 249.626953,123.806641 L249.626953,123.806641 L250.740234,123.759766 L250.740234,124.386719 C250.740234,125.078125 250.543945,125.618164 250.151367,126.006836 C249.758789,126.395508 249.222656,126.589844 248.542969,126.589844 Z M255.046875,127.117188 C255.414062,127.117188 255.738281,127.070312 256.019531,126.976562 L256.019531,126.976562 L256.019531,126.507812 C255.746094,126.570312 255.425781,126.601562 255.058594,126.601562 C254.691406,126.601562 254.421875,126.484375 254.25,126.25 C254.078125,126.015625 253.992188,125.654297 253.992188,125.166016 L253.992188,125.166016 L253.992188,121.134766 L255.861328,121.134766 L255.861328,120.630859 L253.992188,120.630859 L253.992188,119.089844 L253.693359,119.089844 L253.400391,120.53125 L252.457031,120.794922 L252.457031,121.134766 L253.400391,121.134766 L253.400391,125.248047 C253.400391,125.892578 253.53418,126.365234 253.801758,126.666016 C254.069336,126.966797 254.484375,127.117188 255.046875,127.117188 Z M258.884766,127.117188 C259.345703,127.117188 259.745117,127.032227 260.083008,126.862305 C260.420898,126.692383 260.75,126.402344 261.070312,125.992188 L261.070312,125.992188 L261.117188,125.992188 L261.263672,127 L261.691406,127 L261.691406,122.763672 C261.691406,121.994141 261.518555,121.427734 261.172852,121.064453 C260.827148,120.701172 260.304688,120.519531 259.605469,120.519531 C258.921875,120.519531 258.230469,120.683594 257.53125,121.011719 L257.53125,121.011719 L257.748047,121.515625 C258.380859,121.1875 258.992188,121.023438 259.582031,121.023438 C260.128906,121.023438 260.525391,121.177734 260.771484,121.486328 C261.017578,121.794922 261.140625,122.251953 261.140625,122.857422 L261.140625,122.857422 L261.140625,123.279297 L259.927734,123.314453 C258.947266,123.333984 258.198242,123.515625 257.680664,123.859375 C257.163086,124.203125 256.904297,124.685547 256.904297,125.306641 C256.904297,125.873047 257.078125,126.316406 257.425781,126.636719 C257.773438,126.957031 258.259766,127.117188 258.884766,127.117188 Z M258.919922,126.589844 C258.474609,126.589844 258.129883,126.479492 257.885742,126.258789 C257.641602,126.038086 257.519531,125.728516 257.519531,125.330078 C257.519531,124.830078 257.709961,124.461914 258.09082,124.225586 C258.47168,123.989258 259.109375,123.849609 260.003906,123.806641 L260.003906,123.806641 L261.117188,123.759766 L261.117188,124.386719 C261.117188,125.078125 260.920898,125.618164 260.52832,126.006836 C260.135742,126.395508 259.599609,126.589844 258.919922,126.589844 Z" id="Plainsensitivedata" fill="#547580" fill-rule="nonzero"></path>
                </g>
                <g id="internal-network" transform="translate(0.000000, 157.000000)" stroke="#E0EAEC">
                    <rect id="Rectangle-Copy-11" x="0.5" y="0" width="300" height="232" rx="8"></rect>
                </g>
                <g id="backend" transform="translate(61.000000, 187.000000)">
                    <rect id="Rectangle-Copy-12" stroke="#E0EAEC" x="0" y="0" width="180" height="86" rx="8"></rect>
                    <rect id="Rectangle-Copy-13" stroke="#E0EAEC" x="0" y="0" width="180" height="86" rx="8"></rect>
                    <path d="M68.6572266,48 C69.6259766,48 70.3925781,47.78125 70.9570312,47.34375 C71.5214844,46.90625 71.8037109,46.296875 71.8037109,45.515625 C71.8037109,44.9648438 71.6835938,44.5234375 71.4433594,44.1914062 C71.203125,43.859375 70.8115234,43.6328125 70.2685547,43.5117188 L70.2685547,43.5117188 L70.2685547,43.453125 C70.6669922,43.3867188 70.9863281,43.1894531 71.2265625,42.8613281 C71.4667969,42.5332031 71.5869141,42.1132812 71.5869141,41.6015625 C71.5869141,40.8476562 71.3125,40.2978516 70.7636719,39.9521484 C70.2148438,39.6064453 69.3330078,39.4335938 68.1181641,39.4335938 L68.1181641,39.4335938 L65.4521484,39.4335938 L65.4521484,48 L68.6572266,48 Z M68.3232422,42.8261719 L67.2685547,42.8261719 L67.2685547,40.921875 L68.2236328,40.921875 C68.7431641,40.921875 69.1230469,40.9931641 69.3632812,41.1357422 C69.6035156,41.2783203 69.7236328,41.5136719 69.7236328,41.8417969 C69.7236328,42.1933594 69.6132812,42.4453125 69.3925781,42.5976562 C69.171875,42.75 68.8154297,42.8261719 68.3232422,42.8261719 L68.3232422,42.8261719 Z M68.4521484,46.5 L67.2685547,46.5 L67.2685547,44.2675781 L68.3935547,44.2675781 C69.4091797,44.2675781 69.9169922,44.6230469 69.9169922,45.3339844 C69.9169922,45.7285156 69.7978516,46.0214844 69.5595703,46.2128906 C69.3212891,46.4042969 68.9521484,46.5 68.4521484,46.5 L68.4521484,46.5 Z M74.9677734,48.1171875 C75.4794922,48.1171875 75.8945312,48.0439453 76.2128906,47.8974609 C76.53125,47.7509766 76.8408203,47.4882812 77.1416016,47.109375 L77.1416016,47.109375 L77.1884766,47.109375 L77.5341797,48 L78.7822266,48 L78.7822266,43.6347656 C78.7822266,42.8535156 78.5478516,42.2714844 78.0791016,41.8886719 C77.6103516,41.5058594 76.9365234,41.3144531 76.0576172,41.3144531 C75.1396484,41.3144531 74.3037109,41.5117188 73.5498047,41.90625 L73.5498047,41.90625 L74.1416016,43.1132812 C74.8486328,42.796875 75.4638672,42.6386719 75.9873047,42.6386719 C76.6669922,42.6386719 77.0068359,42.9707031 77.0068359,43.6347656 L77.0068359,43.6347656 L77.0068359,43.921875 L75.8701172,43.9570312 C74.8896484,43.9921875 74.15625,44.1748047 73.6699219,44.5048828 C73.1835938,44.8349609 72.9404297,45.3476562 72.9404297,46.0429688 C72.9404297,46.7070312 73.1210938,47.21875 73.4824219,47.578125 C73.84375,47.9375 74.3388672,48.1171875 74.9677734,48.1171875 Z M75.6416016,46.8105469 C75.0634766,46.8105469 74.7744141,46.5585938 74.7744141,46.0546875 C74.7744141,45.703125 74.9013672,45.4414062 75.1552734,45.2695312 C75.4091797,45.0976562 75.7958984,45.0039062 76.3154297,44.9882812 L76.3154297,44.9882812 L77.0068359,44.9648438 L77.0068359,45.5039062 C77.0068359,45.8984375 76.8828125,46.2148438 76.6347656,46.453125 C76.3867188,46.6914062 76.0556641,46.8105469 75.6416016,46.8105469 Z M83.2822266,48.1171875 C83.7314453,48.1171875 84.1035156,48.0820312 84.3984375,48.0117188 C84.6933594,47.9414062 84.9853516,47.8144531 85.2744141,47.6308594 L85.2744141,47.6308594 L85.2744141,46.1015625 C84.9814453,46.296875 84.6884766,46.4404297 84.3955078,46.5322266 C84.1025391,46.6240234 83.7841797,46.6699219 83.4404297,46.6699219 C82.5107422,46.6699219 82.0458984,46.0292969 82.0458984,44.7480469 C82.0458984,43.4277344 82.5107422,42.7675781 83.4404297,42.7675781 C83.6826172,42.7675781 83.9248047,42.8037109 84.1669922,42.8759766 C84.4091797,42.9482422 84.6708984,43.0410156 84.9521484,43.1542969 L84.9521484,43.1542969 L85.4794922,41.7714844 C84.8779297,41.4746094 84.1982422,41.3261719 83.4404297,41.3261719 C82.4052734,41.3261719 81.6103516,41.6201172 81.0556641,42.2080078 C80.5009766,42.7958984 80.2236328,43.6464844 80.2236328,44.7597656 C80.2236328,46.9980469 81.2431641,48.1171875 83.2822266,48.1171875 Z M88.5791016,48 L88.5791016,45.9609375 L89.3466797,45.3457031 L91.2333984,48 L93.2958984,48 L90.5361328,44.2910156 L93.1376953,41.4492188 L91.1220703,41.4492188 L89.2880859,43.4414062 L88.5087891,44.4375 L88.4853516,44.4375 L88.5791016,42.9492188 L88.5791016,38.8828125 L86.7919922,38.8828125 L86.7919922,48 L88.5791016,48 Z M96.9580078,48.1171875 C97.4697266,48.1171875 97.9033203,48.0791016 98.2587891,48.0029297 C98.6142578,47.9267578 98.9482422,47.8105469 99.2607422,47.6542969 L99.2607422,47.6542969 L99.2607422,46.2714844 C98.8779297,46.4511719 98.5107422,46.5820312 98.1591797,46.6640625 C97.8076172,46.7460938 97.4345703,46.7871094 97.0400391,46.7871094 C96.5322266,46.7871094 96.1376953,46.6445312 95.8564453,46.359375 C95.5751953,46.0742188 95.4248047,45.6777344 95.4052734,45.1699219 L95.4052734,45.1699219 L99.6298828,45.1699219 L99.6298828,44.3027344 C99.6298828,43.3730469 99.3720703,42.6445312 98.8564453,42.1171875 C98.3408203,41.5898438 97.6201172,41.3261719 96.6943359,41.3261719 C95.7255859,41.3261719 94.9667969,41.6259766 94.4179688,42.2255859 C93.8691406,42.8251953 93.5947266,43.6738281 93.5947266,44.7714844 C93.5947266,45.8378906 93.8916016,46.6621094 94.4853516,47.2441406 C95.0791016,47.8261719 95.9033203,48.1171875 96.9580078,48.1171875 Z M97.9541016,43.9804688 L95.4462891,43.9804688 C95.4775391,43.5390625 95.6005859,43.1982422 95.8154297,42.9580078 C96.0302734,42.7177734 96.3271484,42.5976562 96.7060547,42.5976562 C97.0849609,42.5976562 97.3857422,42.7177734 97.6083984,42.9580078 C97.8310547,43.1982422 97.9462891,43.5390625 97.9541016,43.9804688 L97.9541016,43.9804688 Z M102.870117,48 L102.870117,44.9179688 C102.870117,44.1445312 102.981445,43.5908203 103.204102,43.2568359 C103.426758,42.9228516 103.788086,42.7558594 104.288086,42.7558594 C104.655273,42.7558594 104.922852,42.8740234 105.09082,43.1103516 C105.258789,43.3466797 105.342773,43.7011719 105.342773,44.1738281 L105.342773,44.1738281 L105.342773,48 L107.129883,48 L107.129883,43.7285156 C107.129883,42.9511719 106.932617,42.3564453 106.538086,41.9443359 C106.143555,41.5322266 105.56543,41.3261719 104.803711,41.3261719 C104.358398,41.3261719 103.960938,41.4072266 103.611328,41.5693359 C103.261719,41.7314453 102.987305,41.9707031 102.788086,42.2871094 L102.788086,42.2871094 L102.688477,42.2871094 L102.448242,41.4492188 L101.083008,41.4492188 L101.083008,48 L102.870117,48 Z M111.043945,48.1171875 C111.875977,48.1171875 112.495117,47.7949219 112.901367,47.1503906 L112.901367,47.1503906 L112.977539,47.1503906 L113.323242,48 L114.694336,48 L114.694336,38.8828125 L112.901367,38.8828125 L112.901367,40.9804688 C112.901367,41.3632812 112.946289,41.7988281 113.036133,42.2871094 L113.036133,42.2871094 L112.977539,42.2871094 C112.543945,41.6464844 111.915039,41.3261719 111.09082,41.3261719 C110.305664,41.3261719 109.689453,41.6259766 109.242188,42.2255859 C108.794922,42.8251953 108.571289,43.6621094 108.571289,44.7363281 C108.571289,45.7949219 108.791016,46.6230469 109.230469,47.2207031 C109.669922,47.8183594 110.274414,48.1171875 111.043945,48.1171875 Z M111.670898,46.6933594 C111.256836,46.6933594 110.938477,46.5322266 110.71582,46.2099609 C110.493164,45.8876953 110.381836,45.4042969 110.381836,44.7597656 C110.381836,44.1152344 110.492188,43.6240234 110.712891,43.2861328 C110.933594,42.9482422 111.243164,42.7792969 111.641602,42.7792969 C112.129883,42.7792969 112.482422,42.9316406 112.699219,43.2363281 C112.916016,43.5410156 113.024414,44.0449219 113.024414,44.7480469 L113.024414,44.7480469 L113.024414,44.9414062 C113.004883,45.578125 112.888672,46.0292969 112.675781,46.2949219 C112.462891,46.5605469 112.12793,46.6933594 111.670898,46.6933594 Z" id="Backend" fill="#547580" fill-rule="nonzero"></path>
                </g>
                <g id="DB" transform="translate(8.000000, 302.000000)">
                    <path d="M79.53125,36 C81.046875,36 82.2060547,35.625 83.0087891,34.875 C83.8115234,34.125 84.2128906,33.0449219 84.2128906,31.6347656 C84.2128906,30.3105469 83.8261719,29.2792969 83.0527344,28.5410156 C82.2792969,27.8027344 81.1933594,27.4335938 79.7949219,27.4335938 L79.7949219,27.4335938 L77.1054688,27.4335938 L77.1054688,36 L79.53125,36 Z M79.7011719,34.5 L78.921875,34.5 L78.921875,28.921875 L79.8886719,28.921875 C81.5136719,28.921875 82.3261719,29.8417969 82.3261719,31.6816406 C82.3261719,33.5605469 81.4511719,34.5 79.7011719,34.5 L79.7011719,34.5 Z M89.1933594,36 C90.1621094,36 90.9287109,35.78125 91.4931641,35.34375 C92.0576172,34.90625 92.3398438,34.296875 92.3398438,33.515625 C92.3398438,32.9648438 92.2197266,32.5234375 91.9794922,32.1914062 C91.7392578,31.859375 91.3476562,31.6328125 90.8046875,31.5117188 L90.8046875,31.5117188 L90.8046875,31.453125 C91.203125,31.3867188 91.5224609,31.1894531 91.7626953,30.8613281 C92.0029297,30.5332031 92.1230469,30.1132812 92.1230469,29.6015625 C92.1230469,28.8476562 91.8486328,28.2978516 91.2998047,27.9521484 C90.7509766,27.6064453 89.8691406,27.4335938 88.6542969,27.4335938 L88.6542969,27.4335938 L85.9882812,27.4335938 L85.9882812,36 L89.1933594,36 Z M88.859375,30.8261719 L87.8046875,30.8261719 L87.8046875,28.921875 L88.7597656,28.921875 C89.2792969,28.921875 89.6591797,28.9931641 89.8994141,29.1357422 C90.1396484,29.2783203 90.2597656,29.5136719 90.2597656,29.8417969 C90.2597656,30.1933594 90.1494141,30.4453125 89.9287109,30.5976562 C89.7080078,30.75 89.3515625,30.8261719 88.859375,30.8261719 L88.859375,30.8261719 Z M88.9882812,34.5 L87.8046875,34.5 L87.8046875,32.2675781 L88.9296875,32.2675781 C89.9453125,32.2675781 90.453125,32.6230469 90.453125,33.3339844 C90.453125,33.7285156 90.3339844,34.0214844 90.0957031,34.2128906 C89.8574219,34.4042969 89.4882812,34.5 88.9882812,34.5 L88.9882812,34.5 Z" fill="#547580" fill-rule="nonzero"></path>
                    <line x1="53.5" y1="5.46078431" x2="53.5" y2="51.5392157" id="Line-2" stroke="#E0EAEC" stroke-linecap="square"></line>
                    <line x1="115.5" y1="5.46078431" x2="115.5" y2="51.5392157" id="Line-2-Copy" stroke="#E0EAEC" stroke-linecap="square"></line>
                    <path d="M53.5,5 C74.1666667,11.6666667 94.8333333,11.6666667 115.5,5" id="Path" stroke="#E0EAEC"></path>
                    <path d="M53.5,52 C74.1666667,58.6666667 94.8333333,58.6666667 115.5,52" id="Path-Copy-2" stroke="#E0EAEC" stroke-linecap="round"></path>
                    <path d="M53.5,0 C74.1666667,6.66666667 94.8333333,6.66666667 115.5,0" id="Path-Copy" stroke="#E0EAEC" stroke-linecap="round" transform="translate(84.500000, 2.500000) scale(1, -1) translate(-84.500000, -2.500000) "></path>
                    <path d="M22.9296875,15 L22.9296875,11.4609375 L24.2539062,11.4609375 C25.2851562,11.4609375 26.0820312,11.2402344 26.6445312,10.7988281 C27.2070312,10.3574219 27.4882812,9.72265625 27.4882812,8.89453125 C27.4882812,7.25390625 26.46875,6.43359375 24.4296875,6.43359375 L24.4296875,6.43359375 L22.3320312,6.43359375 L22.3320312,15 L22.9296875,15 Z M24.1074219,10.9453125 L22.9296875,10.9453125 L22.9296875,6.97265625 L24.3476562,6.97265625 C25.1992188,6.97265625 25.828125,7.13183594 26.234375,7.45019531 C26.640625,7.76855469 26.84375,8.2578125 26.84375,8.91796875 C26.84375,9.6328125 26.6289062,10.1494141 26.1992188,10.4677734 C25.7695312,10.7861328 25.0722656,10.9453125 24.1074219,10.9453125 L24.1074219,10.9453125 Z M29.7851562,15 L29.7851562,5.8828125 L29.2050781,5.8828125 L29.2050781,15 L29.7851562,15 Z M33.40625,15.1171875 C33.8671875,15.1171875 34.2666016,15.0322266 34.6044922,14.8623047 C34.9423828,14.6923828 35.2714844,14.4023438 35.5917969,13.9921875 L35.5917969,13.9921875 L35.6386719,13.9921875 L35.7851562,15 L36.2128906,15 L36.2128906,10.7636719 C36.2128906,9.99414062 36.0400391,9.42773438 35.6943359,9.06445312 C35.3486328,8.70117188 34.8261719,8.51953125 34.1269531,8.51953125 C33.4433594,8.51953125 32.7519531,8.68359375 32.0527344,9.01171875 L32.0527344,9.01171875 L32.2695312,9.515625 C32.9023438,9.1875 33.5136719,9.0234375 34.1035156,9.0234375 C34.6503906,9.0234375 35.046875,9.17773438 35.2929688,9.48632812 C35.5390625,9.79492188 35.6621094,10.2519531 35.6621094,10.8574219 L35.6621094,10.8574219 L35.6621094,11.2792969 L34.4492188,11.3144531 C33.46875,11.3339844 32.7197266,11.515625 32.2021484,11.859375 C31.6845703,12.203125 31.4257812,12.6855469 31.4257812,13.3066406 C31.4257812,13.8730469 31.5996094,14.3164062 31.9472656,14.6367188 C32.2949219,14.9570312 32.78125,15.1171875 33.40625,15.1171875 Z M33.4414062,14.5898438 C32.9960938,14.5898438 32.6513672,14.4794922 32.4072266,14.2587891 C32.1630859,14.0380859 32.0410156,13.7285156 32.0410156,13.3300781 C32.0410156,12.8300781 32.2314453,12.4619141 32.6123047,12.2255859 C32.9931641,11.9892578 33.6308594,11.8496094 34.5253906,11.8066406 L34.5253906,11.8066406 L35.6386719,11.7597656 L35.6386719,12.3867188 C35.6386719,13.078125 35.4423828,13.6181641 35.0498047,14.0068359 C34.6572266,14.3955078 34.1210938,14.5898438 33.4414062,14.5898438 Z M38.5625,7.4296875 C38.6835938,7.4296875 38.7783203,7.37890625 38.8466797,7.27734375 C38.9150391,7.17578125 38.9492188,7.03710938 38.9492188,6.86132812 C38.9492188,6.68164062 38.9150391,6.54296875 38.8466797,6.4453125 C38.7783203,6.34765625 38.6835938,6.29882812 38.5625,6.29882812 C38.3164062,6.29882812 38.1933594,6.48632812 38.1933594,6.86132812 C38.1933594,7.24023438 38.3164062,7.4296875 38.5625,7.4296875 Z M38.8554688,15 L38.8554688,8.63085938 L38.2753906,8.63085938 L38.2753906,15 L38.8554688,15 Z M41.5683594,15 L41.5683594,11.484375 C41.5683594,10.6210938 41.7451172,9.99707031 42.0986328,9.61230469 C42.4521484,9.22753906 43.0097656,9.03515625 43.7714844,9.03515625 C44.3378906,9.03515625 44.7558594,9.18066406 45.0253906,9.47167969 C45.2949219,9.76269531 45.4296875,10.2285156 45.4296875,10.8691406 L45.4296875,10.8691406 L45.4296875,15 L46.0039062,15 L46.0039062,10.8339844 C46.0039062,9.28320312 45.28125,8.5078125 43.8359375,8.5078125 C42.7773438,8.5078125 42.0410156,8.83984375 41.6269531,9.50390625 L41.6269531,9.50390625 L41.5917969,9.50390625 L41.4804688,8.63085938 L40.9882812,8.63085938 L40.9882812,15 L41.5683594,15 Z M3.13671875,32.1171875 C3.93359375,32.1171875 4.54882812,31.9638672 4.98242188,31.6572266 C5.41601562,31.3505859 5.6328125,30.9121094 5.6328125,30.3417969 C5.6328125,30.0566406 5.56738281,29.8085938 5.43652344,29.5976562 C5.30566406,29.3867188 5.109375,29.1982422 4.84765625,29.0322266 C4.5859375,28.8662109 4.16796875,28.6796875 3.59375,28.4726562 C2.90625,28.2265625 2.44433594,28.0039062 2.20800781,27.8046875 C1.97167969,27.6054688 1.85351562,27.3398438 1.85351562,27.0078125 C1.85351562,26.703125 2.00585938,26.4648438 2.31054688,26.2929688 C2.61523438,26.1210938 3.02734375,26.0351562 3.546875,26.0351562 C4.08203125,26.0351562 4.66210938,26.1640625 5.28710938,26.421875 L5.28710938,26.421875 L5.50390625,25.8945312 C4.88671875,25.6367188 4.234375,25.5078125 3.546875,25.5078125 C2.828125,25.5078125 2.26855469,25.6464844 1.86816406,25.9238281 C1.46777344,26.2011719 1.26757812,26.578125 1.26757812,27.0546875 C1.26757812,27.3554688 1.33300781,27.6103516 1.46386719,27.8193359 C1.59472656,28.0283203 1.7890625,28.2158203 2.046875,28.3818359 C2.3046875,28.5478516 2.75195312,28.7460938 3.38867188,28.9765625 C3.98242188,29.1875 4.40917969,29.4023438 4.66894531,29.6210938 C4.92871094,29.8398438 5.05859375,30.109375 5.05859375,30.4296875 C5.05859375,30.7773438 4.89550781,31.0556641 4.56933594,31.2646484 C4.24316406,31.4736328 3.765625,31.578125 3.13671875,31.578125 C2.42578125,31.578125 1.75,31.4179688 1.109375,31.0976562 L1.109375,31.0976562 L1.109375,31.7246094 C1.609375,31.9863281 2.28515625,32.1171875 3.13671875,32.1171875 Z M9.84570312,32.1171875 C10.2128906,32.1171875 10.5488281,32.0888672 10.8535156,32.0322266 C11.1582031,31.9755859 11.4902344,31.8691406 11.8496094,31.7128906 L11.8496094,31.7128906 L11.8496094,31.1855469 C11.4277344,31.3535156 11.0791016,31.4628906 10.8037109,31.5136719 C10.5283203,31.5644531 10.2089844,31.5898438 9.84570312,31.5898438 C9.09960938,31.5898438 8.52636719,31.359375 8.12597656,30.8984375 C7.72558594,30.4375 7.52148438,29.7695312 7.51367188,28.8945312 L7.51367188,28.8945312 L12.1015625,28.8945312 L12.1015625,28.4257812 C12.1015625,27.5273438 11.8847656,26.8164062 11.4511719,26.2929688 C11.0175781,25.7695312 10.4257812,25.5078125 9.67578125,25.5078125 C8.828125,25.5078125 8.15429688,25.8134766 7.65429688,26.4248047 C7.15429688,27.0361328 6.90429688,27.8496094 6.90429688,28.8652344 C6.90429688,29.8925781 7.16308594,30.6914062 7.68066406,31.2617188 C8.19824219,31.8320312 8.91992188,32.1171875 9.84570312,32.1171875 Z M11.4863281,28.3789062 L7.54882812,28.3789062 C7.61132812,27.6171875 7.828125,27.0341797 8.19921875,26.6298828 C8.5703125,26.2255859 9.0625,26.0234375 9.67578125,26.0234375 C10.2421875,26.0234375 10.6855469,26.2314453 11.0058594,26.6474609 C11.3261719,27.0634766 11.4863281,27.640625 11.4863281,28.3789062 L11.4863281,28.3789062 Z M14.4394531,32 L14.4394531,28.484375 C14.4394531,27.6210938 14.6162109,26.9970703 14.9697266,26.6123047 C15.3232422,26.2275391 15.8808594,26.0351562 16.6425781,26.0351562 C17.2089844,26.0351562 17.6269531,26.1806641 17.8964844,26.4716797 C18.1660156,26.7626953 18.3007812,27.2285156 18.3007812,27.8691406 L18.3007812,27.8691406 L18.3007812,32 L18.875,32 L18.875,27.8339844 C18.875,26.2832031 18.1523438,25.5078125 16.7070312,25.5078125 C15.6484375,25.5078125 14.9121094,25.8398438 14.4980469,26.5039062 L14.4980469,26.5039062 L14.4628906,26.5039062 L14.3515625,25.6308594 L13.859375,25.6308594 L13.859375,32 L14.4394531,32 Z M22.390625,32.1171875 C23.1875,32.1171875 23.8027344,31.9638672 24.2363281,31.6572266 C24.6699219,31.3505859 24.8867188,30.9121094 24.8867188,30.3417969 C24.8867188,30.0566406 24.8212891,29.8085938 24.6904297,29.5976562 C24.5595703,29.3867188 24.3632812,29.1982422 24.1015625,29.0322266 C23.8398438,28.8662109 23.421875,28.6796875 22.8476562,28.4726562 C22.1601562,28.2265625 21.6982422,28.0039062 21.4619141,27.8046875 C21.2255859,27.6054688 21.1074219,27.3398438 21.1074219,27.0078125 C21.1074219,26.703125 21.2597656,26.4648438 21.5644531,26.2929688 C21.8691406,26.1210938 22.28125,26.0351562 22.8007812,26.0351562 C23.3359375,26.0351562 23.9160156,26.1640625 24.5410156,26.421875 L24.5410156,26.421875 L24.7578125,25.8945312 C24.140625,25.6367188 23.4882812,25.5078125 22.8007812,25.5078125 C22.0820312,25.5078125 21.5224609,25.6464844 21.1220703,25.9238281 C20.7216797,26.2011719 20.5214844,26.578125 20.5214844,27.0546875 C20.5214844,27.3554688 20.5869141,27.6103516 20.7177734,27.8193359 C20.8486328,28.0283203 21.0429688,28.2158203 21.3007812,28.3818359 C21.5585938,28.5478516 22.0058594,28.7460938 22.6425781,28.9765625 C23.2363281,29.1875 23.6630859,29.4023438 23.9228516,29.6210938 C24.1826172,29.8398438 24.3125,30.109375 24.3125,30.4296875 C24.3125,30.7773438 24.1494141,31.0556641 23.8232422,31.2646484 C23.4970703,31.4736328 23.0195312,31.578125 22.390625,31.578125 C21.6796875,31.578125 21.0039062,31.4179688 20.3632812,31.0976562 L20.3632812,31.0976562 L20.3632812,31.7246094 C20.8632812,31.9863281 21.5390625,32.1171875 22.390625,32.1171875 Z M26.8144531,24.4296875 C26.9355469,24.4296875 27.0302734,24.3789062 27.0986328,24.2773438 C27.1669922,24.1757812 27.2011719,24.0371094 27.2011719,23.8613281 C27.2011719,23.6816406 27.1669922,23.5429688 27.0986328,23.4453125 C27.0302734,23.3476562 26.9355469,23.2988281 26.8144531,23.2988281 C26.5683594,23.2988281 26.4453125,23.4863281 26.4453125,23.8613281 C26.4453125,24.2402344 26.5683594,24.4296875 26.8144531,24.4296875 Z M27.1074219,32 L27.1074219,25.6308594 L26.5273438,25.6308594 L26.5273438,32 L27.1074219,32 Z M30.9101562,32.1171875 C31.2773438,32.1171875 31.6015625,32.0703125 31.8828125,31.9765625 L31.8828125,31.9765625 L31.8828125,31.5078125 C31.609375,31.5703125 31.2890625,31.6015625 30.921875,31.6015625 C30.5546875,31.6015625 30.2851562,31.484375 30.1132812,31.25 C29.9414062,31.015625 29.8554688,30.6542969 29.8554688,30.1660156 L29.8554688,30.1660156 L29.8554688,26.1347656 L31.7246094,26.1347656 L31.7246094,25.6308594 L29.8554688,25.6308594 L29.8554688,24.0898438 L29.5566406,24.0898438 L29.2636719,25.53125 L28.3203125,25.7949219 L28.3203125,26.1347656 L29.2636719,26.1347656 L29.2636719,30.2480469 C29.2636719,30.8925781 29.3974609,31.3652344 29.6650391,31.6660156 C29.9326172,31.9667969 30.3476562,32.1171875 30.9101562,32.1171875 Z M33.546875,24.4296875 C33.6679688,24.4296875 33.7626953,24.3789062 33.8310547,24.2773438 C33.8994141,24.1757812 33.9335938,24.0371094 33.9335938,23.8613281 C33.9335938,23.6816406 33.8994141,23.5429688 33.8310547,23.4453125 C33.7626953,23.3476562 33.6679688,23.2988281 33.546875,23.2988281 C33.3007812,23.2988281 33.1777344,23.4863281 33.1777344,23.8613281 C33.1777344,24.2402344 33.3007812,24.4296875 33.546875,24.4296875 Z M33.8398438,32 L33.8398438,25.6308594 L33.2597656,25.6308594 L33.2597656,32 L33.8398438,32 Z M37.953125,32 L40.4140625,25.6308594 L39.8164062,25.6308594 L38.1699219,29.9492188 C38.0019531,30.3945312 37.8378906,30.8828125 37.6777344,31.4140625 L37.6777344,31.4140625 L37.6425781,31.4140625 C37.5332031,31 37.3691406,30.515625 37.1503906,29.9609375 L37.1503906,29.9609375 L35.5039062,25.6308594 L34.90625,25.6308594 L37.3671875,32 L37.953125,32 Z M44.0527344,32.1171875 C44.4199219,32.1171875 44.7558594,32.0888672 45.0605469,32.0322266 C45.3652344,31.9755859 45.6972656,31.8691406 46.0566406,31.7128906 L46.0566406,31.7128906 L46.0566406,31.1855469 C45.6347656,31.3535156 45.2861328,31.4628906 45.0107422,31.5136719 C44.7353516,31.5644531 44.4160156,31.5898438 44.0527344,31.5898438 C43.3066406,31.5898438 42.7333984,31.359375 42.3330078,30.8984375 C41.9326172,30.4375 41.7285156,29.7695312 41.7207031,28.8945312 L41.7207031,28.8945312 L46.3085938,28.8945312 L46.3085938,28.4257812 C46.3085938,27.5273438 46.0917969,26.8164062 45.6582031,26.2929688 C45.2246094,25.7695312 44.6328125,25.5078125 43.8828125,25.5078125 C43.0351562,25.5078125 42.3613281,25.8134766 41.8613281,26.4248047 C41.3613281,27.0361328 41.1113281,27.8496094 41.1113281,28.8652344 C41.1113281,29.8925781 41.3701172,30.6914062 41.8876953,31.2617188 C42.4052734,31.8320312 43.1269531,32.1171875 44.0527344,32.1171875 Z M45.6933594,28.3789062 L41.7558594,28.3789062 C41.8183594,27.6171875 42.0351562,27.0341797 42.40625,26.6298828 C42.7773438,26.2255859 43.2695312,26.0234375 43.8828125,26.0234375 C44.4492188,26.0234375 44.8925781,26.2314453 45.2128906,26.6474609 C45.5332031,27.0634766 45.6933594,27.640625 45.6933594,28.3789062 L45.6933594,28.3789062 Z M26.5332031,49.1171875 C27.4394531,49.1171875 28.1347656,48.7539062 28.6191406,48.0273438 L28.6191406,48.0273438 L28.6660156,48.0273438 L28.8125,49 L29.1933594,49 L29.1933594,39.8828125 L28.6191406,39.8828125 L28.6191406,42.1738281 C28.6191406,42.6464844 28.6308594,43.1289062 28.6542969,43.6210938 L28.6542969,43.6210938 L28.6191406,43.6210938 C28.3535156,43.2148438 28.0527344,42.9277344 27.7167969,42.7597656 C27.3808594,42.5917969 26.9824219,42.5078125 26.5214844,42.5078125 C25.6425781,42.5078125 24.9726562,42.7988281 24.5117188,43.3808594 C24.0507812,43.9628906 23.8203125,44.8046875 23.8203125,45.90625 C23.8203125,46.953125 24.0527344,47.75 24.5175781,48.296875 C24.9824219,48.84375 25.6542969,49.1171875 26.5332031,49.1171875 Z M26.5332031,48.6015625 C25.1308594,48.6015625 24.4296875,47.6992188 24.4296875,45.8945312 C24.4296875,44.9648438 24.6044922,44.2558594 24.9541016,43.7675781 C25.3037109,43.2792969 25.8261719,43.0351562 26.5214844,43.0351562 C27.2597656,43.0351562 27.7939453,43.2509766 28.1240234,43.6826172 C28.4541016,44.1142578 28.6191406,44.8222656 28.6191406,45.8066406 L28.6191406,45.8066406 L28.6191406,45.90625 C28.6191406,46.8671875 28.4511719,47.5566406 28.1152344,47.9746094 C27.7792969,48.3925781 27.2519531,48.6015625 26.5332031,48.6015625 Z M32.8203125,49.1171875 C33.28125,49.1171875 33.6806641,49.0322266 34.0185547,48.8623047 C34.3564453,48.6923828 34.6855469,48.4023438 35.0058594,47.9921875 L35.0058594,47.9921875 L35.0527344,47.9921875 L35.1992188,49 L35.6269531,49 L35.6269531,44.7636719 C35.6269531,43.9941406 35.4541016,43.4277344 35.1083984,43.0644531 C34.7626953,42.7011719 34.2402344,42.5195312 33.5410156,42.5195312 C32.8574219,42.5195312 32.1660156,42.6835938 31.4667969,43.0117188 L31.4667969,43.0117188 L31.6835938,43.515625 C32.3164062,43.1875 32.9277344,43.0234375 33.5175781,43.0234375 C34.0644531,43.0234375 34.4609375,43.1777344 34.7070312,43.4863281 C34.953125,43.7949219 35.0761719,44.2519531 35.0761719,44.8574219 L35.0761719,44.8574219 L35.0761719,45.2792969 L33.8632812,45.3144531 C32.8828125,45.3339844 32.1337891,45.515625 31.6162109,45.859375 C31.0986328,46.203125 30.8398438,46.6855469 30.8398438,47.3066406 C30.8398438,47.8730469 31.0136719,48.3164062 31.3613281,48.6367188 C31.7089844,48.9570312 32.1953125,49.1171875 32.8203125,49.1171875 Z M32.8554688,48.5898438 C32.4101562,48.5898438 32.0654297,48.4794922 31.8212891,48.2587891 C31.5771484,48.0380859 31.4550781,47.7285156 31.4550781,47.3300781 C31.4550781,46.8300781 31.6455078,46.4619141 32.0263672,46.2255859 C32.4072266,45.9892578 33.0449219,45.8496094 33.9394531,45.8066406 L33.9394531,45.8066406 L35.0527344,45.7597656 L35.0527344,46.3867188 C35.0527344,47.078125 34.8564453,47.6181641 34.4638672,48.0068359 C34.0712891,48.3955078 33.5351562,48.5898438 32.8554688,48.5898438 Z M39.359375,49.1171875 C39.7265625,49.1171875 40.0507812,49.0703125 40.3320312,48.9765625 L40.3320312,48.9765625 L40.3320312,48.5078125 C40.0585938,48.5703125 39.7382812,48.6015625 39.3710938,48.6015625 C39.0039062,48.6015625 38.734375,48.484375 38.5625,48.25 C38.390625,48.015625 38.3046875,47.6542969 38.3046875,47.1660156 L38.3046875,47.1660156 L38.3046875,43.1347656 L40.1738281,43.1347656 L40.1738281,42.6308594 L38.3046875,42.6308594 L38.3046875,41.0898438 L38.0058594,41.0898438 L37.7128906,42.53125 L36.7695312,42.7949219 L36.7695312,43.1347656 L37.7128906,43.1347656 L37.7128906,47.2480469 C37.7128906,47.8925781 37.8466797,48.3652344 38.1142578,48.6660156 C38.3818359,48.9667969 38.796875,49.1171875 39.359375,49.1171875 Z M43.1972656,49.1171875 C43.6582031,49.1171875 44.0576172,49.0322266 44.3955078,48.8623047 C44.7333984,48.6923828 45.0625,48.4023438 45.3828125,47.9921875 L45.3828125,47.9921875 L45.4296875,47.9921875 L45.5761719,49 L46.0039062,49 L46.0039062,44.7636719 C46.0039062,43.9941406 45.8310547,43.4277344 45.4853516,43.0644531 C45.1396484,42.7011719 44.6171875,42.5195312 43.9179688,42.5195312 C43.234375,42.5195312 42.5429688,42.6835938 41.84375,43.0117188 L41.84375,43.0117188 L42.0605469,43.515625 C42.6933594,43.1875 43.3046875,43.0234375 43.8945312,43.0234375 C44.4414062,43.0234375 44.8378906,43.1777344 45.0839844,43.4863281 C45.3300781,43.7949219 45.453125,44.2519531 45.453125,44.8574219 L45.453125,44.8574219 L45.453125,45.2792969 L44.2402344,45.3144531 C43.2597656,45.3339844 42.5107422,45.515625 41.9931641,45.859375 C41.4755859,46.203125 41.2167969,46.6855469 41.2167969,47.3066406 C41.2167969,47.8730469 41.390625,48.3164062 41.7382812,48.6367188 C42.0859375,48.9570312 42.5722656,49.1171875 43.1972656,49.1171875 Z M43.2324219,48.5898438 C42.7871094,48.5898438 42.4423828,48.4794922 42.1982422,48.2587891 C41.9541016,48.0380859 41.8320312,47.7285156 41.8320312,47.3300781 C41.8320312,46.8300781 42.0224609,46.4619141 42.4033203,46.2255859 C42.7841797,45.9892578 43.421875,45.8496094 44.3164062,45.8066406 L44.3164062,45.8066406 L45.4296875,45.7597656 L45.4296875,46.3867188 C45.4296875,47.078125 45.2333984,47.6181641 44.8408203,48.0068359 C44.4482422,48.3955078 43.9121094,48.5898438 43.2324219,48.5898438 Z" id="Plainsensitivedata" fill="#547580" fill-rule="nonzero"></path>
                </g>
                <g id="arrows" transform="translate(91.125000, 97.000000)" fill="#E0EAEC" fill-rule="nonzero">
                    <path id="Line-Copy-10" d="M59.8718455,-0.00313470334 L59.8749901,0.496855408 L60.321,71.496 L64.3214529,71.4718668 L59.8781446,80.4999901 L55.3216309,71.5284694 L59.321,71.503 L58.8750099,0.503144592 L58.8718653,0.00315448045 L59.8718455,-0.00313470334 Z"></path>
                    <path id="Line-Copy-11" d="M59.125939,185.749063 L60.1259372,185.750939 L60.1249991,186.250938 L59.891,311 L63.8909395,311.008458 L59.3740619,319.999999 L54.8909554,310.991572 L58.891,310.999 L59.1250009,186.249062 L59.125939,185.749063 Z"></path>
                    <path id="Line-Copy-12" d="M1.24729734,178.875007 L5.79587953,187.850552 L1.796,187.872 L1.828,193.997 L5.82898899,193.9758 L1.37770266,202.999993 L-3.17087953,194.024448 L0.828,194.002 L0.796,187.877 L-3.20398899,187.8992 L1.24729734,178.875007 Z"></path>
                </g>
                <g id="browser" transform="translate(1.000000, 430.000000)">
                    <g id="table" transform="translate(14.000000, 33.000000)">
                        <rect id="Rectangle" stroke="#E0EAEC" fill="#FFFFFF" x="1" y="0" width="270" height="109" rx="8"></rect>
                        <path d="M9,0 L263,0 C267.418278,-8.11624501e-16 271,3.581722 271,8 L271,30 L271,30 L1,30 L1,8 C1,3.581722 4.581722,8.11624501e-16 9,0 Z" id="Rectangle-Copy" stroke="#E0EAEC" fill="#547580"></path>
                        <line x1="0.576595745" y1="54.5" x2="270.423404" y2="54.5" id="Line-4-Copy" stroke="#E0EAEC" stroke-linecap="square"></line>
                        <line x1="0.576595745" y1="79.5" x2="270.423404" y2="79.5" id="Line-4-Copy-2" stroke="#E0EAEC" stroke-linecap="square"></line>
                        <line x1="41.5" y1="0.5" x2="41.5" y2="109.5" id="Line-5" stroke="#E0EAEC" stroke-linecap="square"></line>
                        <line x1="132.5" y1="0.5" x2="132.5" y2="109.5" id="Line-5-Copy" stroke="#E0EAEC" stroke-linecap="square"></line>
                        <line x1="241.5" y1="0.5" x2="241.5" y2="109.5" id="Line-5-Copy-2" stroke="#E0EAEC" stroke-linecap="square"></line>
                        <path d="M54.4589844,21.1367188 C55.5891927,21.1367188 56.4755859,20.8837891 57.1181641,20.3779297 C57.7607422,19.8720703 58.0820312,19.1748047 58.0820312,18.2861328 C58.0820312,17.8349609 58.0022786,17.4430339 57.8427734,17.1103516 C57.6832682,16.7776693 57.4326172,16.4791667 57.0908203,16.2148438 C56.7490234,15.9505208 56.211263,15.6656901 55.4775391,15.3603516 C54.8258464,15.0914714 54.3746745,14.875 54.1240234,14.7109375 C53.8733724,14.546875 53.6933594,14.3725586 53.5839844,14.1879883 C53.4746094,14.003418 53.4199219,13.78125 53.4199219,13.5214844 C53.4199219,13.1432292 53.5566406,12.8390299 53.8300781,12.6088867 C54.1035156,12.3787435 54.5045573,12.2636719 55.0332031,12.2636719 C55.7304688,12.2636719 56.5234375,12.4505208 57.4121094,12.8242188 L57.4121094,12.8242188 L57.9316406,11.4912109 C56.983724,11.0719401 56.03125,10.8623047 55.0742188,10.8623047 C54.0761719,10.8623047 53.2809245,11.1015625 52.6884766,11.5800781 C52.0960286,12.0585938 51.7998047,12.7148438 51.7998047,13.5488281 C51.7998047,14.2141927 51.9866536,14.7838542 52.3603516,15.2578125 C52.7340495,15.7317708 53.3766276,16.1533203 54.2880859,16.5224609 C55.1722005,16.8779297 55.7555339,17.1855469 56.0380859,17.4453125 C56.320638,17.7050781 56.4619141,18.0218099 56.4619141,18.3955078 C56.4619141,18.8102214 56.3081055,19.140625 56.0004883,19.3867188 C55.6928711,19.6328125 55.2154948,19.7558594 54.5683594,19.7558594 C54.1263021,19.7558594 53.6489258,19.6943359 53.1362305,19.5712891 C52.6235352,19.4482422 52.1393229,19.2796224 51.6835938,19.0654297 L51.6835938,19.0654297 L51.6835938,20.6103516 C52.4036458,20.961263 53.328776,21.1367188 54.4589844,21.1367188 Z M62.15625,21.1367188 C63.2864583,21.1367188 64.1728516,20.8837891 64.8154297,20.3779297 C65.4580078,19.8720703 65.7792969,19.1748047 65.7792969,18.2861328 C65.7792969,17.8349609 65.6995443,17.4430339 65.5400391,17.1103516 C65.3805339,16.7776693 65.1298828,16.4791667 64.7880859,16.2148438 C64.4462891,15.9505208 63.9085286,15.6656901 63.1748047,15.3603516 C62.523112,15.0914714 62.0719401,14.875 61.8212891,14.7109375 C61.570638,14.546875 61.390625,14.3725586 61.28125,14.1879883 C61.171875,14.003418 61.1171875,13.78125 61.1171875,13.5214844 C61.1171875,13.1432292 61.2539062,12.8390299 61.5273438,12.6088867 C61.8007812,12.3787435 62.2018229,12.2636719 62.7304688,12.2636719 C63.4277344,12.2636719 64.2207031,12.4505208 65.109375,12.8242188 L65.109375,12.8242188 L65.6289062,11.4912109 C64.6809896,11.0719401 63.7285156,10.8623047 62.7714844,10.8623047 C61.7734375,10.8623047 60.9781901,11.1015625 60.3857422,11.5800781 C59.7932943,12.0585938 59.4970703,12.7148438 59.4970703,13.5488281 C59.4970703,14.2141927 59.6839193,14.7838542 60.0576172,15.2578125 C60.4313151,15.7317708 61.0738932,16.1533203 61.9853516,16.5224609 C62.8694661,16.8779297 63.4527995,17.1855469 63.7353516,17.4453125 C64.0179036,17.7050781 64.1591797,18.0218099 64.1591797,18.3955078 C64.1591797,18.8102214 64.0053711,19.140625 63.6977539,19.3867188 C63.3901367,19.6328125 62.9127604,19.7558594 62.265625,19.7558594 C61.8235677,19.7558594 61.3461914,19.6943359 60.8334961,19.5712891 C60.3208008,19.4482422 59.8365885,19.2796224 59.3808594,19.0654297 L59.3808594,19.0654297 L59.3808594,20.6103516 C60.1009115,20.961263 61.0260417,21.1367188 62.15625,21.1367188 Z M69.1972656,21 L69.1972656,15.8046875 C69.1972656,15.1028646 69.1653646,14.328125 69.1015625,13.4804688 L69.1015625,13.4804688 L69.0673828,13.0361328 L69.1220703,13.0361328 L74.0371094,21 L76.0400391,21 L76.0400391,11.0058594 L74.5429688,11.0058594 L74.5429688,16.2421875 C74.5429688,16.6113281 74.5566406,17.1251628 74.5839844,17.7836914 C74.6113281,18.4422201 74.6295573,18.8238932 74.6386719,18.9287109 L74.6386719,18.9287109 L74.5976562,18.9287109 L69.6962891,11.0058594 L67.7138672,11.0058594 L67.7138672,21 L69.1972656,21 Z" id="SSN" fill="#FFFFFF" fill-rule="nonzero"></path>
                        <path d="M146.373047,21.1367188 C147.366536,21.1367188 148.255208,20.9886068 149.039062,20.6923828 L149.039062,20.6923828 L149.039062,19.2910156 C148.610677,19.4231771 148.198242,19.5314128 147.801758,19.6157227 C147.405273,19.7000326 146.995117,19.7421875 146.571289,19.7421875 C145.591471,19.7421875 144.842936,19.4277344 144.325684,18.7988281 C143.808431,18.1699219 143.549805,17.242513 143.549805,16.0166016 C143.549805,14.8453776 143.818685,13.9270833 144.356445,13.2617188 C144.894206,12.5963542 145.632487,12.2636719 146.571289,12.2636719 C146.986003,12.2636719 147.381348,12.324056 147.757324,12.4448242 C148.133301,12.5655924 148.489909,12.7057292 148.827148,12.8652344 L148.827148,12.8652344 L149.415039,11.5048828 C148.549154,11.0764974 147.605794,10.8623047 146.584961,10.8623047 C145.614258,10.8623047 144.76888,11.0696615 144.048828,11.484375 C143.328776,11.8990885 142.778483,12.4960938 142.397949,13.2753906 C142.017415,14.0546875 141.827148,14.9638672 141.827148,16.0029297 C141.827148,17.6526693 142.219076,18.9207357 143.00293,19.8071289 C143.786784,20.6935221 144.910156,21.1367188 146.373047,21.1367188 Z M152.853516,21.1367188 C153.432292,21.1367188 153.90625,21.0535482 154.275391,20.887207 C154.644531,20.7208659 155.011393,20.4075521 155.375977,19.9472656 L155.375977,19.9472656 L155.430664,19.9472656 L155.751953,21 L156.900391,21 L156.900391,15.9072266 C156.900391,15.0094401 156.655436,14.3509115 156.165527,13.9316406 C155.675618,13.5123698 154.94987,13.3027344 153.988281,13.3027344 C153.555339,13.3027344 153.095052,13.3585612 152.607422,13.4702148 C152.119792,13.5818685 151.670898,13.7447917 151.260742,13.9589844 L151.260742,13.9589844 L151.780273,15.1074219 C152.108398,14.952474 152.450195,14.8180339 152.805664,14.7041016 C153.161133,14.5901693 153.532552,14.5332031 153.919922,14.5332031 C154.39388,14.5332031 154.743652,14.652832 154.969238,14.8920898 C155.194824,15.1313477 155.307617,15.492513 155.307617,15.9755859 L155.307617,15.9755859 L155.307617,16.3789062 L154.001953,16.4199219 C152.817057,16.4563802 151.935221,16.6728516 151.356445,17.0693359 C150.777669,17.4658203 150.488281,18.0537109 150.488281,18.8330078 C150.488281,19.5667318 150.696777,20.1341146 151.11377,20.5351562 C151.530762,20.9361979 152.110677,21.1367188 152.853516,21.1367188 Z M153.359375,19.90625 C152.958333,19.90625 152.657552,19.8139648 152.457031,19.6293945 C152.25651,19.4448242 152.15625,19.1839193 152.15625,18.8466797 C152.15625,18.3818359 152.328288,18.0366211 152.672363,17.8110352 C153.016439,17.5854492 153.566732,17.4589844 154.323242,17.4316406 L154.323242,17.4316406 L155.293945,17.390625 L155.293945,18.046875 C155.293945,18.6347656 155.11735,19.0916341 154.76416,19.4174805 C154.41097,19.7433268 153.942708,19.90625 153.359375,19.90625 Z M160.749023,21 L160.749023,17.0488281 C160.749023,16.3789062 160.948405,15.8343099 161.347168,15.4150391 C161.745931,14.9957682 162.266602,14.7861328 162.90918,14.7861328 C163.155273,14.7861328 163.392253,14.8134766 163.620117,14.8681641 L163.620117,14.8681641 L163.777344,13.3710938 C163.567708,13.3255208 163.301107,13.3027344 162.977539,13.3027344 C162.512695,13.3027344 162.078613,13.4348958 161.675293,13.6992188 C161.271973,13.9635417 160.944987,14.3212891 160.694336,14.7724609 L160.694336,14.7724609 L160.612305,14.7724609 L160.400391,13.4394531 L159.142578,13.4394531 L159.142578,21 L160.749023,21 Z M167.448242,21.1367188 C168.441732,21.1367188 169.195964,20.7607422 169.710938,20.0087891 L169.710938,20.0087891 L169.786133,20.0087891 L170.066406,21 L171.324219,21 L171.324219,10.3632812 L169.710938,10.3632812 L169.710938,13.1181641 C169.710938,13.4326172 169.749674,13.8610026 169.827148,14.4033203 L169.827148,14.4033203 L169.745117,14.4033203 C169.225586,13.6695964 168.469076,13.3027344 167.475586,13.3027344 C166.527669,13.3027344 165.78597,13.6479492 165.250488,14.3383789 C164.715007,15.0288086 164.447266,15.9938151 164.447266,17.2333984 C164.447266,18.4684245 164.711589,19.4277344 165.240234,20.1113281 C165.76888,20.7949219 166.504883,21.1367188 167.448242,21.1367188 Z M167.878906,19.8378906 C167.286458,19.8378906 166.842122,19.6180013 166.545898,19.1782227 C166.249674,18.738444 166.101562,18.0992839 166.101562,17.2607422 C166.101562,16.4130859 166.254232,15.7602539 166.55957,15.3022461 C166.864909,14.8442383 167.30013,14.6152344 167.865234,14.6152344 C168.526042,14.6152344 169.011393,14.8157552 169.321289,15.2167969 C169.631185,15.6178385 169.786133,16.2945964 169.786133,17.2470703 L169.786133,17.2470703 L169.786133,17.4726562 C169.777018,18.3066406 169.62207,18.9093424 169.321289,19.2807617 C169.020508,19.652181 168.539714,19.8378906 167.878906,19.8378906 Z M178.912109,21 L178.912109,15.8046875 C178.912109,15.1028646 178.880208,14.328125 178.816406,13.4804688 L178.816406,13.4804688 L178.782227,13.0361328 L178.836914,13.0361328 L183.751953,21 L185.754883,21 L185.754883,11.0058594 L184.257812,11.0058594 L184.257812,16.2421875 C184.257812,16.6113281 184.271484,17.1251628 184.298828,17.7836914 C184.326172,18.4422201 184.344401,18.8238932 184.353516,18.9287109 L184.353516,18.9287109 L184.3125,18.9287109 L179.411133,11.0058594 L177.428711,11.0058594 L177.428711,21 L178.912109,21 Z M190.881836,21.1367188 C191.410482,21.1367188 191.881022,21.0364583 192.293457,20.8359375 C192.705892,20.6354167 193.023763,20.3597005 193.24707,20.0087891 L193.24707,20.0087891 L193.329102,20.0087891 L193.554688,21 L194.819336,21 L194.819336,13.4394531 L193.206055,13.4394531 L193.206055,17.2060547 C193.206055,18.1539714 193.047689,18.8295898 192.730957,19.2329102 C192.414225,19.6362305 191.91862,19.8378906 191.244141,19.8378906 C190.738281,19.8378906 190.366862,19.6931966 190.129883,19.4038086 C189.892904,19.1144206 189.774414,18.6803385 189.774414,18.1015625 L189.774414,18.1015625 L189.774414,13.4394531 L188.154297,13.4394531 L188.154297,18.3818359 C188.154297,19.3069661 188.379883,19.9973958 188.831055,20.453125 C189.282227,20.9088542 189.96582,21.1367188 190.881836,21.1367188 Z M198.71582,21 L198.71582,17.2333984 C198.71582,16.2945964 198.860514,15.6235352 199.149902,15.2202148 C199.43929,14.8168945 199.89388,14.6152344 200.513672,14.6152344 C200.978516,14.6152344 201.320312,14.7576497 201.539062,15.0424805 C201.757812,15.3273112 201.867188,15.7591146 201.867188,16.3378906 L201.867188,16.3378906 L201.867188,21 L203.480469,21 L203.480469,16.9941406 C203.480469,16.1875 203.625163,15.5893555 203.914551,15.199707 C204.203939,14.8100586 204.660807,14.6152344 205.285156,14.6152344 C205.75,14.6152344 206.092936,14.7576497 206.313965,15.0424805 C206.534993,15.3273112 206.645508,15.7591146 206.645508,16.3378906 L206.645508,16.3378906 L206.645508,21 L208.251953,21 L208.251953,16.0712891 C208.251953,15.1370443 208.045736,14.4420573 207.633301,13.9863281 C207.220866,13.530599 206.563477,13.3027344 205.661133,13.3027344 C205.137044,13.3027344 204.672201,13.4075521 204.266602,13.6171875 C203.861003,13.8268229 203.546549,14.1184896 203.323242,14.4921875 L203.323242,14.4921875 L203.213867,14.4921875 C202.835612,13.6992188 202.06543,13.3027344 200.90332,13.3027344 C200.424805,13.3027344 199.986165,13.4007161 199.587402,13.5966797 C199.188639,13.7926432 198.88444,14.070638 198.674805,14.4306641 L198.674805,14.4306641 L198.592773,14.4306641 L198.367188,13.4394531 L197.109375,13.4394531 L197.109375,21 L198.71582,21 Z M214.329102,21.1367188 C215.277018,21.1367188 216.017578,20.7915039 216.550781,20.1010742 C217.083984,19.4106445 217.350586,18.445638 217.350586,17.2060547 C217.350586,15.9710286 217.087402,15.0117188 216.561035,14.328125 C216.034668,13.6445312 215.299805,13.3027344 214.356445,13.3027344 C213.362956,13.3027344 212.611003,13.6787109 212.100586,14.4306641 L212.100586,14.4306641 L212.032227,14.4306641 C212.041341,14.3304036 212.055013,14.0957031 212.073242,13.7265625 C212.091471,13.3574219 212.100586,13.0794271 212.100586,12.8925781 L212.100586,12.8925781 L212.100586,10.3632812 L210.494141,10.3632812 L210.494141,21 L211.697266,21 L211.991211,20.1044922 L212.100586,20.1044922 C212.629232,20.7926432 213.37207,21.1367188 214.329102,21.1367188 Z M213.966797,19.8242188 C213.30599,19.8242188 212.829753,19.6180013 212.538086,19.2055664 C212.246419,18.7931315 212.100586,18.1266276 212.100586,17.2060547 L212.100586,17.2060547 L212.100586,17.0966797 C212.109701,16.2034505 212.256673,15.566569 212.541504,15.1860352 C212.826335,14.8055013 213.292318,14.6152344 213.939453,14.6152344 C215.115234,14.6152344 215.703125,15.4742839 215.703125,17.1923828 C215.703125,18.0445964 215.556152,18.6962891 215.262207,19.1474609 C214.968262,19.5986328 214.536458,19.8242188 213.966797,19.8242188 Z M222.518555,21.1367188 C223.033529,21.1367188 223.491536,21.0979818 223.892578,21.0205078 C224.29362,20.9430339 224.690104,20.8108724 225.082031,20.6240234 L225.082031,20.6240234 L225.082031,19.3183594 C224.639974,19.5143229 224.2264,19.6544596 223.841309,19.7387695 C223.456217,19.8230794 223.040365,19.8652344 222.59375,19.8652344 C221.914714,19.8652344 221.388346,19.6681315 221.014648,19.2739258 C220.640951,18.8797201 220.442708,18.3157552 220.419922,17.5820312 L220.419922,17.5820312 L225.458008,17.5820312 L225.458008,16.7138672 C225.458008,15.6520182 225.16862,14.8180339 224.589844,14.2119141 C224.011068,13.6057943 223.222656,13.3027344 222.224609,13.3027344 C221.149089,13.3027344 220.303711,13.6559245 219.688477,14.3623047 C219.073242,15.0686849 218.765625,16.039388 218.765625,17.2744141 C218.765625,18.4775391 219.097168,19.4220378 219.760254,20.1079102 C220.42334,20.7937826 221.342773,21.1367188 222.518555,21.1367188 Z M223.878906,16.4199219 L220.447266,16.4199219 C220.50651,15.8001302 220.689941,15.3284505 220.997559,15.0048828 C221.305176,14.6813151 221.714193,14.5195312 222.224609,14.5195312 C222.735026,14.5195312 223.136068,14.6801758 223.427734,15.0014648 C223.719401,15.3227539 223.869792,15.7955729 223.878906,16.4199219 L223.878906,16.4199219 Z M228.889648,21 L228.889648,17.0488281 C228.889648,16.3789062 229.08903,15.8343099 229.487793,15.4150391 C229.886556,14.9957682 230.407227,14.7861328 231.049805,14.7861328 C231.295898,14.7861328 231.532878,14.8134766 231.760742,14.8681641 L231.760742,14.8681641 L231.917969,13.3710938 C231.708333,13.3255208 231.441732,13.3027344 231.118164,13.3027344 C230.65332,13.3027344 230.219238,13.4348958 229.815918,13.6992188 C229.412598,13.9635417 229.085612,14.3212891 228.834961,14.7724609 L228.834961,14.7724609 L228.75293,14.7724609 L228.541016,13.4394531 L227.283203,13.4394531 L227.283203,21 L228.889648,21 Z" id="CardNumber" fill="#FFFFFF" fill-rule="nonzero"></path>
                    </g>
                    <rect id="Rectangle" fill="#547580" x="0" y="0" width="300" height="16" rx="8"></rect>
                    <rect id="Rectangle-Copy-2" fill="#FFFFFF" x="56" y="3" width="189" height="10" rx="5"></rect>
                    <circle id="Oval" fill="#FF6159" cx="9.5" cy="8.5" r="4.5"></circle>
                    <circle id="Oval-Copy-4" fill="#FFBF2F" cx="20.5" cy="8.5" r="4.5"></circle>
                    <circle id="v" fill="#28CA42" cx="32.5" cy="8.5" r="4.5"></circle>
                    <rect id="Rectangle" stroke="#E0EAEC" x="0" y="0" width="300" height="161" rx="8"></rect>
                </g>
            </g>
        </g>
    </g>
</svg>