<?xml version="1.0" encoding="UTF-8"?>
<svg width="536px" height="149px" viewBox="0 0 536 149" version="1.1" xmlns="http://www.w3.org/2000/svg" xmlns:xlink="http://www.w3.org/1999/xlink">
    <!-- Generator: Sketch 60 (88103) - https://sketch.com -->
    <title>Group 4</title>
    <desc>Created with Sketch.</desc>
    <g id="Page-1" stroke="none" stroke-width="1" fill="none" fill-rule="evenodd">
        <g id="Group-4" transform="translate(0.000000, -5.000000)">
            <g id="servers" transform="translate(230.000000, 58.000000)">
                <g id="srvs-left" transform="translate(0.000000, 56.000000)">
                    <g id="srv-light" transform="translate(0.000000, 13.000000)">
                        <path d="M3,0 L28,0 C29.6568542,0 31,1.34314575 31,3 L31,10 C31,11.6568542 29.6568542,13 28,13 L3,13 C1.34314575,13 0,11.6568542 0,10 L0,3 C0,1.34314575 1.34314575,0 3,0 Z" id="Rectangle" fill="#547580"></path>
                        <circle id="Oval-Copy" fill="#FF5364" fill-rule="nonzero" cx="25.5" cy="6.5" r="1.5"></circle>
                        <rect id="Rectangle-Copy-6" fill="#3F5C6C" x="4" y="5" width="10" height="3" rx="1.5"></rect>
                    </g>
                    <g id="srv-dark">
                        <rect id="Rectangle-Copy-5" fill="#3F5C6C" x="0" y="0" width="31" height="13" rx="3"></rect>
                        <circle id="Oval" fill="#FF5364" fill-rule="nonzero" cx="25.5" cy="6.5" r="1.5"></circle>
                        <rect id="Rectangle-Copy-7" fill="#547580" x="4" y="5" width="10" height="3" rx="1.5"></rect>
                    </g>
                    <g id="srv-dark-copy" transform="translate(0.000000, 26.000000)">
                        <rect id="Rectangle-Copy-5" fill="#3F5C6C" x="0" y="0" width="31" height="13" rx="3"></rect>
                        <circle id="Oval" fill="#FF5364" fill-rule="nonzero" cx="25.5" cy="6.5" r="1.5"></circle>
                        <rect id="Rectangle-Copy-8" fill="#547580" x="4" y="5" width="10" height="3" rx="1.5"></rect>
                    </g>
                </g>
                <g id="srvs-right" transform="translate(43.000000, 56.000000)">
                    <g id="srv-light" transform="translate(0.000000, 13.000000)">
                        <path d="M3,0 L28,0 C29.6568542,0 31,1.34314575 31,3 L31,10 C31,11.6568542 29.6568542,13 28,13 L3,13 C1.34314575,13 0,11.6568542 0,10 L0,3 C0,1.34314575 1.34314575,0 3,0 Z" id="Rectangle" fill="#547580"></path>
                        <circle id="Oval-Copy" fill="#FF5364" fill-rule="nonzero" cx="25.5" cy="6.5" r="1.5"></circle>
                        <rect id="Rectangle-Copy-6" fill="#3F5C6C" x="4" y="5" width="10" height="3" rx="1.5"></rect>
                    </g>
                    <g id="srv-dark">
                        <rect id="Rectangle-Copy-5" fill="#3F5C6C" x="0" y="0" width="31" height="13" rx="3"></rect>
                        <circle id="Oval" fill="#FF5364" fill-rule="nonzero" cx="25.5" cy="6.5" r="1.5"></circle>
                        <rect id="Rectangle-Copy-7" fill="#547580" x="4" y="5" width="10" height="3" rx="1.5"></rect>
                    </g>
                    <g id="srv-dark-copy" transform="translate(0.000000, 26.000000)">
                        <rect id="Rectangle-Copy-5" fill="#3F5C6C" x="0" y="0" width="31" height="13" rx="3"></rect>
                        <circle id="Oval" fill="#FF5364" fill-rule="nonzero" cx="25.5" cy="6.5" r="1.5"></circle>
                        <rect id="Rectangle-Copy-8" fill="#547580" x="4" y="5" width="10" height="3" rx="1.5"></rect>
                    </g>
                </g>
                <rect id="Rectangle" fill="#C2D5D9" x="31" y="74" width="12" height="3"></rect>
                <rect id="Rectangle-Copy-4" fill="#C2D5D9" transform="translate(37.500000, 37.500000) scale(1, -1) rotate(90.000000) translate(-37.500000, -37.500000) " x="0.5" y="36.5" width="74" height="2"></rect>
                <path d="M44.8569321,22.3782224 C47.8274157,22.4296259 50.2029698,24.8873728 50.1824827,27.8880339 C52.4790738,28.6770596 54.0171259,30.8631033 53.9995082,33.3131974 C54.0391676,36.3544953 51.6751487,38.8752681 48.6663388,39 L27.3336612,39 C24.3248513,38.8752681 21.9608324,36.3544953 22.0004918,33.3131974 C21.9973546,31.9372579 22.481011,30.6054546 23.3642594,29.5579069 C24.2215814,28.5357124 25.4192028,27.8652109 26.7317749,27.6725664 C27.389655,25.7715759 29.1496325,24.4851673 31.1430679,24.4482493 C31.5942326,21.3529063 34.2017697,19.0451563 37.2990692,19 C39.7441509,19.0207286 41.9515707,20.4830383 42.9446099,22.7399 L42.9141347,22.7629858 C43.5304453,22.5071511 44.1906042,22.3764092 44.8569321,22.3782224 Z" id="Shape-Copy-2" fill="#C2D5D9" fill-rule="nonzero"></path>
            </g>
            <g id="Group-5">
                <g id="left" transform="translate(0.000000, 14.000000)">
                    <g id="laptop" transform="translate(0.000000, 88.000000)" fill-rule="nonzero">
                        <path d="M67,4 L67,41 L2,41 L2,4 C2,1.790861 4.15566602,0 6.81481481,0 L62.1851852,0 C64.844334,0 67,1.790861 67,4 Z" id="Shape" fill="#67B9CC"></path>
                        <path d="M67,5.52852749 L67,41 L2,41 L2,24.0111989 C11.8222222,12.4893272 32.2490741,-3.18041827 67,5.52852749 Z" id="Shape" fill="#BEE8F5"></path>
                        <path d="M62.7586207,51 L7.24137931,51 C3.24207595,51 0,48.3137085 0,45 L0,42 C0,41.4477153 0.540345991,41 1.20689655,41 L68.7931034,41 C69.4596539,41 70,41.4477153 70,42 L70,45 C70,48.3137085 66.7579241,51 62.7586207,51 Z" id="Shape" fill="#3F5C6C"></path>
                        <path d="M23,41 L47,41 L47,43 C47,44.6568542 45.388225,46 43.4,46 L26.6,46 C24.611775,46 23,44.6568542 23,43 L23,41 Z" id="Shape" fill="#1D2228"></path>
                        <path d="M16.8,46 L13.2,46 C12.5372584,46 12,45.5522847 12,45 C12,44.4477153 12.5372584,44 13.2,44 L16.8,44 C17.4627416,44 18,44.4477153 18,45 C18,45.5522847 17.4627416,46 16.8,46 Z" id="Shape" fill="#35495E"></path>
                        <circle id="Oval" fill="#F0C419" cx="6" cy="45" r="1"></circle>
                        <circle id="Oval" fill="#FF5364" cx="9" cy="45" r="1"></circle>
                    </g>
                    <path d="M37.4691855,88.7359878 C37.4691855,4.40409192 22.5965123,14.5037202 240,14.5037202" id="Path-2" stroke="#C2D5D9" stroke-width="2"></path>
                    <g id="Group-2" transform="translate(39.000000, 107.000000)" stroke="#456D89" stroke-linecap="square">
                        <line x1="0.5" y1="0.5" x2="4.5" y2="4.5" id="Line"></line>
                        <line x1="0.5" y1="0.5" x2="4.5" y2="4.5" id="Line-Copy" transform="translate(2.500000, 2.500000) scale(-1, 1) translate(-2.500000, -2.500000) "></line>
                        <line x1="6.5" y1="0.5" x2="10.5" y2="4.5" id="Line"></line>
                        <line x1="6.5" y1="0.5" x2="10.5" y2="4.5" id="Line-Copy" transform="translate(8.500000, 2.500000) scale(-1, 1) translate(-8.500000, -2.500000) "></line>
                        <line x1="12.5" y1="0.5" x2="16.5" y2="4.5" id="Line"></line>
                        <line x1="12.5" y1="0.5" x2="16.5" y2="4.5" id="Line-Copy" transform="translate(14.500000, 2.500000) scale(-1, 1) translate(-14.500000, -2.500000) "></line>
                        <line x1="18.5" y1="0.5" x2="22.5" y2="4.5" id="Line"></line>
                        <line x1="18.5" y1="0.5" x2="22.5" y2="4.5" id="Line-Copy" transform="translate(20.500000, 2.500000) scale(-1, 1) translate(-20.500000, -2.500000) "></line>
                    </g>
                    <g id="user-regular" transform="translate(54.000000, 93.000000)" fill="#456D89" fill-rule="nonzero">
                        <path d="M5.6,5.34375 C5.0875,5.34375 4.84107143,5.625 4,5.625 C3.15892857,5.625 2.91428571,5.34375 2.4,5.34375 C1.075,5.34375 0,6.40195313 0,7.70625 L0,8.15625 C0,8.62207031 0.383928571,9 0.857142857,9 L7.14285714,9 C7.61607143,9 8,8.62207031 8,8.15625 L8,7.70625 C8,6.40195313 6.925,5.34375 5.6,5.34375 Z M7.57142857,8.53809862 L0.428571429,8.53809862 L0.428571429,7.91353925 C0.428571429,6.75224917 1.21590909,5.80565138 2.18181818,5.80565138 C2.47808442,5.80565138 2.95900974,6.19600099 4,6.19600099 C5.04910714,6.19600099 5.51988636,5.80565138 5.81818182,5.80565138 C6.78409091,5.80565138 7.57142857,6.75224917 7.57142857,7.91353925 L7.57142857,8.53809862 Z M4,5.0625 C5.41964286,5.0625 6.57142857,3.92871094 6.57142857,2.53125 C6.57142857,1.13378906 5.41964286,0 4,0 C2.58035714,0 1.42857143,1.13378906 1.42857143,2.53125 C1.42857143,3.92871094 2.58035714,5.0625 4,5.0625 Z M4,0.381696429 C5.20329507,0.381696429 6.18367347,1.34675642 6.18367347,2.53125 C6.18367347,3.71574358 5.20329507,4.68080357 4,4.68080357 C2.79670493,4.68080357 1.81632653,3.71574358 1.81632653,2.53125 C1.81632653,1.34675642 2.79670493,0.381696429 4,0.381696429 Z" id="Shape"></path>
                    </g>
                    <g id="shopping-cart-solid" transform="translate(7.000000, 102.000000)" fill="#456D89" fill-rule="nonzero">
                        <path d="M2.85568997,0 C3.11300428,0 3.33481683,0.172326172 3.38636546,0.412285156 L3.38636546,0.412285156 L3.59323704,1.375 L12.4581109,1.375 C12.805703,1.375 13.0633332,1.68224805 12.9863037,2.00490039 L12.9863037,2.00490039 L11.9193781,6.47365039 C11.8633381,6.70841016 11.6440985,6.875 11.3911852,6.875 L11.3911852,6.875 L4.77506373,6.875 L4.92278078,7.5625 L10.9808275,7.5625 C11.3284196,7.5625 11.5860499,7.86974805 11.5090203,8.19240039 L11.5090203,8.19240039 L11.3845047,8.71395508 C11.8063503,8.90888281 12.0972253,9.32052344 12.0972253,9.796875 C12.0972253,10.4613438 11.5313641,11 10.8333361,11 C10.1353082,11 9.56944691,10.4613438 9.56944691,9.796875 C9.56944691,9.46012891 9.71495216,9.15588867 9.94913278,8.9375 L9.94913278,8.9375 L5.21751524,8.9375 C5.45171842,9.15588867 5.59722367,9.46012891 5.59722367,9.796875 C5.59722367,10.4613438 5.03136241,11 4.33333445,11 C3.63530649,11 3.06944524,10.4613438 3.06944524,9.796875 C3.06944524,9.35047266 3.32504426,8.96113281 3.70434644,8.75348633 L3.70434644,8.75348633 L2.1188877,1.375 L0.541666806,1.375 C0.242508743,1.375 0,1.14415039 0,0.859375 L0,0.859375 L0,0.515625 C0,0.230849609 0.242508743,0 0.541666806,0 L0.541666806,0 Z M4.19354839,9.03571429 C3.73034182,9.03571429 3.35483871,9.38749055 3.35483871,9.82142857 C3.35483871,10.2553666 3.73034182,10.6071429 4.19354839,10.6071429 C4.65675495,10.6071429 5.03225806,10.2553666 5.03225806,9.82142857 C5.03225806,9.38749055 4.65675495,9.03571429 4.19354839,9.03571429 Z M10.9032258,9.03571429 C10.4400192,9.03571429 10.0645161,9.38749055 10.0645161,9.82142857 C10.0645161,10.2553666 10.4400192,10.6071429 10.9032258,10.6071429 C11.3664324,10.6071429 11.7419355,10.2553666 11.7419355,9.82142857 C11.7419355,9.38749055 11.3664324,9.03571429 10.9032258,9.03571429 Z M12.3709677,1.96428571 L3.77419355,1.96428571 L4.75109971,6.28571429 L11.3940616,6.28571429 L12.3709677,1.96428571 Z" id="Combined-Shape"></path>
                    </g>
                    <rect id="Rectangle" fill="#30B920" x="22" y="115" width="25" height="10" rx="5"></rect>
                    <path d="M28.4267578,123 L28.4267578,120.714844 L29.0112305,120.714844 C29.8081055,120.714844 30.4226074,120.531738 30.8547363,120.165527 C31.2868652,119.799316 31.5029297,119.270508 31.5029297,118.579102 C31.5029297,117.914062 31.3000488,117.413818 30.8942871,117.078369 C30.4885254,116.74292 29.8959961,116.575195 29.1166992,116.575195 L29.1166992,116.575195 L27.0644531,116.575195 L27.0644531,123 L28.4267578,123 Z M28.875,119.598633 L28.4267578,119.598633 L28.4267578,117.691406 L29.0463867,117.691406 C29.418457,117.691406 29.6916504,117.767578 29.8659668,117.919922 C30.0402832,118.072266 30.1274414,118.308105 30.1274414,118.627441 C30.1274414,118.943848 30.0234375,119.184814 29.8154297,119.350342 C29.6074219,119.515869 29.2939453,119.598633 28.875,119.598633 L28.875,119.598633 Z M32.9267578,123 L33.3925781,121.470703 L35.7348633,121.470703 L36.2006836,123 L37.668457,123 L35.3920898,116.548828 L33.7265625,116.548828 L31.4589844,123 L32.9267578,123 Z M35.409668,120.328125 L33.7353516,120.328125 C34.1923828,118.848633 34.4692383,117.921387 34.565918,117.546387 C34.5893555,117.651855 34.6281738,117.79541 34.682373,117.977051 C34.7365723,118.158691 34.9790039,118.942383 35.409668,120.328125 L35.409668,120.328125 Z M40.612793,123 L40.612793,120.499512 L42.7441406,116.575195 L41.2763672,116.575195 L39.9360352,119.220703 L38.6044922,116.575195 L37.1279297,116.575195 L39.2592773,120.543457 L39.2592773,123 L40.612793,123 Z" id="PAY" fill="#FFFFFF" fill-rule="nonzero"></path>
                    <path d="M147.856932,3.37822239 C150.827416,3.42962593 153.20297,5.88737278 153.182483,8.88803386 C155.479074,9.67705956 157.017126,11.8631033 156.999508,14.3131974 C157.039168,17.3544953 154.675149,19.8752681 151.666339,20 L130.333661,20 C127.324851,19.8752681 124.960832,17.3544953 125.000492,14.3131974 C124.997355,12.9372579 125.481011,11.6054546 126.364259,10.5579069 C127.221581,9.53571235 128.419203,8.86521085 129.731775,8.67256637 C130.389655,6.77157591 132.149632,5.48516732 134.143068,5.44824933 C134.594233,2.35290627 137.20177,0.0451562832 140.299069,0 C142.744151,0.0207285879 144.951571,1.48303833 145.94461,3.73989996 L145.914135,3.76298576 C146.530445,3.50715105 147.190604,3.37640917 147.856932,3.37822239 Z" id="Shape" fill="#C2D5D9" fill-rule="nonzero"></path>
                    <g id="Group-3" transform="translate(173.000000, 6.500000) rotate(90.000000) translate(-173.000000, -6.500000) translate(169.500000, -4.500000)" fill-rule="nonzero">
                        <circle id="Oval" fill="#FF5364" cx="1" cy="1" r="1"></circle>
                        <circle id="Oval" fill="#F0C419" cx="1" cy="5" r="1"></circle>
                        <circle id="Oval" fill="#FF5364" cx="1" cy="21" r="1"></circle>
                        <circle id="Oval" fill="#FF5364" cx="1" cy="17" r="1"></circle>
                        <circle id="Oval" fill="#FF5364" cx="1" cy="13" r="1"></circle>
                        <circle id="Oval" fill="#FF5364" cx="1" cy="9" r="1"></circle>
                        <circle id="Oval" fill="#955BA5" cx="6" cy="21" r="1"></circle>
                        <circle id="Oval" fill="#955BA5" cx="6" cy="17" r="1"></circle>
                        <circle id="Oval" fill="#955BA5" cx="6" cy="13" r="1"></circle>
                        <circle id="Oval" fill="#955BA5" cx="6" cy="9" r="1"></circle>
                    </g>
                </g>
            </g>
            <g id="Group-4-Copy" transform="translate(397.000000, 56.500000) scale(-1, 1) translate(-397.000000, -56.500000) translate(296.000000, 13.000000)">
                <path d="M0.501069308,86.3548966 C0.501069308,2.43888301 -14.3313631,15.5036516 202,15.5036516" id="Path-2" stroke="#C2D5D9" stroke-width="2"></path>
                <path d="M113.856932,3.37822239 C116.827416,3.42962593 119.20297,5.88737278 119.182483,8.88803386 C121.479074,9.67705956 123.017126,11.8631033 122.999508,14.3131974 C123.039168,17.3544953 120.675149,19.8752681 117.666339,20 L96.3336612,20 C93.3248513,19.8752681 90.9608324,17.3544953 91.0004918,14.3131974 C90.9973546,12.9372579 91.481011,11.6054546 92.3642594,10.5579069 C93.2215814,9.53571235 94.4192028,8.86521085 95.7317749,8.67256637 C96.389655,6.77157591 98.1496325,5.48516732 100.143068,5.44824933 C100.594233,2.35290627 103.20177,0.0451562832 106.299069,0 C108.744151,0.0207285879 110.951571,1.48303833 111.94461,3.73989996 L111.914135,3.76298576 C112.530445,3.50715105 113.190604,3.37640917 113.856932,3.37822239 Z" id="Shape" fill="#C2D5D9" fill-rule="nonzero"></path>
                <g id="Group-3-Copy" transform="translate(76.000000, 7.500000) rotate(90.000000) translate(-76.000000, -7.500000) translate(72.500000, -3.500000)" fill-rule="nonzero">
                    <circle id="Oval" fill="#FF5364" cx="1" cy="1" r="1"></circle>
                    <circle id="Oval" fill="#F0C419" cx="1" cy="5" r="1"></circle>
                    <circle id="Oval" fill="#FF5364" cx="1" cy="21" r="1"></circle>
                    <circle id="Oval" fill="#FF5364" cx="1" cy="17" r="1"></circle>
                    <circle id="Oval" fill="#FF5364" cx="1" cy="13" r="1"></circle>
                    <circle id="Oval" fill="#FF5364" cx="1" cy="9" r="1"></circle>
                    <circle id="Oval" fill="#955BA5" cx="6" cy="21" r="1"></circle>
                    <circle id="Oval" fill="#955BA5" cx="6" cy="17" r="1"></circle>
                    <circle id="Oval" fill="#955BA5" cx="6" cy="13" r="1"></circle>
                    <circle id="Oval" fill="#955BA5" cx="6" cy="9" r="1"></circle>
                </g>
            </g>
            <g id="bank-copy" transform="translate(461.000000, 98.000000)">
                <polygon id="Path-4" fill="#67B9CC" points="71 43 17 43 17 46.2 71 47"></polygon>
                <polygon id="Path-4-Copy" fill="#67B9CC" points="72 49 13 49 13 53 72 54"></polygon>
                <polygon id="Triangle" stroke="#3F5C6C" stroke-width="3" stroke-linejoin="round" points="36.5 0 73 19 0 19"></polygon>
                <rect id="Rectangle" stroke="#3F5C6C" stroke-width="3" stroke-linejoin="round" x="0" y="48" width="73" height="6"></rect>
                <rect id="Rectangle-Copy" stroke="#3F5C6C" stroke-width="3" stroke-linejoin="round" x="3" y="42" width="67" height="6"></rect>
                <g id="Group-7" transform="translate(6.000000, 19.000000)" stroke="#3F5C6C" stroke-width="3">
                    <g id="Group-6">
                        <rect id="Rectangle-Copy-2" stroke-linejoin="round" x="0" y="0" width="8" height="3.82608696"></rect>
                        <rect id="Rectangle-Copy-3" stroke-linejoin="round" x="0" y="18.173913" width="8" height="3.82608696"></rect>
                        <line x1="1.5" y1="5.26086957" x2="1.5" y2="16.7391304" id="Line-2" stroke-linecap="square"></line>
                    </g>
                    <line x1="6.5" y1="5.26086957" x2="6.5" y2="16.7391304" id="Line-2-Copy" stroke-linecap="square"></line>
                </g>
                <g id="Group-7-Copy" transform="translate(59.000000, 19.000000)" stroke="#3F5C6C" stroke-width="3">
                    <g id="Group-6">
                        <rect id="Rectangle-Copy-2" stroke-linejoin="round" x="0" y="0" width="8" height="3.82608696"></rect>
                        <rect id="Rectangle-Copy-3" stroke-linejoin="round" x="0" y="18.173913" width="8" height="3.82608696"></rect>
                        <line x1="1.5" y1="5.26086957" x2="1.5" y2="16.7391304" id="Line-2" stroke-linecap="square"></line>
                    </g>
                    <line x1="6.5" y1="5.26086957" x2="6.5" y2="16.7391304" id="Line-2-Copy" stroke-linecap="square"></line>
                </g>
                <g id="Group-7-Copy-2" transform="translate(42.000000, 19.000000)" stroke="#3F5C6C" stroke-width="3">
                    <g id="Group-6">
                        <rect id="Rectangle-Copy-2" stroke-linejoin="round" x="0" y="0" width="8" height="3.82608696"></rect>
                        <rect id="Rectangle-Copy-3" stroke-linejoin="round" x="0" y="18.173913" width="8" height="3.82608696"></rect>
                        <line x1="1.5" y1="5.26086957" x2="1.5" y2="16.7391304" id="Line-2" stroke-linecap="square"></line>
                    </g>
                    <line x1="6.5" y1="5.26086957" x2="6.5" y2="16.7391304" id="Line-2-Copy" stroke-linecap="square"></line>
                </g>
                <g id="Group-7-Copy-3" transform="translate(23.000000, 19.000000)" stroke="#3F5C6C" stroke-width="3">
                    <g id="Group-6">
                        <rect id="Rectangle-Copy-2" stroke-linejoin="round" x="0" y="0" width="8" height="3.82608696"></rect>
                        <rect id="Rectangle-Copy-3" stroke-linejoin="round" x="0" y="18.173913" width="8" height="3.82608696"></rect>
                        <line x1="1.5" y1="5.26086957" x2="1.5" y2="16.7391304" id="Line-2" stroke-linecap="square"></line>
                    </g>
                    <line x1="6.5" y1="5.26086957" x2="6.5" y2="16.7391304" id="Line-2-Copy" stroke-linecap="square"></line>
                </g>
                <path d="M68,18 L5,18 L26,7 C43.7692308,7.96296296 57.7692308,11.6296296 68,18 Z" id="Shape-Copy" fill="#BEE8F5" fill-rule="nonzero" transform="translate(36.500000, 12.500000) scale(-1, 1) translate(-36.500000, -12.500000) "></path>
            </g>
            <g id="text" transform="translate(102.500000, 40.000000)" fill="#C2D5D9" fill-rule="nonzero">
                <path d="M3.0703125,13.1171875 C3.9296875,13.1171875 4.58984375,12.9482422 5.05078125,12.6103516 C5.51171875,12.2724609 5.7421875,11.7871094 5.7421875,11.1542969 C5.7421875,10.8417969 5.68359375,10.5732422 5.56640625,10.3486328 C5.44921875,10.1240234 5.26953125,9.92578125 5.02734375,9.75390625 C4.78515625,9.58203125 4.39648438,9.39257812 3.86132812,9.18554688 C3.22460938,8.93945312 2.81152344,8.74609375 2.62207031,8.60546875 C2.43261719,8.46484375 2.33789062,8.29296875 2.33789062,8.08984375 C2.33789062,7.67578125 2.70117188,7.46875 3.42773438,7.46875 C3.90429688,7.46875 4.4921875,7.61328125 5.19140625,7.90234375 L5.19140625,7.90234375 L5.63671875,6.86523438 C4.95703125,6.55664062 4.23632812,6.40234375 3.47460938,6.40234375 C2.70507812,6.40234375 2.09667969,6.55566406 1.64941406,6.86230469 C1.20214844,7.16894531 0.978515625,7.59960938 0.978515625,8.15429688 C0.978515625,8.61523438 1.11035156,8.99023438 1.37402344,9.27929688 C1.63769531,9.56835938 2.14257812,9.85742188 2.88867188,10.1464844 C3.27148438,10.2949219 3.5703125,10.4277344 3.78515625,10.5449219 C4,10.6621094 4.15429688,10.7753906 4.24804688,10.8847656 C4.34179688,10.9941406 4.38867188,11.1308594 4.38867188,11.2949219 C4.38867188,11.8066406 3.96484375,12.0625 3.1171875,12.0625 C2.4609375,12.0625 1.75195312,11.8867188 0.990234375,11.5351562 L0.990234375,11.5351562 L0.990234375,12.7246094 C1.51367188,12.9863281 2.20703125,13.1171875 3.0703125,13.1171875 Z M10.0605469,13.1171875 C10.5019531,13.1171875 10.8945312,13.0839844 11.2382812,13.0175781 C11.5820312,12.9511719 11.921875,12.8378906 12.2578125,12.6777344 L12.2578125,12.6777344 L12.2578125,11.5585938 C11.8789062,11.7265625 11.5244141,11.8466797 11.1943359,11.9189453 C10.8642578,11.9912109 10.5078125,12.0273438 10.125,12.0273438 C9.54296875,12.0273438 9.09179688,11.8583984 8.77148438,11.5205078 C8.45117188,11.1826172 8.28125,10.6992188 8.26171875,10.0703125 L8.26171875,10.0703125 L12.5800781,10.0703125 L12.5800781,9.32617188 C12.5800781,8.41601562 12.3320312,7.70117188 11.8359375,7.18164062 C11.3398438,6.66210938 10.6640625,6.40234375 9.80859375,6.40234375 C8.88671875,6.40234375 8.16210938,6.70507812 7.63476562,7.31054688 C7.10742188,7.91601562 6.84375,8.74804688 6.84375,9.80664062 C6.84375,10.8378906 7.12792969,11.6474609 7.69628906,12.2353516 C8.26464844,12.8232422 9.05273438,13.1171875 10.0605469,13.1171875 Z M11.2265625,9.07421875 L8.28515625,9.07421875 C8.3359375,8.54296875 8.49316406,8.13867188 8.75683594,7.86132812 C9.02050781,7.58398438 9.37109375,7.4453125 9.80859375,7.4453125 C10.2460938,7.4453125 10.5898438,7.58300781 10.8398438,7.85839844 C11.0898438,8.13378906 11.21875,8.5390625 11.2265625,9.07421875 L11.2265625,9.07421875 Z M15.5214844,13 L15.5214844,9.77148438 C15.5214844,8.96289062 15.65625,8.38671875 15.9257812,8.04296875 C16.1953125,7.69921875 16.6210938,7.52734375 17.203125,7.52734375 C17.640625,7.52734375 17.9599609,7.65039062 18.1611328,7.89648438 C18.3623047,8.14257812 18.4628906,8.515625 18.4628906,9.015625 L18.4628906,9.015625 L18.4628906,13 L19.8457031,13 L19.8457031,8.77539062 C19.8457031,7.19335938 19.0683594,6.40234375 17.5136719,6.40234375 C17.0761719,6.40234375 16.6777344,6.48632812 16.3183594,6.65429688 C15.9589844,6.82226562 15.6816406,7.06054688 15.4863281,7.36914062 L15.4863281,7.36914062 L15.4160156,7.36914062 L15.2226562,6.51953125 L14.1445312,6.51953125 L14.1445312,13 L15.5214844,13 Z M23.4433594,13.1171875 C24.3027344,13.1171875 24.9628906,12.9482422 25.4238281,12.6103516 C25.8847656,12.2724609 26.1152344,11.7871094 26.1152344,11.1542969 C26.1152344,10.8417969 26.0566406,10.5732422 25.9394531,10.3486328 C25.8222656,10.1240234 25.6425781,9.92578125 25.4003906,9.75390625 C25.1582031,9.58203125 24.7695312,9.39257812 24.234375,9.18554688 C23.5976562,8.93945312 23.1845703,8.74609375 22.9951172,8.60546875 C22.8056641,8.46484375 22.7109375,8.29296875 22.7109375,8.08984375 C22.7109375,7.67578125 23.0742188,7.46875 23.8007812,7.46875 C24.2773438,7.46875 24.8652344,7.61328125 25.5644531,7.90234375 L25.5644531,7.90234375 L26.0097656,6.86523438 C25.3300781,6.55664062 24.609375,6.40234375 23.8476562,6.40234375 C23.078125,6.40234375 22.4697266,6.55566406 22.0224609,6.86230469 C21.5751953,7.16894531 21.3515625,7.59960938 21.3515625,8.15429688 C21.3515625,8.61523438 21.4833984,8.99023438 21.7470703,9.27929688 C22.0107422,9.56835938 22.515625,9.85742188 23.2617188,10.1464844 C23.6445312,10.2949219 23.9433594,10.4277344 24.1582031,10.5449219 C24.3730469,10.6621094 24.5273438,10.7753906 24.6210938,10.8847656 C24.7148438,10.9941406 24.7617188,11.1308594 24.7617188,11.2949219 C24.7617188,11.8066406 24.3378906,12.0625 23.4902344,12.0625 C22.8339844,12.0625 22.125,11.8867188 21.3632812,11.5351562 L21.3632812,11.5351562 L21.3632812,12.7246094 C21.8867188,12.9863281 22.5800781,13.1171875 23.4433594,13.1171875 Z M28.3007812,5.55859375 C28.5429688,5.55859375 28.7314453,5.49121094 28.8662109,5.35644531 C29.0009766,5.22167969 29.0683594,5.03710938 29.0683594,4.80273438 C29.0683594,4.55664062 29.0009766,4.3671875 28.8662109,4.234375 C28.7314453,4.1015625 28.5429688,4.03515625 28.3007812,4.03515625 C28.0507812,4.03515625 27.8583984,4.1015625 27.7236328,4.234375 C27.5888672,4.3671875 27.5214844,4.55664062 27.5214844,4.80273438 C27.5214844,5.03710938 27.5888672,5.22167969 27.7236328,5.35644531 C27.8583984,5.49121094 28.0507812,5.55859375 28.3007812,5.55859375 Z M28.9804688,13 L28.9804688,6.51953125 L27.6035156,6.51953125 L27.6035156,13 L28.9804688,13 Z M33.0351562,13.1171875 C33.2929688,13.1171875 33.5419922,13.0947266 33.7822266,13.0498047 C34.0224609,13.0048828 34.21875,12.9492188 34.3710938,12.8828125 L34.3710938,12.8828125 L34.3710938,11.8457031 C34.0351562,11.9511719 33.6992188,12.0039062 33.3632812,12.0039062 C33.09375,12.0039062 32.8759766,11.9248047 32.7099609,11.7666016 C32.5439453,11.6083984 32.4609375,11.3632812 32.4609375,11.03125 L32.4609375,11.03125 L32.4609375,7.5625 L34.3066406,7.5625 L34.3066406,6.51953125 L32.4609375,6.51953125 L32.4609375,5.078125 L31.6113281,5.078125 L31.1425781,6.44921875 L30.1933594,6.953125 L30.1933594,7.5625 L31.078125,7.5625 L31.078125,11.0546875 C31.078125,12.4296875 31.7304688,13.1171875 33.0351562,13.1171875 Z M36.3632812,5.55859375 C36.6054688,5.55859375 36.7939453,5.49121094 36.9287109,5.35644531 C37.0634766,5.22167969 37.1308594,5.03710938 37.1308594,4.80273438 C37.1308594,4.55664062 37.0634766,4.3671875 36.9287109,4.234375 C36.7939453,4.1015625 36.6054688,4.03515625 36.3632812,4.03515625 C36.1132812,4.03515625 35.9208984,4.1015625 35.7861328,4.234375 C35.6513672,4.3671875 35.5839844,4.55664062 35.5839844,4.80273438 C35.5839844,5.03710938 35.6513672,5.22167969 35.7861328,5.35644531 C35.9208984,5.49121094 36.1132812,5.55859375 36.3632812,5.55859375 Z M37.0429688,13 L37.0429688,6.51953125 L35.6660156,6.51953125 L35.6660156,13 L37.0429688,13 Z M41.9765625,13 L44.4492188,6.51953125 L42.984375,6.51953125 L41.6660156,10.2871094 C41.4277344,11.0292969 41.2910156,11.5410156 41.2558594,11.8222656 L41.2558594,11.8222656 L41.2089844,11.8222656 C41.1621094,11.4316406 41.0253906,10.9199219 40.7988281,10.2871094 L40.7988281,10.2871094 L39.4804688,6.51953125 L38.0273438,6.51953125 L40.4882812,13 L41.9765625,13 Z M48.2636719,13.1171875 C48.7050781,13.1171875 49.0976562,13.0839844 49.4414062,13.0175781 C49.7851562,12.9511719 50.125,12.8378906 50.4609375,12.6777344 L50.4609375,12.6777344 L50.4609375,11.5585938 C50.0820312,11.7265625 49.7275391,11.8466797 49.3974609,11.9189453 C49.0673828,11.9912109 48.7109375,12.0273438 48.328125,12.0273438 C47.7460938,12.0273438 47.2949219,11.8583984 46.9746094,11.5205078 C46.6542969,11.1826172 46.484375,10.6992188 46.4648438,10.0703125 L46.4648438,10.0703125 L50.7832031,10.0703125 L50.7832031,9.32617188 C50.7832031,8.41601562 50.5351562,7.70117188 50.0390625,7.18164062 C49.5429688,6.66210938 48.8671875,6.40234375 48.0117188,6.40234375 C47.0898438,6.40234375 46.3652344,6.70507812 45.8378906,7.31054688 C45.3105469,7.91601562 45.046875,8.74804688 45.046875,9.80664062 C45.046875,10.8378906 45.3310547,11.6474609 45.8994141,12.2353516 C46.4677734,12.8232422 47.2558594,13.1171875 48.2636719,13.1171875 Z M49.4296875,9.07421875 L46.4882812,9.07421875 C46.5390625,8.54296875 46.6962891,8.13867188 46.9599609,7.86132812 C47.2236328,7.58398438 47.5742188,7.4453125 48.0117188,7.4453125 C48.4492188,7.4453125 48.7929688,7.58300781 49.0429688,7.85839844 C49.2929688,8.13378906 49.421875,8.5390625 49.4296875,9.07421875 L49.4296875,9.07421875 Z M57.6503906,13.1171875 C58.5019531,13.1171875 59.1484375,12.7949219 59.5898438,12.1503906 L59.5898438,12.1503906 L59.6542969,12.1503906 L59.8945312,13 L60.9726562,13 L60.9726562,3.8828125 L59.5898438,3.8828125 L59.5898438,6.24414062 C59.5898438,6.51367188 59.6230469,6.88085938 59.6894531,7.34570312 L59.6894531,7.34570312 L59.6191406,7.34570312 C59.1738281,6.71679688 58.5253906,6.40234375 57.6738281,6.40234375 C56.8613281,6.40234375 56.2255859,6.69824219 55.7666016,7.29003906 C55.3076172,7.88183594 55.078125,8.70898438 55.078125,9.77148438 C55.078125,10.8300781 55.3046875,11.6523438 55.7578125,12.2382812 C56.2109375,12.8242188 56.8417969,13.1171875 57.6503906,13.1171875 Z M58.0195312,12.0039062 C57.5117188,12.0039062 57.1308594,11.8154297 56.8769531,11.4384766 C56.6230469,11.0615234 56.4960938,10.5136719 56.4960938,9.79492188 C56.4960938,9.06835938 56.6269531,8.50878906 56.8886719,8.11621094 C57.1503906,7.72363281 57.5234375,7.52734375 58.0078125,7.52734375 C58.5742188,7.52734375 58.9902344,7.69921875 59.2558594,8.04296875 C59.5214844,8.38671875 59.6542969,8.96679688 59.6542969,9.78320312 L59.6542969,9.78320312 L59.6542969,9.9765625 C59.6464844,10.6914062 59.5136719,11.2080078 59.2558594,11.5263672 C58.9980469,11.8447266 58.5859375,12.0039062 58.0195312,12.0039062 Z M64.5117188,13.1171875 C65.0078125,13.1171875 65.4140625,13.0458984 65.7304688,12.9033203 C66.046875,12.7607422 66.3613281,12.4921875 66.6738281,12.0976562 L66.6738281,12.0976562 L66.7207031,12.0976562 L66.9960938,13 L67.9804688,13 L67.9804688,8.63476562 C67.9804688,7.86523438 67.7705078,7.30078125 67.3505859,6.94140625 C66.9306641,6.58203125 66.3085938,6.40234375 65.484375,6.40234375 C65.1132812,6.40234375 64.71875,6.45019531 64.3007812,6.54589844 C63.8828125,6.64160156 63.4980469,6.78125 63.1464844,6.96484375 L63.1464844,6.96484375 L63.5917969,7.94921875 C63.8730469,7.81640625 64.1660156,7.70117188 64.4707031,7.60351562 C64.7753906,7.50585938 65.09375,7.45703125 65.4257812,7.45703125 C65.8320312,7.45703125 66.1318359,7.55957031 66.3251953,7.76464844 C66.5185547,7.96972656 66.6152344,8.27929688 66.6152344,8.69335938 L66.6152344,8.69335938 L66.6152344,9.0390625 L65.4960938,9.07421875 C64.4804688,9.10546875 63.7246094,9.29101562 63.2285156,9.63085938 C62.7324219,9.97070312 62.484375,10.4746094 62.484375,11.1425781 C62.484375,11.7714844 62.6630859,12.2578125 63.0205078,12.6015625 C63.3779297,12.9453125 63.875,13.1171875 64.5117188,13.1171875 Z M64.9453125,12.0625 C64.6015625,12.0625 64.34375,11.9833984 64.171875,11.8251953 C64,11.6669922 63.9140625,11.4433594 63.9140625,11.1542969 C63.9140625,10.7558594 64.0615234,10.4599609 64.3564453,10.2666016 C64.6513672,10.0732422 65.1230469,9.96484375 65.7714844,9.94140625 L65.7714844,9.94140625 L66.6035156,9.90625 L66.6035156,10.46875 C66.6035156,10.9726562 66.4521484,11.3642578 66.1494141,11.6435547 C65.8466797,11.9228516 65.4453125,12.0625 64.9453125,12.0625 Z M71.9882812,13.1171875 C72.2460938,13.1171875 72.4951172,13.0947266 72.7353516,13.0498047 C72.9755859,13.0048828 73.171875,12.9492188 73.3242188,12.8828125 L73.3242188,12.8828125 L73.3242188,11.8457031 C72.9882812,11.9511719 72.6523438,12.0039062 72.3164062,12.0039062 C72.046875,12.0039062 71.8291016,11.9248047 71.6630859,11.7666016 C71.4970703,11.6083984 71.4140625,11.3632812 71.4140625,11.03125 L71.4140625,11.03125 L71.4140625,7.5625 L73.2597656,7.5625 L73.2597656,6.51953125 L71.4140625,6.51953125 L71.4140625,5.078125 L70.5644531,5.078125 L70.0957031,6.44921875 L69.1464844,6.953125 L69.1464844,7.5625 L70.03125,7.5625 L70.03125,11.0546875 C70.03125,12.4296875 70.6835938,13.1171875 71.9882812,13.1171875 Z M76.1894531,13.1171875 C76.6855469,13.1171875 77.0917969,13.0458984 77.4082031,12.9033203 C77.7246094,12.7607422 78.0390625,12.4921875 78.3515625,12.0976562 L78.3515625,12.0976562 L78.3984375,12.0976562 L78.6738281,13 L79.6582031,13 L79.6582031,8.63476562 C79.6582031,7.86523438 79.4482422,7.30078125 79.0283203,6.94140625 C78.6083984,6.58203125 77.9863281,6.40234375 77.1621094,6.40234375 C76.7910156,6.40234375 76.3964844,6.45019531 75.9785156,6.54589844 C75.5605469,6.64160156 75.1757812,6.78125 74.8242188,6.96484375 L74.8242188,6.96484375 L75.2695312,7.94921875 C75.5507812,7.81640625 75.84375,7.70117188 76.1484375,7.60351562 C76.453125,7.50585938 76.7714844,7.45703125 77.1035156,7.45703125 C77.5097656,7.45703125 77.8095703,7.55957031 78.0029297,7.76464844 C78.1962891,7.96972656 78.2929688,8.27929688 78.2929688,8.69335938 L78.2929688,8.69335938 L78.2929688,9.0390625 L77.1738281,9.07421875 C76.1582031,9.10546875 75.4023438,9.29101562 74.90625,9.63085938 C74.4101562,9.97070312 74.1621094,10.4746094 74.1621094,11.1425781 C74.1621094,11.7714844 74.3408203,12.2578125 74.6982422,12.6015625 C75.0556641,12.9453125 75.5527344,13.1171875 76.1894531,13.1171875 Z M76.6230469,12.0625 C76.2792969,12.0625 76.0214844,11.9833984 75.8496094,11.8251953 C75.6777344,11.6669922 75.5917969,11.4433594 75.5917969,11.1542969 C75.5917969,10.7558594 75.7392578,10.4599609 76.0341797,10.2666016 C76.3291016,10.0732422 76.8007812,9.96484375 77.4492188,9.94140625 L77.4492188,9.94140625 L78.28125,9.90625 L78.28125,10.46875 C78.28125,10.9726562 78.1298828,11.3642578 77.8271484,11.6435547 C77.5244141,11.9228516 77.1230469,12.0625 76.6230469,12.0625 Z" id="sensitivedata"></path>
                <path d="M255.070312,13.1171875 C255.929688,13.1171875 256.589844,12.9482422 257.050781,12.6103516 C257.511719,12.2724609 257.742188,11.7871094 257.742188,11.1542969 C257.742188,10.8417969 257.683594,10.5732422 257.566406,10.3486328 C257.449219,10.1240234 257.269531,9.92578125 257.027344,9.75390625 C256.785156,9.58203125 256.396484,9.39257812 255.861328,9.18554688 C255.224609,8.93945312 254.811523,8.74609375 254.62207,8.60546875 C254.432617,8.46484375 254.337891,8.29296875 254.337891,8.08984375 C254.337891,7.67578125 254.701172,7.46875 255.427734,7.46875 C255.904297,7.46875 256.492188,7.61328125 257.191406,7.90234375 L257.191406,7.90234375 L257.636719,6.86523438 C256.957031,6.55664062 256.236328,6.40234375 255.474609,6.40234375 C254.705078,6.40234375 254.09668,6.55566406 253.649414,6.86230469 C253.202148,7.16894531 252.978516,7.59960938 252.978516,8.15429688 C252.978516,8.61523438 253.110352,8.99023438 253.374023,9.27929688 C253.637695,9.56835938 254.142578,9.85742188 254.888672,10.1464844 C255.271484,10.2949219 255.570312,10.4277344 255.785156,10.5449219 C256,10.6621094 256.154297,10.7753906 256.248047,10.8847656 C256.341797,10.9941406 256.388672,11.1308594 256.388672,11.2949219 C256.388672,11.8066406 255.964844,12.0625 255.117188,12.0625 C254.460938,12.0625 253.751953,11.8867188 252.990234,11.5351562 L252.990234,11.5351562 L252.990234,12.7246094 C253.513672,12.9863281 254.207031,13.1171875 255.070312,13.1171875 Z M262.060547,13.1171875 C262.501953,13.1171875 262.894531,13.0839844 263.238281,13.0175781 C263.582031,12.9511719 263.921875,12.8378906 264.257812,12.6777344 L264.257812,12.6777344 L264.257812,11.5585938 C263.878906,11.7265625 263.524414,11.8466797 263.194336,11.9189453 C262.864258,11.9912109 262.507812,12.0273438 262.125,12.0273438 C261.542969,12.0273438 261.091797,11.8583984 260.771484,11.5205078 C260.451172,11.1826172 260.28125,10.6992188 260.261719,10.0703125 L260.261719,10.0703125 L264.580078,10.0703125 L264.580078,9.32617188 C264.580078,8.41601562 264.332031,7.70117188 263.835938,7.18164062 C263.339844,6.66210938 262.664062,6.40234375 261.808594,6.40234375 C260.886719,6.40234375 260.162109,6.70507812 259.634766,7.31054688 C259.107422,7.91601562 258.84375,8.74804688 258.84375,9.80664062 C258.84375,10.8378906 259.12793,11.6474609 259.696289,12.2353516 C260.264648,12.8232422 261.052734,13.1171875 262.060547,13.1171875 Z M263.226562,9.07421875 L260.285156,9.07421875 C260.335938,8.54296875 260.493164,8.13867188 260.756836,7.86132812 C261.020508,7.58398438 261.371094,7.4453125 261.808594,7.4453125 C262.246094,7.4453125 262.589844,7.58300781 262.839844,7.85839844 C263.089844,8.13378906 263.21875,8.5390625 263.226562,9.07421875 L263.226562,9.07421875 Z M267.521484,13 L267.521484,9.77148438 C267.521484,8.96289062 267.65625,8.38671875 267.925781,8.04296875 C268.195312,7.69921875 268.621094,7.52734375 269.203125,7.52734375 C269.640625,7.52734375 269.959961,7.65039062 270.161133,7.89648438 C270.362305,8.14257812 270.462891,8.515625 270.462891,9.015625 L270.462891,9.015625 L270.462891,13 L271.845703,13 L271.845703,8.77539062 C271.845703,7.19335938 271.068359,6.40234375 269.513672,6.40234375 C269.076172,6.40234375 268.677734,6.48632812 268.318359,6.65429688 C267.958984,6.82226562 267.681641,7.06054688 267.486328,7.36914062 L267.486328,7.36914062 L267.416016,7.36914062 L267.222656,6.51953125 L266.144531,6.51953125 L266.144531,13 L267.521484,13 Z M275.443359,13.1171875 C276.302734,13.1171875 276.962891,12.9482422 277.423828,12.6103516 C277.884766,12.2724609 278.115234,11.7871094 278.115234,11.1542969 C278.115234,10.8417969 278.056641,10.5732422 277.939453,10.3486328 C277.822266,10.1240234 277.642578,9.92578125 277.400391,9.75390625 C277.158203,9.58203125 276.769531,9.39257812 276.234375,9.18554688 C275.597656,8.93945312 275.18457,8.74609375 274.995117,8.60546875 C274.805664,8.46484375 274.710938,8.29296875 274.710938,8.08984375 C274.710938,7.67578125 275.074219,7.46875 275.800781,7.46875 C276.277344,7.46875 276.865234,7.61328125 277.564453,7.90234375 L277.564453,7.90234375 L278.009766,6.86523438 C277.330078,6.55664062 276.609375,6.40234375 275.847656,6.40234375 C275.078125,6.40234375 274.469727,6.55566406 274.022461,6.86230469 C273.575195,7.16894531 273.351562,7.59960938 273.351562,8.15429688 C273.351562,8.61523438 273.483398,8.99023438 273.74707,9.27929688 C274.010742,9.56835938 274.515625,9.85742188 275.261719,10.1464844 C275.644531,10.2949219 275.943359,10.4277344 276.158203,10.5449219 C276.373047,10.6621094 276.527344,10.7753906 276.621094,10.8847656 C276.714844,10.9941406 276.761719,11.1308594 276.761719,11.2949219 C276.761719,11.8066406 276.337891,12.0625 275.490234,12.0625 C274.833984,12.0625 274.125,11.8867188 273.363281,11.5351562 L273.363281,11.5351562 L273.363281,12.7246094 C273.886719,12.9863281 274.580078,13.1171875 275.443359,13.1171875 Z M280.300781,5.55859375 C280.542969,5.55859375 280.731445,5.49121094 280.866211,5.35644531 C281.000977,5.22167969 281.068359,5.03710938 281.068359,4.80273438 C281.068359,4.55664062 281.000977,4.3671875 280.866211,4.234375 C280.731445,4.1015625 280.542969,4.03515625 280.300781,4.03515625 C280.050781,4.03515625 279.858398,4.1015625 279.723633,4.234375 C279.588867,4.3671875 279.521484,4.55664062 279.521484,4.80273438 C279.521484,5.03710938 279.588867,5.22167969 279.723633,5.35644531 C279.858398,5.49121094 280.050781,5.55859375 280.300781,5.55859375 Z M280.980469,13 L280.980469,6.51953125 L279.603516,6.51953125 L279.603516,13 L280.980469,13 Z M285.035156,13.1171875 C285.292969,13.1171875 285.541992,13.0947266 285.782227,13.0498047 C286.022461,13.0048828 286.21875,12.9492188 286.371094,12.8828125 L286.371094,12.8828125 L286.371094,11.8457031 C286.035156,11.9511719 285.699219,12.0039062 285.363281,12.0039062 C285.09375,12.0039062 284.875977,11.9248047 284.709961,11.7666016 C284.543945,11.6083984 284.460938,11.3632812 284.460938,11.03125 L284.460938,11.03125 L284.460938,7.5625 L286.306641,7.5625 L286.306641,6.51953125 L284.460938,6.51953125 L284.460938,5.078125 L283.611328,5.078125 L283.142578,6.44921875 L282.193359,6.953125 L282.193359,7.5625 L283.078125,7.5625 L283.078125,11.0546875 C283.078125,12.4296875 283.730469,13.1171875 285.035156,13.1171875 Z M288.363281,5.55859375 C288.605469,5.55859375 288.793945,5.49121094 288.928711,5.35644531 C289.063477,5.22167969 289.130859,5.03710938 289.130859,4.80273438 C289.130859,4.55664062 289.063477,4.3671875 288.928711,4.234375 C288.793945,4.1015625 288.605469,4.03515625 288.363281,4.03515625 C288.113281,4.03515625 287.920898,4.1015625 287.786133,4.234375 C287.651367,4.3671875 287.583984,4.55664062 287.583984,4.80273438 C287.583984,5.03710938 287.651367,5.22167969 287.786133,5.35644531 C287.920898,5.49121094 288.113281,5.55859375 288.363281,5.55859375 Z M289.042969,13 L289.042969,6.51953125 L287.666016,6.51953125 L287.666016,13 L289.042969,13 Z M293.976562,13 L296.449219,6.51953125 L294.984375,6.51953125 L293.666016,10.2871094 C293.427734,11.0292969 293.291016,11.5410156 293.255859,11.8222656 L293.255859,11.8222656 L293.208984,11.8222656 C293.162109,11.4316406 293.025391,10.9199219 292.798828,10.2871094 L292.798828,10.2871094 L291.480469,6.51953125 L290.027344,6.51953125 L292.488281,13 L293.976562,13 Z M300.263672,13.1171875 C300.705078,13.1171875 301.097656,13.0839844 301.441406,13.0175781 C301.785156,12.9511719 302.125,12.8378906 302.460938,12.6777344 L302.460938,12.6777344 L302.460938,11.5585938 C302.082031,11.7265625 301.727539,11.8466797 301.397461,11.9189453 C301.067383,11.9912109 300.710938,12.0273438 300.328125,12.0273438 C299.746094,12.0273438 299.294922,11.8583984 298.974609,11.5205078 C298.654297,11.1826172 298.484375,10.6992188 298.464844,10.0703125 L298.464844,10.0703125 L302.783203,10.0703125 L302.783203,9.32617188 C302.783203,8.41601562 302.535156,7.70117188 302.039062,7.18164062 C301.542969,6.66210938 300.867188,6.40234375 300.011719,6.40234375 C299.089844,6.40234375 298.365234,6.70507812 297.837891,7.31054688 C297.310547,7.91601562 297.046875,8.74804688 297.046875,9.80664062 C297.046875,10.8378906 297.331055,11.6474609 297.899414,12.2353516 C298.467773,12.8232422 299.255859,13.1171875 300.263672,13.1171875 Z M301.429688,9.07421875 L298.488281,9.07421875 C298.539062,8.54296875 298.696289,8.13867188 298.959961,7.86132812 C299.223633,7.58398438 299.574219,7.4453125 300.011719,7.4453125 C300.449219,7.4453125 300.792969,7.58300781 301.042969,7.85839844 C301.292969,8.13378906 301.421875,8.5390625 301.429688,9.07421875 L301.429688,9.07421875 Z M309.650391,13.1171875 C310.501953,13.1171875 311.148438,12.7949219 311.589844,12.1503906 L311.589844,12.1503906 L311.654297,12.1503906 L311.894531,13 L312.972656,13 L312.972656,3.8828125 L311.589844,3.8828125 L311.589844,6.24414062 C311.589844,6.51367188 311.623047,6.88085938 311.689453,7.34570312 L311.689453,7.34570312 L311.619141,7.34570312 C311.173828,6.71679688 310.525391,6.40234375 309.673828,6.40234375 C308.861328,6.40234375 308.225586,6.69824219 307.766602,7.29003906 C307.307617,7.88183594 307.078125,8.70898438 307.078125,9.77148438 C307.078125,10.8300781 307.304688,11.6523438 307.757812,12.2382812 C308.210938,12.8242188 308.841797,13.1171875 309.650391,13.1171875 Z M310.019531,12.0039062 C309.511719,12.0039062 309.130859,11.8154297 308.876953,11.4384766 C308.623047,11.0615234 308.496094,10.5136719 308.496094,9.79492188 C308.496094,9.06835938 308.626953,8.50878906 308.888672,8.11621094 C309.150391,7.72363281 309.523438,7.52734375 310.007812,7.52734375 C310.574219,7.52734375 310.990234,7.69921875 311.255859,8.04296875 C311.521484,8.38671875 311.654297,8.96679688 311.654297,9.78320312 L311.654297,9.78320312 L311.654297,9.9765625 C311.646484,10.6914062 311.513672,11.2080078 311.255859,11.5263672 C310.998047,11.8447266 310.585938,12.0039062 310.019531,12.0039062 Z M316.511719,13.1171875 C317.007812,13.1171875 317.414062,13.0458984 317.730469,12.9033203 C318.046875,12.7607422 318.361328,12.4921875 318.673828,12.0976562 L318.673828,12.0976562 L318.720703,12.0976562 L318.996094,13 L319.980469,13 L319.980469,8.63476562 C319.980469,7.86523438 319.770508,7.30078125 319.350586,6.94140625 C318.930664,6.58203125 318.308594,6.40234375 317.484375,6.40234375 C317.113281,6.40234375 316.71875,6.45019531 316.300781,6.54589844 C315.882812,6.64160156 315.498047,6.78125 315.146484,6.96484375 L315.146484,6.96484375 L315.591797,7.94921875 C315.873047,7.81640625 316.166016,7.70117188 316.470703,7.60351562 C316.775391,7.50585938 317.09375,7.45703125 317.425781,7.45703125 C317.832031,7.45703125 318.131836,7.55957031 318.325195,7.76464844 C318.518555,7.96972656 318.615234,8.27929688 318.615234,8.69335938 L318.615234,8.69335938 L318.615234,9.0390625 L317.496094,9.07421875 C316.480469,9.10546875 315.724609,9.29101562 315.228516,9.63085938 C314.732422,9.97070312 314.484375,10.4746094 314.484375,11.1425781 C314.484375,11.7714844 314.663086,12.2578125 315.020508,12.6015625 C315.37793,12.9453125 315.875,13.1171875 316.511719,13.1171875 Z M316.945312,12.0625 C316.601562,12.0625 316.34375,11.9833984 316.171875,11.8251953 C316,11.6669922 315.914062,11.4433594 315.914062,11.1542969 C315.914062,10.7558594 316.061523,10.4599609 316.356445,10.2666016 C316.651367,10.0732422 317.123047,9.96484375 317.771484,9.94140625 L317.771484,9.94140625 L318.603516,9.90625 L318.603516,10.46875 C318.603516,10.9726562 318.452148,11.3642578 318.149414,11.6435547 C317.84668,11.9228516 317.445312,12.0625 316.945312,12.0625 Z M323.988281,13.1171875 C324.246094,13.1171875 324.495117,13.0947266 324.735352,13.0498047 C324.975586,13.0048828 325.171875,12.9492188 325.324219,12.8828125 L325.324219,12.8828125 L325.324219,11.8457031 C324.988281,11.9511719 324.652344,12.0039062 324.316406,12.0039062 C324.046875,12.0039062 323.829102,11.9248047 323.663086,11.7666016 C323.49707,11.6083984 323.414062,11.3632812 323.414062,11.03125 L323.414062,11.03125 L323.414062,7.5625 L325.259766,7.5625 L325.259766,6.51953125 L323.414062,6.51953125 L323.414062,5.078125 L322.564453,5.078125 L322.095703,6.44921875 L321.146484,6.953125 L321.146484,7.5625 L322.03125,7.5625 L322.03125,11.0546875 C322.03125,12.4296875 322.683594,13.1171875 323.988281,13.1171875 Z M328.189453,13.1171875 C328.685547,13.1171875 329.091797,13.0458984 329.408203,12.9033203 C329.724609,12.7607422 330.039062,12.4921875 330.351562,12.0976562 L330.351562,12.0976562 L330.398438,12.0976562 L330.673828,13 L331.658203,13 L331.658203,8.63476562 C331.658203,7.86523438 331.448242,7.30078125 331.02832,6.94140625 C330.608398,6.58203125 329.986328,6.40234375 329.162109,6.40234375 C328.791016,6.40234375 328.396484,6.45019531 327.978516,6.54589844 C327.560547,6.64160156 327.175781,6.78125 326.824219,6.96484375 L326.824219,6.96484375 L327.269531,7.94921875 C327.550781,7.81640625 327.84375,7.70117188 328.148438,7.60351562 C328.453125,7.50585938 328.771484,7.45703125 329.103516,7.45703125 C329.509766,7.45703125 329.80957,7.55957031 330.00293,7.76464844 C330.196289,7.96972656 330.292969,8.27929688 330.292969,8.69335938 L330.292969,8.69335938 L330.292969,9.0390625 L329.173828,9.07421875 C328.158203,9.10546875 327.402344,9.29101562 326.90625,9.63085938 C326.410156,9.97070312 326.162109,10.4746094 326.162109,11.1425781 C326.162109,11.7714844 326.34082,12.2578125 326.698242,12.6015625 C327.055664,12.9453125 327.552734,13.1171875 328.189453,13.1171875 Z M328.623047,12.0625 C328.279297,12.0625 328.021484,11.9833984 327.849609,11.8251953 C327.677734,11.6669922 327.591797,11.4433594 327.591797,11.1542969 C327.591797,10.7558594 327.739258,10.4599609 328.03418,10.2666016 C328.329102,10.0732422 328.800781,9.96484375 329.449219,9.94140625 L329.449219,9.94140625 L330.28125,9.90625 L330.28125,10.46875 C330.28125,10.9726562 330.129883,11.3642578 329.827148,11.6435547 C329.524414,11.9228516 329.123047,12.0625 328.623047,12.0625 Z" id="sensitivedata-2"></path>
                <path d="M192.970703,52.1171875 C193.228516,52.1171875 193.477539,52.0947266 193.717773,52.0498047 C193.958008,52.0048828 194.154297,51.9492188 194.306641,51.8828125 L194.306641,51.8828125 L194.306641,50.8457031 C193.970703,50.9511719 193.634766,51.0039062 193.298828,51.0039062 C193.029297,51.0039062 192.811523,50.9248047 192.645508,50.7666016 C192.479492,50.6083984 192.396484,50.3632812 192.396484,50.03125 L192.396484,50.03125 L192.396484,46.5625 L194.242188,46.5625 L194.242188,45.5195312 L192.396484,45.5195312 L192.396484,44.078125 L191.546875,44.078125 L191.078125,45.4492188 L190.128906,45.953125 L190.128906,46.5625 L191.013672,46.5625 L191.013672,50.0546875 C191.013672,51.4296875 191.666016,52.1171875 192.970703,52.1171875 Z M198.267578,52.1171875 C199.236328,52.1171875 199.992188,51.8203125 200.535156,51.2265625 C201.078125,50.6328125 201.349609,49.8066406 201.349609,48.7480469 C201.349609,47.7246094 201.076172,46.9111328 200.529297,46.3076172 C199.982422,45.7041016 199.240234,45.4023438 198.302734,45.4023438 C197.322266,45.4023438 196.5625,45.6972656 196.023438,46.2871094 C195.484375,46.8769531 195.214844,47.6972656 195.214844,48.7480469 C195.214844,49.4238281 195.339844,50.0175781 195.589844,50.5292969 C195.839844,51.0410156 196.197266,51.4335938 196.662109,51.7070312 C197.126953,51.9804688 197.662109,52.1171875 198.267578,52.1171875 Z M198.291016,50.9921875 C197.185547,50.9921875 196.632812,50.2441406 196.632812,48.7480469 C196.632812,48.0332031 196.762695,47.484375 197.022461,47.1015625 C197.282227,46.71875 197.701172,46.5273438 198.279297,46.5273438 C199.380859,46.5273438 199.931641,47.2675781 199.931641,48.7480469 C199.931641,50.2441406 199.384766,50.9921875 198.291016,50.9921875 Z M204.296875,52 L204.296875,49.7792969 L205.052734,49.1582031 L207.132812,52 L208.75,52 L205.978516,48.3027344 L208.585938,45.5195312 L206.998047,45.5195312 L205.041016,47.6054688 L204.261719,48.578125 L204.226562,48.578125 L204.296875,47.3300781 L204.296875,42.8828125 L202.931641,42.8828125 L202.931641,52 L204.296875,52 Z M212.382812,52.1171875 C212.824219,52.1171875 213.216797,52.0839844 213.560547,52.0175781 C213.904297,51.9511719 214.244141,51.8378906 214.580078,51.6777344 L214.580078,51.6777344 L214.580078,50.5585938 C214.201172,50.7265625 213.84668,50.8466797 213.516602,50.9189453 C213.186523,50.9912109 212.830078,51.0273438 212.447266,51.0273438 C211.865234,51.0273438 211.414062,50.8583984 211.09375,50.5205078 C210.773438,50.1826172 210.603516,49.6992188 210.583984,49.0703125 L210.583984,49.0703125 L214.902344,49.0703125 L214.902344,48.3261719 C214.902344,47.4160156 214.654297,46.7011719 214.158203,46.1816406 C213.662109,45.6621094 212.986328,45.4023438 212.130859,45.4023438 C211.208984,45.4023438 210.484375,45.7050781 209.957031,46.3105469 C209.429688,46.9160156 209.166016,47.7480469 209.166016,48.8066406 C209.166016,49.8378906 209.450195,50.6474609 210.018555,51.2353516 C210.586914,51.8232422 211.375,52.1171875 212.382812,52.1171875 Z M213.548828,48.0742188 L210.607422,48.0742188 C210.658203,47.5429688 210.81543,47.1386719 211.079102,46.8613281 C211.342773,46.5839844 211.693359,46.4453125 212.130859,46.4453125 C212.568359,46.4453125 212.912109,46.5830078 213.162109,46.8583984 C213.412109,47.1337891 213.541016,47.5390625 213.548828,48.0742188 L213.548828,48.0742188 Z M217.84375,52 L217.84375,48.7714844 C217.84375,47.9628906 217.978516,47.3867188 218.248047,47.0429688 C218.517578,46.6992188 218.943359,46.5273438 219.525391,46.5273438 C219.962891,46.5273438 220.282227,46.6503906 220.483398,46.8964844 C220.68457,47.1425781 220.785156,47.515625 220.785156,48.015625 L220.785156,48.015625 L220.785156,52 L222.167969,52 L222.167969,47.7753906 C222.167969,46.1933594 221.390625,45.4023438 219.835938,45.4023438 C219.398438,45.4023438 219,45.4863281 218.640625,45.6542969 C218.28125,45.8222656 218.003906,46.0605469 217.808594,46.3691406 L217.808594,46.3691406 L217.738281,46.3691406 L217.544922,45.5195312 L216.466797,45.5195312 L216.466797,52 L217.84375,52 Z" id="token"></path>
            </g>
            <g id="vault-copy" transform="translate(241.000000, 7.000000)">
                <rect id="Rectangle-Copy-3" stroke="#3F5C6C" stroke-width="3" fill="#547580" x="0" y="0" width="54" height="50" rx="4"></rect>
                <rect id="Rectangle-Copy-4" stroke="#3F5C6C" fill="#547580" x="4" y="4" width="46" height="42" rx="2"></rect>
                <g id="Group-5" transform="translate(10.000000, 10.000000)" stroke="#FFFFFF">
                    <g id="Group-6">
                        <ellipse id="Oval" stroke-width="4" cx="16.9947986" cy="16.3644802" rx="6.02638984" ry="5.95337152"></ellipse>
                        <g id="Group-4" transform="translate(16.575962, 6.328404) rotate(90.000000) translate(-16.575962, -6.328404) translate(11.075962, 4.328404)">
                            <g id="visible">
                                <ellipse id="Oval-Copy" stroke-width="2" cx="1.80791695" cy="1.78601146" rx="1.80791695" ry="1.78601146"></ellipse>
                                <line x1="4.21847289" y1="1.78601146" x2="9.8431034" y2="1.78601146" id="Line" stroke-width="3" stroke-linecap="square"></line>
                            </g>
                        </g>
                        <g id="Group-4-Copy-7" transform="translate(6.766045, 13.947608) rotate(16.000000) translate(-6.766045, -13.947608) translate(1.266045, 11.947608)">
                            <g id="visible">
                                <ellipse id="Oval-Copy" stroke-width="2" cx="1.80791695" cy="1.78601146" rx="1.80791695" ry="1.78601146"></ellipse>
                                <line x1="4.21847289" y1="1.78601146" x2="9.8431034" y2="1.78601146" id="Line" stroke-width="3" stroke-linecap="square"></line>
                            </g>
                        </g>
                        <g id="Group-4-Copy-6" transform="translate(10.581574, 24.759584) rotate(-52.000000) translate(-10.581574, -24.759584) translate(5.081574, 22.759584)">
                            <g id="visible">
                                <ellipse id="Oval-Copy" stroke-width="2" cx="1.80791695" cy="1.78601146" rx="1.80791695" ry="1.78601146"></ellipse>
                                <line x1="4.21847289" y1="1.78601146" x2="9.8431034" y2="1.78601146" id="Line" stroke-width="3" stroke-linecap="square"></line>
                            </g>
                        </g>
                        <g id="Group-4-Copy-4" transform="translate(26.588541, 13.196770) rotate(162.000000) translate(-26.588541, -13.196770) translate(21.088541, 11.196770)">
                            <g id="visible">
                                <ellipse id="Oval-Copy" stroke-width="2" cx="1.80791695" cy="1.78601146" rx="1.80791695" ry="1.78601146"></ellipse>
                                <line x1="4.21847289" y1="1.78601146" x2="9.8431034" y2="1.78601146" id="Line" stroke-width="3" stroke-linecap="square"></line>
                            </g>
                        </g>
                        <g id="Group-4-Copy-5" transform="translate(23.489037, 24.381976) rotate(231.000000) translate(-23.489037, -24.381976) translate(17.989037, 22.381976)">
                            <g id="visible">
                                <ellipse id="Oval-Copy" stroke-width="2" cx="1.80791695" cy="1.78601146" rx="1.80791695" ry="1.78601146"></ellipse>
                                <line x1="4.21847289" y1="1.78601146" x2="9.8431034" y2="1.78601146" id="Line" stroke-width="3" stroke-linecap="square"></line>
                            </g>
                        </g>
                    </g>
                </g>
            </g>
        </g>
    </g>
</svg>