<?xml version="1.0" encoding="UTF-8"?>
<svg width="740px" height="345px" viewBox="0 0 740 345" version="1.1" xmlns="http://www.w3.org/2000/svg" xmlns:xlink="http://www.w3.org/1999/xlink">
    <!-- Generator: Sketch 60 (88103) - https://sketch.com -->
    <title>forward outlined</title>
    <desc>Created with Sketch.</desc>
    <defs>
        <polygon id="path-1" points="0 0 88.3152709 0 108 20 88.3152709 40 0 40"></polygon>
        <filter x="-6.9%" y="-13.8%" width="114.1%" height="137.5%" filterUnits="objectBoundingBox" id="filter-2">
            <feMorphology radius="0.5" operator="dilate" in="SourceAlpha" result="shadowSpreadOuter1"></feMorphology>
            <feOffset dx="0" dy="2" in="shadowSpreadOuter1" result="shadowOffsetOuter1"></feOffset>
            <feGaussianBlur stdDeviation="2" in="shadowOffsetOuter1" result="shadowBlurOuter1"></feGaussianBlur>
            <feComposite in="shadowBlurOuter1" in2="SourceAlpha" operator="out" result="shadowBlurOuter1"></feComposite>
            <feColorMatrix values="0 0 0 0 0.905882353   0 0 0 0 0.917647059   0 0 0 0 0.921568627  0 0 0 1 0" type="matrix" in="shadowBlurOuter1"></feColorMatrix>
        </filter>
        <polygon id="path-3" points="0 0 58.8768473 0 72 20 58.8768473 40 0 40"></polygon>
        <filter x="-10.4%" y="-13.8%" width="121.0%" height="137.5%" filterUnits="objectBoundingBox" id="filter-4">
            <feMorphology radius="0.5" operator="dilate" in="SourceAlpha" result="shadowSpreadOuter1"></feMorphology>
            <feOffset dx="0" dy="2" in="shadowSpreadOuter1" result="shadowOffsetOuter1"></feOffset>
            <feGaussianBlur stdDeviation="2" in="shadowOffsetOuter1" result="shadowBlurOuter1"></feGaussianBlur>
            <feComposite in="shadowBlurOuter1" in2="SourceAlpha" operator="out" result="shadowBlurOuter1"></feComposite>
            <feColorMatrix values="0 0 0 0 0.905882353   0 0 0 0 0.917647059   0 0 0 0 0.921568627  0 0 0 1 0" type="matrix" in="shadowBlurOuter1"></feColorMatrix>
        </filter>
    </defs>
    <g id="Page-1" stroke="none" stroke-width="1" fill="none" fill-rule="evenodd">
        <g id="forward-outlined" transform="translate(1.000000, 0.000000)">
            <g id="with-vaulty" transform="translate(10.000000, 0.000000)">
                <g id="servers" transform="translate(17.000000, 144.000000)">
                    <g id="srvs-left">
                        <g id="srv-light" transform="translate(0.000000, 38.000000)">
                            <path d="M8.80645161,0 L82.1935484,0 C87.0572173,0 91,3.92611835 91,8.76923077 L91,29.2307692 C91,34.0738817 87.0572173,38 82.1935484,38 L8.80645161,38 C3.94278269,38 0,34.0738817 0,29.2307692 L0,8.76923077 C0,3.92611835 3.94278269,0 8.80645161,0 Z" id="Rectangle" fill="#547580"></path>
                            <ellipse id="Oval-Copy" fill="#FFFFFF" fill-rule="nonzero" cx="74.8548387" cy="19" rx="4.40322581" ry="4.38461538"></ellipse>
                            <rect id="Rectangle-Copy-6" fill="#6DFF53" x="11.7419355" y="14.6153846" width="29.3548387" height="8.76923077" rx="3"></rect>
                        </g>
                        <g id="srv-dark">
                            <rect id="Rectangle-Copy-5" fill="#3F5C6C" x="0" y="0" width="91" height="38" rx="3"></rect>
                            <ellipse id="Oval" fill="#FFFFFF" fill-rule="nonzero" cx="74.8548387" cy="19" rx="4.40322581" ry="4.38461538"></ellipse>
                            <rect id="Rectangle-Copy-7" fill="#6DFF53" x="11.7419355" y="14.6153846" width="29.3548387" height="8.76923077" rx="3"></rect>
                        </g>
                        <g id="srv-dark-copy" transform="translate(0.000000, 76.000000)">
                            <rect id="Rectangle-Copy-5" fill="#3F5C6C" x="0" y="0" width="91" height="38" rx="3"></rect>
                            <ellipse id="Oval" fill="#FFFFFF" fill-rule="nonzero" cx="74.8548387" cy="19" rx="4.40322581" ry="4.38461538"></ellipse>
                            <rect id="Rectangle-Copy-8" fill="#6DFF53" x="11.7419355" y="14.6153846" width="29.3548387" height="8.76923077" rx="3"></rect>
                        </g>
                    </g>
                </g>
                <g id="sensitive-data" transform="translate(394.000000, 181.000000)">
                    <g id="Rectangle">
                        <use fill="black" fill-opacity="1" filter="url(#filter-2)" xlink:href="#path-1"></use>
                        <use stroke="#D63333" stroke-width="1" fill="#FFFFFF" fill-rule="evenodd" xlink:href="#path-1"></use>
                    </g>
                    <path d="M8.82714844,24.1171875 C9.75683594,24.1171875 10.4550781,23.9414062 10.921875,23.5898438 C11.3886719,23.2382812 11.6220703,22.7265625 11.6220703,22.0546875 C11.6220703,21.7304688 11.5654297,21.4511719 11.4521484,21.2167969 C11.3388672,20.9824219 11.1630859,20.7753906 10.9248047,20.5957031 C10.6865234,20.4160156 10.3115234,20.2226562 9.79980469,20.015625 C9.22558594,19.7851562 8.85351562,19.6113281 8.68359375,19.4941406 C8.51367188,19.3769531 8.42871094,19.2382812 8.42871094,19.078125 C8.42871094,18.7929688 8.69238281,18.6503906 9.21972656,18.6503906 C9.51660156,18.6503906 9.80761719,18.6953125 10.0927734,18.7851562 C10.3779297,18.875 10.6845703,18.9902344 11.0126953,19.1308594 L11.0126953,19.1308594 L11.5517578,17.8417969 C10.8056641,17.4980469 10.0380859,17.3261719 9.24902344,17.3261719 C8.42089844,17.3261719 7.78125,17.4853516 7.33007812,17.8037109 C6.87890625,18.1220703 6.65332031,18.5722656 6.65332031,19.1542969 C6.65332031,19.4941406 6.70703125,19.7802734 6.81445312,20.0126953 C6.921875,20.2451172 7.09375,20.4511719 7.33007812,20.6308594 C7.56640625,20.8105469 7.93652344,21.0058594 8.44042969,21.2167969 C8.79199219,21.3652344 9.07324219,21.4951172 9.28417969,21.6064453 C9.49511719,21.7177734 9.64355469,21.8173828 9.72949219,21.9052734 C9.81542969,21.9931641 9.85839844,22.1074219 9.85839844,22.2480469 C9.85839844,22.6230469 9.53417969,22.8105469 8.88574219,22.8105469 C8.56933594,22.8105469 8.203125,22.7578125 7.78710938,22.6523438 C7.37109375,22.546875 6.99707031,22.4160156 6.66503906,22.2597656 L6.66503906,22.2597656 L6.66503906,23.7363281 C6.95800781,23.8613281 7.27246094,23.9560547 7.60839844,24.0205078 C7.94433594,24.0849609 8.35058594,24.1171875 8.82714844,24.1171875 Z M15.9814453,24.1171875 C16.4931641,24.1171875 16.9267578,24.0791016 17.2822266,24.0029297 C17.6376953,23.9267578 17.9716797,23.8105469 18.2841797,23.6542969 L18.2841797,23.6542969 L18.2841797,22.2714844 C17.9013672,22.4511719 17.5341797,22.5820312 17.1826172,22.6640625 C16.8310547,22.7460938 16.4580078,22.7871094 16.0634766,22.7871094 C15.5556641,22.7871094 15.1611328,22.6445312 14.8798828,22.359375 C14.5986328,22.0742188 14.4482422,21.6777344 14.4287109,21.1699219 L14.4287109,21.1699219 L18.6533203,21.1699219 L18.6533203,20.3027344 C18.6533203,19.3730469 18.3955078,18.6445312 17.8798828,18.1171875 C17.3642578,17.5898438 16.6435547,17.3261719 15.7177734,17.3261719 C14.7490234,17.3261719 13.9902344,17.6259766 13.4414062,18.2255859 C12.8925781,18.8251953 12.6181641,19.6738281 12.6181641,20.7714844 C12.6181641,21.8378906 12.9150391,22.6621094 13.5087891,23.2441406 C14.1025391,23.8261719 14.9267578,24.1171875 15.9814453,24.1171875 Z M16.9775391,19.9804688 L14.4697266,19.9804688 C14.5009766,19.5390625 14.6240234,19.1982422 14.8388672,18.9580078 C15.0537109,18.7177734 15.3505859,18.5976562 15.7294922,18.5976562 C16.1083984,18.5976562 16.4091797,18.7177734 16.6318359,18.9580078 C16.8544922,19.1982422 16.9697266,19.5390625 16.9775391,19.9804688 L16.9775391,19.9804688 Z M21.8935547,24 L21.8935547,20.9179688 C21.8935547,20.1445312 22.0048828,19.5908203 22.2275391,19.2568359 C22.4501953,18.9228516 22.8115234,18.7558594 23.3115234,18.7558594 C23.6787109,18.7558594 23.9462891,18.8740234 24.1142578,19.1103516 C24.2822266,19.3466797 24.3662109,19.7011719 24.3662109,20.1738281 L24.3662109,20.1738281 L24.3662109,24 L26.1533203,24 L26.1533203,19.7285156 C26.1533203,18.9511719 25.9560547,18.3564453 25.5615234,17.9443359 C25.1669922,17.5322266 24.5888672,17.3261719 23.8271484,17.3261719 C23.3818359,17.3261719 22.984375,17.4072266 22.6347656,17.5693359 C22.2851562,17.7314453 22.0107422,17.9707031 21.8115234,18.2871094 L21.8115234,18.2871094 L21.7119141,18.2871094 L21.4716797,17.4492188 L20.1064453,17.4492188 L20.1064453,24 L21.8935547,24 Z M29.7685547,24.1171875 C30.6982422,24.1171875 31.3964844,23.9414062 31.8632812,23.5898438 C32.3300781,23.2382812 32.5634766,22.7265625 32.5634766,22.0546875 C32.5634766,21.7304688 32.5068359,21.4511719 32.3935547,21.2167969 C32.2802734,20.9824219 32.1044922,20.7753906 31.8662109,20.5957031 C31.6279297,20.4160156 31.2529297,20.2226562 30.7412109,20.015625 C30.1669922,19.7851562 29.7949219,19.6113281 29.625,19.4941406 C29.4550781,19.3769531 29.3701172,19.2382812 29.3701172,19.078125 C29.3701172,18.7929688 29.6337891,18.6503906 30.1611328,18.6503906 C30.4580078,18.6503906 30.7490234,18.6953125 31.0341797,18.7851562 C31.3193359,18.875 31.6259766,18.9902344 31.9541016,19.1308594 L31.9541016,19.1308594 L32.4931641,17.8417969 C31.7470703,17.4980469 30.9794922,17.3261719 30.1904297,17.3261719 C29.3623047,17.3261719 28.7226562,17.4853516 28.2714844,17.8037109 C27.8203125,18.1220703 27.5947266,18.5722656 27.5947266,19.1542969 C27.5947266,19.4941406 27.6484375,19.7802734 27.7558594,20.0126953 C27.8632812,20.2451172 28.0351562,20.4511719 28.2714844,20.6308594 C28.5078125,20.8105469 28.8779297,21.0058594 29.3818359,21.2167969 C29.7333984,21.3652344 30.0146484,21.4951172 30.2255859,21.6064453 C30.4365234,21.7177734 30.5849609,21.8173828 30.6708984,21.9052734 C30.7568359,21.9931641 30.7998047,22.1074219 30.7998047,22.2480469 C30.7998047,22.6230469 30.4755859,22.8105469 29.8271484,22.8105469 C29.5107422,22.8105469 29.1445312,22.7578125 28.7285156,22.6523438 C28.3125,22.546875 27.9384766,22.4160156 27.6064453,22.2597656 L27.6064453,22.2597656 L27.6064453,23.7363281 C27.8994141,23.8613281 28.2138672,23.9560547 28.5498047,24.0205078 C28.8857422,24.0849609 29.2919922,24.1171875 29.7685547,24.1171875 Z M34.8544922,16.6347656 C35.1787109,16.6347656 35.421875,16.5576172 35.5839844,16.4033203 C35.7460938,16.2490234 35.8271484,16.0332031 35.8271484,15.7558594 C35.8271484,15.1738281 35.5029297,14.8828125 34.8544922,14.8828125 C34.2060547,14.8828125 33.8818359,15.1738281 33.8818359,15.7558594 C33.8818359,16.3417969 34.2060547,16.6347656 34.8544922,16.6347656 Z M35.7451172,24 L35.7451172,17.4492188 L33.9580078,17.4492188 L33.9580078,24 L35.7451172,24 Z M39.8642578,24.1171875 C40.5126953,24.1171875 41.0595703,24.0175781 41.5048828,23.8183594 L41.5048828,23.8183594 L41.5048828,22.4882812 C41.0673828,22.625 40.6923828,22.6933594 40.3798828,22.6933594 C40.1455078,22.6933594 39.9570312,22.6328125 39.8144531,22.5117188 C39.671875,22.390625 39.6005859,22.203125 39.6005859,21.9492188 L39.6005859,21.9492188 L39.6005859,18.7910156 L41.4345703,18.7910156 L41.4345703,17.4492188 L39.6005859,17.4492188 L39.6005859,16.0546875 L38.4580078,16.0546875 L37.9423828,17.4375 L36.9580078,18.0351562 L36.9580078,18.7910156 L37.8134766,18.7910156 L37.8134766,21.9492188 C37.8134766,22.671875 37.9765625,23.2138672 38.3027344,23.5751953 C38.6289062,23.9365234 39.1494141,24.1171875 39.8642578,24.1171875 Z M43.7255859,16.6347656 C44.0498047,16.6347656 44.2929688,16.5576172 44.4550781,16.4033203 C44.6171875,16.2490234 44.6982422,16.0332031 44.6982422,15.7558594 C44.6982422,15.1738281 44.3740234,14.8828125 43.7255859,14.8828125 C43.0771484,14.8828125 42.7529297,15.1738281 42.7529297,15.7558594 C42.7529297,16.3417969 43.0771484,16.6347656 43.7255859,16.6347656 Z M44.6162109,24 L44.6162109,17.4492188 L42.8291016,17.4492188 L42.8291016,24 L44.6162109,24 Z M49.8837891,24 L52.3798828,17.4492188 L50.5107422,17.4492188 L49.2509766,21.1816406 C49.0947266,21.7011719 49.0068359,22.1484375 48.9873047,22.5234375 L48.9873047,22.5234375 L48.9521484,22.5234375 C48.9169922,22.1015625 48.8291016,21.6542969 48.6884766,21.1816406 L48.6884766,21.1816406 L47.4228516,17.4492188 L45.5537109,17.4492188 L48.0498047,24 L49.8837891,24 Z M56.2822266,24.1171875 C56.7939453,24.1171875 57.2275391,24.0791016 57.5830078,24.0029297 C57.9384766,23.9267578 58.2724609,23.8105469 58.5849609,23.6542969 L58.5849609,23.6542969 L58.5849609,22.2714844 C58.2021484,22.4511719 57.8349609,22.5820312 57.4833984,22.6640625 C57.1318359,22.7460938 56.7587891,22.7871094 56.3642578,22.7871094 C55.8564453,22.7871094 55.4619141,22.6445312 55.1806641,22.359375 C54.8994141,22.0742188 54.7490234,21.6777344 54.7294922,21.1699219 L54.7294922,21.1699219 L58.9541016,21.1699219 L58.9541016,20.3027344 C58.9541016,19.3730469 58.6962891,18.6445312 58.1806641,18.1171875 C57.6650391,17.5898438 56.9443359,17.3261719 56.0185547,17.3261719 C55.0498047,17.3261719 54.2910156,17.6259766 53.7421875,18.2255859 C53.1933594,18.8251953 52.9189453,19.6738281 52.9189453,20.7714844 C52.9189453,21.8378906 53.2158203,22.6621094 53.8095703,23.2441406 C54.4033203,23.8261719 55.2275391,24.1171875 56.2822266,24.1171875 Z M57.2783203,19.9804688 L54.7705078,19.9804688 C54.8017578,19.5390625 54.9248047,19.1982422 55.1396484,18.9580078 C55.3544922,18.7177734 55.6513672,18.5976562 56.0302734,18.5976562 C56.4091797,18.5976562 56.7099609,18.7177734 56.9326172,18.9580078 C57.1552734,19.1982422 57.2705078,19.5390625 57.2783203,19.9804688 L57.2783203,19.9804688 Z M65.5986328,24.1171875 C66.4306641,24.1171875 67.0498047,23.7949219 67.4560547,23.1503906 L67.4560547,23.1503906 L67.5322266,23.1503906 L67.8779297,24 L69.2490234,24 L69.2490234,14.8828125 L67.4560547,14.8828125 L67.4560547,16.9804688 C67.4560547,17.3632812 67.5009766,17.7988281 67.5908203,18.2871094 L67.5908203,18.2871094 L67.5322266,18.2871094 C67.0986328,17.6464844 66.4697266,17.3261719 65.6455078,17.3261719 C64.8603516,17.3261719 64.2441406,17.6259766 63.796875,18.2255859 C63.3496094,18.8251953 63.1259766,19.6621094 63.1259766,20.7363281 C63.1259766,21.7949219 63.3457031,22.6230469 63.7851562,23.2207031 C64.2246094,23.8183594 64.8291016,24.1171875 65.5986328,24.1171875 Z M66.2255859,22.6933594 C65.8115234,22.6933594 65.4931641,22.5322266 65.2705078,22.2099609 C65.0478516,21.8876953 64.9365234,21.4042969 64.9365234,20.7597656 C64.9365234,20.1152344 65.046875,19.6240234 65.2675781,19.2861328 C65.4882812,18.9482422 65.7978516,18.7792969 66.1962891,18.7792969 C66.6845703,18.7792969 67.0371094,18.9316406 67.2539062,19.2363281 C67.4707031,19.5410156 67.5791016,20.0449219 67.5791016,20.7480469 L67.5791016,20.7480469 L67.5791016,20.9414062 C67.5595703,21.578125 67.4433594,22.0292969 67.2304688,22.2949219 C67.0175781,22.5605469 66.6826172,22.6933594 66.2255859,22.6933594 Z M72.7119141,24.1171875 C73.2236328,24.1171875 73.6386719,24.0439453 73.9570312,23.8974609 C74.2753906,23.7509766 74.5849609,23.4882812 74.8857422,23.109375 L74.8857422,23.109375 L74.9326172,23.109375 L75.2783203,24 L76.5263672,24 L76.5263672,19.6347656 C76.5263672,18.8535156 76.2919922,18.2714844 75.8232422,17.8886719 C75.3544922,17.5058594 74.6806641,17.3144531 73.8017578,17.3144531 C72.8837891,17.3144531 72.0478516,17.5117188 71.2939453,17.90625 L71.2939453,17.90625 L71.8857422,19.1132812 C72.5927734,18.796875 73.2080078,18.6386719 73.7314453,18.6386719 C74.4111328,18.6386719 74.7509766,18.9707031 74.7509766,19.6347656 L74.7509766,19.6347656 L74.7509766,19.921875 L73.6142578,19.9570312 C72.6337891,19.9921875 71.9003906,20.1748047 71.4140625,20.5048828 C70.9277344,20.8349609 70.6845703,21.3476562 70.6845703,22.0429688 C70.6845703,22.7070312 70.8652344,23.21875 71.2265625,23.578125 C71.5878906,23.9375 72.0830078,24.1171875 72.7119141,24.1171875 Z M73.3857422,22.8105469 C72.8076172,22.8105469 72.5185547,22.5585938 72.5185547,22.0546875 C72.5185547,21.703125 72.6455078,21.4414062 72.8994141,21.2695312 C73.1533203,21.0976562 73.5400391,21.0039062 74.0595703,20.9882812 L74.0595703,20.9882812 L74.7509766,20.9648438 L74.7509766,21.5039062 C74.7509766,21.8984375 74.6269531,22.2148438 74.3789062,22.453125 C74.1308594,22.6914062 73.7998047,22.8105469 73.3857422,22.8105469 Z M80.6103516,24.1171875 C81.2587891,24.1171875 81.8056641,24.0175781 82.2509766,23.8183594 L82.2509766,23.8183594 L82.2509766,22.4882812 C81.8134766,22.625 81.4384766,22.6933594 81.1259766,22.6933594 C80.8916016,22.6933594 80.703125,22.6328125 80.5605469,22.5117188 C80.4179688,22.390625 80.3466797,22.203125 80.3466797,21.9492188 L80.3466797,21.9492188 L80.3466797,18.7910156 L82.1806641,18.7910156 L82.1806641,17.4492188 L80.3466797,17.4492188 L80.3466797,16.0546875 L79.2041016,16.0546875 L78.6884766,17.4375 L77.7041016,18.0351562 L77.7041016,18.7910156 L78.5595703,18.7910156 L78.5595703,21.9492188 C78.5595703,22.671875 78.7226562,23.2138672 79.0488281,23.5751953 C79.375,23.9365234 79.8955078,24.1171875 80.6103516,24.1171875 Z M85.1689453,24.1171875 C85.6806641,24.1171875 86.0957031,24.0439453 86.4140625,23.8974609 C86.7324219,23.7509766 87.0419922,23.4882812 87.3427734,23.109375 L87.3427734,23.109375 L87.3896484,23.109375 L87.7353516,24 L88.9833984,24 L88.9833984,19.6347656 C88.9833984,18.8535156 88.7490234,18.2714844 88.2802734,17.8886719 C87.8115234,17.5058594 87.1376953,17.3144531 86.2587891,17.3144531 C85.3408203,17.3144531 84.5048828,17.5117188 83.7509766,17.90625 L83.7509766,17.90625 L84.3427734,19.1132812 C85.0498047,18.796875 85.6650391,18.6386719 86.1884766,18.6386719 C86.8681641,18.6386719 87.2080078,18.9707031 87.2080078,19.6347656 L87.2080078,19.6347656 L87.2080078,19.921875 L86.0712891,19.9570312 C85.0908203,19.9921875 84.3574219,20.1748047 83.8710938,20.5048828 C83.3847656,20.8349609 83.1416016,21.3476562 83.1416016,22.0429688 C83.1416016,22.7070312 83.3222656,23.21875 83.6835938,23.578125 C84.0449219,23.9375 84.5400391,24.1171875 85.1689453,24.1171875 Z M85.8427734,22.8105469 C85.2646484,22.8105469 84.9755859,22.5585938 84.9755859,22.0546875 C84.9755859,21.703125 85.1025391,21.4414062 85.3564453,21.2695312 C85.6103516,21.0976562 85.9970703,21.0039062 86.5166016,20.9882812 L86.5166016,20.9882812 L87.2080078,20.9648438 L87.2080078,21.5039062 C87.2080078,21.8984375 87.0839844,22.2148438 86.8359375,22.453125 C86.5878906,22.6914062 86.2568359,22.8105469 85.8427734,22.8105469 Z" id="sensitivedata" fill="#FF5364" fill-rule="nonzero"></path>
                </g>
                <g id="aliases" transform="translate(131.000000, 181.000000)">
                    <g id="Rectangle">
                        <use fill="black" fill-opacity="1" filter="url(#filter-4)" xlink:href="#path-3"></use>
                        <use stroke="#20B646" stroke-width="1" fill="#FFFFFF" fill-rule="evenodd" xlink:href="#path-3"></use>
                    </g>
                    <text font-family="OpenSans-Bold, Open Sans" font-size="12" font-weight="bold" fill="#20B646">
                        <tspan x="10.0214844" y="24"> aliases</tspan>
                    </text>
                </g>
                <g id="vault" transform="translate(224.000000, 132.000000)" stroke="#E0EAEC">
                    <rect id="Rectangle-Copy-3" stroke-width="4" fill="#FFFFFF" x="0" y="0" width="134" height="126" rx="8"></rect>
                    <rect id="Rectangle-Copy-4" fill="#FFFFFF" x="9" y="8" width="116" height="110" rx="8"></rect>
                    <g id="Group-5" transform="translate(28.000000, 19.000000)">
                        <g id="Group-6">
                            <circle id="Oval" stroke-width="4" cx="40" cy="39" r="15"></circle>
                            <g id="Group-4" transform="translate(39.500000, 39.500000) rotate(90.000000) translate(-39.500000, -39.500000) translate(0.000000, 35.000000)">
                                <g id="visible">
                                    <circle id="Oval-Copy" stroke-width="4" cx="4.5" cy="4.5" r="4.5"></circle>
                                    <line x1="10.5" y1="4.5" x2="24.5" y2="4.5" id="Line" stroke-width="3" stroke-linecap="square"></line>
                                </g>
                            </g>
                            <g id="Group-4-Copy-7" transform="translate(39.500000, 39.500000) rotate(16.000000) translate(-39.500000, -39.500000) translate(0.000000, 35.000000)">
                                <g id="visible">
                                    <circle id="Oval-Copy" stroke-width="4" cx="4.5" cy="4.5" r="4.5"></circle>
                                    <line x1="10.5" y1="4.5" x2="24.5" y2="4.5" id="Line" stroke-width="3" stroke-linecap="square"></line>
                                </g>
                            </g>
                            <g id="Group-4-Copy-6" transform="translate(39.500000, 39.500000) rotate(-52.000000) translate(-39.500000, -39.500000) translate(0.000000, 35.000000)">
                                <g id="visible">
                                    <circle id="Oval-Copy" stroke-width="4" cx="4.5" cy="4.5" r="4.5"></circle>
                                    <line x1="10.5" y1="4.5" x2="24.5" y2="4.5" id="Line" stroke-width="3" stroke-linecap="square"></line>
                                </g>
                            </g>
                            <g id="Group-4-Copy-4" transform="translate(39.500000, 39.500000) rotate(162.000000) translate(-39.500000, -39.500000) translate(0.000000, 35.000000)">
                                <g id="visible">
                                    <circle id="Oval-Copy" stroke-width="4" cx="4.5" cy="4.5" r="4.5"></circle>
                                    <line x1="10.5" y1="4.5" x2="24.5" y2="4.5" id="Line" stroke-width="3" stroke-linecap="square"></line>
                                </g>
                            </g>
                            <g id="Group-4-Copy-5" transform="translate(39.500000, 39.500000) rotate(231.000000) translate(-39.500000, -39.500000) translate(0.000000, 35.000000)">
                                <g id="visible">
                                    <circle id="Oval-Copy" stroke-width="4" cx="4.5" cy="4.5" r="4.5"></circle>
                                    <line x1="10.5" y1="4.5" x2="24.5" y2="4.5" id="Line" stroke-width="3" stroke-linecap="square"></line>
                                </g>
                            </g>
                        </g>
                    </g>
                    <g id="fixators" transform="translate(48.000000, 18.000000)">
                        <rect id="Rectangle" stroke-width="2" x="0" y="89" width="7" height="7"></rect>
                        <rect id="Rectangle" fill="#E0EAEC" x="76" y="0" width="10" height="14"></rect>
                    </g>
                    <g id="buttons" transform="translate(59.000000, 91.000000)">
                        <rect id="Rectangle-Copy-8" fill="#E0EAEC" x="65" y="0" width="10" height="14"></rect>
                        <rect id="Rectangle-Copy-5" stroke-width="2" x="0" y="16" width="7" height="7"></rect>
                        <rect id="Rectangle-Copy-6" stroke-width="2" x="10" y="16" width="7" height="7"></rect>
                        <rect id="Rectangle-Copy-7" stroke-width="2" x="21" y="16" width="7" height="7"></rect>
                    </g>
                    <rect id="Rectangle-Copy-9" fill="#E0EAEC" transform="translate(29.000000, 133.000000) rotate(90.000000) translate(-29.000000, -133.000000) " x="24" y="122" width="10" height="22"></rect>
                    <rect id="Rectangle-Copy-10" fill="#E0EAEC" transform="translate(105.000000, 133.000000) rotate(90.000000) translate(-105.000000, -133.000000) " x="100" y="122" width="10" height="22"></rect>
                </g>
                <g id="bank-copy" transform="translate(534.000000, 113.000000)">
                    <polygon id="Path-4" fill="#67B9CC" points="188 113 46 113 46 121 188 123"></polygon>
                    <polygon id="Path-4-Copy" fill="#67B9CC" points="190 128 34 128 34 139.2 190 142"></polygon>
                    <polygon id="Triangle" stroke="#3F5C6C" stroke-width="3" stroke-linejoin="round" points="96.5 0 193 51 0 51"></polygon>
                    <rect id="Rectangle" stroke="#3F5C6C" stroke-width="3" stroke-linejoin="round" x="0" y="127" width="193" height="15"></rect>
                    <rect id="Rectangle-Copy" stroke="#3F5C6C" stroke-width="3" stroke-linejoin="round" x="8" y="112" width="178" height="15"></rect>
                    <g id="Group-7" transform="translate(17.000000, 51.000000)" stroke="#3F5C6C" stroke-width="3">
                        <g id="Group-6">
                            <rect id="Rectangle-Copy-2" stroke-linejoin="round" x="0" y="0" width="20" height="9.91304348"></rect>
                            <rect id="Rectangle-Copy-3" stroke-linejoin="round" x="0" y="47.0869565" width="20" height="9.91304348"></rect>
                            <line x1="3.75" y1="13.6304348" x2="3.75" y2="43.3695652" id="Line-2" stroke-linecap="square"></line>
                        </g>
                        <line x1="16.25" y1="13.6304348" x2="16.25" y2="43.3695652" id="Line-2-Copy" stroke-linecap="square"></line>
                    </g>
                    <g id="Group-7-Copy" transform="translate(156.000000, 51.000000)" stroke="#3F5C6C" stroke-width="3">
                        <g id="Group-6">
                            <rect id="Rectangle-Copy-2" stroke-linejoin="round" x="0" y="0" width="20" height="9.91304348"></rect>
                            <rect id="Rectangle-Copy-3" stroke-linejoin="round" x="0" y="47.0869565" width="20" height="9.91304348"></rect>
                            <line x1="3.75" y1="13.6304348" x2="3.75" y2="43.3695652" id="Line-2" stroke-linecap="square"></line>
                        </g>
                        <line x1="16.25" y1="13.6304348" x2="16.25" y2="43.3695652" id="Line-2-Copy" stroke-linecap="square"></line>
                    </g>
                    <g id="Group-7-Copy-2" transform="translate(112.000000, 51.000000)" stroke="#3F5C6C" stroke-width="3">
                        <g id="Group-6">
                            <rect id="Rectangle-Copy-2" stroke-linejoin="round" x="0" y="0" width="20" height="9.91304348"></rect>
                            <rect id="Rectangle-Copy-3" stroke-linejoin="round" x="0" y="47.0869565" width="20" height="9.91304348"></rect>
                            <line x1="3.75" y1="13.6304348" x2="3.75" y2="43.3695652" id="Line-2" stroke-linecap="square"></line>
                        </g>
                        <line x1="16.25" y1="13.6304348" x2="16.25" y2="43.3695652" id="Line-2-Copy" stroke-linecap="square"></line>
                    </g>
                    <g id="Group-7-Copy-3" transform="translate(61.000000, 51.000000)" stroke="#3F5C6C" stroke-width="3">
                        <g id="Group-6">
                            <rect id="Rectangle-Copy-2" stroke-linejoin="round" x="0" y="0" width="20" height="9.91304348"></rect>
                            <rect id="Rectangle-Copy-3" stroke-linejoin="round" x="0" y="47.0869565" width="20" height="9.91304348"></rect>
                            <line x1="3.75" y1="13.6304348" x2="3.75" y2="43.3695652" id="Line-2" stroke-linecap="square"></line>
                        </g>
                        <line x1="16.25" y1="13.6304348" x2="16.25" y2="43.3695652" id="Line-2-Copy" stroke-linecap="square"></line>
                    </g>
                    <path d="M180,47 L14,47 L69.3333333,18 C116.153846,20.5387205 153.042735,30.2053872 180,47 Z" id="Shape-Copy" fill="#BEE8F5" fill-rule="nonzero" transform="translate(97.000000, 32.500000) scale(-1, 1) translate(-97.000000, -32.500000) "></path>
                </g>
                <path d="M120.914062,13 L120.914062,1.578125 L118.492188,1.578125 L118.492188,13 L120.914062,13 Z M125.984375,13 L125.984375,8.890625 C125.984375,7.859375 126.132812,7.12109375 126.429688,6.67578125 C126.726562,6.23046875 127.208333,6.0078125 127.875,6.0078125 C128.364583,6.0078125 128.721354,6.16536458 128.945312,6.48046875 C129.169271,6.79557292 129.28125,7.26822917 129.28125,7.8984375 L129.28125,7.8984375 L129.28125,13 L131.664062,13 L131.664062,7.3046875 C131.664062,6.26822917 131.401042,5.47526042 130.875,4.92578125 C130.348958,4.37630208 129.578125,4.1015625 128.5625,4.1015625 C127.96875,4.1015625 127.438802,4.20963542 126.972656,4.42578125 C126.50651,4.64192708 126.140625,4.9609375 125.875,5.3828125 L125.875,5.3828125 L125.742188,5.3828125 L125.421875,4.265625 L123.601562,4.265625 L123.601562,13 L125.984375,13 Z M137.109375,13.15625 C137.973958,13.15625 138.703125,13.0234375 139.296875,12.7578125 L139.296875,12.7578125 L139.296875,10.984375 C138.713542,11.1666667 138.213542,11.2578125 137.796875,11.2578125 C137.484375,11.2578125 137.233073,11.1770833 137.042969,11.015625 C136.852865,10.8541667 136.757812,10.6041667 136.757812,10.265625 L136.757812,10.265625 L136.757812,6.0546875 L139.203125,6.0546875 L139.203125,4.265625 L136.757812,4.265625 L136.757812,2.40625 L135.234375,2.40625 L134.546875,4.25 L133.234375,5.046875 L133.234375,6.0546875 L134.375,6.0546875 L134.375,10.265625 C134.375,11.2291667 134.592448,11.9518229 135.027344,12.4335938 C135.46224,12.9153646 136.15625,13.15625 137.109375,13.15625 Z M145.015625,13.15625 C145.697917,13.15625 146.276042,13.1054688 146.75,13.0039062 C147.223958,12.9023438 147.669271,12.7473958 148.085938,12.5390625 L148.085938,12.5390625 L148.085938,10.6953125 C147.575521,10.9348958 147.085938,11.109375 146.617188,11.21875 C146.148438,11.328125 145.651042,11.3828125 145.125,11.3828125 C144.447917,11.3828125 143.921875,11.1927083 143.546875,10.8125 C143.171875,10.4322917 142.971354,9.90364583 142.945312,9.2265625 L142.945312,9.2265625 L148.578125,9.2265625 L148.578125,8.0703125 C148.578125,6.83072917 148.234375,5.859375 147.546875,5.15625 C146.859375,4.453125 145.898438,4.1015625 144.664062,4.1015625 C143.372396,4.1015625 142.360677,4.50130208 141.628906,5.30078125 C140.897135,6.10026042 140.53125,7.23177083 140.53125,8.6953125 C140.53125,10.1171875 140.927083,11.2161458 141.71875,11.9921875 C142.510417,12.7682292 143.609375,13.15625 145.015625,13.15625 Z M146.34375,7.640625 L143,7.640625 C143.041667,7.05208333 143.205729,6.59765625 143.492188,6.27734375 C143.778646,5.95703125 144.174479,5.796875 144.679688,5.796875 C145.184896,5.796875 145.585938,5.95703125 145.882812,6.27734375 C146.179688,6.59765625 146.333333,7.05208333 146.34375,7.640625 L146.34375,7.640625 Z M152.898438,13 L152.898438,8.5546875 C152.898438,7.8515625 153.110677,7.3046875 153.535156,6.9140625 C153.959635,6.5234375 154.552083,6.328125 155.3125,6.328125 C155.588542,6.328125 155.822917,6.35416667 156.015625,6.40625 L156.015625,6.40625 L156.195312,4.171875 C155.981771,4.125 155.713542,4.1015625 155.390625,4.1015625 C154.848958,4.1015625 154.347656,4.25130208 153.886719,4.55078125 C153.425781,4.85026042 153.059896,5.24479167 152.789062,5.734375 L152.789062,5.734375 L152.671875,5.734375 L152.320312,4.265625 L150.515625,4.265625 L150.515625,13 L152.898438,13 Z M160.164062,13 L160.164062,8.890625 C160.164062,7.859375 160.3125,7.12109375 160.609375,6.67578125 C160.90625,6.23046875 161.388021,6.0078125 162.054688,6.0078125 C162.544271,6.0078125 162.901042,6.16536458 163.125,6.48046875 C163.348958,6.79557292 163.460938,7.26822917 163.460938,7.8984375 L163.460938,7.8984375 L163.460938,13 L165.84375,13 L165.84375,7.3046875 C165.84375,6.26822917 165.580729,5.47526042 165.054688,4.92578125 C164.528646,4.37630208 163.757812,4.1015625 162.742188,4.1015625 C162.148438,4.1015625 161.61849,4.20963542 161.152344,4.42578125 C160.686198,4.64192708 160.320312,4.9609375 160.054688,5.3828125 L160.054688,5.3828125 L159.921875,5.3828125 L159.601562,4.265625 L157.78125,4.265625 L157.78125,13 L160.164062,13 Z M170.421875,13.15625 C171.104167,13.15625 171.657552,13.0585938 172.082031,12.8632812 C172.50651,12.6679688 172.919271,12.3177083 173.320312,11.8125 L173.320312,11.8125 L173.382812,11.8125 L173.84375,13 L175.507812,13 L175.507812,7.1796875 C175.507812,6.13802083 175.195312,5.36197917 174.570312,4.8515625 C173.945312,4.34114583 173.046875,4.0859375 171.875,4.0859375 C170.651042,4.0859375 169.536458,4.34895833 168.53125,4.875 L168.53125,4.875 L169.320312,6.484375 C170.263021,6.0625 171.083333,5.8515625 171.78125,5.8515625 C172.6875,5.8515625 173.140625,6.29427083 173.140625,7.1796875 L173.140625,7.1796875 L173.140625,7.5625 L171.625,7.609375 C170.317708,7.65625 169.339844,7.89973958 168.691406,8.33984375 C168.042969,8.77994792 167.71875,9.46354167 167.71875,10.390625 C167.71875,11.2760417 167.959635,11.9583333 168.441406,12.4375 C168.923177,12.9166667 169.583333,13.15625 170.421875,13.15625 Z M171.320312,11.4140625 C170.549479,11.4140625 170.164062,11.078125 170.164062,10.40625 C170.164062,9.9375 170.333333,9.58854167 170.671875,9.359375 C171.010417,9.13020833 171.526042,9.00520833 172.21875,8.984375 L172.21875,8.984375 L173.140625,8.953125 L173.140625,9.671875 C173.140625,10.1979167 172.97526,10.6197917 172.644531,10.9375 C172.313802,11.2552083 171.872396,11.4140625 171.320312,11.4140625 Z M180.34375,13 L180.34375,0.84375 L177.960938,0.84375 L177.960938,13 L180.34375,13 Z M189.351562,13 L189.351562,7.625 C189.351562,6.97395833 189.302083,5.88541667 189.203125,4.359375 L189.203125,4.359375 L189.273438,4.359375 L194.242188,13 L197.320312,13 L197.320312,1.578125 L195.140625,1.578125 L195.140625,6.984375 C195.140625,7.59895833 195.179688,8.6484375 195.257812,10.1328125 L195.257812,10.1328125 L195.203125,10.1328125 L190.242188,1.578125 L187.1875,1.578125 L187.1875,13 L189.351562,13 Z M203.960938,13.15625 C204.643229,13.15625 205.221354,13.1054688 205.695312,13.0039062 C206.169271,12.9023438 206.614583,12.7473958 207.03125,12.5390625 L207.03125,12.5390625 L207.03125,10.6953125 C206.520833,10.9348958 206.03125,11.109375 205.5625,11.21875 C205.09375,11.328125 204.596354,11.3828125 204.070312,11.3828125 C203.393229,11.3828125 202.867188,11.1927083 202.492188,10.8125 C202.117188,10.4322917 201.916667,9.90364583 201.890625,9.2265625 L201.890625,9.2265625 L207.523438,9.2265625 L207.523438,8.0703125 C207.523438,6.83072917 207.179688,5.859375 206.492188,5.15625 C205.804688,4.453125 204.84375,4.1015625 203.609375,4.1015625 C202.317708,4.1015625 201.30599,4.50130208 200.574219,5.30078125 C199.842448,6.10026042 199.476562,7.23177083 199.476562,8.6953125 C199.476562,10.1171875 199.872396,11.2161458 200.664062,11.9921875 C201.455729,12.7682292 202.554688,13.15625 203.960938,13.15625 Z M205.289062,7.640625 L201.945312,7.640625 C201.986979,7.05208333 202.151042,6.59765625 202.4375,6.27734375 C202.723958,5.95703125 203.119792,5.796875 203.625,5.796875 C204.130208,5.796875 204.53125,5.95703125 204.828125,6.27734375 C205.125,6.59765625 205.278646,7.05208333 205.289062,7.640625 L205.289062,7.640625 Z M212.453125,13.15625 C213.317708,13.15625 214.046875,13.0234375 214.640625,12.7578125 L214.640625,12.7578125 L214.640625,10.984375 C214.057292,11.1666667 213.557292,11.2578125 213.140625,11.2578125 C212.828125,11.2578125 212.576823,11.1770833 212.386719,11.015625 C212.196615,10.8541667 212.101562,10.6041667 212.101562,10.265625 L212.101562,10.265625 L212.101562,6.0546875 L214.546875,6.0546875 L214.546875,4.265625 L212.101562,4.265625 L212.101562,2.40625 L210.578125,2.40625 L209.890625,4.25 L208.578125,5.046875 L208.578125,6.0546875 L209.71875,6.0546875 L209.71875,10.265625 C209.71875,11.2291667 209.936198,11.9518229 210.371094,12.4335938 C210.80599,12.9153646 211.5,13.15625 212.453125,13.15625 Z M220.359375,13 L221.953125,6.0859375 L222.007812,6.0859375 L222.914062,9.9453125 L223.585938,13 L226.179688,13 L228.695312,4.265625 L226.359375,4.265625 L225.3125,8.1328125 C225.260417,8.36197917 225.174479,8.80338542 225.054688,9.45703125 C224.934896,10.1106771 224.851562,10.625 224.804688,11 L224.804688,11 L224.757812,11 C224.752604,10.8541667 224.733073,10.6601562 224.699219,10.4179688 C224.665365,10.1757812 224.627604,9.92838542 224.585938,9.67578125 C224.544271,9.42317708 224.501302,9.18489583 224.457031,8.9609375 C224.41276,8.73697917 224.380208,8.56770833 224.359375,8.453125 L224.359375,8.453125 L223.335938,4.265625 L220.710938,4.265625 L219.632812,8.453125 L219.507812,9.1171875 C219.346354,9.9765625 219.255208,10.6041667 219.234375,11 L219.234375,11 L219.1875,11 C219.020833,9.78125 218.856771,8.82552083 218.695312,8.1328125 L218.695312,8.1328125 L217.6875,4.265625 L215.3125,4.265625 L217.796875,13 L220.359375,13 Z M233.78125,13.15625 C235.119792,13.15625 236.164062,12.7552083 236.914062,11.953125 C237.664062,11.1510417 238.039062,10.0390625 238.039062,8.6171875 C238.039062,7.70052083 237.867188,6.90104167 237.523438,6.21875 C237.179688,5.53645833 236.6875,5.01302083 236.046875,4.6484375 C235.40625,4.28385417 234.666667,4.1015625 233.828125,4.1015625 C232.479167,4.1015625 231.432292,4.49739583 230.6875,5.2890625 C229.942708,6.08072917 229.570312,7.19010417 229.570312,8.6171875 C229.570312,9.53385417 229.742188,10.3359375 230.085938,11.0234375 C230.429688,11.7109375 230.921875,12.2382812 231.5625,12.6054688 C232.203125,12.9726562 232.942708,13.15625 233.78125,13.15625 Z M233.8125,11.2421875 C233.171875,11.2421875 232.709635,11.0208333 232.425781,10.578125 C232.141927,10.1354167 232,9.48177083 232,8.6171875 C232,7.74739583 232.140625,7.09765625 232.421875,6.66796875 C232.703125,6.23828125 233.161458,6.0234375 233.796875,6.0234375 C234.4375,6.0234375 234.898438,6.23958333 235.179688,6.671875 C235.460938,7.10416667 235.601562,7.75260417 235.601562,8.6171875 C235.601562,9.48697917 235.46224,10.1419271 235.183594,10.5820312 C234.904948,11.0221354 234.447917,11.2421875 233.8125,11.2421875 Z M242.390625,13 L242.390625,8.5546875 C242.390625,7.8515625 242.602865,7.3046875 243.027344,6.9140625 C243.451823,6.5234375 244.044271,6.328125 244.804688,6.328125 C245.080729,6.328125 245.315104,6.35416667 245.507812,6.40625 L245.507812,6.40625 L245.6875,4.171875 C245.473958,4.125 245.205729,4.1015625 244.882812,4.1015625 C244.341146,4.1015625 243.839844,4.25130208 243.378906,4.55078125 C242.917969,4.85026042 242.552083,5.24479167 242.28125,5.734375 L242.28125,5.734375 L242.164062,5.734375 L241.8125,4.265625 L240.007812,4.265625 L240.007812,13 L242.390625,13 Z M249.65625,13 L249.65625,10.28125 L250.679688,9.4609375 L253.195312,13 L255.945312,13 L252.265625,8.0546875 L255.734375,4.265625 L253.046875,4.265625 L250.601562,6.921875 L249.5625,8.25 L249.53125,8.25 L249.65625,6.265625 L249.65625,0.84375 L247.273438,0.84375 L247.273438,13 L249.65625,13 Z" id="InternalNetwork" fill="#547580" fill-rule="nonzero"></path>
                <path d="M8.70361328,68 L8.70361328,62.9814453 L12.9311523,55.1503906 L9.16943359,55.1503906 L6.95458984,59.9140625 L4.75732422,55.1503906 L0.978027344,55.1503906 L5.20556641,63.0869141 L5.20556641,68 L8.70361328,68 Z M17.7387695,68.1757812 C19.3149414,68.1757812 20.5410156,67.7202148 21.4169922,66.809082 C22.2929688,65.8979492 22.730957,64.6279297 22.730957,62.9990234 C22.730957,61.9619141 22.5273438,61.0551758 22.1201172,60.2788086 C21.7128906,59.5024414 21.1342773,58.90625 20.3842773,58.4902344 C19.6342773,58.0742188 18.7700195,57.8662109 17.7915039,57.8662109 C16.2094727,57.8662109 14.9804688,58.315918 14.1044922,59.215332 C13.2285156,60.1147461 12.7905273,61.3759766 12.7905273,62.9990234 C12.7905273,64.5869141 13.2373047,65.8466797 14.1308594,66.7783203 C15.0244141,67.7099609 16.2270508,68.1757812 17.7387695,68.1757812 Z M17.7739258,65.6269531 C17.2348633,65.6269531 16.8510742,65.402832 16.6225586,64.9545898 C16.394043,64.5063477 16.2797852,63.8544922 16.2797852,62.9990234 C16.2797852,62.1435547 16.394043,61.5004883 16.6225586,61.0698242 C16.8510742,60.6391602 17.2290039,60.4238281 17.7563477,60.4238281 C18.2954102,60.4238281 18.6762695,60.640625 18.8989258,61.0742188 C19.121582,61.5078125 19.2329102,62.1494141 19.2329102,62.9990234 C19.2329102,63.8544922 19.1230469,64.5063477 18.9033203,64.9545898 C18.6835938,65.402832 18.3071289,65.6269531 17.7739258,65.6269531 Z M28.1450195,68.1757812 C28.8364258,68.1757812 29.4384766,68.0541992 29.9511719,67.8110352 C30.4638672,67.5678711 30.8637695,67.2177734 31.1508789,66.7607422 L31.1508789,66.7607422 L31.3530273,66.7607422 L31.7836914,68 L34.3764648,68 L34.3764648,58.0419922 L30.9399414,58.0419922 L30.9399414,62.4013672 C30.9399414,63.5087891 30.8139648,64.2954102 30.5620117,64.7612305 C30.3100586,65.2270508 29.8881836,65.4599609 29.2963867,65.4599609 C28.8745117,65.4599609 28.5712891,65.2929688 28.3867188,64.9589844 C28.2021484,64.625 28.1098633,64.1328125 28.1098633,63.4824219 L28.1098633,63.4824219 L28.1098633,58.0419922 L24.6733398,58.0419922 L24.6733398,64.5283203 C24.6733398,65.6884766 24.9780273,66.5864258 25.5874023,67.222168 C26.1967773,67.8579102 27.0493164,68.1757812 28.1450195,68.1757812 Z M40.1860352,68 L40.1860352,63.1044922 C40.1860352,62.4599609 40.355957,61.9663086 40.6958008,61.6235352 C41.0356445,61.2807617 41.5805664,61.109375 42.3305664,61.109375 C42.8286133,61.109375 43.2182617,61.1445312 43.4995117,61.2148438 L43.4995117,61.2148438 L43.8071289,57.9716797 L43.6137695,57.9365234 C43.3442383,57.8896484 43.0600586,57.8662109 42.7612305,57.8662109 C42.2397461,57.8662109 41.7226562,58.0288086 41.2099609,58.3540039 C40.6972656,58.6791992 40.2973633,59.1054688 40.0102539,59.6328125 L40.0102539,59.6328125 L39.8432617,59.6328125 L39.3071289,58.0419922 L36.7495117,58.0419922 L36.7495117,68 L40.1860352,68 Z M53.3432617,68.1757812 C54.7026367,68.1757812 55.7456055,67.9033203 56.472168,67.3583984 C57.1987305,66.8134766 57.5620117,66.0078125 57.5620117,64.9414062 C57.5620117,64.4082031 57.4814453,63.9555664 57.3203125,63.5834961 C57.1591797,63.2114258 56.9072266,62.8876953 56.5644531,62.6123047 C56.2216797,62.3369141 55.7016602,62.0556641 55.0043945,61.7685547 C54.0668945,61.3994141 53.5,61.1547852 53.3037109,61.034668 C53.1074219,60.9145508 53.0092773,60.7695312 53.0092773,60.5996094 C53.0092773,60.3242188 53.2905273,60.1865234 53.8530273,60.1865234 C54.175293,60.1865234 54.5913086,60.2583008 55.1010742,60.4018555 C55.6108398,60.5454102 56.0942383,60.7197266 56.5512695,60.9248047 L56.5512695,60.9248047 L57.4829102,58.7099609 C56.8618164,58.4345703 56.2626953,58.2250977 55.6855469,58.081543 C55.1083984,57.9379883 54.4916992,57.8662109 53.8354492,57.8662109 C52.5288086,57.8662109 51.5180664,58.1240234 50.8032227,58.6396484 C50.0883789,59.1552734 49.730957,59.8759766 49.730957,60.8017578 C49.730957,61.5341797 49.9125977,62.1391602 50.2758789,62.6166992 C50.6391602,63.0942383 51.277832,63.5205078 52.1918945,63.8955078 C53.1938477,64.2939453 53.7988281,64.5620117 54.0068359,64.699707 C54.2148438,64.8374023 54.3188477,64.9941406 54.3188477,65.1699219 C54.3188477,65.5097656 53.9467773,65.6796875 53.2026367,65.6796875 C52.7045898,65.6796875 52.1376953,65.6035156 51.5019531,65.4511719 C50.8662109,65.2988281 50.2817383,65.1054688 49.7485352,64.8710938 L49.7485352,64.8710938 L49.7485352,67.6220703 C50.3168945,67.8330078 50.8735352,67.9780273 51.418457,68.0571289 C51.9633789,68.1362305 52.6049805,68.1757812 53.3432617,68.1757812 Z M64.2768555,68.1757812 C65.0737305,68.1757812 65.7592773,68.1230469 66.3334961,68.0175781 C66.9077148,67.9121094 67.4643555,67.7216797 68.003418,67.4462891 L68.003418,67.4462891 L68.003418,64.9765625 C67.4116211,65.2519531 66.8623047,65.4467773 66.3554688,65.5610352 C65.8486328,65.675293 65.293457,65.7324219 64.6899414,65.7324219 C64.027832,65.7324219 63.5048828,65.5742188 63.1210938,65.2578125 C62.7373047,64.9414062 62.5336914,64.5048828 62.5102539,63.9482422 L62.5102539,63.9482422 L68.6538086,63.9482422 L68.6538086,62.4189453 C68.6538086,60.9482422 68.2451172,59.8217773 67.4277344,59.0395508 C66.6103516,58.2573242 65.4516602,57.8662109 63.9516602,57.8662109 C62.3754883,57.8662109 61.1625977,58.315918 60.3129883,59.215332 C59.4633789,60.1147461 59.0385742,61.4052734 59.0385742,63.0869141 C59.0385742,64.7158203 59.4970703,65.9711914 60.4140625,66.8530273 C61.3310547,67.7348633 62.6186523,68.1757812 64.2768555,68.1757812 Z M65.5336914,61.7861328 L62.5805664,61.7861328 C62.6274414,61.2412109 62.7871094,60.8413086 63.0595703,60.5864258 C63.3320312,60.331543 63.6704102,60.2041016 64.074707,60.2041016 C64.5141602,60.2041016 64.8642578,60.3476562 65.125,60.6347656 C65.3857422,60.921875 65.5219727,61.3056641 65.5336914,61.7861328 L65.5336914,61.7861328 Z M74.0327148,68 L74.0327148,63.1044922 C74.0327148,62.4599609 74.2026367,61.9663086 74.5424805,61.6235352 C74.8823242,61.2807617 75.4272461,61.109375 76.1772461,61.109375 C76.675293,61.109375 77.0649414,61.1445312 77.3461914,61.2148438 L77.3461914,61.2148438 L77.6538086,57.9716797 L77.4604492,57.9365234 C77.190918,57.8896484 76.9067383,57.8662109 76.6079102,57.8662109 C76.0864258,57.8662109 75.5693359,58.0288086 75.0566406,58.3540039 C74.5439453,58.6791992 74.144043,59.1054688 73.8569336,59.6328125 L73.8569336,59.6328125 L73.6899414,59.6328125 L73.1538086,58.0419922 L70.5961914,58.0419922 L70.5961914,68 L74.0327148,68 Z M85.0541992,68 L88.8510742,58.0419922 L85.2739258,58.0419922 L83.5073242,63.9482422 C83.4018555,64.3056641 83.3491211,64.6367188 83.3491211,64.9414062 L83.3491211,64.9414062 L83.2875977,64.9414062 C83.2875977,64.8476562 83.2802734,64.746582 83.265625,64.6381836 C83.2509766,64.5297852 83.2348633,64.4272461 83.2172852,64.3305664 C83.199707,64.2338867 83.1821289,64.1503906 83.1645508,64.0800781 C83.1469727,64.0097656 83.1352539,63.9599609 83.1293945,63.9306641 L83.1293945,63.9306641 L81.4418945,58.0419922 L77.855957,58.0419922 L81.652832,68 L85.0541992,68 Z M94.8452148,68.1757812 C95.6420898,68.1757812 96.3276367,68.1230469 96.9018555,68.0175781 C97.4760742,67.9121094 98.0327148,67.7216797 98.5717773,67.4462891 L98.5717773,67.4462891 L98.5717773,64.9765625 C97.9799805,65.2519531 97.4306641,65.4467773 96.9238281,65.5610352 C96.4169922,65.675293 95.8618164,65.7324219 95.2583008,65.7324219 C94.5961914,65.7324219 94.0732422,65.5742188 93.6894531,65.2578125 C93.3056641,64.9414062 93.1020508,64.5048828 93.0786133,63.9482422 L93.0786133,63.9482422 L99.222168,63.9482422 L99.222168,62.4189453 C99.222168,60.9482422 98.8134766,59.8217773 97.9960938,59.0395508 C97.1787109,58.2573242 96.0200195,57.8662109 94.5200195,57.8662109 C92.9438477,57.8662109 91.730957,58.315918 90.8813477,59.215332 C90.0317383,60.1147461 89.6069336,61.4052734 89.6069336,63.0869141 C89.6069336,64.7158203 90.0654297,65.9711914 90.9824219,66.8530273 C91.8994141,67.7348633 93.1870117,68.1757812 94.8452148,68.1757812 Z M96.1020508,61.7861328 L93.1489258,61.7861328 C93.1958008,61.2412109 93.3554688,60.8413086 93.6279297,60.5864258 C93.9003906,60.331543 94.2387695,60.2041016 94.6430664,60.2041016 C95.0825195,60.2041016 95.4326172,60.3476562 95.6933594,60.6347656 C95.9541016,60.921875 96.090332,61.3056641 96.1020508,61.7861328 L96.1020508,61.7861328 Z M104.601074,68 L104.601074,63.1044922 C104.601074,62.4599609 104.770996,61.9663086 105.11084,61.6235352 C105.450684,61.2807617 105.995605,61.109375 106.745605,61.109375 C107.243652,61.109375 107.633301,61.1445312 107.914551,61.2148438 L107.914551,61.2148438 L108.222168,57.9716797 L108.028809,57.9365234 C107.759277,57.8896484 107.475098,57.8662109 107.17627,57.8662109 C106.654785,57.8662109 106.137695,58.0288086 105.625,58.3540039 C105.112305,58.6791992 104.712402,59.1054688 104.425293,59.6328125 L104.425293,59.6328125 L104.258301,59.6328125 L103.722168,58.0419922 L101.164551,58.0419922 L101.164551,68 L104.601074,68 Z M113.08252,68.1757812 C114.441895,68.1757812 115.484863,67.9033203 116.211426,67.3583984 C116.937988,66.8134766 117.30127,66.0078125 117.30127,64.9414062 C117.30127,64.4082031 117.220703,63.9555664 117.05957,63.5834961 C116.898438,63.2114258 116.646484,62.8876953 116.303711,62.6123047 C115.960938,62.3369141 115.440918,62.0556641 114.743652,61.7685547 C113.806152,61.3994141 113.239258,61.1547852 113.042969,61.034668 C112.84668,60.9145508 112.748535,60.7695312 112.748535,60.5996094 C112.748535,60.3242188 113.029785,60.1865234 113.592285,60.1865234 C113.914551,60.1865234 114.330566,60.2583008 114.840332,60.4018555 C115.350098,60.5454102 115.833496,60.7197266 116.290527,60.9248047 L116.290527,60.9248047 L117.222168,58.7099609 C116.601074,58.4345703 116.001953,58.2250977 115.424805,58.081543 C114.847656,57.9379883 114.230957,57.8662109 113.574707,57.8662109 C112.268066,57.8662109 111.257324,58.1240234 110.54248,58.6396484 C109.827637,59.1552734 109.470215,59.8759766 109.470215,60.8017578 C109.470215,61.5341797 109.651855,62.1391602 110.015137,62.6166992 C110.378418,63.0942383 111.01709,63.5205078 111.931152,63.8955078 C112.933105,64.2939453 113.538086,64.5620117 113.746094,64.699707 C113.954102,64.8374023 114.058105,64.9941406 114.058105,65.1699219 C114.058105,65.5097656 113.686035,65.6796875 112.941895,65.6796875 C112.443848,65.6796875 111.876953,65.6035156 111.241211,65.4511719 C110.605469,65.2988281 110.020996,65.1054688 109.487793,64.8710938 L109.487793,64.8710938 L109.487793,67.6220703 C110.056152,67.8330078 110.612793,67.9780273 111.157715,68.0571289 C111.702637,68.1362305 112.344238,68.1757812 113.08252,68.1757812 Z" id="Yourservers" fill="#547580" fill-rule="nonzero"></path>
                <path d="M269.540527,68 L273.750488,55.1503906 L269.865723,55.1503906 L268.081543,61.6982422 C267.987793,62.0498047 267.879395,62.5332031 267.756348,63.1484375 C267.633301,63.7636719 267.55127,64.2763672 267.510254,64.6865234 C267.475098,64.1181641 267.275879,63.1103516 266.912598,61.6630859 L266.912598,61.6630859 L265.163574,55.1503906 L261.26123,55.1503906 L265.453613,68 L269.540527,68 Z M277.063965,68.1757812 C277.825684,68.1757812 278.446777,68.0703125 278.927246,67.859375 C279.407715,67.6484375 279.879395,67.2558594 280.342285,66.6816406 L280.342285,66.6816406 L280.412598,66.6816406 L281.071777,68 L283.453613,68 L283.453613,61.4697266 C283.453613,60.3330078 283.103516,59.4482422 282.40332,58.8154297 C281.703125,58.1826172 280.714355,57.8662109 279.437012,57.8662109 C277.66748,57.8662109 276.202637,58.1650391 275.04248,58.7626953 L275.04248,58.7626953 L276.035645,61.0302734 C277.154785,60.5380859 278.077637,60.2919922 278.804199,60.2919922 C279.612793,60.2919922 280.01709,60.7021484 280.01709,61.5224609 L280.01709,61.5224609 L280.01709,61.6630859 L278.355957,61.7158203 C276.955566,61.7802734 275.88623,62.0717773 275.147949,62.590332 C274.409668,63.1088867 274.040527,63.8984375 274.040527,64.9589844 C274.040527,65.9785156 274.310059,66.7695312 274.849121,67.3320312 C275.388184,67.8945312 276.126465,68.1757812 277.063965,68.1757812 Z M278.522949,65.75 C277.872559,65.75 277.547363,65.4453125 277.547363,64.8359375 C277.547363,64.0449219 278.112793,63.6289062 279.243652,63.5878906 L279.243652,63.5878906 L280.034668,63.5527344 L280.034668,64.3261719 C280.034668,64.7480469 279.886719,65.0908203 279.59082,65.3544922 C279.294922,65.6181641 278.938965,65.75 278.522949,65.75 Z M289.245605,68.1757812 C289.937012,68.1757812 290.539062,68.0541992 291.051758,67.8110352 C291.564453,67.5678711 291.964355,67.2177734 292.251465,66.7607422 L292.251465,66.7607422 L292.453613,66.7607422 L292.884277,68 L295.477051,68 L295.477051,58.0419922 L292.040527,58.0419922 L292.040527,62.4013672 C292.040527,63.5087891 291.914551,64.2954102 291.662598,64.7612305 C291.410645,65.2270508 290.98877,65.4599609 290.396973,65.4599609 C289.975098,65.4599609 289.671875,65.2929688 289.487305,64.9589844 C289.302734,64.625 289.210449,64.1328125 289.210449,63.4824219 L289.210449,63.4824219 L289.210449,58.0419922 L285.773926,58.0419922 L285.773926,64.5283203 C285.773926,65.6884766 286.078613,66.5864258 286.687988,67.222168 C287.297363,67.8579102 288.149902,68.1757812 289.245605,68.1757812 Z M301.286621,68 L301.286621,54.3242188 L297.850098,54.3242188 L297.850098,68 L301.286621,68 Z M307.412598,68.1757812 C307.975098,68.1757812 308.46582,68.1333008 308.884766,68.0483398 C309.303711,67.9633789 309.744629,67.8212891 310.20752,67.6220703 L310.20752,67.6220703 L310.20752,65.1171875 C309.562988,65.3457031 309.009277,65.4599609 308.546387,65.4599609 C307.925293,65.4599609 307.614746,65.1376953 307.614746,64.4931641 L307.614746,64.4931641 L307.614746,60.6171875 L310.058105,60.6171875 L310.058105,58.0419922 L307.614746,58.0419922 L307.614746,56.046875 L305.364746,56.046875 L304.477051,58.1386719 L302.947754,59.2197266 L302.947754,60.6171875 L304.151855,60.6171875 L304.151855,64.7216797 C304.151855,65.8935547 304.406738,66.762207 304.916504,67.3276367 C305.42627,67.8930664 306.258301,68.1757812 307.412598,68.1757812 Z M313.063965,72.3242188 C314.247559,72.3242188 315.207031,72.0458984 315.942383,71.4892578 C316.677734,70.9326172 317.297363,69.9804688 317.80127,68.6328125 L317.80127,68.6328125 L321.73877,58.0419922 L318.231934,58.0419922 L316.500488,63.7724609 C316.406738,64.0771484 316.336426,64.4316406 316.289551,64.8359375 L316.289551,64.8359375 L316.219238,64.8359375 C316.189941,64.4140625 316.134277,64.0537109 316.052246,63.7548828 L316.052246,63.7548828 L314.364746,58.0419922 L310.743652,58.0419922 L314.663574,67.859375 C314.470215,68.3457031 314.288574,68.6958008 314.118652,68.909668 C313.94873,69.1235352 313.749512,69.2890625 313.520996,69.40625 C313.29248,69.5234375 313.025879,69.5820312 312.721191,69.5820312 C312.322754,69.5820312 311.968262,69.546875 311.657715,69.4765625 L311.657715,69.4765625 L311.657715,72.1748047 C312.138184,72.2744141 312.606934,72.3242188 313.063965,72.3242188 Z" id="Vaulty" fill="#547580" fill-rule="nonzero"></path>
                <path d="M598.214844,68.15625 C599.69401,68.15625 600.832031,67.8502604 601.628906,67.2382812 C602.425781,66.6263021 602.824219,65.7708333 602.824219,64.671875 C602.824219,63.9166667 602.58724,63.3164062 602.113281,62.8710938 C601.639323,62.4257812 600.941406,62.1458333 600.019531,62.03125 L600.019531,62.03125 L600.019531,61.984375 C600.800781,61.796875 601.407552,61.453125 601.839844,60.953125 C602.272135,60.453125 602.488281,59.8463542 602.488281,59.1328125 C602.488281,58.2786458 602.145833,57.6119792 601.460938,57.1328125 C600.776042,56.6536458 599.842448,56.4140625 598.660156,56.4140625 C597.217448,56.4140625 595.97526,56.7890625 594.933594,57.5390625 L594.933594,57.5390625 L596.050781,59.203125 C596.52474,58.8958333 596.955729,58.6796875 597.34375,58.5546875 C597.731771,58.4296875 598.113281,58.3671875 598.488281,58.3671875 C599.571615,58.3671875 600.113281,58.7994792 600.113281,59.6640625 C600.113281,60.2265625 599.908854,60.6236979 599.5,60.8554688 C599.091146,61.0872396 598.44401,61.203125 597.558594,61.203125 L597.558594,61.203125 L596.675781,61.203125 L596.675781,63.0546875 L597.542969,63.0546875 C598.501302,63.0546875 599.199219,63.1666667 599.636719,63.390625 C600.074219,63.6145833 600.292969,63.9947917 600.292969,64.53125 C600.292969,65.1302083 600.102865,65.5651042 599.722656,65.8359375 C599.342448,66.1067708 598.753906,66.2421875 597.957031,66.2421875 C597.436198,66.2421875 596.910156,66.171875 596.378906,66.03125 C595.847656,65.890625 595.360677,65.7083333 594.917969,65.484375 L594.917969,65.484375 L594.917969,67.5390625 C595.876302,67.9505208 596.97526,68.15625 598.214844,68.15625 Z M607.074219,68 L607.074219,63.5546875 C607.074219,62.8515625 607.286458,62.3046875 607.710938,61.9140625 C608.135417,61.5234375 608.727865,61.328125 609.488281,61.328125 C609.764323,61.328125 609.998698,61.3541667 610.191406,61.40625 L610.191406,61.40625 L610.371094,59.171875 C610.157552,59.125 609.889323,59.1015625 609.566406,59.1015625 C609.02474,59.1015625 608.523438,59.2513021 608.0625,59.5507812 C607.601562,59.8502604 607.235677,60.2447917 606.964844,60.734375 L606.964844,60.734375 L606.847656,60.734375 L606.496094,59.265625 L604.691406,59.265625 L604.691406,68 L607.074219,68 Z M614.402344,68.15625 C615.511719,68.15625 616.33724,67.7265625 616.878906,66.8671875 L616.878906,66.8671875 L616.980469,66.8671875 L617.441406,68 L619.269531,68 L619.269531,55.84375 L616.878906,55.84375 L616.878906,58.640625 C616.878906,59.1510417 616.938802,59.7317708 617.058594,60.3828125 L617.058594,60.3828125 L616.980469,60.3828125 C616.402344,59.5286458 615.563802,59.1015625 614.464844,59.1015625 C613.417969,59.1015625 612.596354,59.5013021 612,60.3007812 C611.403646,61.1002604 611.105469,62.2161458 611.105469,63.6484375 C611.105469,65.0598958 611.398438,66.1640625 611.984375,66.9609375 C612.570312,67.7578125 613.376302,68.15625 614.402344,68.15625 Z M615.238281,66.2578125 C614.686198,66.2578125 614.261719,66.0429688 613.964844,65.6132812 C613.667969,65.1835938 613.519531,64.5390625 613.519531,63.6796875 C613.519531,62.8203125 613.666667,62.1653646 613.960938,61.7148438 C614.255208,61.2643229 614.667969,61.0390625 615.199219,61.0390625 C615.85026,61.0390625 616.320312,61.2421875 616.609375,61.6484375 C616.898438,62.0546875 617.042969,62.7265625 617.042969,63.6640625 L617.042969,63.6640625 L617.042969,63.921875 C617.016927,64.7708333 616.861979,65.3723958 616.578125,65.7265625 C616.294271,66.0807292 615.847656,66.2578125 615.238281,66.2578125 Z M628.527344,68 L628.527344,63.9375 L629.566406,63.9375 C630.983073,63.9375 632.075521,63.6119792 632.84375,62.9609375 C633.611979,62.3098958 633.996094,61.3697917 633.996094,60.140625 C633.996094,58.9583333 633.635417,58.0690104 632.914062,57.4726562 C632.192708,56.8763021 631.139323,56.578125 629.753906,56.578125 L629.753906,56.578125 L626.105469,56.578125 L626.105469,68 L628.527344,68 Z M629.324219,61.953125 L628.527344,61.953125 L628.527344,58.5625 L629.628906,58.5625 C630.290365,58.5625 630.776042,58.6979167 631.085938,58.96875 C631.395833,59.2395833 631.550781,59.6588542 631.550781,60.2265625 C631.550781,60.7890625 631.365885,61.2174479 630.996094,61.5117188 C630.626302,61.8059896 630.06901,61.953125 629.324219,61.953125 L629.324219,61.953125 Z M638.089844,68.15625 C638.772135,68.15625 639.325521,68.0585938 639.75,67.8632812 C640.174479,67.6679688 640.58724,67.3177083 640.988281,66.8125 L640.988281,66.8125 L641.050781,66.8125 L641.511719,68 L643.175781,68 L643.175781,62.1796875 C643.175781,61.1380208 642.863281,60.3619792 642.238281,59.8515625 C641.613281,59.3411458 640.714844,59.0859375 639.542969,59.0859375 C638.31901,59.0859375 637.204427,59.3489583 636.199219,59.875 L636.199219,59.875 L636.988281,61.484375 C637.93099,61.0625 638.751302,60.8515625 639.449219,60.8515625 C640.355469,60.8515625 640.808594,61.2942708 640.808594,62.1796875 L640.808594,62.1796875 L640.808594,62.5625 L639.292969,62.609375 C637.985677,62.65625 637.007812,62.8997396 636.359375,63.3398438 C635.710938,63.7799479 635.386719,64.4635417 635.386719,65.390625 C635.386719,66.2760417 635.627604,66.9583333 636.109375,67.4375 C636.591146,67.9166667 637.251302,68.15625 638.089844,68.15625 Z M638.988281,66.4140625 C638.217448,66.4140625 637.832031,66.078125 637.832031,65.40625 C637.832031,64.9375 638.001302,64.5885417 638.339844,64.359375 C638.678385,64.1302083 639.19401,64.0052083 639.886719,63.984375 L639.886719,63.984375 L640.808594,63.953125 L640.808594,64.671875 C640.808594,65.1979167 640.643229,65.6197917 640.3125,65.9375 C639.981771,66.2552083 639.540365,66.4140625 638.988281,66.4140625 Z M648.011719,68 L648.011719,63.5546875 C648.011719,62.8515625 648.223958,62.3046875 648.648438,61.9140625 C649.072917,61.5234375 649.665365,61.328125 650.425781,61.328125 C650.701823,61.328125 650.936198,61.3541667 651.128906,61.40625 L651.128906,61.40625 L651.308594,59.171875 C651.095052,59.125 650.826823,59.1015625 650.503906,59.1015625 C649.96224,59.1015625 649.460938,59.2513021 649,59.5507812 C648.539062,59.8502604 648.173177,60.2447917 647.902344,60.734375 L647.902344,60.734375 L647.785156,60.734375 L647.433594,59.265625 L645.628906,59.265625 L645.628906,68 L648.011719,68 Z M655.886719,68.15625 C656.751302,68.15625 657.480469,68.0234375 658.074219,67.7578125 L658.074219,67.7578125 L658.074219,65.984375 C657.490885,66.1666667 656.990885,66.2578125 656.574219,66.2578125 C656.261719,66.2578125 656.010417,66.1770833 655.820312,66.015625 C655.630208,65.8541667 655.535156,65.6041667 655.535156,65.265625 L655.535156,65.265625 L655.535156,61.0546875 L657.980469,61.0546875 L657.980469,59.265625 L655.535156,59.265625 L655.535156,57.40625 L654.011719,57.40625 L653.324219,59.25 L652.011719,60.046875 L652.011719,61.0546875 L653.152344,61.0546875 L653.152344,65.265625 C653.152344,66.2291667 653.369792,66.9518229 653.804688,67.4335938 C654.239583,67.9153646 654.933594,68.15625 655.886719,68.15625 Z M660.347656,71.84375 C661.186198,71.84375 661.919271,71.6171875 662.546875,71.1640625 C663.174479,70.7109375 663.657552,70.0286458 663.996094,69.1171875 L663.996094,69.1171875 L667.691406,59.265625 L665.136719,59.265625 L663.519531,64.1796875 C663.352865,64.6536458 663.240885,65.1588542 663.183594,65.6953125 L663.183594,65.6953125 L663.136719,65.6953125 C663.084635,65.1119792 662.988281,64.6067708 662.847656,64.1796875 L662.847656,64.1796875 L661.199219,59.265625 L658.589844,59.265625 L662.058594,67.9375 L661.917969,68.3671875 C661.740885,68.8880208 661.494792,69.2773438 661.179688,69.5351562 C660.864583,69.7929688 660.496094,69.921875 660.074219,69.921875 C659.735677,69.921875 659.423177,69.8880208 659.136719,69.8203125 L659.136719,69.8203125 L659.136719,71.7109375 C659.532552,71.7994792 659.936198,71.84375 660.347656,71.84375 Z" id="3rdParty" fill="#547580" fill-rule="nonzero"></path>
            </g>
            <rect id="Rectangle-Copy-11" stroke="#E0EAEC" x="0" y="20" width="392" height="324" rx="8"></rect>
        </g>
    </g>
</svg>