<?xml version="1.0" encoding="UTF-8"?>
<svg width="838px" height="345px" viewBox="0 0 838 345" version="1.1" xmlns="http://www.w3.org/2000/svg" xmlns:xlink="http://www.w3.org/1999/xlink">
    <!-- Generator: Sketch 60 (88103) - https://sketch.com -->
    <title>Group 11 Copy</title>
    <desc>Created with Sketch.</desc>
    <defs>
        <rect id="path-1" x="0" y="0.5" width="316" height="56" rx="8"></rect>
        <filter x="-2.4%" y="-9.8%" width="104.7%" height="126.8%" filterUnits="objectBoundingBox" id="filter-2">
            <feMorphology radius="0.5" operator="dilate" in="SourceAlpha" result="shadowSpreadOuter1"></feMorphology>
            <feOffset dx="0" dy="2" in="shadowSpreadOuter1" result="shadowOffsetOuter1"></feOffset>
            <feGaussianBlur stdDeviation="2" in="shadowOffsetOuter1" result="shadowBlurOuter1"></feGaussianBlur>
            <feComposite in="shadowBlurOuter1" in2="SourceAlpha" operator="out" result="shadowBlurOuter1"></feComposite>
            <feColorMatrix values="0 0 0 0 0.904894685   0 0 0 0 0.91899977   0 0 0 0 0.922526042  0 0 0 1 0" type="matrix" in="shadowBlurOuter1"></feColorMatrix>
        </filter>
        <polygon id="path-3" points="0 0 88.3152709 0 108 20 88.3152709 40 0 40"></polygon>
        <filter x="-6.9%" y="-13.8%" width="114.1%" height="137.5%" filterUnits="objectBoundingBox" id="filter-4">
            <feMorphology radius="0.5" operator="dilate" in="SourceAlpha" result="shadowSpreadOuter1"></feMorphology>
            <feOffset dx="0" dy="2" in="shadowSpreadOuter1" result="shadowOffsetOuter1"></feOffset>
            <feGaussianBlur stdDeviation="2" in="shadowOffsetOuter1" result="shadowBlurOuter1"></feGaussianBlur>
            <feComposite in="shadowBlurOuter1" in2="SourceAlpha" operator="out" result="shadowBlurOuter1"></feComposite>
            <feColorMatrix values="0 0 0 0 0.905882353   0 0 0 0 0.917647059   0 0 0 0 0.921568627  0 0 0 1 0" type="matrix" in="shadowBlurOuter1"></feColorMatrix>
        </filter>
        <polygon id="path-5" points="0 0 58.8768473 0 72 20 58.8768473 40 0 40"></polygon>
        <filter x="-10.4%" y="-13.8%" width="121.0%" height="137.5%" filterUnits="objectBoundingBox" id="filter-6">
            <feMorphology radius="0.5" operator="dilate" in="SourceAlpha" result="shadowSpreadOuter1"></feMorphology>
            <feOffset dx="0" dy="2" in="shadowSpreadOuter1" result="shadowOffsetOuter1"></feOffset>
            <feGaussianBlur stdDeviation="2" in="shadowOffsetOuter1" result="shadowBlurOuter1"></feGaussianBlur>
            <feComposite in="shadowBlurOuter1" in2="SourceAlpha" operator="out" result="shadowBlurOuter1"></feComposite>
            <feColorMatrix values="0 0 0 0 0.905882353   0 0 0 0 0.917647059   0 0 0 0 0.921568627  0 0 0 1 0" type="matrix" in="shadowBlurOuter1"></feColorMatrix>
        </filter>
    </defs>
    <g id="Page-1" stroke="none" stroke-width="1" fill="none" fill-rule="evenodd">
        <g id="Group-11-Copy" transform="translate(5.000000, -4.000000)">
            <g id="with-vaulty">
                <g id="servers" transform="translate(713.000000, 148.000000)">
                    <g id="srvs-left">
                        <g id="srv-light" transform="translate(0.000000, 38.000000)">
                            <path d="M8.80645161,0 L82.1935484,0 C87.0572173,0 91,3.92611835 91,8.76923077 L91,29.2307692 C91,34.0738817 87.0572173,38 82.1935484,38 L8.80645161,38 C3.94278269,38 0,34.0738817 0,29.2307692 L0,8.76923077 C0,3.92611835 3.94278269,0 8.80645161,0 Z" id="Rectangle" fill="#547580"></path>
                            <ellipse id="Oval-Copy" fill="#FFFFFF" fill-rule="nonzero" cx="74.8548387" cy="19" rx="4.40322581" ry="4.38461538"></ellipse>
                            <rect id="Rectangle-Copy-6" fill="#6DFF53" x="11.7419355" y="14.6153846" width="29.3548387" height="8.76923077" rx="3"></rect>
                        </g>
                        <g id="srv-dark">
                            <rect id="Rectangle-Copy-5" fill="#3F5C6C" x="0" y="0" width="91" height="38" rx="3"></rect>
                            <ellipse id="Oval" fill="#FFFFFF" fill-rule="nonzero" cx="74.8548387" cy="19" rx="4.40322581" ry="4.38461538"></ellipse>
                            <rect id="Rectangle-Copy-7" fill="#6DFF53" x="11.7419355" y="14.6153846" width="29.3548387" height="8.76923077" rx="3"></rect>
                        </g>
                        <g id="srv-dark-copy" transform="translate(0.000000, 76.000000)">
                            <rect id="Rectangle-Copy-5" fill="#3F5C6C" x="0" y="0" width="91" height="38" rx="3"></rect>
                            <ellipse id="Oval" fill="#FFFFFF" fill-rule="nonzero" cx="74.8548387" cy="19" rx="4.40322581" ry="4.38461538"></ellipse>
                            <rect id="Rectangle-Copy-8" fill="#6DFF53" x="11.7419355" y="14.6153846" width="29.3548387" height="8.76923077" rx="3"></rect>
                        </g>
                    </g>
                </g>
                <g id="browser" transform="translate(0.000000, 59.000000)">
                    <g id="collect-without-sdk-copy" transform="translate(0.000000, 67.000000)">
                        <rect id="Rectangle" stroke="#E0EAEC" fill="#FFFFFF" x="41" y="0" width="234" height="154" rx="8"></rect>
                        <rect id="fld1" stroke="#E0EAEC" fill="#FFFFFF" x="48" y="16" width="221" height="20" rx="4"></rect>
                        <rect id="fld1-copy-4" stroke="#86ABB8" stroke-width="2" fill="#547580" x="114" y="170" width="89" height="20" rx="4"></rect>
                        <rect id="fld3" stroke="#E0EAEC" fill="#FFFFFF" x="48" y="116" width="221" height="20" rx="4"></rect>
                        <g id="Group-3" transform="translate(120.500000, 169.500000)"></g>
                        <g id="secure-field" transform="translate(0.000000, 46.000000)">
                            <g id="Rectangle-Copy">
                                <use fill="black" fill-opacity="1" filter="url(#filter-2)" xlink:href="#path-1"></use>
                                <use stroke="#CCD9DD" stroke-width="1" fill="#FFFFFF" fill-rule="evenodd" xlink:href="#path-1"></use>
                            </g>
                            <rect id="fld2" stroke="#CCD9DD" fill="#FFFFFF" x="30" y="17.5" width="271" height="25" rx="4"></rect>
                            <g id="shield" transform="translate(8.000000, 20.500000)" fill-rule="nonzero">
                                <path d="M14.2076589,12.0202757 C13.7342135,13.3314947 13.0181995,14.4716015 12.0792374,15.4085985 C11.0104575,16.4750968 9.61095111,17.3225552 7.91955619,17.9270782 C7.86405436,17.9468536 7.80613355,17.9630585 7.74794398,17.9750061 C7.67107457,17.9905243 7.59286135,17.9989014 7.51532005,18 L7.50013429,18 C7.41748631,18 7.33443511,17.9914856 7.25205588,17.9750061 C7.19386632,17.9630585 7.13675181,17.9468536 7.08151877,17.9274902 C5.38810803,17.3239285 3.98685464,16.4768821 2.91699961,15.4103838 C1.97763441,14.4733868 1.26175478,13.3339666 0.788981285,12.0227477 C-0.0706924616,9.6387132 -0.0217755546,7.01243006 0.0175998316,4.9019553 L0.0182717581,4.86954561 C0.0262006004,4.6952749 0.0313072897,4.51221508 0.0341294428,4.31006653 C0.0485088273,3.31758861 0.82069662,2.49649747 1.79204595,2.4411538 C3.81725822,2.32565998 5.38394203,1.65068707 6.72257105,0.317358122 L6.73426273,0.306371788 C6.95653883,0.0980434035 7.23660137,-0.00412950264 7.51532005,0 C7.78409408,0.0036982867 8.05179301,0.105733837 8.2661403,0.306371788 L8.27756319,0.317358122 C9.61646101,1.65068707 11.1831448,2.32565998 13.2083571,2.4411538 C14.1797064,2.49649747 14.9518942,3.31758861 14.9662736,4.31006653 C14.9690957,4.51358839 14.9742024,4.69637353 14.9821312,4.86954561 L14.9825344,4.88327853 C15.0217754,6.99773583 15.0704235,9.62923749 14.2076589,12.0202757 Z" id="Path" fill="#00DD80"></path>
                                <path d="M14.2589679,12.0202333 C13.8161811,13.3314616 13.1465335,14.4715765 12.2683751,15.4085801 C11.2688054,16.475086 9.95992581,17.3225504 8.37805931,17.9270777 C8.32615157,17.9468532 8.2719815,17.9630582 8.21756007,17.9750059 C8.14566844,17.9905242 8.07252001,17.9989014 8,18 L8,0 C8.25136922,0.00357059267 8.50173297,0.105606867 8.70219993,0.306246242 L8.71288312,0.317232654 C9.96507891,1.65057106 11.4303101,2.32554876 13.3243772,2.4410434 C14.2328255,2.49638746 14.9550093,3.31748443 14.9684576,4.3099694 C14.971097,4.5134927 14.975873,4.69627913 14.9832884,4.86945244 L14.9836654,4.88318546 C15.0203653,6.99765776 15.0658632,9.6291781 14.2589679,12.0202333 Z" id="Path" fill="#00AA63"></path>
                                <path d="M12,8.49993111 C12,10.9758162 9.98972955,12.9911836 7.51591082,13 L7.50006889,13 C5.01894908,13 3,10.9811887 3,8.49993111 C3,6.0188113 5.01894908,4 7.50006889,4 L7.51591082,4 C9.98972955,4.00881637 12,6.02418378 12,8.49993111 Z" id="Path" fill="#FFFFFF"></path>
                                <path d="M12,8.49993111 C12,10.9758162 10.2067525,12.9911836 8,13 L8,4 C10.2067525,4.00881637 12,6.02418378 12,8.49993111 Z" id="Path" fill="#E1EBF0"></path>
                                <path d="M9.82626467,8.02645182 L7.55729488,10.3269296 L7.0670111,10.8239542 C6.95118752,10.9413702 6.79927513,11 6.64751696,11 C6.49560457,11 6.34384639,10.9413702 6.2278686,10.8239542 L5.17373533,9.75485895 C4.94208822,9.52002695 4.94208822,9.13963668 5.17373533,8.90464835 C5.40507402,8.6698164 5.78076803,8.6698164 6.01241515,8.90464835 L6.64751696,9.54848198 L8.98758482,7.17624122 C9.21923197,6.94125293 9.59492598,6.94125293 9.82626467,7.17624122 C10.0579118,7.41107322 10.0579118,7.79193253 9.82626467,8.02645182 Z" id="Path" fill="#00DF81"></path>
                            </g>
                        </g>
                        <path d="M45.8837891,83 L45.8837891,80.1962891 L47.6152344,80.1962891 L47.6152344,78.4824219 L45.8837891,78.4824219 L45.8837891,70.1152344 L43.8710938,70.1152344 L38,78.6054688 L38,80.1962891 L43.8710938,80.1962891 L43.8710938,83 L45.8837891,83 Z M43.8710938,78.4824219 L39.9248047,78.4824219 L43.1152344,73.8417969 C43.4667969,73.2910156 43.7246094,72.8222656 43.8886719,72.4355469 L43.8886719,72.4355469 L43.9589844,72.4355469 C43.9003906,73.1679688 43.8710938,74.1083984 43.8710938,75.2568359 L43.8710938,75.2568359 L43.8710938,78.4824219 Z M57.4326172,83 L57.4326172,81.1806641 L51.3330078,81.1806641 L51.3330078,81.0927734 L53.5654297,78.9306641 C54.5673828,77.9873047 55.2836914,77.2387695 55.7143555,76.6850586 C56.1450195,76.1313477 56.4643555,75.59375 56.6723633,75.0722656 C56.8803711,74.5507812 56.984375,74 56.984375,73.4199219 C56.984375,72.3652344 56.6240234,71.5258789 55.9033203,70.9018555 C55.1826172,70.277832 54.2246094,69.9658203 53.0292969,69.9658203 C52.2675781,69.9658203 51.5498047,70.0917969 50.8759766,70.34375 C50.2021484,70.5957031 49.5078125,71.0234375 48.7929688,71.6269531 L48.7929688,71.6269531 L49.9091797,72.9892578 C50.5126953,72.5146484 51.0444336,72.1865234 51.5043945,72.0048828 C51.9643555,71.8232422 52.4404297,71.7324219 52.9326172,71.7324219 C53.5478516,71.7324219 54.0297852,71.8994141 54.378418,72.2333984 C54.7270508,72.5673828 54.9013672,73.0244141 54.9013672,73.6044922 C54.9013672,74.0263672 54.828125,74.421875 54.6816406,74.7910156 C54.5351562,75.1601562 54.3022461,75.5541992 53.9829102,75.9731445 C53.6635742,76.3920898 53.0146484,77.1025391 52.0361328,78.1044922 L52.0361328,78.1044922 L48.7226562,81.4355469 L48.7226562,83 L57.4326172,83 Z M66.4326172,83 L66.4326172,80.1962891 L68.1640625,80.1962891 L68.1640625,78.4824219 L66.4326172,78.4824219 L66.4326172,70.1152344 L64.4199219,70.1152344 L58.5488281,78.6054688 L58.5488281,80.1962891 L64.4199219,80.1962891 L64.4199219,83 L66.4326172,83 Z M64.4199219,78.4824219 L60.4736328,78.4824219 L63.6640625,73.8417969 C64.015625,73.2910156 64.2734375,72.8222656 64.4375,72.4355469 L64.4375,72.4355469 L64.5078125,72.4355469 C64.4492188,73.1679688 64.4199219,74.1083984 64.4199219,75.2568359 L64.4199219,75.2568359 L64.4199219,78.4824219 Z M77.9814453,83 L77.9814453,81.1806641 L71.8818359,81.1806641 L71.8818359,81.0927734 L74.1142578,78.9306641 C75.1162109,77.9873047 75.8325195,77.2387695 76.2631836,76.6850586 C76.6938477,76.1313477 77.0131836,75.59375 77.2211914,75.0722656 C77.4291992,74.5507812 77.5332031,74 77.5332031,73.4199219 C77.5332031,72.3652344 77.1728516,71.5258789 76.4521484,70.9018555 C75.7314453,70.277832 74.7734375,69.9658203 73.578125,69.9658203 C72.8164062,69.9658203 72.0986328,70.0917969 71.4248047,70.34375 C70.7509766,70.5957031 70.0566406,71.0234375 69.3417969,71.6269531 L69.3417969,71.6269531 L70.4580078,72.9892578 C71.0615234,72.5146484 71.5932617,72.1865234 72.0532227,72.0048828 C72.5131836,71.8232422 72.9892578,71.7324219 73.4814453,71.7324219 C74.0966797,71.7324219 74.5786133,71.8994141 74.9272461,72.2333984 C75.2758789,72.5673828 75.4501953,73.0244141 75.4501953,73.6044922 C75.4501953,74.0263672 75.3769531,74.421875 75.2304688,74.7910156 C75.0839844,75.1601562 74.8510742,75.5541992 74.5317383,75.9731445 C74.2124023,76.3920898 73.5634766,77.1025391 72.5849609,78.1044922 L72.5849609,78.1044922 L69.2714844,81.4355469 L69.2714844,83 L77.9814453,83 Z M91.6572266,83 L91.6572266,80.1962891 L93.3886719,80.1962891 L93.3886719,78.4824219 L91.6572266,78.4824219 L91.6572266,70.1152344 L89.6445312,70.1152344 L83.7734375,78.6054688 L83.7734375,80.1962891 L89.6445312,80.1962891 L89.6445312,83 L91.6572266,83 Z M89.6445312,78.4824219 L85.6982422,78.4824219 L88.8886719,73.8417969 C89.2402344,73.2910156 89.4980469,72.8222656 89.6621094,72.4355469 L89.6621094,72.4355469 L89.7324219,72.4355469 C89.6738281,73.1679688 89.6445312,74.1083984 89.6445312,75.2568359 L89.6445312,75.2568359 L89.6445312,78.4824219 Z M103.206055,83 L103.206055,81.1806641 L97.1064453,81.1806641 L97.1064453,81.0927734 L99.3388672,78.9306641 C100.34082,77.9873047 101.057129,77.2387695 101.487793,76.6850586 C101.918457,76.1313477 102.237793,75.59375 102.445801,75.0722656 C102.653809,74.5507812 102.757812,74 102.757812,73.4199219 C102.757812,72.3652344 102.397461,71.5258789 101.676758,70.9018555 C100.956055,70.277832 99.9980469,69.9658203 98.8027344,69.9658203 C98.0410156,69.9658203 97.3232422,70.0917969 96.6494141,70.34375 C95.9755859,70.5957031 95.28125,71.0234375 94.5664062,71.6269531 L94.5664062,71.6269531 L95.6826172,72.9892578 C96.2861328,72.5146484 96.8178711,72.1865234 97.277832,72.0048828 C97.737793,71.8232422 98.2138672,71.7324219 98.7060547,71.7324219 C99.3212891,71.7324219 99.8032227,71.8994141 100.151855,72.2333984 C100.500488,72.5673828 100.674805,73.0244141 100.674805,73.6044922 C100.674805,74.0263672 100.601562,74.421875 100.455078,74.7910156 C100.308594,75.1601562 100.075684,75.5541992 99.7563477,75.9731445 C99.4370117,76.3920898 98.7880859,77.1025391 97.8095703,78.1044922 L97.8095703,78.1044922 L94.4960938,81.4355469 L94.4960938,83 L103.206055,83 Z M112.206055,83 L112.206055,80.1962891 L113.9375,80.1962891 L113.9375,78.4824219 L112.206055,78.4824219 L112.206055,70.1152344 L110.193359,70.1152344 L104.322266,78.6054688 L104.322266,80.1962891 L110.193359,80.1962891 L110.193359,83 L112.206055,83 Z M110.193359,78.4824219 L106.24707,78.4824219 L109.4375,73.8417969 C109.789062,73.2910156 110.046875,72.8222656 110.210938,72.4355469 L110.210938,72.4355469 L110.28125,72.4355469 C110.222656,73.1679688 110.193359,74.1083984 110.193359,75.2568359 L110.193359,75.2568359 L110.193359,78.4824219 Z M123.754883,83 L123.754883,81.1806641 L117.655273,81.1806641 L117.655273,81.0927734 L119.887695,78.9306641 C120.889648,77.9873047 121.605957,77.2387695 122.036621,76.6850586 C122.467285,76.1313477 122.786621,75.59375 122.994629,75.0722656 C123.202637,74.5507812 123.306641,74 123.306641,73.4199219 C123.306641,72.3652344 122.946289,71.5258789 122.225586,70.9018555 C121.504883,70.277832 120.546875,69.9658203 119.351562,69.9658203 C118.589844,69.9658203 117.87207,70.0917969 117.198242,70.34375 C116.524414,70.5957031 115.830078,71.0234375 115.115234,71.6269531 L115.115234,71.6269531 L116.231445,72.9892578 C116.834961,72.5146484 117.366699,72.1865234 117.82666,72.0048828 C118.286621,71.8232422 118.762695,71.7324219 119.254883,71.7324219 C119.870117,71.7324219 120.352051,71.8994141 120.700684,72.2333984 C121.049316,72.5673828 121.223633,73.0244141 121.223633,73.6044922 C121.223633,74.0263672 121.150391,74.421875 121.003906,74.7910156 C120.857422,75.1601562 120.624512,75.5541992 120.305176,75.9731445 C119.98584,76.3920898 119.336914,77.1025391 118.358398,78.1044922 L118.358398,78.1044922 L115.044922,81.4355469 L115.044922,83 L123.754883,83 Z M137.430664,83 L137.430664,80.1962891 L139.162109,80.1962891 L139.162109,78.4824219 L137.430664,78.4824219 L137.430664,70.1152344 L135.417969,70.1152344 L129.546875,78.6054688 L129.546875,80.1962891 L135.417969,80.1962891 L135.417969,83 L137.430664,83 Z M135.417969,78.4824219 L131.47168,78.4824219 L134.662109,73.8417969 C135.013672,73.2910156 135.271484,72.8222656 135.435547,72.4355469 L135.435547,72.4355469 L135.505859,72.4355469 C135.447266,73.1679688 135.417969,74.1083984 135.417969,75.2568359 L135.417969,75.2568359 L135.417969,78.4824219 Z M148.979492,83 L148.979492,81.1806641 L142.879883,81.1806641 L142.879883,81.0927734 L145.112305,78.9306641 C146.114258,77.9873047 146.830566,77.2387695 147.26123,76.6850586 C147.691895,76.1313477 148.01123,75.59375 148.219238,75.0722656 C148.427246,74.5507812 148.53125,74 148.53125,73.4199219 C148.53125,72.3652344 148.170898,71.5258789 147.450195,70.9018555 C146.729492,70.277832 145.771484,69.9658203 144.576172,69.9658203 C143.814453,69.9658203 143.09668,70.0917969 142.422852,70.34375 C141.749023,70.5957031 141.054688,71.0234375 140.339844,71.6269531 L140.339844,71.6269531 L141.456055,72.9892578 C142.05957,72.5146484 142.591309,72.1865234 143.05127,72.0048828 C143.51123,71.8232422 143.987305,71.7324219 144.479492,71.7324219 C145.094727,71.7324219 145.57666,71.8994141 145.925293,72.2333984 C146.273926,72.5673828 146.448242,73.0244141 146.448242,73.6044922 C146.448242,74.0263672 146.375,74.421875 146.228516,74.7910156 C146.082031,75.1601562 145.849121,75.5541992 145.529785,75.9731445 C145.210449,76.3920898 144.561523,77.1025391 143.583008,78.1044922 L143.583008,78.1044922 L140.269531,81.4355469 L140.269531,83 L148.979492,83 Z M157.979492,83 L157.979492,80.1962891 L159.710938,80.1962891 L159.710938,78.4824219 L157.979492,78.4824219 L157.979492,70.1152344 L155.966797,70.1152344 L150.095703,78.6054688 L150.095703,80.1962891 L155.966797,80.1962891 L155.966797,83 L157.979492,83 Z M155.966797,78.4824219 L152.020508,78.4824219 L155.210938,73.8417969 C155.5625,73.2910156 155.820312,72.8222656 155.984375,72.4355469 L155.984375,72.4355469 L156.054688,72.4355469 C155.996094,73.1679688 155.966797,74.1083984 155.966797,75.2568359 L155.966797,75.2568359 L155.966797,78.4824219 Z M169.52832,83 L169.52832,81.1806641 L163.428711,81.1806641 L163.428711,81.0927734 L165.661133,78.9306641 C166.663086,77.9873047 167.379395,77.2387695 167.810059,76.6850586 C168.240723,76.1313477 168.560059,75.59375 168.768066,75.0722656 C168.976074,74.5507812 169.080078,74 169.080078,73.4199219 C169.080078,72.3652344 168.719727,71.5258789 167.999023,70.9018555 C167.27832,70.277832 166.320312,69.9658203 165.125,69.9658203 C164.363281,69.9658203 163.645508,70.0917969 162.97168,70.34375 C162.297852,70.5957031 161.603516,71.0234375 160.888672,71.6269531 L160.888672,71.6269531 L162.004883,72.9892578 C162.608398,72.5146484 163.140137,72.1865234 163.600098,72.0048828 C164.060059,71.8232422 164.536133,71.7324219 165.02832,71.7324219 C165.643555,71.7324219 166.125488,71.8994141 166.474121,72.2333984 C166.822754,72.5673828 166.99707,73.0244141 166.99707,73.6044922 C166.99707,74.0263672 166.923828,74.421875 166.777344,74.7910156 C166.630859,75.1601562 166.397949,75.5541992 166.078613,75.9731445 C165.759277,76.3920898 165.110352,77.1025391 164.131836,78.1044922 L164.131836,78.1044922 L160.818359,81.4355469 L160.818359,83 L169.52832,83 Z M183.204102,83 L183.204102,80.1962891 L184.935547,80.1962891 L184.935547,78.4824219 L183.204102,78.4824219 L183.204102,70.1152344 L181.191406,70.1152344 L175.320312,78.6054688 L175.320312,80.1962891 L181.191406,80.1962891 L181.191406,83 L183.204102,83 Z M181.191406,78.4824219 L177.245117,78.4824219 L180.435547,73.8417969 C180.787109,73.2910156 181.044922,72.8222656 181.208984,72.4355469 L181.208984,72.4355469 L181.279297,72.4355469 C181.220703,73.1679688 181.191406,74.1083984 181.191406,75.2568359 L181.191406,75.2568359 L181.191406,78.4824219 Z M194.75293,83 L194.75293,81.1806641 L188.65332,81.1806641 L188.65332,81.0927734 L190.885742,78.9306641 C191.887695,77.9873047 192.604004,77.2387695 193.034668,76.6850586 C193.465332,76.1313477 193.784668,75.59375 193.992676,75.0722656 C194.200684,74.5507812 194.304688,74 194.304688,73.4199219 C194.304688,72.3652344 193.944336,71.5258789 193.223633,70.9018555 C192.50293,70.277832 191.544922,69.9658203 190.349609,69.9658203 C189.587891,69.9658203 188.870117,70.0917969 188.196289,70.34375 C187.522461,70.5957031 186.828125,71.0234375 186.113281,71.6269531 L186.113281,71.6269531 L187.229492,72.9892578 C187.833008,72.5146484 188.364746,72.1865234 188.824707,72.0048828 C189.284668,71.8232422 189.760742,71.7324219 190.25293,71.7324219 C190.868164,71.7324219 191.350098,71.8994141 191.69873,72.2333984 C192.047363,72.5673828 192.22168,73.0244141 192.22168,73.6044922 C192.22168,74.0263672 192.148438,74.421875 192.001953,74.7910156 C191.855469,75.1601562 191.622559,75.5541992 191.303223,75.9731445 C190.983887,76.3920898 190.334961,77.1025391 189.356445,78.1044922 L189.356445,78.1044922 L186.042969,81.4355469 L186.042969,83 L194.75293,83 Z M203.75293,83 L203.75293,80.1962891 L205.484375,80.1962891 L205.484375,78.4824219 L203.75293,78.4824219 L203.75293,70.1152344 L201.740234,70.1152344 L195.869141,78.6054688 L195.869141,80.1962891 L201.740234,80.1962891 L201.740234,83 L203.75293,83 Z M201.740234,78.4824219 L197.793945,78.4824219 L200.984375,73.8417969 C201.335938,73.2910156 201.59375,72.8222656 201.757812,72.4355469 L201.757812,72.4355469 L201.828125,72.4355469 C201.769531,73.1679688 201.740234,74.1083984 201.740234,75.2568359 L201.740234,75.2568359 L201.740234,78.4824219 Z M215.301758,83 L215.301758,81.1806641 L209.202148,81.1806641 L209.202148,81.0927734 L211.43457,78.9306641 C212.436523,77.9873047 213.152832,77.2387695 213.583496,76.6850586 C214.01416,76.1313477 214.333496,75.59375 214.541504,75.0722656 C214.749512,74.5507812 214.853516,74 214.853516,73.4199219 C214.853516,72.3652344 214.493164,71.5258789 213.772461,70.9018555 C213.051758,70.277832 212.09375,69.9658203 210.898438,69.9658203 C210.136719,69.9658203 209.418945,70.0917969 208.745117,70.34375 C208.071289,70.5957031 207.376953,71.0234375 206.662109,71.6269531 L206.662109,71.6269531 L207.77832,72.9892578 C208.381836,72.5146484 208.913574,72.1865234 209.373535,72.0048828 C209.833496,71.8232422 210.30957,71.7324219 210.801758,71.7324219 C211.416992,71.7324219 211.898926,71.8994141 212.247559,72.2333984 C212.596191,72.5673828 212.770508,73.0244141 212.770508,73.6044922 C212.770508,74.0263672 212.697266,74.421875 212.550781,74.7910156 C212.404297,75.1601562 212.171387,75.5541992 211.852051,75.9731445 C211.532715,76.3920898 210.883789,77.1025391 209.905273,78.1044922 L209.905273,78.1044922 L206.591797,81.4355469 L206.591797,83 L215.301758,83 Z" id="4242424242424242" fill="#A4B4B9" fill-rule="nonzero"></path>
                        <g id="visa-pay-logo" transform="translate(244.657227, 69.000000)" fill="#D2E2E7" fill-rule="nonzero">
                            <polygon id="Path" points="19.153 0.799 16.722 15.065 20.61 15.065 23.043 0.799"></polygon>
                            <path d="M13.462,0.815 L9.654,10.544 L9.248,9.075 C8.497,7.305 6.365,4.763 3.862,3.161 L7.344,15.058 L11.458,15.051 L17.581,0.812 L13.462,0.815 Z" id="Path"></path>
                            <path d="M7.772,1.836 C7.546,0.967 6.891,0.708 6.078,0.677 L0.05,0.677 L0,0.961 C4.691,2.099 7.795,4.841 9.083,8.138 L7.772,1.836 Z" id="Path"></path>
                            <path d="M30.923,3.534 C32.195,3.514 33.117,3.792 33.833,4.08 L34.184,4.245 L34.71,1.153 C33.94,0.864 32.733,0.554 31.227,0.554 C27.385,0.554 24.677,2.489 24.656,5.262 C24.631,7.311 26.585,8.455 28.061,9.138 C29.576,9.838 30.084,10.283 30.077,10.908 C30.065,11.863 28.869,12.301 27.752,12.301 C26.195,12.301 25.368,12.086 24.091,11.554 L23.59,11.326 L23.043,14.519 C23.953,14.918 25.632,15.261 27.375,15.279 C31.462,15.279 34.118,13.367 34.146,10.404 C34.163,8.783 33.126,7.546 30.879,6.531 C29.519,5.869 28.687,5.429 28.695,4.761 C28.695,4.168 29.401,3.534 30.923,3.534 Z" id="Path"></path>
                            <path d="M44.688,0.815 L41.684,0.815 C40.751,0.815 40.057,1.069 39.647,1.999 L33.874,15.073 L37.957,15.073 C37.957,15.073 38.623,13.315 38.774,12.93 C39.221,12.93 43.188,12.936 43.753,12.936 C43.869,13.434 44.227,15.073 44.227,15.073 L47.834,15.073 L44.688,0.815 Z M39.893,10.01 C40.213,9.191 41.442,6.023 41.442,6.023 C41.421,6.062 41.759,5.198 41.96,4.661 L42.222,5.891 C42.222,5.891 42.967,9.297 43.123,10.01 L39.893,10.01 Z" id="Shape"></path>
                        </g>
                    </g>
                    <path d="M150.902344,251 L150.902344,247.953125 L151.681641,247.953125 C152.744141,247.953125 153.563477,247.708984 154.139648,247.220703 C154.71582,246.732422 155.003906,246.027344 155.003906,245.105469 C155.003906,244.21875 154.733398,243.551758 154.192383,243.104492 C153.651367,242.657227 152.861328,242.433594 151.822266,242.433594 L151.822266,242.433594 L149.085938,242.433594 L149.085938,251 L150.902344,251 Z M151.5,246.464844 L150.902344,246.464844 L150.902344,243.921875 L151.728516,243.921875 C152.224609,243.921875 152.588867,244.023438 152.821289,244.226562 C153.053711,244.429688 153.169922,244.744141 153.169922,245.169922 C153.169922,245.591797 153.03125,245.913086 152.753906,246.133789 C152.476562,246.354492 152.058594,246.464844 151.5,246.464844 L151.5,246.464844 Z M156.902344,251 L157.523438,248.960938 L160.646484,248.960938 L161.267578,251 L163.224609,251 L160.189453,242.398438 L157.96875,242.398438 L154.945312,251 L156.902344,251 Z M160.212891,247.4375 L157.980469,247.4375 C158.589844,245.464844 158.958984,244.228516 159.087891,243.728516 C159.119141,243.869141 159.170898,244.060547 159.243164,244.302734 C159.31543,244.544922 159.638672,245.589844 160.212891,247.4375 L160.212891,247.4375 Z M167.150391,251 L167.150391,247.666016 L169.992188,242.433594 L168.035156,242.433594 L166.248047,245.960938 L164.472656,242.433594 L162.503906,242.433594 L165.345703,247.724609 L165.345703,251 L167.150391,251 Z" id="PAY" fill="#FFFFFF" fill-rule="nonzero"></path>
                    <rect id="Rectangle" fill="#547580" x="9" y="23" width="301" height="16" rx="8"></rect>
                    <rect id="Rectangle-Copy-2" fill="#FFFFFF" x="65" y="26" width="189" height="10" rx="5"></rect>
                    <circle id="Oval" fill="#FF6159" cx="18.5" cy="31.5" r="4.5"></circle>
                    <circle id="Oval-Copy-4" fill="#FFBF2F" cx="29.5" cy="31.5" r="4.5"></circle>
                    <circle id="v" fill="#28CA42" cx="41.5" cy="31.5" r="4.5"></circle>
                    <path d="M129.5625,13 L129.5625,8.5546875 L133.351562,1.578125 L130.742188,1.578125 L128.359375,6.28125 L125.992188,1.578125 L123.367188,1.578125 L127.15625,8.6328125 L127.15625,13 L129.5625,13 Z M137.484375,13.15625 C138.822917,13.15625 139.867188,12.7552083 140.617188,11.953125 C141.367188,11.1510417 141.742188,10.0390625 141.742188,8.6171875 C141.742188,7.70052083 141.570312,6.90104167 141.226562,6.21875 C140.882812,5.53645833 140.390625,5.01302083 139.75,4.6484375 C139.109375,4.28385417 138.369792,4.1015625 137.53125,4.1015625 C136.182292,4.1015625 135.135417,4.49739583 134.390625,5.2890625 C133.645833,6.08072917 133.273438,7.19010417 133.273438,8.6171875 C133.273438,9.53385417 133.445312,10.3359375 133.789062,11.0234375 C134.132812,11.7109375 134.625,12.2382812 135.265625,12.6054688 C135.90625,12.9726562 136.645833,13.15625 137.484375,13.15625 Z M137.515625,11.2421875 C136.875,11.2421875 136.41276,11.0208333 136.128906,10.578125 C135.845052,10.1354167 135.703125,9.48177083 135.703125,8.6171875 C135.703125,7.74739583 135.84375,7.09765625 136.125,6.66796875 C136.40625,6.23828125 136.864583,6.0234375 137.5,6.0234375 C138.140625,6.0234375 138.601562,6.23958333 138.882812,6.671875 C139.164062,7.10416667 139.304688,7.75260417 139.304688,8.6171875 C139.304688,9.48697917 139.165365,10.1419271 138.886719,10.5820312 C138.608073,11.0221354 138.151042,11.2421875 137.515625,11.2421875 Z M146.765625,13.15625 C147.364583,13.15625 147.898438,13.0455729 148.367188,12.8242188 C148.835938,12.6028646 149.197917,12.2890625 149.453125,11.8828125 L149.453125,11.8828125 L149.578125,11.8828125 L149.898438,13 L151.726562,13 L151.726562,4.265625 L149.34375,4.265625 L149.34375,8.375 C149.34375,9.40625 149.195312,10.1445312 148.898438,10.5898438 C148.601562,11.0351562 148.119792,11.2578125 147.453125,11.2578125 C146.963542,11.2578125 146.606771,11.1002604 146.382812,10.7851562 C146.158854,10.4700521 146.046875,9.99739583 146.046875,9.3671875 L146.046875,9.3671875 L146.046875,4.265625 L143.664062,4.265625 L143.664062,9.9609375 C143.664062,10.9921875 143.924479,11.7825521 144.445312,12.3320312 C144.966146,12.8815104 145.739583,13.15625 146.765625,13.15625 Z M156.609375,13 L156.609375,8.5546875 C156.609375,7.8515625 156.821615,7.3046875 157.246094,6.9140625 C157.670573,6.5234375 158.263021,6.328125 159.023438,6.328125 C159.299479,6.328125 159.533854,6.35416667 159.726562,6.40625 L159.726562,6.40625 L159.90625,4.171875 C159.692708,4.125 159.424479,4.1015625 159.101562,4.1015625 C158.559896,4.1015625 158.058594,4.25130208 157.597656,4.55078125 C157.136719,4.85026042 156.770833,5.24479167 156.5,5.734375 L156.5,5.734375 L156.382812,5.734375 L156.03125,4.265625 L154.226562,4.265625 L154.226562,13 L156.609375,13 Z M168.015625,13.15625 C169.255208,13.15625 170.186198,12.921875 170.808594,12.453125 C171.43099,11.984375 171.742188,11.3020833 171.742188,10.40625 C171.742188,9.97395833 171.666667,9.6015625 171.515625,9.2890625 C171.364583,8.9765625 171.130208,8.70052083 170.8125,8.4609375 C170.494792,8.22135417 169.994792,7.96354167 169.3125,7.6875 C168.546875,7.38020833 168.050781,7.1484375 167.824219,6.9921875 C167.597656,6.8359375 167.484375,6.65104167 167.484375,6.4375 C167.484375,6.05729167 167.835938,5.8671875 168.539062,5.8671875 C168.934896,5.8671875 169.322917,5.92708333 169.703125,6.046875 C170.083333,6.16666667 170.492188,6.3203125 170.929688,6.5078125 L170.929688,6.5078125 L171.648438,4.7890625 C170.653646,4.33072917 169.630208,4.1015625 168.578125,4.1015625 C167.473958,4.1015625 166.621094,4.31380208 166.019531,4.73828125 C165.417969,5.16276042 165.117188,5.76302083 165.117188,6.5390625 C165.117188,6.9921875 165.188802,7.37369792 165.332031,7.68359375 C165.47526,7.99348958 165.704427,8.26822917 166.019531,8.5078125 C166.334635,8.74739583 166.828125,9.0078125 167.5,9.2890625 C167.96875,9.48697917 168.34375,9.66015625 168.625,9.80859375 C168.90625,9.95703125 169.104167,10.0898438 169.21875,10.2070312 C169.333333,10.3242188 169.390625,10.4765625 169.390625,10.6640625 C169.390625,11.1640625 168.958333,11.4140625 168.09375,11.4140625 C167.671875,11.4140625 167.183594,11.34375 166.628906,11.203125 C166.074219,11.0625 165.575521,10.8880208 165.132812,10.6796875 L165.132812,10.6796875 L165.132812,12.6484375 C165.523438,12.8151042 165.942708,12.9414062 166.390625,13.0273438 C166.838542,13.1132812 167.380208,13.15625 168.015625,13.15625 Z M174.796875,3.1796875 C175.229167,3.1796875 175.553385,3.07682292 175.769531,2.87109375 C175.985677,2.66536458 176.09375,2.37760417 176.09375,2.0078125 C176.09375,1.23177083 175.661458,0.84375 174.796875,0.84375 C173.932292,0.84375 173.5,1.23177083 173.5,2.0078125 C173.5,2.7890625 173.932292,3.1796875 174.796875,3.1796875 Z M175.984375,13 L175.984375,4.265625 L173.601562,4.265625 L173.601562,13 L175.984375,13 Z M181.476562,13.15625 C182.341146,13.15625 183.070312,13.0234375 183.664062,12.7578125 L183.664062,12.7578125 L183.664062,10.984375 C183.080729,11.1666667 182.580729,11.2578125 182.164062,11.2578125 C181.851562,11.2578125 181.60026,11.1770833 181.410156,11.015625 C181.220052,10.8541667 181.125,10.6041667 181.125,10.265625 L181.125,10.265625 L181.125,6.0546875 L183.570312,6.0546875 L183.570312,4.265625 L181.125,4.265625 L181.125,2.40625 L179.601562,2.40625 L178.914062,4.25 L177.601562,5.046875 L177.601562,6.0546875 L178.742188,6.0546875 L178.742188,10.265625 C178.742188,11.2291667 178.959635,11.9518229 179.394531,12.4335938 C179.829427,12.9153646 180.523438,13.15625 181.476562,13.15625 Z M189.382812,13.15625 C190.065104,13.15625 190.643229,13.1054688 191.117188,13.0039062 C191.591146,12.9023438 192.036458,12.7473958 192.453125,12.5390625 L192.453125,12.5390625 L192.453125,10.6953125 C191.942708,10.9348958 191.453125,11.109375 190.984375,11.21875 C190.515625,11.328125 190.018229,11.3828125 189.492188,11.3828125 C188.815104,11.3828125 188.289062,11.1927083 187.914062,10.8125 C187.539062,10.4322917 187.338542,9.90364583 187.3125,9.2265625 L187.3125,9.2265625 L192.945312,9.2265625 L192.945312,8.0703125 C192.945312,6.83072917 192.601562,5.859375 191.914062,5.15625 C191.226562,4.453125 190.265625,4.1015625 189.03125,4.1015625 C187.739583,4.1015625 186.727865,4.50130208 185.996094,5.30078125 C185.264323,6.10026042 184.898438,7.23177083 184.898438,8.6953125 C184.898438,10.1171875 185.294271,11.2161458 186.085938,11.9921875 C186.877604,12.7682292 187.976562,13.15625 189.382812,13.15625 Z M190.710938,7.640625 L187.367188,7.640625 C187.408854,7.05208333 187.572917,6.59765625 187.859375,6.27734375 C188.145833,5.95703125 188.541667,5.796875 189.046875,5.796875 C189.552083,5.796875 189.953125,5.95703125 190.25,6.27734375 C190.546875,6.59765625 190.700521,7.05208333 190.710938,7.640625 L190.710938,7.640625 Z" id="Yoursite" fill="#547580" fill-rule="nonzero"></path>
                    <rect id="Rectangle" stroke="#E0EAEC" x="9" y="23" width="301" height="246" rx="8"></rect>
                </g>
                <g id="Group-10" transform="translate(331.000000, 185.000000)">
                    <g id="Rectangle">
                        <use fill="black" fill-opacity="1" filter="url(#filter-4)" xlink:href="#path-3"></use>
                        <use stroke="#D63333" stroke-width="1" fill="#FFFFFF" fill-rule="evenodd" xlink:href="#path-3"></use>
                    </g>
                    <path d="M8.82714844,24.1171875 C9.75683594,24.1171875 10.4550781,23.9414062 10.921875,23.5898438 C11.3886719,23.2382812 11.6220703,22.7265625 11.6220703,22.0546875 C11.6220703,21.7304688 11.5654297,21.4511719 11.4521484,21.2167969 C11.3388672,20.9824219 11.1630859,20.7753906 10.9248047,20.5957031 C10.6865234,20.4160156 10.3115234,20.2226562 9.79980469,20.015625 C9.22558594,19.7851562 8.85351562,19.6113281 8.68359375,19.4941406 C8.51367188,19.3769531 8.42871094,19.2382812 8.42871094,19.078125 C8.42871094,18.7929688 8.69238281,18.6503906 9.21972656,18.6503906 C9.51660156,18.6503906 9.80761719,18.6953125 10.0927734,18.7851562 C10.3779297,18.875 10.6845703,18.9902344 11.0126953,19.1308594 L11.0126953,19.1308594 L11.5517578,17.8417969 C10.8056641,17.4980469 10.0380859,17.3261719 9.24902344,17.3261719 C8.42089844,17.3261719 7.78125,17.4853516 7.33007812,17.8037109 C6.87890625,18.1220703 6.65332031,18.5722656 6.65332031,19.1542969 C6.65332031,19.4941406 6.70703125,19.7802734 6.81445312,20.0126953 C6.921875,20.2451172 7.09375,20.4511719 7.33007812,20.6308594 C7.56640625,20.8105469 7.93652344,21.0058594 8.44042969,21.2167969 C8.79199219,21.3652344 9.07324219,21.4951172 9.28417969,21.6064453 C9.49511719,21.7177734 9.64355469,21.8173828 9.72949219,21.9052734 C9.81542969,21.9931641 9.85839844,22.1074219 9.85839844,22.2480469 C9.85839844,22.6230469 9.53417969,22.8105469 8.88574219,22.8105469 C8.56933594,22.8105469 8.203125,22.7578125 7.78710938,22.6523438 C7.37109375,22.546875 6.99707031,22.4160156 6.66503906,22.2597656 L6.66503906,22.2597656 L6.66503906,23.7363281 C6.95800781,23.8613281 7.27246094,23.9560547 7.60839844,24.0205078 C7.94433594,24.0849609 8.35058594,24.1171875 8.82714844,24.1171875 Z M15.9814453,24.1171875 C16.4931641,24.1171875 16.9267578,24.0791016 17.2822266,24.0029297 C17.6376953,23.9267578 17.9716797,23.8105469 18.2841797,23.6542969 L18.2841797,23.6542969 L18.2841797,22.2714844 C17.9013672,22.4511719 17.5341797,22.5820312 17.1826172,22.6640625 C16.8310547,22.7460938 16.4580078,22.7871094 16.0634766,22.7871094 C15.5556641,22.7871094 15.1611328,22.6445312 14.8798828,22.359375 C14.5986328,22.0742188 14.4482422,21.6777344 14.4287109,21.1699219 L14.4287109,21.1699219 L18.6533203,21.1699219 L18.6533203,20.3027344 C18.6533203,19.3730469 18.3955078,18.6445312 17.8798828,18.1171875 C17.3642578,17.5898438 16.6435547,17.3261719 15.7177734,17.3261719 C14.7490234,17.3261719 13.9902344,17.6259766 13.4414062,18.2255859 C12.8925781,18.8251953 12.6181641,19.6738281 12.6181641,20.7714844 C12.6181641,21.8378906 12.9150391,22.6621094 13.5087891,23.2441406 C14.1025391,23.8261719 14.9267578,24.1171875 15.9814453,24.1171875 Z M16.9775391,19.9804688 L14.4697266,19.9804688 C14.5009766,19.5390625 14.6240234,19.1982422 14.8388672,18.9580078 C15.0537109,18.7177734 15.3505859,18.5976562 15.7294922,18.5976562 C16.1083984,18.5976562 16.4091797,18.7177734 16.6318359,18.9580078 C16.8544922,19.1982422 16.9697266,19.5390625 16.9775391,19.9804688 L16.9775391,19.9804688 Z M21.8935547,24 L21.8935547,20.9179688 C21.8935547,20.1445312 22.0048828,19.5908203 22.2275391,19.2568359 C22.4501953,18.9228516 22.8115234,18.7558594 23.3115234,18.7558594 C23.6787109,18.7558594 23.9462891,18.8740234 24.1142578,19.1103516 C24.2822266,19.3466797 24.3662109,19.7011719 24.3662109,20.1738281 L24.3662109,20.1738281 L24.3662109,24 L26.1533203,24 L26.1533203,19.7285156 C26.1533203,18.9511719 25.9560547,18.3564453 25.5615234,17.9443359 C25.1669922,17.5322266 24.5888672,17.3261719 23.8271484,17.3261719 C23.3818359,17.3261719 22.984375,17.4072266 22.6347656,17.5693359 C22.2851562,17.7314453 22.0107422,17.9707031 21.8115234,18.2871094 L21.8115234,18.2871094 L21.7119141,18.2871094 L21.4716797,17.4492188 L20.1064453,17.4492188 L20.1064453,24 L21.8935547,24 Z M29.7685547,24.1171875 C30.6982422,24.1171875 31.3964844,23.9414062 31.8632812,23.5898438 C32.3300781,23.2382812 32.5634766,22.7265625 32.5634766,22.0546875 C32.5634766,21.7304688 32.5068359,21.4511719 32.3935547,21.2167969 C32.2802734,20.9824219 32.1044922,20.7753906 31.8662109,20.5957031 C31.6279297,20.4160156 31.2529297,20.2226562 30.7412109,20.015625 C30.1669922,19.7851562 29.7949219,19.6113281 29.625,19.4941406 C29.4550781,19.3769531 29.3701172,19.2382812 29.3701172,19.078125 C29.3701172,18.7929688 29.6337891,18.6503906 30.1611328,18.6503906 C30.4580078,18.6503906 30.7490234,18.6953125 31.0341797,18.7851562 C31.3193359,18.875 31.6259766,18.9902344 31.9541016,19.1308594 L31.9541016,19.1308594 L32.4931641,17.8417969 C31.7470703,17.4980469 30.9794922,17.3261719 30.1904297,17.3261719 C29.3623047,17.3261719 28.7226562,17.4853516 28.2714844,17.8037109 C27.8203125,18.1220703 27.5947266,18.5722656 27.5947266,19.1542969 C27.5947266,19.4941406 27.6484375,19.7802734 27.7558594,20.0126953 C27.8632812,20.2451172 28.0351562,20.4511719 28.2714844,20.6308594 C28.5078125,20.8105469 28.8779297,21.0058594 29.3818359,21.2167969 C29.7333984,21.3652344 30.0146484,21.4951172 30.2255859,21.6064453 C30.4365234,21.7177734 30.5849609,21.8173828 30.6708984,21.9052734 C30.7568359,21.9931641 30.7998047,22.1074219 30.7998047,22.2480469 C30.7998047,22.6230469 30.4755859,22.8105469 29.8271484,22.8105469 C29.5107422,22.8105469 29.1445312,22.7578125 28.7285156,22.6523438 C28.3125,22.546875 27.9384766,22.4160156 27.6064453,22.2597656 L27.6064453,22.2597656 L27.6064453,23.7363281 C27.8994141,23.8613281 28.2138672,23.9560547 28.5498047,24.0205078 C28.8857422,24.0849609 29.2919922,24.1171875 29.7685547,24.1171875 Z M34.8544922,16.6347656 C35.1787109,16.6347656 35.421875,16.5576172 35.5839844,16.4033203 C35.7460938,16.2490234 35.8271484,16.0332031 35.8271484,15.7558594 C35.8271484,15.1738281 35.5029297,14.8828125 34.8544922,14.8828125 C34.2060547,14.8828125 33.8818359,15.1738281 33.8818359,15.7558594 C33.8818359,16.3417969 34.2060547,16.6347656 34.8544922,16.6347656 Z M35.7451172,24 L35.7451172,17.4492188 L33.9580078,17.4492188 L33.9580078,24 L35.7451172,24 Z M39.8642578,24.1171875 C40.5126953,24.1171875 41.0595703,24.0175781 41.5048828,23.8183594 L41.5048828,23.8183594 L41.5048828,22.4882812 C41.0673828,22.625 40.6923828,22.6933594 40.3798828,22.6933594 C40.1455078,22.6933594 39.9570312,22.6328125 39.8144531,22.5117188 C39.671875,22.390625 39.6005859,22.203125 39.6005859,21.9492188 L39.6005859,21.9492188 L39.6005859,18.7910156 L41.4345703,18.7910156 L41.4345703,17.4492188 L39.6005859,17.4492188 L39.6005859,16.0546875 L38.4580078,16.0546875 L37.9423828,17.4375 L36.9580078,18.0351562 L36.9580078,18.7910156 L37.8134766,18.7910156 L37.8134766,21.9492188 C37.8134766,22.671875 37.9765625,23.2138672 38.3027344,23.5751953 C38.6289062,23.9365234 39.1494141,24.1171875 39.8642578,24.1171875 Z M43.7255859,16.6347656 C44.0498047,16.6347656 44.2929688,16.5576172 44.4550781,16.4033203 C44.6171875,16.2490234 44.6982422,16.0332031 44.6982422,15.7558594 C44.6982422,15.1738281 44.3740234,14.8828125 43.7255859,14.8828125 C43.0771484,14.8828125 42.7529297,15.1738281 42.7529297,15.7558594 C42.7529297,16.3417969 43.0771484,16.6347656 43.7255859,16.6347656 Z M44.6162109,24 L44.6162109,17.4492188 L42.8291016,17.4492188 L42.8291016,24 L44.6162109,24 Z M49.8837891,24 L52.3798828,17.4492188 L50.5107422,17.4492188 L49.2509766,21.1816406 C49.0947266,21.7011719 49.0068359,22.1484375 48.9873047,22.5234375 L48.9873047,22.5234375 L48.9521484,22.5234375 C48.9169922,22.1015625 48.8291016,21.6542969 48.6884766,21.1816406 L48.6884766,21.1816406 L47.4228516,17.4492188 L45.5537109,17.4492188 L48.0498047,24 L49.8837891,24 Z M56.2822266,24.1171875 C56.7939453,24.1171875 57.2275391,24.0791016 57.5830078,24.0029297 C57.9384766,23.9267578 58.2724609,23.8105469 58.5849609,23.6542969 L58.5849609,23.6542969 L58.5849609,22.2714844 C58.2021484,22.4511719 57.8349609,22.5820312 57.4833984,22.6640625 C57.1318359,22.7460938 56.7587891,22.7871094 56.3642578,22.7871094 C55.8564453,22.7871094 55.4619141,22.6445312 55.1806641,22.359375 C54.8994141,22.0742188 54.7490234,21.6777344 54.7294922,21.1699219 L54.7294922,21.1699219 L58.9541016,21.1699219 L58.9541016,20.3027344 C58.9541016,19.3730469 58.6962891,18.6445312 58.1806641,18.1171875 C57.6650391,17.5898438 56.9443359,17.3261719 56.0185547,17.3261719 C55.0498047,17.3261719 54.2910156,17.6259766 53.7421875,18.2255859 C53.1933594,18.8251953 52.9189453,19.6738281 52.9189453,20.7714844 C52.9189453,21.8378906 53.2158203,22.6621094 53.8095703,23.2441406 C54.4033203,23.8261719 55.2275391,24.1171875 56.2822266,24.1171875 Z M57.2783203,19.9804688 L54.7705078,19.9804688 C54.8017578,19.5390625 54.9248047,19.1982422 55.1396484,18.9580078 C55.3544922,18.7177734 55.6513672,18.5976562 56.0302734,18.5976562 C56.4091797,18.5976562 56.7099609,18.7177734 56.9326172,18.9580078 C57.1552734,19.1982422 57.2705078,19.5390625 57.2783203,19.9804688 L57.2783203,19.9804688 Z M65.5986328,24.1171875 C66.4306641,24.1171875 67.0498047,23.7949219 67.4560547,23.1503906 L67.4560547,23.1503906 L67.5322266,23.1503906 L67.8779297,24 L69.2490234,24 L69.2490234,14.8828125 L67.4560547,14.8828125 L67.4560547,16.9804688 C67.4560547,17.3632812 67.5009766,17.7988281 67.5908203,18.2871094 L67.5908203,18.2871094 L67.5322266,18.2871094 C67.0986328,17.6464844 66.4697266,17.3261719 65.6455078,17.3261719 C64.8603516,17.3261719 64.2441406,17.6259766 63.796875,18.2255859 C63.3496094,18.8251953 63.1259766,19.6621094 63.1259766,20.7363281 C63.1259766,21.7949219 63.3457031,22.6230469 63.7851562,23.2207031 C64.2246094,23.8183594 64.8291016,24.1171875 65.5986328,24.1171875 Z M66.2255859,22.6933594 C65.8115234,22.6933594 65.4931641,22.5322266 65.2705078,22.2099609 C65.0478516,21.8876953 64.9365234,21.4042969 64.9365234,20.7597656 C64.9365234,20.1152344 65.046875,19.6240234 65.2675781,19.2861328 C65.4882812,18.9482422 65.7978516,18.7792969 66.1962891,18.7792969 C66.6845703,18.7792969 67.0371094,18.9316406 67.2539062,19.2363281 C67.4707031,19.5410156 67.5791016,20.0449219 67.5791016,20.7480469 L67.5791016,20.7480469 L67.5791016,20.9414062 C67.5595703,21.578125 67.4433594,22.0292969 67.2304688,22.2949219 C67.0175781,22.5605469 66.6826172,22.6933594 66.2255859,22.6933594 Z M72.7119141,24.1171875 C73.2236328,24.1171875 73.6386719,24.0439453 73.9570312,23.8974609 C74.2753906,23.7509766 74.5849609,23.4882812 74.8857422,23.109375 L74.8857422,23.109375 L74.9326172,23.109375 L75.2783203,24 L76.5263672,24 L76.5263672,19.6347656 C76.5263672,18.8535156 76.2919922,18.2714844 75.8232422,17.8886719 C75.3544922,17.5058594 74.6806641,17.3144531 73.8017578,17.3144531 C72.8837891,17.3144531 72.0478516,17.5117188 71.2939453,17.90625 L71.2939453,17.90625 L71.8857422,19.1132812 C72.5927734,18.796875 73.2080078,18.6386719 73.7314453,18.6386719 C74.4111328,18.6386719 74.7509766,18.9707031 74.7509766,19.6347656 L74.7509766,19.6347656 L74.7509766,19.921875 L73.6142578,19.9570312 C72.6337891,19.9921875 71.9003906,20.1748047 71.4140625,20.5048828 C70.9277344,20.8349609 70.6845703,21.3476562 70.6845703,22.0429688 C70.6845703,22.7070312 70.8652344,23.21875 71.2265625,23.578125 C71.5878906,23.9375 72.0830078,24.1171875 72.7119141,24.1171875 Z M73.3857422,22.8105469 C72.8076172,22.8105469 72.5185547,22.5585938 72.5185547,22.0546875 C72.5185547,21.703125 72.6455078,21.4414062 72.8994141,21.2695312 C73.1533203,21.0976562 73.5400391,21.0039062 74.0595703,20.9882812 L74.0595703,20.9882812 L74.7509766,20.9648438 L74.7509766,21.5039062 C74.7509766,21.8984375 74.6269531,22.2148438 74.3789062,22.453125 C74.1308594,22.6914062 73.7998047,22.8105469 73.3857422,22.8105469 Z M80.6103516,24.1171875 C81.2587891,24.1171875 81.8056641,24.0175781 82.2509766,23.8183594 L82.2509766,23.8183594 L82.2509766,22.4882812 C81.8134766,22.625 81.4384766,22.6933594 81.1259766,22.6933594 C80.8916016,22.6933594 80.703125,22.6328125 80.5605469,22.5117188 C80.4179688,22.390625 80.3466797,22.203125 80.3466797,21.9492188 L80.3466797,21.9492188 L80.3466797,18.7910156 L82.1806641,18.7910156 L82.1806641,17.4492188 L80.3466797,17.4492188 L80.3466797,16.0546875 L79.2041016,16.0546875 L78.6884766,17.4375 L77.7041016,18.0351562 L77.7041016,18.7910156 L78.5595703,18.7910156 L78.5595703,21.9492188 C78.5595703,22.671875 78.7226562,23.2138672 79.0488281,23.5751953 C79.375,23.9365234 79.8955078,24.1171875 80.6103516,24.1171875 Z M85.1689453,24.1171875 C85.6806641,24.1171875 86.0957031,24.0439453 86.4140625,23.8974609 C86.7324219,23.7509766 87.0419922,23.4882812 87.3427734,23.109375 L87.3427734,23.109375 L87.3896484,23.109375 L87.7353516,24 L88.9833984,24 L88.9833984,19.6347656 C88.9833984,18.8535156 88.7490234,18.2714844 88.2802734,17.8886719 C87.8115234,17.5058594 87.1376953,17.3144531 86.2587891,17.3144531 C85.3408203,17.3144531 84.5048828,17.5117188 83.7509766,17.90625 L83.7509766,17.90625 L84.3427734,19.1132812 C85.0498047,18.796875 85.6650391,18.6386719 86.1884766,18.6386719 C86.8681641,18.6386719 87.2080078,18.9707031 87.2080078,19.6347656 L87.2080078,19.6347656 L87.2080078,19.921875 L86.0712891,19.9570312 C85.0908203,19.9921875 84.3574219,20.1748047 83.8710938,20.5048828 C83.3847656,20.8349609 83.1416016,21.3476562 83.1416016,22.0429688 C83.1416016,22.7070312 83.3222656,23.21875 83.6835938,23.578125 C84.0449219,23.9375 84.5400391,24.1171875 85.1689453,24.1171875 Z M85.8427734,22.8105469 C85.2646484,22.8105469 84.9755859,22.5585938 84.9755859,22.0546875 C84.9755859,21.703125 85.1025391,21.4414062 85.3564453,21.2695312 C85.6103516,21.0976562 85.9970703,21.0039062 86.5166016,20.9882812 L86.5166016,20.9882812 L87.2080078,20.9648438 L87.2080078,21.5039062 C87.2080078,21.8984375 87.0839844,22.2148438 86.8359375,22.453125 C86.5878906,22.6914062 86.2568359,22.8105469 85.8427734,22.8105469 Z" id="sensitivedata" fill="#FF5364" fill-rule="nonzero"></path>
                </g>
                <g id="Group" transform="translate(619.000000, 185.000000)">
                    <g id="Rectangle">
                        <use fill="black" fill-opacity="1" filter="url(#filter-6)" xlink:href="#path-5"></use>
                        <use stroke="#20B646" stroke-width="1" fill="#FFFFFF" fill-rule="evenodd" xlink:href="#path-5"></use>
                    </g>
                    <text id="aliases" font-family="OpenSans-Bold, Open Sans" font-size="12" font-weight="bold" fill="#20B646">
                        <tspan x="10.0214844" y="24"> aliases</tspan>
                    </text>
                </g>
                <g id="vault-copy" transform="translate(470.000000, 136.000000)" stroke="#CCD9DD">
                    <rect id="Rectangle-Copy-3" stroke-width="4" fill="#FFFFFF" x="0" y="0" width="134" height="126" rx="8"></rect>
                    <rect id="Rectangle-Copy-4" fill="#FFFFFF" x="9" y="8" width="116" height="110" rx="8"></rect>
                    <g id="Group-5" transform="translate(28.000000, 19.000000)">
                        <g id="Group-6">
                            <circle id="Oval" stroke-width="4" cx="40" cy="39" r="15"></circle>
                            <g id="Group-4" transform="translate(39.500000, 39.500000) rotate(90.000000) translate(-39.500000, -39.500000) translate(0.000000, 35.000000)">
                                <g id="visible">
                                    <circle id="Oval-Copy" stroke-width="4" cx="4.5" cy="4.5" r="4.5"></circle>
                                    <line x1="10.5" y1="4.5" x2="24.5" y2="4.5" id="Line" stroke-width="3" stroke-linecap="square"></line>
                                </g>
                            </g>
                            <g id="Group-4-Copy-7" transform="translate(39.500000, 39.500000) rotate(16.000000) translate(-39.500000, -39.500000) translate(0.000000, 35.000000)">
                                <g id="visible">
                                    <circle id="Oval-Copy" stroke-width="4" cx="4.5" cy="4.5" r="4.5"></circle>
                                    <line x1="10.5" y1="4.5" x2="24.5" y2="4.5" id="Line" stroke-width="3" stroke-linecap="square"></line>
                                </g>
                            </g>
                            <g id="Group-4-Copy-6" transform="translate(39.500000, 39.500000) rotate(-52.000000) translate(-39.500000, -39.500000) translate(0.000000, 35.000000)">
                                <g id="visible">
                                    <circle id="Oval-Copy" stroke-width="4" cx="4.5" cy="4.5" r="4.5"></circle>
                                    <line x1="10.5" y1="4.5" x2="24.5" y2="4.5" id="Line" stroke-width="3" stroke-linecap="square"></line>
                                </g>
                            </g>
                            <g id="Group-4-Copy-4" transform="translate(39.500000, 39.500000) rotate(162.000000) translate(-39.500000, -39.500000) translate(0.000000, 35.000000)">
                                <g id="visible">
                                    <circle id="Oval-Copy" stroke-width="4" cx="4.5" cy="4.5" r="4.5"></circle>
                                    <line x1="10.5" y1="4.5" x2="24.5" y2="4.5" id="Line" stroke-width="3" stroke-linecap="square"></line>
                                </g>
                            </g>
                            <g id="Group-4-Copy-5" transform="translate(39.500000, 39.500000) rotate(231.000000) translate(-39.500000, -39.500000) translate(0.000000, 35.000000)">
                                <g id="visible">
                                    <circle id="Oval-Copy" stroke-width="4" cx="4.5" cy="4.5" r="4.5"></circle>
                                    <line x1="10.5" y1="4.5" x2="24.5" y2="4.5" id="Line" stroke-width="3" stroke-linecap="square"></line>
                                </g>
                            </g>
                        </g>
                    </g>
                    <g id="fixators" transform="translate(48.000000, 18.000000)">
                        <rect id="Rectangle" stroke-width="2" x="0" y="89" width="7" height="7"></rect>
                        <rect id="Rectangle" fill="#CCD9DD" x="76" y="0" width="10" height="14"></rect>
                    </g>
                    <g id="buttons" transform="translate(59.000000, 91.000000)">
                        <rect id="Rectangle-Copy-8" fill="#CCD9DD" x="65" y="0" width="10" height="14"></rect>
                        <rect id="Rectangle-Copy-5" stroke-width="2" x="0" y="16" width="7" height="7"></rect>
                        <rect id="Rectangle-Copy-6" stroke-width="2" x="10" y="16" width="7" height="7"></rect>
                        <rect id="Rectangle-Copy-7" stroke-width="2" x="21" y="16" width="7" height="7"></rect>
                    </g>
                    <rect id="Rectangle-Copy-9" fill="#CCD9DD" transform="translate(29.000000, 133.000000) rotate(90.000000) translate(-29.000000, -133.000000) " x="24" y="122" width="10" height="22"></rect>
                    <rect id="Rectangle-Copy-10" fill="#CCD9DD" transform="translate(105.000000, 133.000000) rotate(90.000000) translate(-105.000000, -133.000000) " x="100" y="122" width="10" height="22"></rect>
                </g>
                <rect id="Rectangle-Copy-11" stroke="#E0EAEC" x="443" y="24" width="389" height="324" rx="8"></rect>
                <path d="M571.914062,17 L571.914062,5.578125 L569.492188,5.578125 L569.492188,17 L571.914062,17 Z M576.984375,17 L576.984375,12.890625 C576.984375,11.859375 577.132812,11.1210938 577.429688,10.6757812 C577.726562,10.2304688 578.208333,10.0078125 578.875,10.0078125 C579.364583,10.0078125 579.721354,10.1653646 579.945312,10.4804688 C580.169271,10.7955729 580.28125,11.2682292 580.28125,11.8984375 L580.28125,11.8984375 L580.28125,17 L582.664062,17 L582.664062,11.3046875 C582.664062,10.2682292 582.401042,9.47526042 581.875,8.92578125 C581.348958,8.37630208 580.578125,8.1015625 579.5625,8.1015625 C578.96875,8.1015625 578.438802,8.20963542 577.972656,8.42578125 C577.50651,8.64192708 577.140625,8.9609375 576.875,9.3828125 L576.875,9.3828125 L576.742188,9.3828125 L576.421875,8.265625 L574.601562,8.265625 L574.601562,17 L576.984375,17 Z M588.109375,17.15625 C588.973958,17.15625 589.703125,17.0234375 590.296875,16.7578125 L590.296875,16.7578125 L590.296875,14.984375 C589.713542,15.1666667 589.213542,15.2578125 588.796875,15.2578125 C588.484375,15.2578125 588.233073,15.1770833 588.042969,15.015625 C587.852865,14.8541667 587.757812,14.6041667 587.757812,14.265625 L587.757812,14.265625 L587.757812,10.0546875 L590.203125,10.0546875 L590.203125,8.265625 L587.757812,8.265625 L587.757812,6.40625 L586.234375,6.40625 L585.546875,8.25 L584.234375,9.046875 L584.234375,10.0546875 L585.375,10.0546875 L585.375,14.265625 C585.375,15.2291667 585.592448,15.9518229 586.027344,16.4335938 C586.46224,16.9153646 587.15625,17.15625 588.109375,17.15625 Z M596.015625,17.15625 C596.697917,17.15625 597.276042,17.1054688 597.75,17.0039062 C598.223958,16.9023438 598.669271,16.7473958 599.085938,16.5390625 L599.085938,16.5390625 L599.085938,14.6953125 C598.575521,14.9348958 598.085938,15.109375 597.617188,15.21875 C597.148438,15.328125 596.651042,15.3828125 596.125,15.3828125 C595.447917,15.3828125 594.921875,15.1927083 594.546875,14.8125 C594.171875,14.4322917 593.971354,13.9036458 593.945312,13.2265625 L593.945312,13.2265625 L599.578125,13.2265625 L599.578125,12.0703125 C599.578125,10.8307292 599.234375,9.859375 598.546875,9.15625 C597.859375,8.453125 596.898438,8.1015625 595.664062,8.1015625 C594.372396,8.1015625 593.360677,8.50130208 592.628906,9.30078125 C591.897135,10.1002604 591.53125,11.2317708 591.53125,12.6953125 C591.53125,14.1171875 591.927083,15.2161458 592.71875,15.9921875 C593.510417,16.7682292 594.609375,17.15625 596.015625,17.15625 Z M597.34375,11.640625 L594,11.640625 C594.041667,11.0520833 594.205729,10.5976562 594.492188,10.2773438 C594.778646,9.95703125 595.174479,9.796875 595.679688,9.796875 C596.184896,9.796875 596.585938,9.95703125 596.882812,10.2773438 C597.179688,10.5976562 597.333333,11.0520833 597.34375,11.640625 L597.34375,11.640625 Z M603.898438,17 L603.898438,12.5546875 C603.898438,11.8515625 604.110677,11.3046875 604.535156,10.9140625 C604.959635,10.5234375 605.552083,10.328125 606.3125,10.328125 C606.588542,10.328125 606.822917,10.3541667 607.015625,10.40625 L607.015625,10.40625 L607.195312,8.171875 C606.981771,8.125 606.713542,8.1015625 606.390625,8.1015625 C605.848958,8.1015625 605.347656,8.25130208 604.886719,8.55078125 C604.425781,8.85026042 604.059896,9.24479167 603.789062,9.734375 L603.789062,9.734375 L603.671875,9.734375 L603.320312,8.265625 L601.515625,8.265625 L601.515625,17 L603.898438,17 Z M611.164062,17 L611.164062,12.890625 C611.164062,11.859375 611.3125,11.1210938 611.609375,10.6757812 C611.90625,10.2304688 612.388021,10.0078125 613.054688,10.0078125 C613.544271,10.0078125 613.901042,10.1653646 614.125,10.4804688 C614.348958,10.7955729 614.460938,11.2682292 614.460938,11.8984375 L614.460938,11.8984375 L614.460938,17 L616.84375,17 L616.84375,11.3046875 C616.84375,10.2682292 616.580729,9.47526042 616.054688,8.92578125 C615.528646,8.37630208 614.757812,8.1015625 613.742188,8.1015625 C613.148438,8.1015625 612.61849,8.20963542 612.152344,8.42578125 C611.686198,8.64192708 611.320312,8.9609375 611.054688,9.3828125 L611.054688,9.3828125 L610.921875,9.3828125 L610.601562,8.265625 L608.78125,8.265625 L608.78125,17 L611.164062,17 Z M621.421875,17.15625 C622.104167,17.15625 622.657552,17.0585938 623.082031,16.8632812 C623.50651,16.6679688 623.919271,16.3177083 624.320312,15.8125 L624.320312,15.8125 L624.382812,15.8125 L624.84375,17 L626.507812,17 L626.507812,11.1796875 C626.507812,10.1380208 626.195312,9.36197917 625.570312,8.8515625 C624.945312,8.34114583 624.046875,8.0859375 622.875,8.0859375 C621.651042,8.0859375 620.536458,8.34895833 619.53125,8.875 L619.53125,8.875 L620.320312,10.484375 C621.263021,10.0625 622.083333,9.8515625 622.78125,9.8515625 C623.6875,9.8515625 624.140625,10.2942708 624.140625,11.1796875 L624.140625,11.1796875 L624.140625,11.5625 L622.625,11.609375 C621.317708,11.65625 620.339844,11.8997396 619.691406,12.3398438 C619.042969,12.7799479 618.71875,13.4635417 618.71875,14.390625 C618.71875,15.2760417 618.959635,15.9583333 619.441406,16.4375 C619.923177,16.9166667 620.583333,17.15625 621.421875,17.15625 Z M622.320312,15.4140625 C621.549479,15.4140625 621.164062,15.078125 621.164062,14.40625 C621.164062,13.9375 621.333333,13.5885417 621.671875,13.359375 C622.010417,13.1302083 622.526042,13.0052083 623.21875,12.984375 L623.21875,12.984375 L624.140625,12.953125 L624.140625,13.671875 C624.140625,14.1979167 623.97526,14.6197917 623.644531,14.9375 C623.313802,15.2552083 622.872396,15.4140625 622.320312,15.4140625 Z M631.34375,17 L631.34375,4.84375 L628.960938,4.84375 L628.960938,17 L631.34375,17 Z M640.351562,17 L640.351562,11.625 C640.351562,10.9739583 640.302083,9.88541667 640.203125,8.359375 L640.203125,8.359375 L640.273438,8.359375 L645.242188,17 L648.320312,17 L648.320312,5.578125 L646.140625,5.578125 L646.140625,10.984375 C646.140625,11.5989583 646.179688,12.6484375 646.257812,14.1328125 L646.257812,14.1328125 L646.203125,14.1328125 L641.242188,5.578125 L638.1875,5.578125 L638.1875,17 L640.351562,17 Z M654.960938,17.15625 C655.643229,17.15625 656.221354,17.1054688 656.695312,17.0039062 C657.169271,16.9023438 657.614583,16.7473958 658.03125,16.5390625 L658.03125,16.5390625 L658.03125,14.6953125 C657.520833,14.9348958 657.03125,15.109375 656.5625,15.21875 C656.09375,15.328125 655.596354,15.3828125 655.070312,15.3828125 C654.393229,15.3828125 653.867188,15.1927083 653.492188,14.8125 C653.117188,14.4322917 652.916667,13.9036458 652.890625,13.2265625 L652.890625,13.2265625 L658.523438,13.2265625 L658.523438,12.0703125 C658.523438,10.8307292 658.179688,9.859375 657.492188,9.15625 C656.804688,8.453125 655.84375,8.1015625 654.609375,8.1015625 C653.317708,8.1015625 652.30599,8.50130208 651.574219,9.30078125 C650.842448,10.1002604 650.476562,11.2317708 650.476562,12.6953125 C650.476562,14.1171875 650.872396,15.2161458 651.664062,15.9921875 C652.455729,16.7682292 653.554688,17.15625 654.960938,17.15625 Z M656.289062,11.640625 L652.945312,11.640625 C652.986979,11.0520833 653.151042,10.5976562 653.4375,10.2773438 C653.723958,9.95703125 654.119792,9.796875 654.625,9.796875 C655.130208,9.796875 655.53125,9.95703125 655.828125,10.2773438 C656.125,10.5976562 656.278646,11.0520833 656.289062,11.640625 L656.289062,11.640625 Z M663.453125,17.15625 C664.317708,17.15625 665.046875,17.0234375 665.640625,16.7578125 L665.640625,16.7578125 L665.640625,14.984375 C665.057292,15.1666667 664.557292,15.2578125 664.140625,15.2578125 C663.828125,15.2578125 663.576823,15.1770833 663.386719,15.015625 C663.196615,14.8541667 663.101562,14.6041667 663.101562,14.265625 L663.101562,14.265625 L663.101562,10.0546875 L665.546875,10.0546875 L665.546875,8.265625 L663.101562,8.265625 L663.101562,6.40625 L661.578125,6.40625 L660.890625,8.25 L659.578125,9.046875 L659.578125,10.0546875 L660.71875,10.0546875 L660.71875,14.265625 C660.71875,15.2291667 660.936198,15.9518229 661.371094,16.4335938 C661.80599,16.9153646 662.5,17.15625 663.453125,17.15625 Z M671.359375,17 L672.953125,10.0859375 L673.007812,10.0859375 L673.914062,13.9453125 L674.585938,17 L677.179688,17 L679.695312,8.265625 L677.359375,8.265625 L676.3125,12.1328125 C676.260417,12.3619792 676.174479,12.8033854 676.054688,13.4570312 C675.934896,14.1106771 675.851562,14.625 675.804688,15 L675.804688,15 L675.757812,15 C675.752604,14.8541667 675.733073,14.6601562 675.699219,14.4179688 C675.665365,14.1757812 675.627604,13.9283854 675.585938,13.6757812 C675.544271,13.4231771 675.501302,13.1848958 675.457031,12.9609375 C675.41276,12.7369792 675.380208,12.5677083 675.359375,12.453125 L675.359375,12.453125 L674.335938,8.265625 L671.710938,8.265625 L670.632812,12.453125 L670.507812,13.1171875 C670.346354,13.9765625 670.255208,14.6041667 670.234375,15 L670.234375,15 L670.1875,15 C670.020833,13.78125 669.856771,12.8255208 669.695312,12.1328125 L669.695312,12.1328125 L668.6875,8.265625 L666.3125,8.265625 L668.796875,17 L671.359375,17 Z M684.78125,17.15625 C686.119792,17.15625 687.164062,16.7552083 687.914062,15.953125 C688.664062,15.1510417 689.039062,14.0390625 689.039062,12.6171875 C689.039062,11.7005208 688.867188,10.9010417 688.523438,10.21875 C688.179688,9.53645833 687.6875,9.01302083 687.046875,8.6484375 C686.40625,8.28385417 685.666667,8.1015625 684.828125,8.1015625 C683.479167,8.1015625 682.432292,8.49739583 681.6875,9.2890625 C680.942708,10.0807292 680.570312,11.1901042 680.570312,12.6171875 C680.570312,13.5338542 680.742188,14.3359375 681.085938,15.0234375 C681.429688,15.7109375 681.921875,16.2382812 682.5625,16.6054688 C683.203125,16.9726562 683.942708,17.15625 684.78125,17.15625 Z M684.8125,15.2421875 C684.171875,15.2421875 683.709635,15.0208333 683.425781,14.578125 C683.141927,14.1354167 683,13.4817708 683,12.6171875 C683,11.7473958 683.140625,11.0976562 683.421875,10.6679688 C683.703125,10.2382812 684.161458,10.0234375 684.796875,10.0234375 C685.4375,10.0234375 685.898438,10.2395833 686.179688,10.671875 C686.460938,11.1041667 686.601562,11.7526042 686.601562,12.6171875 C686.601562,13.4869792 686.46224,14.1419271 686.183594,14.5820312 C685.904948,15.0221354 685.447917,15.2421875 684.8125,15.2421875 Z M693.390625,17 L693.390625,12.5546875 C693.390625,11.8515625 693.602865,11.3046875 694.027344,10.9140625 C694.451823,10.5234375 695.044271,10.328125 695.804688,10.328125 C696.080729,10.328125 696.315104,10.3541667 696.507812,10.40625 L696.507812,10.40625 L696.6875,8.171875 C696.473958,8.125 696.205729,8.1015625 695.882812,8.1015625 C695.341146,8.1015625 694.839844,8.25130208 694.378906,8.55078125 C693.917969,8.85026042 693.552083,9.24479167 693.28125,9.734375 L693.28125,9.734375 L693.164062,9.734375 L692.8125,8.265625 L691.007812,8.265625 L691.007812,17 L693.390625,17 Z M700.65625,17 L700.65625,14.28125 L701.679688,13.4609375 L704.195312,17 L706.945312,17 L703.265625,12.0546875 L706.734375,8.265625 L704.046875,8.265625 L701.601562,10.921875 L700.5625,12.25 L700.53125,12.25 L700.65625,10.265625 L700.65625,4.84375 L698.273438,4.84375 L698.273438,17 L700.65625,17 Z" id="InternalNetwork" fill="#547580" fill-rule="nonzero"></path>
                <path d="M515.540527,72 L519.750488,59.1503906 L515.865723,59.1503906 L514.081543,65.6982422 C513.987793,66.0498047 513.879395,66.5332031 513.756348,67.1484375 C513.633301,67.7636719 513.55127,68.2763672 513.510254,68.6865234 C513.475098,68.1181641 513.275879,67.1103516 512.912598,65.6630859 L512.912598,65.6630859 L511.163574,59.1503906 L507.26123,59.1503906 L511.453613,72 L515.540527,72 Z M523.063965,72.1757812 C523.825684,72.1757812 524.446777,72.0703125 524.927246,71.859375 C525.407715,71.6484375 525.879395,71.2558594 526.342285,70.6816406 L526.342285,70.6816406 L526.412598,70.6816406 L527.071777,72 L529.453613,72 L529.453613,65.4697266 C529.453613,64.3330078 529.103516,63.4482422 528.40332,62.8154297 C527.703125,62.1826172 526.714355,61.8662109 525.437012,61.8662109 C523.66748,61.8662109 522.202637,62.1650391 521.04248,62.7626953 L521.04248,62.7626953 L522.035645,65.0302734 C523.154785,64.5380859 524.077637,64.2919922 524.804199,64.2919922 C525.612793,64.2919922 526.01709,64.7021484 526.01709,65.5224609 L526.01709,65.5224609 L526.01709,65.6630859 L524.355957,65.7158203 C522.955566,65.7802734 521.88623,66.0717773 521.147949,66.590332 C520.409668,67.1088867 520.040527,67.8984375 520.040527,68.9589844 C520.040527,69.9785156 520.310059,70.7695312 520.849121,71.3320312 C521.388184,71.8945312 522.126465,72.1757812 523.063965,72.1757812 Z M524.522949,69.75 C523.872559,69.75 523.547363,69.4453125 523.547363,68.8359375 C523.547363,68.0449219 524.112793,67.6289062 525.243652,67.5878906 L525.243652,67.5878906 L526.034668,67.5527344 L526.034668,68.3261719 C526.034668,68.7480469 525.886719,69.0908203 525.59082,69.3544922 C525.294922,69.6181641 524.938965,69.75 524.522949,69.75 Z M535.245605,72.1757812 C535.937012,72.1757812 536.539062,72.0541992 537.051758,71.8110352 C537.564453,71.5678711 537.964355,71.2177734 538.251465,70.7607422 L538.251465,70.7607422 L538.453613,70.7607422 L538.884277,72 L541.477051,72 L541.477051,62.0419922 L538.040527,62.0419922 L538.040527,66.4013672 C538.040527,67.5087891 537.914551,68.2954102 537.662598,68.7612305 C537.410645,69.2270508 536.98877,69.4599609 536.396973,69.4599609 C535.975098,69.4599609 535.671875,69.2929688 535.487305,68.9589844 C535.302734,68.625 535.210449,68.1328125 535.210449,67.4824219 L535.210449,67.4824219 L535.210449,62.0419922 L531.773926,62.0419922 L531.773926,68.5283203 C531.773926,69.6884766 532.078613,70.5864258 532.687988,71.222168 C533.297363,71.8579102 534.149902,72.1757812 535.245605,72.1757812 Z M547.286621,72 L547.286621,58.3242188 L543.850098,58.3242188 L543.850098,72 L547.286621,72 Z M553.412598,72.1757812 C553.975098,72.1757812 554.46582,72.1333008 554.884766,72.0483398 C555.303711,71.9633789 555.744629,71.8212891 556.20752,71.6220703 L556.20752,71.6220703 L556.20752,69.1171875 C555.562988,69.3457031 555.009277,69.4599609 554.546387,69.4599609 C553.925293,69.4599609 553.614746,69.1376953 553.614746,68.4931641 L553.614746,68.4931641 L553.614746,64.6171875 L556.058105,64.6171875 L556.058105,62.0419922 L553.614746,62.0419922 L553.614746,60.046875 L551.364746,60.046875 L550.477051,62.1386719 L548.947754,63.2197266 L548.947754,64.6171875 L550.151855,64.6171875 L550.151855,68.7216797 C550.151855,69.8935547 550.406738,70.762207 550.916504,71.3276367 C551.42627,71.8930664 552.258301,72.1757812 553.412598,72.1757812 Z M559.063965,76.3242188 C560.247559,76.3242188 561.207031,76.0458984 561.942383,75.4892578 C562.677734,74.9326172 563.297363,73.9804688 563.80127,72.6328125 L563.80127,72.6328125 L567.73877,62.0419922 L564.231934,62.0419922 L562.500488,67.7724609 C562.406738,68.0771484 562.336426,68.4316406 562.289551,68.8359375 L562.289551,68.8359375 L562.219238,68.8359375 C562.189941,68.4140625 562.134277,68.0537109 562.052246,67.7548828 L562.052246,67.7548828 L560.364746,62.0419922 L556.743652,62.0419922 L560.663574,71.859375 C560.470215,72.3457031 560.288574,72.6958008 560.118652,72.909668 C559.94873,73.1235352 559.749512,73.2890625 559.520996,73.40625 C559.29248,73.5234375 559.025879,73.5820312 558.721191,73.5820312 C558.322754,73.5820312 557.968262,73.546875 557.657715,73.4765625 L557.657715,73.4765625 L557.657715,76.1748047 C558.138184,76.2744141 558.606934,76.3242188 559.063965,76.3242188 Z" id="Vaulty" fill="#547580" fill-rule="nonzero"></path>
                <path d="M706.308105,72 L706.308105,66.9814453 L710.535645,59.1503906 L706.773926,59.1503906 L704.559082,63.9140625 L702.361816,59.1503906 L698.58252,59.1503906 L702.810059,67.0869141 L702.810059,72 L706.308105,72 Z M715.343262,72.1757812 C716.919434,72.1757812 718.145508,71.7202148 719.021484,70.809082 C719.897461,69.8979492 720.335449,68.6279297 720.335449,66.9990234 C720.335449,65.9619141 720.131836,65.0551758 719.724609,64.2788086 C719.317383,63.5024414 718.73877,62.90625 717.98877,62.4902344 C717.23877,62.0742188 716.374512,61.8662109 715.395996,61.8662109 C713.813965,61.8662109 712.584961,62.315918 711.708984,63.215332 C710.833008,64.1147461 710.39502,65.3759766 710.39502,66.9990234 C710.39502,68.5869141 710.841797,69.8466797 711.735352,70.7783203 C712.628906,71.7099609 713.831543,72.1757812 715.343262,72.1757812 Z M715.378418,69.6269531 C714.839355,69.6269531 714.455566,69.402832 714.227051,68.9545898 C713.998535,68.5063477 713.884277,67.8544922 713.884277,66.9990234 C713.884277,66.1435547 713.998535,65.5004883 714.227051,65.0698242 C714.455566,64.6391602 714.833496,64.4238281 715.36084,64.4238281 C715.899902,64.4238281 716.280762,64.640625 716.503418,65.0742188 C716.726074,65.5078125 716.837402,66.1494141 716.837402,66.9990234 C716.837402,67.8544922 716.727539,68.5063477 716.507812,68.9545898 C716.288086,69.402832 715.911621,69.6269531 715.378418,69.6269531 Z M725.749512,72.1757812 C726.440918,72.1757812 727.042969,72.0541992 727.555664,71.8110352 C728.068359,71.5678711 728.468262,71.2177734 728.755371,70.7607422 L728.755371,70.7607422 L728.95752,70.7607422 L729.388184,72 L731.980957,72 L731.980957,62.0419922 L728.544434,62.0419922 L728.544434,66.4013672 C728.544434,67.5087891 728.418457,68.2954102 728.166504,68.7612305 C727.914551,69.2270508 727.492676,69.4599609 726.900879,69.4599609 C726.479004,69.4599609 726.175781,69.2929688 725.991211,68.9589844 C725.806641,68.625 725.714355,68.1328125 725.714355,67.4824219 L725.714355,67.4824219 L725.714355,62.0419922 L722.277832,62.0419922 L722.277832,68.5283203 C722.277832,69.6884766 722.58252,70.5864258 723.191895,71.222168 C723.80127,71.8579102 724.653809,72.1757812 725.749512,72.1757812 Z M737.790527,72 L737.790527,67.1044922 C737.790527,66.4599609 737.960449,65.9663086 738.300293,65.6235352 C738.640137,65.2807617 739.185059,65.109375 739.935059,65.109375 C740.433105,65.109375 740.822754,65.1445312 741.104004,65.2148438 L741.104004,65.2148438 L741.411621,61.9716797 L741.218262,61.9365234 C740.94873,61.8896484 740.664551,61.8662109 740.365723,61.8662109 C739.844238,61.8662109 739.327148,62.0288086 738.814453,62.3540039 C738.301758,62.6791992 737.901855,63.1054688 737.614746,63.6328125 L737.614746,63.6328125 L737.447754,63.6328125 L736.911621,62.0419922 L734.354004,62.0419922 L734.354004,72 L737.790527,72 Z M751.044434,72.1757812 C752.069824,72.1757812 752.963379,72.0043945 753.725098,71.6616211 C754.486816,71.3188477 755.069824,70.8383789 755.474121,70.2202148 C755.878418,69.6020508 756.080566,68.8945312 756.080566,68.0976562 C756.080566,67.2304688 755.865234,66.5112305 755.43457,65.9399414 C755.003906,65.3686523 754.234863,64.8339844 753.127441,64.3359375 C751.973145,63.8085938 751.265625,63.4453125 751.004883,63.2460938 C750.744141,63.046875 750.61377,62.8212891 750.61377,62.5693359 C750.61377,62.3349609 750.716309,62.1386719 750.921387,61.9804688 C751.126465,61.8222656 751.45459,61.7431641 751.905762,61.7431641 C752.778809,61.7431641 753.815918,62.0185547 755.01709,62.5693359 L755.01709,62.5693359 L756.080566,59.8886719 C754.697754,59.2734375 753.341309,58.9658203 752.01123,58.9658203 C750.505371,58.9658203 749.321777,59.296875 748.460449,59.9589844 C747.599121,60.6210938 747.168457,61.5439453 747.168457,62.7275391 C747.168457,63.3603516 747.269531,63.9082031 747.47168,64.3710938 C747.673828,64.8339844 747.984375,65.2441406 748.40332,65.6015625 C748.822266,65.9589844 749.450684,66.328125 750.288574,66.7089844 C751.214355,67.125 751.78418,67.4003906 751.998047,67.5351562 C752.211914,67.6699219 752.367188,67.8032227 752.463867,67.9350586 C752.560547,68.0668945 752.608887,68.2207031 752.608887,68.3964844 C752.608887,68.6777344 752.48877,68.9077148 752.248535,69.0864258 C752.008301,69.2651367 751.630371,69.3544922 751.114746,69.3544922 C750.51709,69.3544922 749.86084,69.2592773 749.145996,69.0688477 C748.431152,68.878418 747.742676,68.6132812 747.080566,68.2734375 L747.080566,68.2734375 L747.080566,71.3671875 C747.70752,71.6660156 748.311035,71.8754883 748.891113,71.9956055 C749.471191,72.1157227 750.188965,72.1757812 751.044434,72.1757812 Z M762.672363,72.1757812 C763.469238,72.1757812 764.154785,72.1230469 764.729004,72.0175781 C765.303223,71.9121094 765.859863,71.7216797 766.398926,71.4462891 L766.398926,71.4462891 L766.398926,68.9765625 C765.807129,69.2519531 765.257812,69.4467773 764.750977,69.5610352 C764.244141,69.675293 763.688965,69.7324219 763.085449,69.7324219 C762.42334,69.7324219 761.900391,69.5742188 761.516602,69.2578125 C761.132812,68.9414062 760.929199,68.5048828 760.905762,67.9482422 L760.905762,67.9482422 L767.049316,67.9482422 L767.049316,66.4189453 C767.049316,64.9482422 766.640625,63.8217773 765.823242,63.0395508 C765.005859,62.2573242 763.847168,61.8662109 762.347168,61.8662109 C760.770996,61.8662109 759.558105,62.315918 758.708496,63.215332 C757.858887,64.1147461 757.434082,65.4052734 757.434082,67.0869141 C757.434082,68.7158203 757.892578,69.9711914 758.80957,70.8530273 C759.726562,71.7348633 761.01416,72.1757812 762.672363,72.1757812 Z M763.929199,65.7861328 L760.976074,65.7861328 C761.022949,65.2412109 761.182617,64.8413086 761.455078,64.5864258 C761.727539,64.331543 762.065918,64.2041016 762.470215,64.2041016 C762.909668,64.2041016 763.259766,64.3476562 763.520508,64.6347656 C763.78125,64.921875 763.91748,65.3056641 763.929199,65.7861328 L763.929199,65.7861328 Z M772.428223,72 L772.428223,67.1044922 C772.428223,66.4599609 772.598145,65.9663086 772.937988,65.6235352 C773.277832,65.2807617 773.822754,65.109375 774.572754,65.109375 C775.070801,65.109375 775.460449,65.1445312 775.741699,65.2148438 L775.741699,65.2148438 L776.049316,61.9716797 L775.855957,61.9365234 C775.586426,61.8896484 775.302246,61.8662109 775.003418,61.8662109 C774.481934,61.8662109 773.964844,62.0288086 773.452148,62.3540039 C772.939453,62.6791992 772.539551,63.1054688 772.252441,63.6328125 L772.252441,63.6328125 L772.085449,63.6328125 L771.549316,62.0419922 L768.991699,62.0419922 L768.991699,72 L772.428223,72 Z M783.449707,72 L787.246582,62.0419922 L783.669434,62.0419922 L781.902832,67.9482422 C781.797363,68.3056641 781.744629,68.6367188 781.744629,68.9414062 L781.744629,68.9414062 L781.683105,68.9414062 C781.683105,68.8476562 781.675781,68.746582 781.661133,68.6381836 C781.646484,68.5297852 781.630371,68.4272461 781.612793,68.3305664 C781.595215,68.2338867 781.577637,68.1503906 781.560059,68.0800781 C781.54248,68.0097656 781.530762,67.9599609 781.524902,67.9306641 L781.524902,67.9306641 L779.837402,62.0419922 L776.251465,62.0419922 L780.04834,72 L783.449707,72 Z M793.240723,72.1757812 C794.037598,72.1757812 794.723145,72.1230469 795.297363,72.0175781 C795.871582,71.9121094 796.428223,71.7216797 796.967285,71.4462891 L796.967285,71.4462891 L796.967285,68.9765625 C796.375488,69.2519531 795.826172,69.4467773 795.319336,69.5610352 C794.8125,69.675293 794.257324,69.7324219 793.653809,69.7324219 C792.991699,69.7324219 792.46875,69.5742188 792.084961,69.2578125 C791.701172,68.9414062 791.497559,68.5048828 791.474121,67.9482422 L791.474121,67.9482422 L797.617676,67.9482422 L797.617676,66.4189453 C797.617676,64.9482422 797.208984,63.8217773 796.391602,63.0395508 C795.574219,62.2573242 794.415527,61.8662109 792.915527,61.8662109 C791.339355,61.8662109 790.126465,62.315918 789.276855,63.215332 C788.427246,64.1147461 788.002441,65.4052734 788.002441,67.0869141 C788.002441,68.7158203 788.460938,69.9711914 789.37793,70.8530273 C790.294922,71.7348633 791.58252,72.1757812 793.240723,72.1757812 Z M794.497559,65.7861328 L791.544434,65.7861328 C791.591309,65.2412109 791.750977,64.8413086 792.023438,64.5864258 C792.295898,64.331543 792.634277,64.2041016 793.038574,64.2041016 C793.478027,64.2041016 793.828125,64.3476562 794.088867,64.6347656 C794.349609,64.921875 794.48584,65.3056641 794.497559,65.7861328 L794.497559,65.7861328 Z M802.996582,72 L802.996582,67.1044922 C802.996582,66.4599609 803.166504,65.9663086 803.506348,65.6235352 C803.846191,65.2807617 804.391113,65.109375 805.141113,65.109375 C805.63916,65.109375 806.028809,65.1445312 806.310059,65.2148438 L806.310059,65.2148438 L806.617676,61.9716797 L806.424316,61.9365234 C806.154785,61.8896484 805.870605,61.8662109 805.571777,61.8662109 C805.050293,61.8662109 804.533203,62.0288086 804.020508,62.3540039 C803.507812,62.6791992 803.10791,63.1054688 802.820801,63.6328125 L802.820801,63.6328125 L802.653809,63.6328125 L802.117676,62.0419922 L799.560059,62.0419922 L799.560059,72 L802.996582,72 Z M811.478027,72.1757812 C812.837402,72.1757812 813.880371,71.9033203 814.606934,71.3583984 C815.333496,70.8134766 815.696777,70.0078125 815.696777,68.9414062 C815.696777,68.4082031 815.616211,67.9555664 815.455078,67.5834961 C815.293945,67.2114258 815.041992,66.8876953 814.699219,66.6123047 C814.356445,66.3369141 813.836426,66.0556641 813.13916,65.7685547 C812.20166,65.3994141 811.634766,65.1547852 811.438477,65.034668 C811.242188,64.9145508 811.144043,64.7695312 811.144043,64.5996094 C811.144043,64.3242188 811.425293,64.1865234 811.987793,64.1865234 C812.310059,64.1865234 812.726074,64.2583008 813.23584,64.4018555 C813.745605,64.5454102 814.229004,64.7197266 814.686035,64.9248047 L814.686035,64.9248047 L815.617676,62.7099609 C814.996582,62.4345703 814.397461,62.2250977 813.820312,62.081543 C813.243164,61.9379883 812.626465,61.8662109 811.970215,61.8662109 C810.663574,61.8662109 809.652832,62.1240234 808.937988,62.6396484 C808.223145,63.1552734 807.865723,63.8759766 807.865723,64.8017578 C807.865723,65.5341797 808.047363,66.1391602 808.410645,66.6166992 C808.773926,67.0942383 809.412598,67.5205078 810.32666,67.8955078 C811.328613,68.2939453 811.933594,68.5620117 812.141602,68.699707 C812.349609,68.8374023 812.453613,68.9941406 812.453613,69.1699219 C812.453613,69.5097656 812.081543,69.6796875 811.337402,69.6796875 C810.839355,69.6796875 810.272461,69.6035156 809.636719,69.4511719 C809.000977,69.2988281 808.416504,69.1054688 807.883301,68.8710938 L807.883301,68.8710938 L807.883301,71.6220703 C808.45166,71.8330078 809.008301,71.9780273 809.553223,72.0571289 C810.098145,72.1362305 810.739746,72.1757812 811.478027,72.1757812 Z" id="YourServers" fill="#547580" fill-rule="nonzero"></path>
            </g>
        </g>
    </g>
</svg>