<?xml version="1.0" encoding="UTF-8"?>
<svg width="138px" height="141px" viewBox="0 0 138 141" version="1.1" xmlns="http://www.w3.org/2000/svg" xmlns:xlink="http://www.w3.org/1999/xlink">
    <!-- Generator: Sketch 60 (88103) - https://sketch.com -->
    <title>vault</title>
    <desc>Created with Sketch.</desc>
    <g id="Page-1" stroke="none" stroke-width="1" fill="none" fill-rule="evenodd">
        <g id="Group-11" transform="translate(-453.000000, -598.000000)" stroke="#CCD9DD">
            <g id="with-vaulty" transform="translate(0.000000, 460.000000)">
                <g id="vault" transform="translate(455.000000, 140.000000)">
                    <rect id="Rectangle-Copy-3" stroke-width="4" fill="#FFFFFF" x="0" y="0" width="134" height="126" rx="8"></rect>
                    <rect id="Rectangle-Copy-4" fill="#FFFFFF" x="9" y="8" width="116" height="110" rx="8"></rect>
                    <g id="Group-5" transform="translate(28.000000, 19.000000)">
                        <g id="Group-6">
                            <circle id="Oval" stroke-width="4" cx="40" cy="39" r="15"></circle>
                            <g id="Group-4" transform="translate(39.500000, 39.500000) rotate(90.000000) translate(-39.500000, -39.500000) translate(0.000000, 35.000000)">
                                <g id="visible">
                                    <circle id="Oval-Copy" stroke-width="4" cx="4.5" cy="4.5" r="4.5"></circle>
                                    <line x1="10.5" y1="4.5" x2="24.5" y2="4.5" id="Line" stroke-width="3" stroke-linecap="square"></line>
                                </g>
                            </g>
                            <g id="Group-4-Copy-7" transform="translate(39.500000, 39.500000) rotate(16.000000) translate(-39.500000, -39.500000) translate(0.000000, 35.000000)">
                                <g id="visible">
                                    <circle id="Oval-Copy" stroke-width="4" cx="4.5" cy="4.5" r="4.5"></circle>
                                    <line x1="10.5" y1="4.5" x2="24.5" y2="4.5" id="Line" stroke-width="3" stroke-linecap="square"></line>
                                </g>
                            </g>
                            <g id="Group-4-Copy-6" transform="translate(39.500000, 39.500000) rotate(-52.000000) translate(-39.500000, -39.500000) translate(0.000000, 35.000000)">
                                <g id="visible">
                                    <circle id="Oval-Copy" stroke-width="4" cx="4.5" cy="4.5" r="4.5"></circle>
                                    <line x1="10.5" y1="4.5" x2="24.5" y2="4.5" id="Line" stroke-width="3" stroke-linecap="square"></line>
                                </g>
                            </g>
                            <g id="Group-4-Copy-4" transform="translate(39.500000, 39.500000) rotate(162.000000) translate(-39.500000, -39.500000) translate(0.000000, 35.000000)">
                                <g id="visible">
                                    <circle id="Oval-Copy" stroke-width="4" cx="4.5" cy="4.5" r="4.5"></circle>
                                    <line x1="10.5" y1="4.5" x2="24.5" y2="4.5" id="Line" stroke-width="3" stroke-linecap="square"></line>
                                </g>
                            </g>
                            <g id="Group-4-Copy-5" transform="translate(39.500000, 39.500000) rotate(231.000000) translate(-39.500000, -39.500000) translate(0.000000, 35.000000)">
                                <g id="visible">
                                    <circle id="Oval-Copy" stroke-width="4" cx="4.5" cy="4.5" r="4.5"></circle>
                                    <line x1="10.5" y1="4.5" x2="24.5" y2="4.5" id="Line" stroke-width="3" stroke-linecap="square"></line>
                                </g>
                            </g>
                        </g>
                    </g>
                    <g id="fixators" transform="translate(48.000000, 18.000000)">
                        <rect id="Rectangle" stroke-width="2" x="0" y="89" width="7" height="7"></rect>
                        <rect id="Rectangle" fill="#CCD9DD" x="76" y="0" width="10" height="14"></rect>
                    </g>
                    <g id="buttons" transform="translate(59.000000, 91.000000)">
                        <rect id="Rectangle-Copy-8" fill="#CCD9DD" x="65" y="0" width="10" height="14"></rect>
                        <rect id="Rectangle-Copy-5" stroke-width="2" x="0" y="16" width="7" height="7"></rect>
                        <rect id="Rectangle-Copy-6" stroke-width="2" x="10" y="16" width="7" height="7"></rect>
                        <rect id="Rectangle-Copy-7" stroke-width="2" x="21" y="16" width="7" height="7"></rect>
                    </g>
                    <rect id="Rectangle-Copy-9" fill="#CCD9DD" transform="translate(29.000000, 133.000000) rotate(90.000000) translate(-29.000000, -133.000000) " x="24" y="122" width="10" height="22"></rect>
                    <rect id="Rectangle-Copy-10" fill="#CCD9DD" transform="translate(105.000000, 133.000000) rotate(90.000000) translate(-105.000000, -133.000000) " x="100" y="122" width="10" height="22"></rect>
                </g>
            </g>
        </g>
    </g>
</svg>