<?xml version="1.0" encoding="UTF-8"?>
<svg width="682px" height="563px" viewBox="0 0 682 563" version="1.1" xmlns="http://www.w3.org/2000/svg" xmlns:xlink="http://www.w3.org/1999/xlink">
    <!-- Generator: Sketch 60 (88103) - https://sketch.com -->
    <title>Group 2</title>
    <desc>Created with Sketch.</desc>
    <g id="Page-1" stroke="none" stroke-width="1" fill="none" fill-rule="evenodd">
        <g id="Group-2" transform="translate(1.000000, 1.000000)">
            <g id="Demo-app">
                <g id="Mialgun" transform="translate(1.000000, 475.000000)">
                    <rect id="Rectangle-Copy-13" stroke="#E0EAEC" x="0" y="0" width="300" height="86" rx="8"></rect>
                    <text id="Mailgun" font-family="OpenSans-Bold, Open Sans" font-size="12" font-weight="bold" fill="#547580">
                        <tspan x="125.780273" y="48">Mailgun</tspan>
                    </text>
                </g>
                <g id="internal-network" transform="translate(0.000000, 202.000000)" stroke="#E0EAEC">
                    <rect id="Rectangle-Copy-11" x="0.5" y="0" width="300" height="232" rx="8"></rect>
                </g>
                <g id="backend" transform="translate(61.000000, 232.000000)">
                    <rect id="Rectangle-Copy-12" stroke="#E0EAEC" x="0" y="0" width="180" height="86" rx="8"></rect>
                    <rect id="Rectangle-Copy-13" stroke="#E0EAEC" x="0" y="0" width="180" height="86" rx="8"></rect>
                    <text id="Backend" font-family="OpenSans-Bold, Open Sans" font-size="12" font-weight="bold" fill="#547580">
                        <tspan x="64.3740234" y="48">Backend</tspan>
                    </text>
                </g>
                <g id="DB" transform="translate(61.000000, 347.000000)">
                    <text font-family="OpenSans-Bold, Open Sans" font-size="12" font-weight="bold" fill="#547580">
                        <tspan x="23.0273438" y="36">DB</tspan>
                    </text>
                    <line x1="0.5" y1="5.46078431" x2="0.5" y2="51.5392157" id="Line-2" stroke="#E0EAEC" stroke-linecap="square"></line>
                    <line x1="62.5" y1="5.46078431" x2="62.5" y2="51.5392157" id="Line-2-Copy" stroke="#E0EAEC" stroke-linecap="square"></line>
                    <path d="M0.5,5 C21.1666667,11.6666667 41.8333333,11.6666667 62.5,5" id="Path" stroke="#E0EAEC"></path>
                    <path d="M0.5,52 C21.1666667,58.6666667 41.8333333,58.6666667 62.5,52" id="Path-Copy-2" stroke="#E0EAEC" stroke-linecap="round"></path>
                    <path d="M0.5,0 C21.1666667,6.66666667 41.8333333,6.66666667 62.5,0" id="Path-Copy" stroke="#E0EAEC" stroke-linecap="round" transform="translate(31.500000, 2.500000) scale(1, -1) translate(-31.500000, -2.500000) "></path>
                </g>
                <g id="arrows" transform="translate(91.125000, 142.000000)" fill="#E0EAEC" fill-rule="nonzero">
                    <path id="Line" d="M59.8718455,-0.00313470334 L59.8749901,0.496855408 L60.321,71.496 L64.3214529,71.4718668 L59.8781446,80.4999901 L55.3216309,71.5284694 L59.321,71.503 L58.8750099,0.503144592 L58.8718653,0.00315448045 L59.8718455,-0.00313470334 Z"></path>
                    <path id="Line-Copy-4" d="M59.125939,185.749063 L60.1259372,185.750939 L60.1249991,186.250938 L59.891,311 L63.8909395,311.008458 L59.3740619,319.999999 L54.8909554,310.991572 L58.891,310.999 L59.1250009,186.249062 L59.125939,185.749063 Z"></path>
                    <path id="Line-Copy-2" d="M1.24729734,178.875007 L5.79587953,187.850552 L1.796,187.872 L1.828,193.997 L5.82898899,193.9758 L1.37770266,202.999993 L-3.17087953,194.024448 L0.828,194.002 L0.796,187.877 L-3.20398899,187.8992 L1.24729734,178.875007 Z"></path>
                </g>
                <g id="browser">
                    <g id="form" transform="translate(32.000000, 47.000000)">
                        <rect id="Rectangle" stroke="#E0EAEC" fill="#FFFFFF" x="0" y="0" width="234" height="29" rx="8"></rect>
                        <rect id="fld1-copy-4" stroke="#86ABB8" stroke-width="2" fill="#547580" x="0" y="48" width="234" height="33" rx="4"></rect>
                        <text id="SUBSCRIBE" font-family="OpenSans-ExtraBold, Open Sans" font-size="18" font-weight="600" fill="#FFFFFF">
                            <tspan x="68.1669922" y="69">SUBSCRIBE</tspan>
                        </text>
                    </g>
                    <rect id="Rectangle" fill="#547580" x="0" y="0" width="300" height="16" rx="8"></rect>
                    <rect id="Rectangle-Copy-2" fill="#FFFFFF" x="56" y="3" width="189" height="10" rx="5"></rect>
                    <circle id="Oval" fill="#FF6159" cx="9.5" cy="8.5" r="4.5"></circle>
                    <circle id="Oval-Copy-4" fill="#FFBF2F" cx="20.5" cy="8.5" r="4.5"></circle>
                    <circle id="v" fill="#28CA42" cx="32.5" cy="8.5" r="4.5"></circle>
                    <rect id="Rectangle" stroke="#E0EAEC" x="0" y="0" width="300" height="161" rx="8"></rect>
                </g>
            </g>
            <g id="Demo-app-Copy" transform="translate(380.000000, 0.000000)">
                <g id="Mialgun" transform="translate(0.000000, 475.000000)">
                    <rect id="Rectangle-Copy-13" stroke="#E0EAEC" x="0" y="0" width="300" height="86" rx="8"></rect>
                    <text id="Mailgun" font-family="OpenSans-Bold, Open Sans" font-size="12" font-weight="bold" fill="#547580">
                        <tspan x="125.780273" y="48">Mailgun</tspan>
                    </text>
                </g>
                <g id="internal-network" transform="translate(0.000000, 202.000000)" stroke="#E0EAEC">
                    <rect id="Rectangle-Copy-11" x="0.5" y="0" width="300" height="232" rx="8"></rect>
                </g>
                <g id="backend" transform="translate(16.000000, 232.000000)">
                    <rect id="Rectangle-Copy-13" stroke="#E0EAEC" x="0" y="0" width="114" height="86" rx="8"></rect>
                    <text id="Backend" font-family="OpenSans-Bold, Open Sans" font-size="12" font-weight="bold" fill="#547580">
                        <tspan x="31.3740234" y="48">Backend</tspan>
                    </text>
                </g>
                <g id="vaulty-1" transform="translate(195.000000, 232.000000)">
                    <rect id="Rectangle-Copy-12" stroke="#E0EAEC" x="0" y="0" width="90" height="86" rx="8"></rect>
                    <text id="Vaulty" font-family="OpenSans-Bold, Open Sans" font-size="12" font-weight="bold" fill="#547580">
                        <tspan x="26.3046875" y="48">Vaulty</tspan>
                    </text>
                </g>
                <g id="DB" transform="translate(18.000000, 347.000000)">
                    <text font-family="OpenSans-Bold, Open Sans" font-size="12" font-weight="bold" fill="#547580">
                        <tspan x="23.0273438" y="36">DB</tspan>
                    </text>
                    <line x1="0.5" y1="5.46078431" x2="0.5" y2="51.5392157" id="Line-2" stroke="#E0EAEC" stroke-linecap="square"></line>
                    <line x1="62.5" y1="5.46078431" x2="62.5" y2="51.5392157" id="Line-2-Copy" stroke="#E0EAEC" stroke-linecap="square"></line>
                    <path d="M0.5,5 C21.1666667,11.6666667 41.8333333,11.6666667 62.5,5" id="Path" stroke="#E0EAEC"></path>
                    <path d="M0.5,52 C21.1666667,58.6666667 41.8333333,58.6666667 62.5,52" id="Path-Copy-2" stroke="#E0EAEC" stroke-linecap="round"></path>
                    <path d="M0.5,0 C21.1666667,6.66666667 41.8333333,6.66666667 62.5,0" id="Path-Copy" stroke="#E0EAEC" stroke-linecap="round" transform="translate(31.500000, 2.500000) scale(1, -1) translate(-31.500000, -2.500000) "></path>
                </g>
                <g id="arrows" transform="translate(48.125000, 142.000000)" fill="#E0EAEC" fill-rule="nonzero">
                    <path id="Line-Copy-5" d="M102.361661,-0.20698095 L102.721821,0.139839893 L177.598,72.243 L180.373666,69.3626047 L183.73516,78.8468208 L174.130891,75.8454866 L176.905,72.964 L102.028179,0.860160107 L101.668019,0.513339263 L102.361661,-0.20698095 Z"></path>
                    <path id="Line-Copy-8" d="M95.875,108 L95.875,112 L141.875,112 L141.875,113 L95.875,113 L95.875,117 L86.875,112.5 L95.875,108 Z"></path>
                    <path id="Line-Copy-6" d="M192.434053,185.569163 L193.305837,186.059053 L193.060892,186.494945 L118.974,318.334 L122.462092,320.294336 L114.130055,325.935892 L114.616032,315.885329 L118.103,317.844 L192.189108,186.005055 L192.434053,185.569163 Z"></path>
                    <path id="Line-Copy-7" d="M1.24729734,178.875007 L5.79587953,187.850552 L1.796,187.872 L1.828,193.997 L5.82898899,193.9758 L1.37770266,202.999993 L-3.17087953,194.024448 L0.828,194.002 L0.796,187.877 L-3.20398899,187.8992 L1.24729734,178.875007 Z"></path>
                    <path id="Line-3" d="M132.875,149 L141.875,153.5 L132.875,158 L132.875,154 L86.875,154 L86.875,153 L132.875,153 L132.875,149 Z"></path>
                </g>
                <g id="browser">
                    <g id="form-copy" transform="translate(32.000000, 47.000000)">
                        <rect id="Rectangle" stroke="#E0EAEC" fill="#FFFFFF" x="0" y="0" width="234" height="29" rx="8"></rect>
                        <rect id="fld1-copy-4" stroke="#86ABB8" stroke-width="2" fill="#547580" x="0" y="48" width="234" height="33" rx="4"></rect>
                        <text id="SUBSCRIBE" font-family="OpenSans-ExtraBold, Open Sans" font-size="18" font-weight="600" fill="#FFFFFF">
                            <tspan x="68.1669922" y="69">SUBSCRIBE</tspan>
                        </text>
                    </g>
                    <rect id="Rectangle" fill="#547580" x="0" y="0" width="300" height="16" rx="8"></rect>
                    <rect id="Rectangle-Copy-2" fill="#FFFFFF" x="56" y="3" width="189" height="10" rx="5"></rect>
                    <circle id="Oval" fill="#FF6159" cx="9.5" cy="8.5" r="4.5"></circle>
                    <circle id="Oval-Copy-4" fill="#FFBF2F" cx="20.5" cy="8.5" r="4.5"></circle>
                    <circle id="v" fill="#28CA42" cx="32.5" cy="8.5" r="4.5"></circle>
                    <rect id="Rectangle" stroke="#E0EAEC" x="0" y="0" width="300" height="161" rx="8"></rect>
                </g>
            </g>
        </g>
    </g>
</svg>