<?xml version="1.0" encoding="UTF-8"?>
<svg width="303px" height="587px" viewBox="0 0 303 587" version="1.1" xmlns="http://www.w3.org/2000/svg" xmlns:xlink="http://www.w3.org/1999/xlink">
    <!-- Generator: Sketch 60 (88103) - https://sketch.com -->
    <title>Demo app</title>
    <desc>Created with Sketch.</desc>
    <g id="Page-1" stroke="none" stroke-width="1" fill="none" fill-rule="evenodd">
        <g id="Group-2" transform="translate(1.000000, 1.000000)">
            <g id="Demo-app">
                <g id="Mialgun" transform="translate(1.000000, 499.000000)">
                    <rect id="Rectangle-Copy-13" stroke="#E0EAEC" x="0" y="0" width="300" height="86" rx="8"></rect>
                    <text id="Mailgun" font-family="OpenSans-Bold, Open Sans" font-size="12" font-weight="bold" fill="#547580">
                        <tspan x="125.780273" y="48">Mailgun</tspan>
                    </text>
                </g>
                <g id="internal-network" transform="translate(0.000000, 202.000000)" stroke="#E0EAEC">
                    <rect id="Rectangle-Copy-11" x="0.5" y="0" width="300" height="254" rx="8"></rect>
                </g>
                <g id="backend" transform="translate(61.000000, 232.000000)">
                    <rect id="Rectangle-Copy-12" stroke="#E0EAEC" x="0" y="0" width="180" height="86" rx="8"></rect>
                    <rect id="Rectangle-Copy-13" stroke="#E0EAEC" x="0" y="0" width="180" height="86" rx="8"></rect>
                    <text id="Backend" font-family="OpenSans-Bold, Open Sans" font-size="12" font-weight="bold" fill="#547580">
                        <tspan x="64.3740234" y="48">Backend</tspan>
                    </text>
                </g>
                <g id="DB" transform="translate(61.000000, 347.000000)">
                    <text font-family="OpenSans-Bold, Open Sans" font-size="12" font-weight="bold" fill="#547580">
                        <tspan x="23.0273438" y="36">DB</tspan>
                    </text>
                    <line x1="0.5" y1="5.46078431" x2="0.5" y2="51.5392157" id="Line-2" stroke="#E0EAEC" stroke-linecap="square"></line>
                    <line x1="62.5" y1="5.46078431" x2="62.5" y2="51.5392157" id="Line-2-Copy" stroke="#E0EAEC" stroke-linecap="square"></line>
                    <path d="M0.5,5 C21.1666667,11.6666667 41.8333333,11.6666667 62.5,5" id="Path" stroke="#E0EAEC"></path>
                    <path d="M0.5,52 C21.1666667,58.6666667 41.8333333,58.6666667 62.5,52" id="Path-Copy-2" stroke="#E0EAEC" stroke-linecap="round"></path>
                    <path d="M0.5,0 C21.1666667,6.66666667 41.8333333,6.66666667 62.5,0" id="Path-Copy" stroke="#E0EAEC" stroke-linecap="round" transform="translate(31.500000, 2.500000) scale(1, -1) translate(-31.500000, -2.500000) "></path>
                </g>
                <g id="arrows" transform="translate(91.125000, 142.000000)" fill="#E0EAEC" fill-rule="nonzero">
                    <path id="Line" d="M59.8718455,-0.00313470334 L59.8749901,0.496855408 L60.321,71.496 L64.3214529,71.4718668 L59.8781446,80.4999901 L55.3216309,71.5284694 L59.321,71.503 L58.8750099,0.503144592 L58.8718653,0.00315448045 L59.8718455,-0.00313470334 Z"></path>
                    <path id="Line-Copy-4" d="M59.1257955,185.749206 L60.1257943,185.750796 L60.1249994,186.250795 L59.888,335 L63.8885078,335.007165 L59.3742051,343.999999 L54.8885192,334.992857 L58.888,334.999 L59.1250006,186.249205 L59.1257955,185.749206 Z"></path>
                    <path id="Line-Copy-2" d="M1.24729734,178.875007 L5.79587953,187.850552 L1.796,187.872 L1.828,193.997 L5.82898899,193.9758 L1.37770266,202.999993 L-3.17087953,194.024448 L0.828,194.002 L0.796,187.877 L-3.20398899,187.8992 L1.24729734,178.875007 Z"></path>
                </g>
                <g id="browser">
                    <g id="form" transform="translate(32.000000, 47.000000)">
                        <rect id="Rectangle" stroke="#E0EAEC" fill="#FFFFFF" x="0" y="0" width="234" height="29" rx="8"></rect>
                        <rect id="fld1-copy-4" stroke="#86ABB8" stroke-width="2" fill="#547580" x="0" y="48" width="234" height="33" rx="4"></rect>
                        <text id="SUBSCRIBE" font-family="OpenSans-ExtraBold, Open Sans" font-size="18" font-weight="600" fill="#FFFFFF">
                            <tspan x="56.1669922" y="69">SUBSCRIBE</tspan>
                        </text>
                    </g>
                    <rect id="Rectangle" fill="#547580" x="0" y="0" width="300" height="16" rx="8"></rect>
                    <rect id="Rectangle-Copy-2" fill="#FFFFFF" x="56" y="3" width="189" height="10" rx="5"></rect>
                    <circle id="Oval" fill="#FF6159" cx="9.5" cy="8.5" r="4.5"></circle>
                    <circle id="Oval-Copy-4" fill="#FFBF2F" cx="20.5" cy="8.5" r="4.5"></circle>
                    <circle id="v" fill="#28CA42" cx="32.5" cy="8.5" r="4.5"></circle>
                    <rect id="Rectangle" stroke="#E0EAEC" x="0" y="0" width="300" height="161" rx="8"></rect>
                </g>
            </g>
        </g>
    </g>
</svg>