<?xml version="1.0" encoding="UTF-8"?>
<svg width="303px" height="563px" viewBox="0 0 303 563" version="1.1" xmlns="http://www.w3.org/2000/svg" xmlns:xlink="http://www.w3.org/1999/xlink">
    <!-- Generator: Sketch 60 (88103) - https://sketch.com -->
    <title>Demo app</title>
    <desc>Created with Sketch.</desc>
    <g id="Page-1" stroke="none" stroke-width="1" fill="none" fill-rule="evenodd">
        <g id="Group-2" transform="translate(1.000000, 1.000000)">
            <g id="Demo-app">
                <g id="Mialgun" transform="translate(1.000000, 475.000000)">
                    <rect id="Rectangle-Copy-13" stroke="#E0EAEC" x="0" y="0" width="300" height="86" rx="8"></rect>
                    <path d="M128.481445,48 L128.481445,44.015625 C128.481445,43.5585938 128.444336,42.6464844 128.370117,41.2792969 L128.370117,41.2792969 L128.422852,41.2792969 L130.485352,48 L132.149414,48 L134.358398,41.2910156 L134.411133,41.2910156 C134.364258,42.3691406 134.337891,43.0332031 134.332031,43.2832031 C134.326172,43.5332031 134.323242,43.7539062 134.323242,43.9453125 L134.323242,43.9453125 L134.323242,48 L136.016602,48 L136.016602,39.4335938 L133.543945,39.4335938 L131.393555,45.984375 L131.358398,45.984375 L129.331055,39.4335938 L126.858398,39.4335938 L126.858398,48 L128.481445,48 Z M139.625977,48.1171875 C140.137695,48.1171875 140.552734,48.0439453 140.871094,47.8974609 C141.189453,47.7509766 141.499023,47.4882812 141.799805,47.109375 L141.799805,47.109375 L141.84668,47.109375 L142.192383,48 L143.44043,48 L143.44043,43.6347656 C143.44043,42.8535156 143.206055,42.2714844 142.737305,41.8886719 C142.268555,41.5058594 141.594727,41.3144531 140.71582,41.3144531 C139.797852,41.3144531 138.961914,41.5117188 138.208008,41.90625 L138.208008,41.90625 L138.799805,43.1132812 C139.506836,42.796875 140.12207,42.6386719 140.645508,42.6386719 C141.325195,42.6386719 141.665039,42.9707031 141.665039,43.6347656 L141.665039,43.6347656 L141.665039,43.921875 L140.52832,43.9570312 C139.547852,43.9921875 138.814453,44.1748047 138.328125,44.5048828 C137.841797,44.8349609 137.598633,45.3476562 137.598633,46.0429688 C137.598633,46.7070312 137.779297,47.21875 138.140625,47.578125 C138.501953,47.9375 138.99707,48.1171875 139.625977,48.1171875 Z M140.299805,46.8105469 C139.72168,46.8105469 139.432617,46.5585938 139.432617,46.0546875 C139.432617,45.703125 139.55957,45.4414062 139.813477,45.2695312 C140.067383,45.0976562 140.454102,45.0039062 140.973633,44.9882812 L140.973633,44.9882812 L141.665039,44.9648438 L141.665039,45.5039062 C141.665039,45.8984375 141.541016,46.2148438 141.292969,46.453125 C141.044922,46.6914062 140.713867,46.8105469 140.299805,46.8105469 Z M146.176758,40.6347656 C146.500977,40.6347656 146.744141,40.5576172 146.90625,40.4033203 C147.068359,40.2490234 147.149414,40.0332031 147.149414,39.7558594 C147.149414,39.1738281 146.825195,38.8828125 146.176758,38.8828125 C145.52832,38.8828125 145.204102,39.1738281 145.204102,39.7558594 C145.204102,40.3417969 145.52832,40.6347656 146.176758,40.6347656 Z M147.067383,48 L147.067383,41.4492188 L145.280273,41.4492188 L145.280273,48 L147.067383,48 Z M150.729492,48 L150.729492,38.8828125 L148.942383,38.8828125 L148.942383,48 L150.729492,48 Z M154.520508,50.8828125 C155.71582,50.8828125 156.632812,50.671875 157.271484,50.25 C157.910156,49.828125 158.229492,49.234375 158.229492,48.46875 C158.229492,47.8710938 158.041016,47.4179688 157.664062,47.109375 C157.287109,46.8007812 156.739258,46.6464844 156.020508,46.6464844 L156.020508,46.6464844 L154.907227,46.6464844 C154.250977,46.6464844 153.922852,46.5175781 153.922852,46.2597656 C153.922852,46.0878906 154.014648,45.9316406 154.198242,45.7910156 L154.198242,45.7910156 L154.461914,45.8203125 L154.78418,45.8378906 C155.655273,45.8378906 156.335938,45.6416016 156.826172,45.2490234 C157.316406,44.8564453 157.561523,44.3085938 157.561523,43.6054688 C157.561523,43.2421875 157.467773,42.9140625 157.280273,42.6210938 L157.280273,42.6210938 L158.305664,42.3574219 L158.305664,41.4492188 L156.020508,41.4492188 C155.950195,41.4335938 155.789062,41.4091797 155.537109,41.3759766 C155.285156,41.3427734 155.067383,41.3261719 154.883789,41.3261719 C154.020508,41.3261719 153.356445,41.5214844 152.891602,41.9121094 C152.426758,42.3027344 152.194336,42.8554688 152.194336,43.5703125 C152.194336,44.015625 152.294922,44.4023438 152.496094,44.7304688 C152.697266,45.0585938 152.969727,45.296875 153.313477,45.4453125 C153.040039,45.6054688 152.831055,45.7685547 152.686523,45.9345703 C152.541992,46.1005859 152.469727,46.3085938 152.469727,46.5585938 C152.469727,46.7578125 152.538086,46.9462891 152.674805,47.1240234 C152.811523,47.3017578 152.97168,47.4296875 153.155273,47.5078125 C152.678711,47.6210938 152.317383,47.8105469 152.071289,48.0761719 C151.825195,48.3417969 151.702148,48.671875 151.702148,49.0664062 C151.702148,49.640625 151.943359,50.0869141 152.425781,50.4052734 C152.908203,50.7236328 153.606445,50.8828125 154.520508,50.8828125 Z M154.883789,44.7480469 C154.551758,44.7480469 154.304688,44.6445312 154.142578,44.4375 C153.980469,44.2304688 153.899414,43.9492188 153.899414,43.59375 C153.899414,42.8046875 154.227539,42.4101562 154.883789,42.4101562 C155.532227,42.4101562 155.856445,42.8046875 155.856445,43.59375 C155.856445,43.9492188 155.77832,44.2304688 155.62207,44.4375 C155.46582,44.6445312 155.219727,44.7480469 154.883789,44.7480469 Z M154.59668,49.7167969 C154.170898,49.7167969 153.839844,49.6464844 153.603516,49.5058594 C153.367188,49.3652344 153.249023,49.171875 153.249023,48.9257812 C153.249023,48.671875 153.359375,48.4677734 153.580078,48.3134766 C153.800781,48.1591797 154.075195,48.0820312 154.40332,48.0820312 L154.40332,48.0820312 L155.329102,48.0820312 C155.77832,48.0820312 156.110352,48.1289062 156.325195,48.2226562 C156.540039,48.3164062 156.647461,48.4863281 156.647461,48.7324219 C156.647461,49.0371094 156.46582,49.2773438 156.102539,49.453125 C155.739258,49.6289062 155.237305,49.7167969 154.59668,49.7167969 Z M161.674805,48.1171875 C162.124023,48.1171875 162.524414,48.0341797 162.875977,47.8681641 C163.227539,47.7021484 163.499023,47.4667969 163.69043,47.1621094 L163.69043,47.1621094 L163.78418,47.1621094 L164.024414,48 L165.395508,48 L165.395508,41.4492188 L163.608398,41.4492188 L163.608398,44.53125 C163.608398,45.3046875 163.49707,45.8583984 163.274414,46.1923828 C163.051758,46.5263672 162.69043,46.6933594 162.19043,46.6933594 C161.823242,46.6933594 161.555664,46.5751953 161.387695,46.3388672 C161.219727,46.1025391 161.135742,45.7480469 161.135742,45.2753906 L161.135742,45.2753906 L161.135742,41.4492188 L159.348633,41.4492188 L159.348633,45.7207031 C159.348633,46.4941406 159.543945,47.0869141 159.93457,47.4990234 C160.325195,47.9111328 160.905273,48.1171875 161.674805,48.1171875 Z M169.057617,48 L169.057617,44.9179688 C169.057617,44.1445312 169.168945,43.5908203 169.391602,43.2568359 C169.614258,42.9228516 169.975586,42.7558594 170.475586,42.7558594 C170.842773,42.7558594 171.110352,42.8740234 171.27832,43.1103516 C171.446289,43.3466797 171.530273,43.7011719 171.530273,44.1738281 L171.530273,44.1738281 L171.530273,48 L173.317383,48 L173.317383,43.7285156 C173.317383,42.9511719 173.120117,42.3564453 172.725586,41.9443359 C172.331055,41.5322266 171.75293,41.3261719 170.991211,41.3261719 C170.545898,41.3261719 170.148438,41.4072266 169.798828,41.5693359 C169.449219,41.7314453 169.174805,41.9707031 168.975586,42.2871094 L168.975586,42.2871094 L168.875977,42.2871094 L168.635742,41.4492188 L167.270508,41.4492188 L167.270508,48 L169.057617,48 Z" id="Mailgun" fill="#547580" fill-rule="nonzero"></path>
                </g>
                <g id="internal-network" transform="translate(0.000000, 202.000000)" stroke="#E0EAEC">
                    <rect id="Rectangle-Copy-11" x="0.5" y="0" width="300" height="232" rx="8"></rect>
                </g>
                <g id="backend" transform="translate(61.000000, 232.000000)">
                    <rect id="Rectangle-Copy-12" stroke="#E0EAEC" x="0" y="0" width="180" height="86" rx="8"></rect>
                    <rect id="Rectangle-Copy-13" stroke="#E0EAEC" x="0" y="0" width="180" height="86" rx="8"></rect>
                    <path d="M68.6572266,48 C69.6259766,48 70.3925781,47.78125 70.9570312,47.34375 C71.5214844,46.90625 71.8037109,46.296875 71.8037109,45.515625 C71.8037109,44.9648438 71.6835938,44.5234375 71.4433594,44.1914062 C71.203125,43.859375 70.8115234,43.6328125 70.2685547,43.5117188 L70.2685547,43.5117188 L70.2685547,43.453125 C70.6669922,43.3867188 70.9863281,43.1894531 71.2265625,42.8613281 C71.4667969,42.5332031 71.5869141,42.1132812 71.5869141,41.6015625 C71.5869141,40.8476562 71.3125,40.2978516 70.7636719,39.9521484 C70.2148438,39.6064453 69.3330078,39.4335938 68.1181641,39.4335938 L68.1181641,39.4335938 L65.4521484,39.4335938 L65.4521484,48 L68.6572266,48 Z M68.3232422,42.8261719 L67.2685547,42.8261719 L67.2685547,40.921875 L68.2236328,40.921875 C68.7431641,40.921875 69.1230469,40.9931641 69.3632812,41.1357422 C69.6035156,41.2783203 69.7236328,41.5136719 69.7236328,41.8417969 C69.7236328,42.1933594 69.6132812,42.4453125 69.3925781,42.5976562 C69.171875,42.75 68.8154297,42.8261719 68.3232422,42.8261719 L68.3232422,42.8261719 Z M68.4521484,46.5 L67.2685547,46.5 L67.2685547,44.2675781 L68.3935547,44.2675781 C69.4091797,44.2675781 69.9169922,44.6230469 69.9169922,45.3339844 C69.9169922,45.7285156 69.7978516,46.0214844 69.5595703,46.2128906 C69.3212891,46.4042969 68.9521484,46.5 68.4521484,46.5 L68.4521484,46.5 Z M74.9677734,48.1171875 C75.4794922,48.1171875 75.8945312,48.0439453 76.2128906,47.8974609 C76.53125,47.7509766 76.8408203,47.4882812 77.1416016,47.109375 L77.1416016,47.109375 L77.1884766,47.109375 L77.5341797,48 L78.7822266,48 L78.7822266,43.6347656 C78.7822266,42.8535156 78.5478516,42.2714844 78.0791016,41.8886719 C77.6103516,41.5058594 76.9365234,41.3144531 76.0576172,41.3144531 C75.1396484,41.3144531 74.3037109,41.5117188 73.5498047,41.90625 L73.5498047,41.90625 L74.1416016,43.1132812 C74.8486328,42.796875 75.4638672,42.6386719 75.9873047,42.6386719 C76.6669922,42.6386719 77.0068359,42.9707031 77.0068359,43.6347656 L77.0068359,43.6347656 L77.0068359,43.921875 L75.8701172,43.9570312 C74.8896484,43.9921875 74.15625,44.1748047 73.6699219,44.5048828 C73.1835938,44.8349609 72.9404297,45.3476562 72.9404297,46.0429688 C72.9404297,46.7070312 73.1210938,47.21875 73.4824219,47.578125 C73.84375,47.9375 74.3388672,48.1171875 74.9677734,48.1171875 Z M75.6416016,46.8105469 C75.0634766,46.8105469 74.7744141,46.5585938 74.7744141,46.0546875 C74.7744141,45.703125 74.9013672,45.4414062 75.1552734,45.2695312 C75.4091797,45.0976562 75.7958984,45.0039062 76.3154297,44.9882812 L76.3154297,44.9882812 L77.0068359,44.9648438 L77.0068359,45.5039062 C77.0068359,45.8984375 76.8828125,46.2148438 76.6347656,46.453125 C76.3867188,46.6914062 76.0556641,46.8105469 75.6416016,46.8105469 Z M83.2822266,48.1171875 C83.7314453,48.1171875 84.1035156,48.0820312 84.3984375,48.0117188 C84.6933594,47.9414062 84.9853516,47.8144531 85.2744141,47.6308594 L85.2744141,47.6308594 L85.2744141,46.1015625 C84.9814453,46.296875 84.6884766,46.4404297 84.3955078,46.5322266 C84.1025391,46.6240234 83.7841797,46.6699219 83.4404297,46.6699219 C82.5107422,46.6699219 82.0458984,46.0292969 82.0458984,44.7480469 C82.0458984,43.4277344 82.5107422,42.7675781 83.4404297,42.7675781 C83.6826172,42.7675781 83.9248047,42.8037109 84.1669922,42.8759766 C84.4091797,42.9482422 84.6708984,43.0410156 84.9521484,43.1542969 L84.9521484,43.1542969 L85.4794922,41.7714844 C84.8779297,41.4746094 84.1982422,41.3261719 83.4404297,41.3261719 C82.4052734,41.3261719 81.6103516,41.6201172 81.0556641,42.2080078 C80.5009766,42.7958984 80.2236328,43.6464844 80.2236328,44.7597656 C80.2236328,46.9980469 81.2431641,48.1171875 83.2822266,48.1171875 Z M88.5791016,48 L88.5791016,45.9609375 L89.3466797,45.3457031 L91.2333984,48 L93.2958984,48 L90.5361328,44.2910156 L93.1376953,41.4492188 L91.1220703,41.4492188 L89.2880859,43.4414062 L88.5087891,44.4375 L88.4853516,44.4375 L88.5791016,42.9492188 L88.5791016,38.8828125 L86.7919922,38.8828125 L86.7919922,48 L88.5791016,48 Z M96.9580078,48.1171875 C97.4697266,48.1171875 97.9033203,48.0791016 98.2587891,48.0029297 C98.6142578,47.9267578 98.9482422,47.8105469 99.2607422,47.6542969 L99.2607422,47.6542969 L99.2607422,46.2714844 C98.8779297,46.4511719 98.5107422,46.5820312 98.1591797,46.6640625 C97.8076172,46.7460938 97.4345703,46.7871094 97.0400391,46.7871094 C96.5322266,46.7871094 96.1376953,46.6445312 95.8564453,46.359375 C95.5751953,46.0742188 95.4248047,45.6777344 95.4052734,45.1699219 L95.4052734,45.1699219 L99.6298828,45.1699219 L99.6298828,44.3027344 C99.6298828,43.3730469 99.3720703,42.6445312 98.8564453,42.1171875 C98.3408203,41.5898438 97.6201172,41.3261719 96.6943359,41.3261719 C95.7255859,41.3261719 94.9667969,41.6259766 94.4179688,42.2255859 C93.8691406,42.8251953 93.5947266,43.6738281 93.5947266,44.7714844 C93.5947266,45.8378906 93.8916016,46.6621094 94.4853516,47.2441406 C95.0791016,47.8261719 95.9033203,48.1171875 96.9580078,48.1171875 Z M97.9541016,43.9804688 L95.4462891,43.9804688 C95.4775391,43.5390625 95.6005859,43.1982422 95.8154297,42.9580078 C96.0302734,42.7177734 96.3271484,42.5976562 96.7060547,42.5976562 C97.0849609,42.5976562 97.3857422,42.7177734 97.6083984,42.9580078 C97.8310547,43.1982422 97.9462891,43.5390625 97.9541016,43.9804688 L97.9541016,43.9804688 Z M102.870117,48 L102.870117,44.9179688 C102.870117,44.1445312 102.981445,43.5908203 103.204102,43.2568359 C103.426758,42.9228516 103.788086,42.7558594 104.288086,42.7558594 C104.655273,42.7558594 104.922852,42.8740234 105.09082,43.1103516 C105.258789,43.3466797 105.342773,43.7011719 105.342773,44.1738281 L105.342773,44.1738281 L105.342773,48 L107.129883,48 L107.129883,43.7285156 C107.129883,42.9511719 106.932617,42.3564453 106.538086,41.9443359 C106.143555,41.5322266 105.56543,41.3261719 104.803711,41.3261719 C104.358398,41.3261719 103.960938,41.4072266 103.611328,41.5693359 C103.261719,41.7314453 102.987305,41.9707031 102.788086,42.2871094 L102.788086,42.2871094 L102.688477,42.2871094 L102.448242,41.4492188 L101.083008,41.4492188 L101.083008,48 L102.870117,48 Z M111.043945,48.1171875 C111.875977,48.1171875 112.495117,47.7949219 112.901367,47.1503906 L112.901367,47.1503906 L112.977539,47.1503906 L113.323242,48 L114.694336,48 L114.694336,38.8828125 L112.901367,38.8828125 L112.901367,40.9804688 C112.901367,41.3632812 112.946289,41.7988281 113.036133,42.2871094 L113.036133,42.2871094 L112.977539,42.2871094 C112.543945,41.6464844 111.915039,41.3261719 111.09082,41.3261719 C110.305664,41.3261719 109.689453,41.6259766 109.242188,42.2255859 C108.794922,42.8251953 108.571289,43.6621094 108.571289,44.7363281 C108.571289,45.7949219 108.791016,46.6230469 109.230469,47.2207031 C109.669922,47.8183594 110.274414,48.1171875 111.043945,48.1171875 Z M111.670898,46.6933594 C111.256836,46.6933594 110.938477,46.5322266 110.71582,46.2099609 C110.493164,45.8876953 110.381836,45.4042969 110.381836,44.7597656 C110.381836,44.1152344 110.492188,43.6240234 110.712891,43.2861328 C110.933594,42.9482422 111.243164,42.7792969 111.641602,42.7792969 C112.129883,42.7792969 112.482422,42.9316406 112.699219,43.2363281 C112.916016,43.5410156 113.024414,44.0449219 113.024414,44.7480469 L113.024414,44.7480469 L113.024414,44.9414062 C113.004883,45.578125 112.888672,46.0292969 112.675781,46.2949219 C112.462891,46.5605469 112.12793,46.6933594 111.670898,46.6933594 Z" id="Backend" fill="#547580" fill-rule="nonzero"></path>
                </g>
                <g id="DB" transform="translate(61.000000, 347.000000)">
                    <path d="M26.53125,36 C28.046875,36 29.2060547,35.625 30.0087891,34.875 C30.8115234,34.125 31.2128906,33.0449219 31.2128906,31.6347656 C31.2128906,30.3105469 30.8261719,29.2792969 30.0527344,28.5410156 C29.2792969,27.8027344 28.1933594,27.4335938 26.7949219,27.4335938 L26.7949219,27.4335938 L24.1054688,27.4335938 L24.1054688,36 L26.53125,36 Z M26.7011719,34.5 L25.921875,34.5 L25.921875,28.921875 L26.8886719,28.921875 C28.5136719,28.921875 29.3261719,29.8417969 29.3261719,31.6816406 C29.3261719,33.5605469 28.4511719,34.5 26.7011719,34.5 L26.7011719,34.5 Z M36.1933594,36 C37.1621094,36 37.9287109,35.78125 38.4931641,35.34375 C39.0576172,34.90625 39.3398438,34.296875 39.3398438,33.515625 C39.3398438,32.9648438 39.2197266,32.5234375 38.9794922,32.1914062 C38.7392578,31.859375 38.3476562,31.6328125 37.8046875,31.5117188 L37.8046875,31.5117188 L37.8046875,31.453125 C38.203125,31.3867188 38.5224609,31.1894531 38.7626953,30.8613281 C39.0029297,30.5332031 39.1230469,30.1132812 39.1230469,29.6015625 C39.1230469,28.8476562 38.8486328,28.2978516 38.2998047,27.9521484 C37.7509766,27.6064453 36.8691406,27.4335938 35.6542969,27.4335938 L35.6542969,27.4335938 L32.9882812,27.4335938 L32.9882812,36 L36.1933594,36 Z M35.859375,30.8261719 L34.8046875,30.8261719 L34.8046875,28.921875 L35.7597656,28.921875 C36.2792969,28.921875 36.6591797,28.9931641 36.8994141,29.1357422 C37.1396484,29.2783203 37.2597656,29.5136719 37.2597656,29.8417969 C37.2597656,30.1933594 37.1494141,30.4453125 36.9287109,30.5976562 C36.7080078,30.75 36.3515625,30.8261719 35.859375,30.8261719 L35.859375,30.8261719 Z M35.9882812,34.5 L34.8046875,34.5 L34.8046875,32.2675781 L35.9296875,32.2675781 C36.9453125,32.2675781 37.453125,32.6230469 37.453125,33.3339844 C37.453125,33.7285156 37.3339844,34.0214844 37.0957031,34.2128906 C36.8574219,34.4042969 36.4882812,34.5 35.9882812,34.5 L35.9882812,34.5 Z" fill="#547580" fill-rule="nonzero"></path>
                    <line x1="0.5" y1="5.46078431" x2="0.5" y2="51.5392157" id="Line-2" stroke="#E0EAEC" stroke-linecap="square"></line>
                    <line x1="62.5" y1="5.46078431" x2="62.5" y2="51.5392157" id="Line-2-Copy" stroke="#E0EAEC" stroke-linecap="square"></line>
                    <path d="M0.5,5 C21.1666667,11.6666667 41.8333333,11.6666667 62.5,5" id="Path" stroke="#E0EAEC"></path>
                    <path d="M0.5,52 C21.1666667,58.6666667 41.8333333,58.6666667 62.5,52" id="Path-Copy-2" stroke="#E0EAEC" stroke-linecap="round"></path>
                    <path d="M0.5,0 C21.1666667,6.66666667 41.8333333,6.66666667 62.5,0" id="Path-Copy" stroke="#E0EAEC" stroke-linecap="round" transform="translate(31.500000, 2.500000) scale(1, -1) translate(-31.500000, -2.500000) "></path>
                </g>
                <g id="arrows" transform="translate(91.125000, 142.000000)" fill="#E0EAEC" fill-rule="nonzero">
                    <path id="Line" d="M59.8718455,-0.00313470334 L59.8749901,0.496855408 L60.321,71.496 L64.3214529,71.4718668 L59.8781446,80.4999901 L55.3216309,71.5284694 L59.321,71.503 L58.8750099,0.503144592 L58.8718653,0.00315448045 L59.8718455,-0.00313470334 Z"></path>
                    <path id="Line-Copy-4" d="M59.125939,185.749063 L60.1259372,185.750939 L60.1249991,186.250938 L59.891,311 L63.8909395,311.008458 L59.3740619,319.999999 L54.8909554,310.991572 L58.891,310.999 L59.1250009,186.249062 L59.125939,185.749063 Z"></path>
                    <path id="Line-Copy-2" d="M1.24729734,178.875007 L5.79587953,187.850552 L1.796,187.872 L1.828,193.997 L5.82898899,193.9758 L1.37770266,202.999993 L-3.17087953,194.024448 L0.828,194.002 L0.796,187.877 L-3.20398899,187.8992 L1.24729734,178.875007 Z"></path>
                </g>
                <g id="browser">
                    <g id="form" transform="translate(32.000000, 47.000000)">
                        <rect id="Rectangle" stroke="#E0EAEC" fill="#FFFFFF" x="0" y="0" width="234" height="29" rx="8"></rect>
                        <rect id="fld1-copy-4" stroke="#86ABB8" stroke-width="2" fill="#547580" x="0" y="48" width="234" height="33" rx="4"></rect>
                        <path d="M72.921875,69.1757812 C73.9472656,69.1757812 74.8408203,69.0043945 75.6025391,68.6616211 C76.3642578,68.3188477 76.9472656,67.8383789 77.3515625,67.2202148 C77.7558594,66.6020508 77.9580078,65.8945312 77.9580078,65.0976562 C77.9580078,64.2304688 77.7426758,63.5112305 77.3120117,62.9399414 C76.8813477,62.3686523 76.1123047,61.8339844 75.0048828,61.3359375 C73.8505859,60.8085938 73.1430664,60.4453125 72.8823242,60.2460938 C72.621582,60.046875 72.4912109,59.8212891 72.4912109,59.5693359 C72.4912109,59.3349609 72.59375,59.1386719 72.7988281,58.9804688 C73.0039062,58.8222656 73.3320312,58.7431641 73.7832031,58.7431641 C74.65625,58.7431641 75.6933594,59.0185547 76.8945312,59.5693359 L76.8945312,59.5693359 L77.9580078,56.8886719 C76.5751953,56.2734375 75.21875,55.9658203 73.8886719,55.9658203 C72.3828125,55.9658203 71.1992188,56.296875 70.3378906,56.9589844 C69.4765625,57.6210938 69.0458984,58.5439453 69.0458984,59.7275391 C69.0458984,60.3603516 69.1469727,60.9082031 69.3491211,61.3710938 C69.5512695,61.8339844 69.8618164,62.2441406 70.2807617,62.6015625 C70.699707,62.9589844 71.328125,63.328125 72.1660156,63.7089844 C73.0917969,64.125 73.6616211,64.4003906 73.8754883,64.5351562 C74.0893555,64.6699219 74.2446289,64.8032227 74.3413086,64.9350586 C74.4379883,65.0668945 74.4863281,65.2207031 74.4863281,65.3964844 C74.4863281,65.6777344 74.3662109,65.9077148 74.1259766,66.0864258 C73.8857422,66.2651367 73.5078125,66.3544922 72.9921875,66.3544922 C72.3945312,66.3544922 71.7382812,66.2592773 71.0234375,66.0688477 C70.3085938,65.878418 69.6201172,65.6132812 68.9580078,65.2734375 L68.9580078,65.2734375 L68.9580078,68.3671875 C69.5849609,68.6660156 70.1884766,68.8754883 70.7685547,68.9956055 C71.3486328,69.1157227 72.0664062,69.1757812 72.921875,69.1757812 Z M85.3232422,69.1757812 C87.1162109,69.1757812 88.4887695,68.7143555 89.440918,67.7915039 C90.3930664,66.8686523 90.8691406,65.5664062 90.8691406,63.8847656 L90.8691406,63.8847656 L90.8691406,56.1503906 L87.3974609,56.1503906 L87.3974609,63.6738281 C87.3974609,64.5996094 87.237793,65.2661133 86.918457,65.6733398 C86.5991211,66.0805664 86.0849609,66.2841797 85.3759766,66.2841797 C84.7138672,66.2841797 84.2128906,66.0791016 83.8730469,65.6689453 C83.5332031,65.2587891 83.3632812,64.5996094 83.3632812,63.6914062 L83.3632812,63.6914062 L83.3632812,56.1503906 L79.8740234,56.1503906 L79.8740234,63.9638672 C79.8740234,65.6455078 80.3442383,66.9345703 81.284668,67.8310547 C82.2250977,68.7275391 83.5712891,69.1757812 85.3232422,69.1757812 Z M98.5683594,69 C100.080078,69 101.273926,68.6645508 102.149902,67.9936523 C103.025879,67.3227539 103.463867,66.4042969 103.463867,65.2382812 C103.463867,64.453125 103.285156,63.8144531 102.927734,63.3222656 C102.570312,62.8300781 101.993164,62.4785156 101.196289,62.2675781 L101.196289,62.2675781 L101.196289,62.1796875 C101.799805,62.0332031 102.286133,61.7050781 102.655273,61.1953125 C103.024414,60.6855469 103.208984,60.0703125 103.208984,59.3496094 C103.208984,58.2539062 102.785645,57.4467773 101.938965,56.9282227 C101.092285,56.409668 99.7958984,56.1503906 98.0498047,56.1503906 L98.0498047,56.1503906 L93.5673828,56.1503906 L93.5673828,69 L98.5683594,69 Z M98.0849609,61.0810547 L97.0390625,61.0810547 L97.0390625,58.7783203 L98.0146484,58.7783203 C99.1044922,58.7783203 99.6494141,59.1386719 99.6494141,59.859375 C99.6494141,60.2636719 99.5131836,60.5683594 99.2407227,60.7734375 C98.9682617,60.9785156 98.5830078,61.0810547 98.0849609,61.0810547 L98.0849609,61.0810547 Z M98.2607422,66.3193359 L97.0390625,66.3193359 L97.0390625,63.6210938 L98.1904297,63.6210938 C98.7412109,63.6210938 99.1616211,63.7353516 99.4516602,63.9638672 C99.7416992,64.1923828 99.8867188,64.5205078 99.8867188,64.9482422 C99.8867188,65.8623047 99.3447266,66.3193359 98.2607422,66.3193359 L98.2607422,66.3193359 Z M109.0625,69.1757812 C110.087891,69.1757812 110.981445,69.0043945 111.743164,68.6616211 C112.504883,68.3188477 113.087891,67.8383789 113.492188,67.2202148 C113.896484,66.6020508 114.098633,65.8945312 114.098633,65.0976562 C114.098633,64.2304688 113.883301,63.5112305 113.452637,62.9399414 C113.021973,62.3686523 112.25293,61.8339844 111.145508,61.3359375 C109.991211,60.8085938 109.283691,60.4453125 109.022949,60.2460938 C108.762207,60.046875 108.631836,59.8212891 108.631836,59.5693359 C108.631836,59.3349609 108.734375,59.1386719 108.939453,58.9804688 C109.144531,58.8222656 109.472656,58.7431641 109.923828,58.7431641 C110.796875,58.7431641 111.833984,59.0185547 113.035156,59.5693359 L113.035156,59.5693359 L114.098633,56.8886719 C112.71582,56.2734375 111.359375,55.9658203 110.029297,55.9658203 C108.523438,55.9658203 107.339844,56.296875 106.478516,56.9589844 C105.617188,57.6210938 105.186523,58.5439453 105.186523,59.7275391 C105.186523,60.3603516 105.287598,60.9082031 105.489746,61.3710938 C105.691895,61.8339844 106.002441,62.2441406 106.421387,62.6015625 C106.840332,62.9589844 107.46875,63.328125 108.306641,63.7089844 C109.232422,64.125 109.802246,64.4003906 110.016113,64.5351562 C110.22998,64.6699219 110.385254,64.8032227 110.481934,64.9350586 C110.578613,65.0668945 110.626953,65.2207031 110.626953,65.3964844 C110.626953,65.6777344 110.506836,65.9077148 110.266602,66.0864258 C110.026367,66.2651367 109.648438,66.3544922 109.132812,66.3544922 C108.535156,66.3544922 107.878906,66.2592773 107.164062,66.0688477 C106.449219,65.878418 105.760742,65.6132812 105.098633,65.2734375 L105.098633,65.2734375 L105.098633,68.3671875 C105.725586,68.6660156 106.329102,68.8754883 106.90918,68.9956055 C107.489258,69.1157227 108.207031,69.1757812 109.0625,69.1757812 Z M121.62207,69.1757812 C122.975586,69.1757812 124.188477,68.9384766 125.260742,68.4638672 L125.260742,68.4638672 L125.260742,65.5283203 C124.72168,65.7509766 124.185547,65.9414062 123.652344,66.0996094 C123.119141,66.2578125 122.568359,66.3369141 122,66.3369141 C120.119141,66.3369141 119.178711,65.1005859 119.178711,62.6279297 C119.178711,61.4384766 119.410156,60.5053711 119.873047,59.8286133 C120.335938,59.1518555 120.980469,58.8134766 121.806641,58.8134766 C122.351562,58.8134766 122.861328,58.8896484 123.335938,59.0419922 C123.810547,59.1943359 124.285156,59.3818359 124.759766,59.6044922 L124.759766,59.6044922 L125.823242,56.8710938 C124.557617,56.2675781 123.230469,55.9658203 121.841797,55.9658203 C120.570312,55.9658203 119.464355,56.2368164 118.523926,56.7788086 C117.583496,57.3208008 116.862793,58.0957031 116.361816,59.1035156 C115.86084,60.1113281 115.610352,61.2802734 115.610352,62.6103516 C115.610352,64.7373047 116.127441,66.3632812 117.161621,67.4882812 C118.195801,68.6132812 119.682617,69.1757812 121.62207,69.1757812 Z M131.237305,69 L131.237305,64.3242188 L132.116211,64.3242188 L134.84082,69 L138.77832,69 L135.03418,63.4013672 C136.487305,62.5869141 137.213867,61.4355469 137.213867,59.9472656 C137.213867,57.4160156 135.467773,56.1503906 131.975586,56.1503906 L131.975586,56.1503906 L127.765625,56.1503906 L127.765625,69 L131.237305,69 Z M131.887695,61.7138672 L131.237305,61.7138672 L131.237305,58.7783203 L131.922852,58.7783203 C133.112305,58.7783203 133.707031,59.2207031 133.707031,60.1054688 C133.707031,61.1777344 133.100586,61.7138672 131.887695,61.7138672 L131.887695,61.7138672 Z M143.436523,69 L143.436523,56.1503906 L139.947266,56.1503906 L139.947266,69 L143.436523,69 Z M151.214844,69 C152.726562,69 153.92041,68.6645508 154.796387,67.9936523 C155.672363,67.3227539 156.110352,66.4042969 156.110352,65.2382812 C156.110352,64.453125 155.931641,63.8144531 155.574219,63.3222656 C155.216797,62.8300781 154.639648,62.4785156 153.842773,62.2675781 L153.842773,62.2675781 L153.842773,62.1796875 C154.446289,62.0332031 154.932617,61.7050781 155.301758,61.1953125 C155.670898,60.6855469 155.855469,60.0703125 155.855469,59.3496094 C155.855469,58.2539062 155.432129,57.4467773 154.585449,56.9282227 C153.73877,56.409668 152.442383,56.1503906 150.696289,56.1503906 L150.696289,56.1503906 L146.213867,56.1503906 L146.213867,69 L151.214844,69 Z M150.731445,61.0810547 L149.685547,61.0810547 L149.685547,58.7783203 L150.661133,58.7783203 C151.750977,58.7783203 152.295898,59.1386719 152.295898,59.859375 C152.295898,60.2636719 152.159668,60.5683594 151.887207,60.7734375 C151.614746,60.9785156 151.229492,61.0810547 150.731445,61.0810547 L150.731445,61.0810547 Z M150.907227,66.3193359 L149.685547,66.3193359 L149.685547,63.6210938 L150.836914,63.6210938 C151.387695,63.6210938 151.808105,63.7353516 152.098145,63.9638672 C152.388184,64.1923828 152.533203,64.5205078 152.533203,64.9482422 C152.533203,65.8623047 151.991211,66.3193359 150.907227,66.3193359 L150.907227,66.3193359 Z M165.97168,69 L165.97168,66.1699219 L161.814453,66.1699219 L161.814453,63.7441406 L165.664062,63.7441406 L165.664062,60.9580078 L161.814453,60.9580078 L161.814453,58.9365234 L165.97168,58.9365234 L165.97168,56.1503906 L158.342773,56.1503906 L158.342773,69 L165.97168,69 Z" id="SUBSCRIBE" fill="#FFFFFF" fill-rule="nonzero"></path>
                    </g>
                    <rect id="Rectangle" fill="#547580" x="0" y="0" width="300" height="16" rx="8"></rect>
                    <rect id="Rectangle-Copy-2" fill="#FFFFFF" x="56" y="3" width="189" height="10" rx="5"></rect>
                    <circle id="Oval" fill="#FF6159" cx="9.5" cy="8.5" r="4.5"></circle>
                    <circle id="Oval-Copy-4" fill="#FFBF2F" cx="20.5" cy="8.5" r="4.5"></circle>
                    <circle id="v" fill="#28CA42" cx="32.5" cy="8.5" r="4.5"></circle>
                    <rect id="Rectangle" stroke="#E0EAEC" x="0" y="0" width="300" height="161" rx="8"></rect>
                </g>
            </g>
        </g>
    </g>
</svg>